<?xml version="1.0" encoding="utf-8"?>
<!-- Generator: Adobe Illustrator 23.0.0, SVG Export Plug-In . SVG Version: 6.00 Build 0)  -->
<svg version="1.1" id="Calque_1" xmlns="http://www.w3.org/2000/svg" xmlns:xlink="http://www.w3.org/1999/xlink" x="0px" y="0px"
	 viewBox="0 0 167.53 124.92" style="enable-background:new 0 0 167.53 124.92;" xml:space="preserve">
<style type="text/css">
	.st0{clip-path:url(#SVGID_2_);}
	.st1{clip-path:url(#SVGID_4_);}
	.st2{fill-rule:evenodd;clip-rule:evenodd;fill:#1C3377;}
	.st3{fill-rule:evenodd;clip-rule:evenodd;fill:#328F3F;}
	.st4{fill-rule:evenodd;clip-rule:evenodd;fill:none;}
	.st5{fill-rule:evenodd;clip-rule:evenodd;fill:#0018A8;}
	.st6{fill-rule:evenodd;clip-rule:evenodd;fill:#00927B;}
	.st7{fill-rule:evenodd;clip-rule:evenodd;fill:#D13139;}
	.st8{clip-path:url(#SVGID_8_);fill-rule:evenodd;clip-rule:evenodd;fill:#FFDE7F;}
	.st9{clip-path:url(#SVGID_8_);fill-rule:evenodd;clip-rule:evenodd;fill:#86BBE7;}
	.st10{fill-rule:evenodd;clip-rule:evenodd;fill:#3A3A42;}
	.st11{fill-rule:evenodd;clip-rule:evenodd;fill:#562873;}
	.st12{fill-rule:evenodd;clip-rule:evenodd;fill:#014787;}
	.st13{clip-path:url(#SVGID_10_);}
	.st14{clip-path:url(#SVGID_12_);}
	.st15{fill-rule:evenodd;clip-rule:evenodd;}
	.st16{fill-rule:evenodd;clip-rule:evenodd;fill:#A81616;}
	.st17{fill-rule:evenodd;clip-rule:evenodd;fill:#0FDCB5;}
	.st18{fill-rule:evenodd;clip-rule:evenodd;fill:#FF4785;}
	.st19{fill-rule:evenodd;clip-rule:evenodd;fill:#2D32AA;}
	.st20{fill-rule:evenodd;clip-rule:evenodd;fill:#3A97B8;}
	.st21{fill:none;stroke:#000000;stroke-width:0.5669;stroke-miterlimit:22.9256;}
	.st22{fill-rule:evenodd;clip-rule:evenodd;fill:#003853;}
	.st23{fill-rule:evenodd;clip-rule:evenodd;fill:#FEB3C7;}
	.st24{fill-rule:evenodd;clip-rule:evenodd;fill:#FF6500;}
	.st25{clip-path:url(#SVGID_16_);fill-rule:evenodd;clip-rule:evenodd;fill:#FFFEFE;}
	.st26{clip-path:url(#SVGID_16_);fill-rule:evenodd;clip-rule:evenodd;fill:#FF6200;}
	.st27{fill-rule:evenodd;clip-rule:evenodd;fill:#CCD905;}
	.st28{fill-rule:evenodd;clip-rule:evenodd;fill:#00ADEF;}
	.st29{fill-rule:evenodd;clip-rule:evenodd;fill:#009CDE;}
	.st30{fill-rule:evenodd;clip-rule:evenodd;fill:#FFFFFF;}
	.st31{fill-rule:evenodd;clip-rule:evenodd;fill:#377F7B;}
	.st32{fill-rule:evenodd;clip-rule:evenodd;fill:#1A1A1A;}
	.st33{fill:#FFFFFF;}
	.st34{fill:none;stroke:#FFFFFF;stroke-width:0.5669;stroke-miterlimit:22.9256;}
	.st35{fill-rule:evenodd;clip-rule:evenodd;fill:#009287;}
	.st36{fill-rule:evenodd;clip-rule:evenodd;fill:#99E1DE;}
	.st37{fill-rule:evenodd;clip-rule:evenodd;fill:#00A1E9;}
	.st38{fill-rule:evenodd;clip-rule:evenodd;fill:#016FD0;}
	.st39{fill-rule:evenodd;clip-rule:evenodd;fill:#FEFEFF;}
	.st40{fill-rule:evenodd;clip-rule:evenodd;fill:#8ABDE9;}
	.st41{fill-rule:evenodd;clip-rule:evenodd;fill:#EF533D;}
	.st42{clip-path:url(#SVGID_18_);fill:url(#SVGID_19_);}
	.st43{clip-path:url(#SVGID_21_);fill:url(#SVGID_22_);}
	.st44{fill-rule:evenodd;clip-rule:evenodd;fill:#1D3663;}
	.st45{fill-rule:evenodd;clip-rule:evenodd;fill:#FEFEFE;}
	.st46{fill-rule:evenodd;clip-rule:evenodd;fill:#EDEDED;}
	.st47{fill-rule:evenodd;clip-rule:evenodd;fill:#C30044;}
	.st48{fill-rule:evenodd;clip-rule:evenodd;fill:#FFDD00;}
	.st49{clip-path:url(#SVGID_24_);fill-rule:evenodd;clip-rule:evenodd;fill:#2F9B46;}
	.st50{clip-path:url(#SVGID_24_);fill-rule:evenodd;clip-rule:evenodd;fill:#60B54D;}
	.st51{clip-path:url(#SVGID_24_);fill-rule:evenodd;clip-rule:evenodd;fill:#89CC53;}
	.st52{clip-path:url(#SVGID_24_);fill-rule:evenodd;clip-rule:evenodd;fill:#3CB8AD;}
	.st53{clip-path:url(#SVGID_24_);fill-rule:evenodd;clip-rule:evenodd;fill:#3394D7;}
	.st54{clip-path:url(#SVGID_24_);fill:none;stroke:#3394D7;stroke-width:0.216;stroke-miterlimit:22.9256;}
	.st55{clip-path:url(#SVGID_24_);fill-rule:evenodd;clip-rule:evenodd;fill:#2772BC;}
	.st56{clip-path:url(#SVGID_24_);fill-rule:evenodd;clip-rule:evenodd;fill:#1B5B83;}
	.st57{clip-path:url(#SVGID_24_);fill-rule:evenodd;clip-rule:evenodd;fill:#993233;}
	.st58{clip-path:url(#SVGID_24_);fill-rule:evenodd;clip-rule:evenodd;fill:#E13030;}
	.st59{clip-path:url(#SVGID_24_);fill-rule:evenodd;clip-rule:evenodd;fill:#F28824;}
	.st60{clip-path:url(#SVGID_24_);fill-rule:evenodd;clip-rule:evenodd;fill:#F5C836;}
	.st61{clip-path:url(#SVGID_24_);fill-rule:evenodd;clip-rule:evenodd;fill:#238647;}
	.st62{clip-path:url(#SVGID_24_);fill-rule:evenodd;clip-rule:evenodd;fill:#EDEDED;}
	.st63{clip-path:url(#SVGID_26_);fill:url(#SVGID_27_);}
	.st64{fill-rule:evenodd;clip-rule:evenodd;fill:#184285;}
	.st65{fill-rule:evenodd;clip-rule:evenodd;fill:#B2DBF4;}
	.st66{fill-rule:evenodd;clip-rule:evenodd;fill:#68BCEB;}
	.st67{fill-rule:evenodd;clip-rule:evenodd;fill:#FDFEFE;}
	.st68{fill-rule:evenodd;clip-rule:evenodd;fill:#1E4A8F;}
	.st69{filter:url(#Adobe_OpacityMaskFilter);}
	.st70{clip-path:url(#SVGID_29_);fill:url(#SVGID_31_);}
	.st71{clip-path:url(#SVGID_29_);mask:url(#SVGID_30_);fill:url(#SVGID_32_);}
	.st72{fill-rule:evenodd;clip-rule:evenodd;fill:#748DB6;}
	.st73{fill-rule:evenodd;clip-rule:evenodd;fill:#1A458A;}
	.st74{fill-rule:evenodd;clip-rule:evenodd;fill:#8097BC;}
	.st75{clip-path:url(#SVGID_34_);fill-rule:evenodd;clip-rule:evenodd;fill:#2FACDD;}
	.st76{clip-path:url(#SVGID_34_);fill-rule:evenodd;clip-rule:evenodd;fill:#F49332;}
	.st77{clip-path:url(#SVGID_34_);fill-rule:evenodd;clip-rule:evenodd;fill:#F7A859;}
	.st78{clip-path:url(#SVGID_34_);fill-rule:evenodd;clip-rule:evenodd;fill:#5EC7DC;}
	.st79{clip-path:url(#SVGID_34_);fill-rule:evenodd;clip-rule:evenodd;fill:#32BAE2;}
	.st80{fill-rule:evenodd;clip-rule:evenodd;fill:#E61E28;}
	.st81{fill-rule:evenodd;clip-rule:evenodd;fill:#C8036F;}
	.st82{clip-path:url(#SVGID_36_);fill:url(#SVGID_37_);}
	.st83{fill-rule:evenodd;clip-rule:evenodd;fill:#000267;}
	.st84{fill-rule:evenodd;clip-rule:evenodd;fill:#EC2528;}
	.st85{fill-rule:evenodd;clip-rule:evenodd;fill:#005FA1;}
	.st86{clip-path:url(#SVGID_39_);fill-rule:evenodd;clip-rule:evenodd;fill:#FFFFFF;}
	.st87{fill-rule:evenodd;clip-rule:evenodd;fill:#CB0065;}
	.st88{fill-rule:evenodd;clip-rule:evenodd;fill:#CB0064;}
	.st89{fill-rule:evenodd;clip-rule:evenodd;fill:#112F77;}
	.st90{fill-rule:evenodd;clip-rule:evenodd;fill:#32ECC5;}
	.st91{fill-rule:evenodd;clip-rule:evenodd;fill:#F46717;}
	.st92{fill-rule:evenodd;clip-rule:evenodd;fill:#001254;}
	.st93{fill-rule:evenodd;clip-rule:evenodd;fill:#E5E5E5;}
	.st94{fill-rule:evenodd;clip-rule:evenodd;fill:#EA001B;}
	.st95{fill-rule:evenodd;clip-rule:evenodd;fill:#00A0E2;}
	.st96{fill-rule:evenodd;clip-rule:evenodd;fill:#7375CF;}
	.st97{fill-rule:evenodd;clip-rule:evenodd;fill:#00A1E5;}
	.st98{fill-rule:evenodd;clip-rule:evenodd;fill:#00A2E4;}
	.st99{fill-rule:evenodd;clip-rule:evenodd;fill:#FF0015;}
	.st100{fill-rule:evenodd;clip-rule:evenodd;fill:#FF9F00;}
	.st101{fill-rule:evenodd;clip-rule:evenodd;fill:#FE5E00;}
	.st102{fill-rule:evenodd;clip-rule:evenodd;fill:#2AAACD;}
	.st103{fill-rule:evenodd;clip-rule:evenodd;fill:#D30D47;}
	.st104{fill-rule:evenodd;clip-rule:evenodd;fill:#555390;}
	.st105{fill-rule:evenodd;clip-rule:evenodd;fill:#F9B92E;}
	.st106{fill-rule:evenodd;clip-rule:evenodd;fill:#009FE3;}
	.st107{fill-rule:evenodd;clip-rule:evenodd;fill:#DA0812;}
	.st108{clip-path:url(#SVGID_41_);}
	.st109{clip-path:url(#SVGID_45_);}
	.st110{clip-path:url(#SVGID_47_);}
	.st111{clip-path:url(#SVGID_51_);}
	.st112{clip-path:url(#SVGID_55_);fill-rule:evenodd;clip-rule:evenodd;fill:#FF6600;}
	.st113{fill-rule:evenodd;clip-rule:evenodd;fill:#020399;}
	.st114{fill-rule:evenodd;clip-rule:evenodd;fill:#D90801;}
	.st115{clip-path:url(#SVGID_57_);}
	.st116{clip-path:url(#SVGID_59_);}
	.st117{clip-path:url(#SVGID_63_);}
	.st118{clip-path:url(#SVGID_65_);}
	.st119{clip-path:url(#SVGID_69_);}
	.st120{fill-rule:evenodd;clip-rule:evenodd;fill:#002F3F;}
	.st121{fill-rule:evenodd;clip-rule:evenodd;fill:#0DE06F;}
	.st122{fill-rule:evenodd;clip-rule:evenodd;fill:#2B2F76;}
	.st123{clip-path:url(#SVGID_73_);}
	.st124{clip-path:url(#SVGID_77_);}
	.st125{clip-path:url(#SVGID_81_);fill-rule:evenodd;clip-rule:evenodd;fill:#65377F;}
	.st126{clip-path:url(#SVGID_81_);fill-rule:evenodd;clip-rule:evenodd;fill:#742693;}
	.st127{clip-path:url(#SVGID_81_);fill-rule:evenodd;clip-rule:evenodd;fill:#A32795;}
	.st128{clip-path:url(#SVGID_81_);fill-rule:evenodd;clip-rule:evenodd;fill:#723583;}
	.st129{clip-path:url(#SVGID_81_);fill-rule:evenodd;clip-rule:evenodd;fill:#7F2C7E;}
	.st130{clip-path:url(#SVGID_83_);}
	.st131{clip-path:url(#SVGID_85_);}
</style>
<path class="st17" d="M11.84,0h143.85c6.51,0,11.84,5.33,11.84,11.84v101.25c0,6.51-5.33,11.84-11.84,11.84H11.84
	C5.33,124.92,0,119.6,0,113.09V11.84C0,5.33,5.33,0,11.84,0"/>
<path class="st33" d="M112.06,49.14c2.29-2.34,5.03-3.51,8.22-3.51c3.88,0,6.95,1.46,9.2,4.38c0.98,1.33,1.68,2.75,2.09,4.28
	c0.41,1.52,0.61,3.5,0.61,5.93v15.78h-6.99V60.75c0-3.18-0.39-5.39-1.17-6.63c-0.7-1.1-1.8-1.66-3.31-1.66
	c-1.8,0-3.15,0.66-4.05,1.99c-0.78,1.15-1.17,3.45-1.17,6.9v14.65h-6.99V60.75c0-3.18-0.41-5.39-1.23-6.63
	c-0.7-1.1-1.8-1.66-3.31-1.66c-1.8,0-3.17,0.68-4.11,2.06c-0.78,1.11-1.17,3.38-1.17,6.83v14.65H91.7l-0.05-31.01l7.04,3.17
	c1.02-0.97,1.96-1.64,2.82-1.99c0.86-0.35,1.9-0.53,3.13-0.53C107.38,45.63,109.85,46.8,112.06,49.14"/>
<path class="st33" d="M81.39,44.7c1.28,0,2.37,0.44,3.26,1.31c0.9,0.87,1.34,1.93,1.34,3.17c0,1.28-0.45,2.36-1.34,3.23
	c-0.9,0.87-1.98,1.31-3.26,1.31c-1.24,0-2.3-0.44-3.2-1.31c-0.9-0.87-1.34-1.95-1.34-3.23c0-1.24,0.45-2.29,1.34-3.17
	C79.09,45.13,80.15,44.7,81.39,44.7"/>
<rect x="78.16" y="58.56" class="st33" width="6.17" height="17.38"/>
<path class="st33" d="M40.84,45.29l7.29,1.79c1.32-1.02,2.56-1.74,3.71-2.14c1.15-0.41,2.45-0.61,3.9-0.61
	c4.43,0,8.12,1.66,11.07,4.99c2.56,2.86,3.84,6.25,3.84,10.17c0,4.48-1.62,8.21-4.86,11.19c-2.86,2.6-6.2,3.9-10.04,3.9
	c-1.45,0-2.75-0.21-3.9-0.64c-1.15-0.43-2.39-1.13-3.71-2.11v16.69h-7.29V45.29z M55.62,67.93c2.43,0,4.37-0.87,5.82-2.62
	c1.24-1.58,1.85-3.52,1.85-5.82c0-2.69-0.81-4.84-2.43-6.46c-1.41-1.41-3.16-2.11-5.24-2.11c-2.39,0-4.29,0.9-5.69,2.69
	c-1.24,1.58-1.85,3.54-1.85,5.88c0,2.69,0.79,4.82,2.37,6.4C51.8,67.25,53.53,67.93,55.62,67.93z"/>
<path class="st30" d="M120.06,84.67c-0.61,0-1.21,0-2.79-0.02c-1.58-0.02-4.13-0.06-5.34,0c-1.21,0.06-1.09,0.22-3.06,1.91
	c-1.97,1.69-6.03,4.9-9.31,7.22c-3.28,2.33-5.77,3.77-7.34,4.55c-1.57,0.78-2.22,0.9-2.97,1.03c-0.75,0.12-1.6,0.25-3.68-0.5
	c-2.08-0.75-5.4-2.37-8.9-4.9c-3.5-2.53-7.18-5.97-9.12-7.73c-1.94-1.76-2.14-1.84-3.64-1.88c-1.5-0.04-4.29-0.04-5.83-0.04
	s-1.82,0-1.78,0.14c0.04,0.14,0.4,0.42,2.83,3.04c2.43,2.61,6.92,7.55,11.64,11.3c4.71,3.74,9.64,6.29,12.62,7.58
	c2.97,1.29,3.98,1.33,5.12,1.29c1.13-0.04,2.39-0.16,6.03-2.04c3.64-1.88,9.67-5.52,13.88-8.76c4.21-3.24,6.59-6.07,8.23-8.03
	C118.28,86.85,119.17,85.76,120.06,84.67"/>
<path class="st30" d="M119.82,36.64c0.35,0.04,0.7,0.07,2.04,0.05c1.34-0.02,3.66-0.09,5.98-0.16c0-0.14,0-0.28-0.01-2.28
	c-0.01-2-0.04-5.85-0.29-7.95c-0.26-2.1-0.75-2.45-3.34-3.4c-2.59-0.94-7.28-2.47-15.47-3.18c-8.19-0.71-19.87-0.61-28.59-0.36
	c-8.73,0.25-14.49,0.63-18.6,1.08c-4.1,0.45-6.53,0.95-8.33,1.52c-1.79,0.56-2.95,1.18-3.49,1.6c-0.54,0.41-0.47,0.63-0.42,2.75
	c0.05,2.13,0.09,6.17,0.12,10.22c0.32,0,0.63,0,1.88-0.02c1.25-0.02,3.43-0.05,5.61-0.09c-0.06-1.92-0.11-3.84-0.06-4.93
	c0.06-1.08,0.24-1.33,4.1-1.95c3.86-0.62,11.41-1.62,20.91-1.91c9.49-0.29,20.93,0.13,27.24,0.54c6.32,0.4,7.51,0.79,8.41,1.17
	c0.9,0.38,1.49,0.76,1.79,1.55c0.3,0.79,0.3,2,0.34,3.02C119.68,34.95,119.75,35.8,119.82,36.64"/>
</svg>
