<?xml version="1.0" encoding="utf-8"?>
<!-- Generator: Adobe Illustrator 23.0.0, SVG Export Plug-In . SVG Version: 6.00 Build 0)  -->
<svg version="1.1" id="Calque_1" xmlns="http://www.w3.org/2000/svg" xmlns:xlink="http://www.w3.org/1999/xlink" x="0px" y="0px"
	 viewBox="0 0 232.6 174.45" style="enable-background:new 0 0 232.6 174.45;" xml:space="preserve">
<style type="text/css">
	.st0{clip-path:url(#SVGID_2_);}
	.st1{clip-path:url(#SVGID_4_);}
	.st2{fill-rule:evenodd;clip-rule:evenodd;fill:#1C3377;}
	.st3{fill-rule:evenodd;clip-rule:evenodd;fill:#328F3F;}
	.st4{fill-rule:evenodd;clip-rule:evenodd;fill:none;}
	.st5{fill-rule:evenodd;clip-rule:evenodd;fill:#0018A8;}
	.st6{fill-rule:evenodd;clip-rule:evenodd;fill:#00927B;}
	.st7{fill-rule:evenodd;clip-rule:evenodd;fill:#D13139;}
	.st8{clip-path:url(#SVGID_8_);fill-rule:evenodd;clip-rule:evenodd;fill:#FFDE7F;}
	.st9{clip-path:url(#SVGID_8_);fill-rule:evenodd;clip-rule:evenodd;fill:#86BBE7;}
	.st10{fill-rule:evenodd;clip-rule:evenodd;fill:#3A3A42;}
	.st11{fill-rule:evenodd;clip-rule:evenodd;fill:#562873;}
	.st12{fill-rule:evenodd;clip-rule:evenodd;fill:#014787;}
	.st13{clip-path:url(#SVGID_10_);}
	.st14{clip-path:url(#SVGID_12_);}
	.st15{fill-rule:evenodd;clip-rule:evenodd;}
	.st16{fill-rule:evenodd;clip-rule:evenodd;fill:#A81616;}
	.st17{fill-rule:evenodd;clip-rule:evenodd;fill:#0FDCB5;}
	.st18{fill-rule:evenodd;clip-rule:evenodd;fill:#FF4785;}
	.st19{fill-rule:evenodd;clip-rule:evenodd;fill:#2D32AA;}
	.st20{fill-rule:evenodd;clip-rule:evenodd;fill:#3A97B8;}
	.st21{fill:none;stroke:#000000;stroke-width:0.5669;stroke-miterlimit:22.9256;}
	.st22{fill-rule:evenodd;clip-rule:evenodd;fill:#003853;}
	.st23{fill-rule:evenodd;clip-rule:evenodd;fill:#FEB3C7;}
	.st24{fill-rule:evenodd;clip-rule:evenodd;fill:#FF6500;}
	.st25{clip-path:url(#SVGID_16_);fill-rule:evenodd;clip-rule:evenodd;fill:#FFFEFE;}
	.st26{clip-path:url(#SVGID_16_);fill-rule:evenodd;clip-rule:evenodd;fill:#FF6200;}
	.st27{fill-rule:evenodd;clip-rule:evenodd;fill:#CCD905;}
	.st28{fill-rule:evenodd;clip-rule:evenodd;fill:#00ADEF;}
	.st29{fill-rule:evenodd;clip-rule:evenodd;fill:#009CDE;}
	.st30{fill-rule:evenodd;clip-rule:evenodd;fill:#FFFFFF;}
	.st31{fill-rule:evenodd;clip-rule:evenodd;fill:#377F7B;}
	.st32{fill-rule:evenodd;clip-rule:evenodd;fill:#1A1A1A;}
	.st33{fill:#FFFFFF;}
	.st34{fill:none;stroke:#FFFFFF;stroke-width:0.5669;stroke-miterlimit:22.9256;}
	.st35{fill-rule:evenodd;clip-rule:evenodd;fill:#009287;}
	.st36{fill-rule:evenodd;clip-rule:evenodd;fill:#99E1DE;}
	.st37{fill-rule:evenodd;clip-rule:evenodd;fill:#00A1E9;}
	.st38{fill-rule:evenodd;clip-rule:evenodd;fill:#016FD0;}
	.st39{fill-rule:evenodd;clip-rule:evenodd;fill:#FEFEFF;}
	.st40{fill-rule:evenodd;clip-rule:evenodd;fill:#8ABDE9;}
	.st41{fill-rule:evenodd;clip-rule:evenodd;fill:#EF533D;}
	.st42{clip-path:url(#SVGID_18_);fill:url(#SVGID_19_);}
	.st43{clip-path:url(#SVGID_21_);fill:url(#SVGID_22_);}
	.st44{fill-rule:evenodd;clip-rule:evenodd;fill:#1D3663;}
	.st45{fill-rule:evenodd;clip-rule:evenodd;fill:#FEFEFE;}
	.st46{fill-rule:evenodd;clip-rule:evenodd;fill:#EDEDED;}
	.st47{fill-rule:evenodd;clip-rule:evenodd;fill:#C30044;}
	.st48{fill-rule:evenodd;clip-rule:evenodd;fill:#FFDD00;}
	.st49{clip-path:url(#SVGID_24_);fill-rule:evenodd;clip-rule:evenodd;fill:#2F9B46;}
	.st50{clip-path:url(#SVGID_24_);fill-rule:evenodd;clip-rule:evenodd;fill:#60B54D;}
	.st51{clip-path:url(#SVGID_24_);fill-rule:evenodd;clip-rule:evenodd;fill:#89CC53;}
	.st52{clip-path:url(#SVGID_24_);fill-rule:evenodd;clip-rule:evenodd;fill:#3CB8AD;}
	.st53{clip-path:url(#SVGID_24_);fill-rule:evenodd;clip-rule:evenodd;fill:#3394D7;}
	.st54{clip-path:url(#SVGID_24_);fill:none;stroke:#3394D7;stroke-width:0.216;stroke-miterlimit:22.9256;}
	.st55{clip-path:url(#SVGID_24_);fill-rule:evenodd;clip-rule:evenodd;fill:#2772BC;}
	.st56{clip-path:url(#SVGID_24_);fill-rule:evenodd;clip-rule:evenodd;fill:#1B5B83;}
	.st57{clip-path:url(#SVGID_24_);fill-rule:evenodd;clip-rule:evenodd;fill:#993233;}
	.st58{clip-path:url(#SVGID_24_);fill-rule:evenodd;clip-rule:evenodd;fill:#E13030;}
	.st59{clip-path:url(#SVGID_24_);fill-rule:evenodd;clip-rule:evenodd;fill:#F28824;}
	.st60{clip-path:url(#SVGID_24_);fill-rule:evenodd;clip-rule:evenodd;fill:#F5C836;}
	.st61{clip-path:url(#SVGID_24_);fill-rule:evenodd;clip-rule:evenodd;fill:#238647;}
	.st62{clip-path:url(#SVGID_24_);fill-rule:evenodd;clip-rule:evenodd;fill:#EDEDED;}
	.st63{clip-path:url(#SVGID_26_);fill:url(#SVGID_27_);}
	.st64{fill-rule:evenodd;clip-rule:evenodd;fill:#184285;}
	.st65{fill-rule:evenodd;clip-rule:evenodd;fill:#B2DBF4;}
	.st66{fill-rule:evenodd;clip-rule:evenodd;fill:#68BCEB;}
	.st67{fill-rule:evenodd;clip-rule:evenodd;fill:#FDFEFE;}
	.st68{fill-rule:evenodd;clip-rule:evenodd;fill:#1E4A8F;}
	.st69{filter:url(#Adobe_OpacityMaskFilter);}
	.st70{clip-path:url(#SVGID_29_);fill:url(#SVGID_31_);}
	.st71{clip-path:url(#SVGID_29_);mask:url(#SVGID_30_);fill:url(#SVGID_32_);}
	.st72{fill-rule:evenodd;clip-rule:evenodd;fill:#748DB6;}
	.st73{fill-rule:evenodd;clip-rule:evenodd;fill:#1A458A;}
	.st74{fill-rule:evenodd;clip-rule:evenodd;fill:#8097BC;}
	.st75{clip-path:url(#SVGID_34_);fill-rule:evenodd;clip-rule:evenodd;fill:#2FACDD;}
	.st76{clip-path:url(#SVGID_34_);fill-rule:evenodd;clip-rule:evenodd;fill:#F49332;}
	.st77{clip-path:url(#SVGID_34_);fill-rule:evenodd;clip-rule:evenodd;fill:#F7A859;}
	.st78{clip-path:url(#SVGID_34_);fill-rule:evenodd;clip-rule:evenodd;fill:#5EC7DC;}
	.st79{clip-path:url(#SVGID_34_);fill-rule:evenodd;clip-rule:evenodd;fill:#32BAE2;}
	.st80{fill-rule:evenodd;clip-rule:evenodd;fill:#E61E28;}
	.st81{fill-rule:evenodd;clip-rule:evenodd;fill:#C8036F;}
	.st82{clip-path:url(#SVGID_36_);fill:url(#SVGID_37_);}
	.st83{fill-rule:evenodd;clip-rule:evenodd;fill:#000267;}
	.st84{fill-rule:evenodd;clip-rule:evenodd;fill:#EC2528;}
	.st85{fill-rule:evenodd;clip-rule:evenodd;fill:#005FA1;}
	.st86{clip-path:url(#SVGID_39_);fill-rule:evenodd;clip-rule:evenodd;fill:#FFFFFF;}
	.st87{fill-rule:evenodd;clip-rule:evenodd;fill:#CB0065;}
	.st88{fill-rule:evenodd;clip-rule:evenodd;fill:#CB0064;}
	.st89{fill-rule:evenodd;clip-rule:evenodd;fill:#112F77;}
	.st90{fill-rule:evenodd;clip-rule:evenodd;fill:#32ECC5;}
	.st91{fill-rule:evenodd;clip-rule:evenodd;fill:#F46717;}
	.st92{fill-rule:evenodd;clip-rule:evenodd;fill:#001254;}
	.st93{fill-rule:evenodd;clip-rule:evenodd;fill:#E5E5E5;}
	.st94{fill-rule:evenodd;clip-rule:evenodd;fill:#EA001B;}
	.st95{fill-rule:evenodd;clip-rule:evenodd;fill:#00A0E2;}
	.st96{fill-rule:evenodd;clip-rule:evenodd;fill:#7375CF;}
	.st97{fill-rule:evenodd;clip-rule:evenodd;fill:#00A1E5;}
	.st98{fill-rule:evenodd;clip-rule:evenodd;fill:#00A2E4;}
	.st99{fill-rule:evenodd;clip-rule:evenodd;fill:#FF0015;}
	.st100{fill-rule:evenodd;clip-rule:evenodd;fill:#FF9F00;}
	.st101{fill-rule:evenodd;clip-rule:evenodd;fill:#FE5E00;}
	.st102{fill-rule:evenodd;clip-rule:evenodd;fill:#2AAACD;}
	.st103{fill-rule:evenodd;clip-rule:evenodd;fill:#D30D47;}
	.st104{fill-rule:evenodd;clip-rule:evenodd;fill:#555390;}
	.st105{fill-rule:evenodd;clip-rule:evenodd;fill:#F9B92E;}
	.st106{fill-rule:evenodd;clip-rule:evenodd;fill:#009FE3;}
	.st107{fill-rule:evenodd;clip-rule:evenodd;fill:#DA0812;}
	.st108{clip-path:url(#SVGID_41_);}
	.st109{clip-path:url(#SVGID_45_);}
	.st110{clip-path:url(#SVGID_47_);}
	.st111{clip-path:url(#SVGID_51_);}
	.st112{clip-path:url(#SVGID_55_);fill-rule:evenodd;clip-rule:evenodd;fill:#FF6600;}
	.st113{fill-rule:evenodd;clip-rule:evenodd;fill:#020399;}
	.st114{fill-rule:evenodd;clip-rule:evenodd;fill:#D90801;}
	.st115{clip-path:url(#SVGID_57_);}
	.st116{clip-path:url(#SVGID_59_);}
	.st117{clip-path:url(#SVGID_63_);}
	.st118{clip-path:url(#SVGID_65_);}
	.st119{clip-path:url(#SVGID_69_);}
	.st120{fill-rule:evenodd;clip-rule:evenodd;fill:#002F3F;}
	.st121{fill-rule:evenodd;clip-rule:evenodd;fill:#0DE06F;}
	.st122{fill-rule:evenodd;clip-rule:evenodd;fill:#2B2F76;}
	.st123{clip-path:url(#SVGID_73_);}
	.st124{clip-path:url(#SVGID_77_);}
	.st125{clip-path:url(#SVGID_81_);fill-rule:evenodd;clip-rule:evenodd;fill:#65377F;}
	.st126{clip-path:url(#SVGID_81_);fill-rule:evenodd;clip-rule:evenodd;fill:#742693;}
	.st127{clip-path:url(#SVGID_81_);fill-rule:evenodd;clip-rule:evenodd;fill:#A32795;}
	.st128{clip-path:url(#SVGID_81_);fill-rule:evenodd;clip-rule:evenodd;fill:#723583;}
	.st129{clip-path:url(#SVGID_81_);fill-rule:evenodd;clip-rule:evenodd;fill:#7F2C7E;}
	.st130{clip-path:url(#SVGID_83_);}
	.st131{clip-path:url(#SVGID_85_);}
</style>
<path class="st46" d="M19.79,3.22h193.03c8.52,0,15.5,6.97,15.5,15.5v137.02c0,8.52-6.97,15.5-15.5,15.5H19.79
	c-8.52,0-15.5-6.97-15.5-15.5V18.71C4.29,10.19,11.26,3.22,19.79,3.22 M16.7,0h199.2c9.18,0,16.7,7.51,16.7,16.7v141.05
	c0,9.18-7.51,16.7-16.7,16.7H16.7c-9.18,0-16.7-7.51-16.7-16.7V16.7C0,7.51,7.51,0,16.7,0z"/>
<path class="st102" d="M75.49,81.2c0.03-0.04,0.07-0.16,0.08-0.13l0.49-1.14c2.28-5.36,10.43-4.94,11.99,0.82
	c0.55,2.03,0.41,4.61,0.65,6.83l0.08-0.24c-0.11-3.98-0.52-7.27,0.34-11.23l1.27-5.04c0.55-1.52,1.13-3.12,1.86-4.58
	c0.76-1.52,1.42-2.72,2.32-4.11l2.76-3.68c1.41-1.45,3.21-3.5,4.84-4.71c2.28-1.7,3.35-2.46,5.87-3.88
	c0.75-0.42,1.37-0.58,2.14-0.97c6.88-3.48,16.25-4.02,24.36-2c3.38,0.84,4.16,1.44,6.9,2.65c1.96,0.86,6.28,3.66,7.75,5.12
	c1.15,1.14,1.74,1.46,2.47,2.41c0.86,1.12,1.79,1.85,3.54,4.26c3.27,4.5,5.62,10.76,6.29,16.33c0.25,2.06,0.22,3.91,0.23,6.21
	c0.04,7.44-3.99,17.63-9.31,22.86c-1.31,1.28-0.26,0.62-2.33,2.35c-0.36,0.3-0.56,0.55-0.88,0.87c-1.64,1.64-5.7,4.09-7.75,5.11
	c-0.72,0.36-1.31,0.68-2.11,1.01c-1.86,0.75-5.69,2.11-7.69,2.11c-0.99,0.76-4.46,0.7-5.92,0.77c2.01,0.89,2.21,0.27,3.83,1.96
	c3.08,3.2,2.12,8.78-1.98,10.5l-0.8,0.4c-0.03,0.02-0.08,0.08-0.11,0.1c-0.02,0.02-0.07,0.07-0.1,0.11c1.23,0,3.08-0.21,4.18-0.35
	c1.54-0.2,2.68-0.39,4.06-0.62c2.58-0.43,4.83-1.25,7.14-2.02c9.38-3.16,19.25-11.1,24.43-19.24c3.06-4.8,4.99-8.76,6.56-14.3
	c2.23-7.89,2.33-16.87,0.47-24.48c-2.7-11.07-8.95-21.33-18.07-28.13c-2.44-1.82-5.61-3.93-8.37-5.28l-3.25-1.43
	c-3.55-1.41-6.91-2.35-10.83-3.01c-1.7-0.28-3.43-0.47-5.16-0.55h-4.77c-8.46,0.42-16.82,3.04-23.74,7.3
	c-2.45,1.51-8.26,5.83-10.11,8.22l-6.07,7.77c-3.66,5.98-6.54,13.48-7.26,20.62C75.61,78.26,75.64,79.58,75.49,81.2"/>
<path class="st103" d="M126.43,132.21c-2.72,0.09-5.46-0.09-8.09-0.46c-2.58-0.36-4.67-1.04-6.93-1.44
	c-1.19,1.65-4.84,3.83-6.99,4.69c-6.21,2.5-13.19,2.59-19.53-0.23c-6.5-2.89-11.64-9.08-13.38-16.06
	c-1.59-6.36-0.49-13.58,3.12-18.95c1.54-2.29,1.78-2.19,2.68-3.39c-0.06-0.94-0.55-2.58-0.78-3.54c-0.29-1.25-0.47-2.39-0.62-3.66
	c-0.31-2.56-0.47-5.27-0.43-7.98c-2.42,1.27-7.01,5.16-8.64,7.27c-1.78,2.29-2.93,3.56-4.37,6.35l-1.81,3.64
	c-3.76,8.86-3.71,20.94,0.19,28.98c0.33,0.68,0.61,1.13,0.9,1.83c2.06,4.86,6.75,10.03,11.08,13.29c5.14,3.86,10.78,6.02,17.21,6.97
	c0.86,0.13,1.74,0.22,2.62,0.28h4.42c7.97-0.5,16.05-3.62,21.78-8.72C121.48,138.75,124.94,135.35,126.43,132.21"/>
<path class="st104" d="M75.49,81.2c-0.04,2.71,0.12,5.42,0.43,7.98c0.15,1.27,0.33,2.42,0.62,3.66c0.23,0.96,0.72,2.6,0.78,3.54
	l1.07,3c1.97,6.01,5.48,11.26,9.49,16.05c0.34,0.41,0.68,0.7,1.07,1.08l3.11,3.12c0.47,0.45,0.69,0.55,1.17,0.97
	c1.39,1.24,4.68,3.64,6.23,4.5c4.3,2.38,6.89,3.79,11.95,5.22c2.26,0.4,4.35,1.08,6.93,1.44c2.62,0.36,5.36,0.55,8.09,0.46
	l0.14,0.04c0.03-0.04,0.08-0.09,0.1-0.11c0.02-0.02,0.07-0.08,0.11-0.1l0.8-0.4c4.1-1.72,5.06-7.3,1.98-10.5
	c-1.62-1.69-1.82-1.07-3.83-1.96c-1.6-0.01-6.17-0.09-7.24-0.77c-1.48,0-4.47-1.03-5.78-1.48c-3.55-1.24-6.43-2.86-9.37-5.06
	l-4.02-3.39l-3.33-3.88c-0.56-0.75-1.06-1.35-1.54-2.16c-3.37-5.64-3.59-6.88-5.27-13.08l-0.4-2.02l-0.08,0.24
	c-0.24-2.22-0.1-4.8-0.65-6.83c-1.56-5.76-9.71-6.18-11.99-0.82l-0.49,1.14C75.56,81.03,75.52,81.15,75.49,81.2"/>
<path class="st105" d="M89.12,76.1c-0.86,3.96-0.45,7.26-0.34,11.23l0.4,2.02c2.86-1.32,9.6-0.71,13.2,0.46
	c3.11,1.01,4.94,2.11,7.37,3.94l2.11,1.79c4.92,4.88,8.01,12.57,7.11,19.5c-0.1,0.8-0.5,2.6-0.49,3.37
	c1.07,0.68,5.64,0.76,7.24,0.77c1.46-0.07,4.93-0.01,5.92-0.77c0.34-3.27,0.55-6.82,0.09-9.98c-0.31-2.12-0.77-4.66-1.37-6.62
	c-0.24-0.78-0.47-1.2-0.73-1.99c-0.28-0.82-0.36-1.1-0.72-1.81c-0.35-0.7-0.51-1.18-0.84-1.89c-0.63-1.31-1.32-2.31-2-3.45
	c-0.9-1.52-3.51-4.71-4.83-6.09c-0.53-0.56-0.84-0.67-1.37-1.16c-3.43-3.18-7.25-5.71-11.82-7.29c-5.07-1.75-10.84-2.99-16.36-2.28
	C90.92,75.94,89.72,76.09,89.12,76.1"/>
</svg>
