<?xml version="1.0" encoding="utf-8"?>
<!-- Generator: Adobe Illustrator 23.0.0, SVG Export Plug-In . SVG Version: 6.00 Build 0)  -->
<svg version="1.1" id="Calque_1" xmlns="http://www.w3.org/2000/svg" xmlns:xlink="http://www.w3.org/1999/xlink" x="0px" y="0px"
	 viewBox="0 0 20 20" style="enable-background:new 0 0 20 20;" xml:space="preserve">
<style type="text/css">
	.st0{fill-rule:evenodd;clip-rule:evenodd;}
	.st1{clip-path:url(#SVGID_2_);}
	.st2{fill-rule:evenodd;clip-rule:evenodd;fill:#2F9B46;}
	.st3{fill-rule:evenodd;clip-rule:evenodd;fill:#60B54D;}
	.st4{fill-rule:evenodd;clip-rule:evenodd;fill:#89CC53;}
	.st5{fill-rule:evenodd;clip-rule:evenodd;fill:#3CB8AD;}
	.st6{fill-rule:evenodd;clip-rule:evenodd;fill:#3394D7;}
	.st7{fill:none;stroke:#3394D7;stroke-width:0.216;stroke-miterlimit:22.9256;}
	.st8{fill-rule:evenodd;clip-rule:evenodd;fill:#2772BC;}
	.st9{fill-rule:evenodd;clip-rule:evenodd;fill:#1B5B83;}
	.st10{fill-rule:evenodd;clip-rule:evenodd;fill:#993233;}
	.st11{fill-rule:evenodd;clip-rule:evenodd;fill:#E13030;}
	.st12{fill-rule:evenodd;clip-rule:evenodd;fill:#F28824;}
	.st13{fill-rule:evenodd;clip-rule:evenodd;fill:#F5C836;}
	.st14{fill-rule:evenodd;clip-rule:evenodd;fill:#238647;}
	.st15{fill-rule:evenodd;clip-rule:evenodd;fill:#FFFFFF;}
	.st16{fill-rule:evenodd;clip-rule:evenodd;fill:#E1000E;}
	.st17{fill-rule:evenodd;clip-rule:evenodd;fill:#009B89;}
	.st18{fill-rule:evenodd;clip-rule:evenodd;fill:#F9B800;}
	.st19{fill-rule:evenodd;clip-rule:evenodd;fill:#004D4D;}
	.st20{fill-rule:evenodd;clip-rule:evenodd;fill:#FF422E;}
	.st21{fill-rule:evenodd;clip-rule:evenodd;fill:none;stroke:#EDEDED;stroke-width:0.25;stroke-miterlimit:10;}
	.st22{fill-rule:evenodd;clip-rule:evenodd;fill:#FF6500;}
	.st23{clip-path:url(#SVGID_4_);}
	.st24{fill-rule:evenodd;clip-rule:evenodd;fill:#FFFEFE;}
	.st25{fill:#FF6500;}
	.st26{fill:#071A57;}
	.st27{fill-rule:evenodd;clip-rule:evenodd;fill:#003C5D;}
	.st28{fill-rule:evenodd;clip-rule:evenodd;fill:#2D8F37;}
	.st29{fill-rule:evenodd;clip-rule:evenodd;fill:#000FAA;}
	.st30{clip-path:url(#SVGID_6_);}
	.st31{clip-path:url(#SVGID_8_);fill-rule:evenodd;clip-rule:evenodd;fill:#F76401;}
	.st32{clip-path:url(#SVGID_10_);}
	.st33{clip-path:url(#SVGID_12_);fill:url(#SVGID_13_);}
	.st34{clip-path:url(#SVGID_10_);fill-rule:evenodd;clip-rule:evenodd;fill:#F7A8A5;}
	.st35{clip-path:url(#SVGID_10_);fill-rule:evenodd;clip-rule:evenodd;fill:#FFFFFF;}
	.st36{clip-path:url(#SVGID_15_);fill:url(#SVGID_16_);}
	.st37{clip-path:url(#SVGID_18_);fill:url(#SVGID_19_);}
	.st38{clip-path:url(#SVGID_10_);fill-rule:evenodd;clip-rule:evenodd;fill:#283C93;}
	.st39{clip-path:url(#SVGID_10_);fill-rule:evenodd;clip-rule:evenodd;fill:#EE412C;}
	.st40{clip-path:url(#SVGID_21_);fill:url(#SVGID_22_);}
	.st41{clip-path:url(#SVGID_10_);fill-rule:evenodd;clip-rule:evenodd;fill:#CC3829;}
	.st42{clip-path:url(#SVGID_10_);fill-rule:evenodd;clip-rule:evenodd;fill:#F48E97;}
	.st43{clip-path:url(#SVGID_24_);fill:url(#SVGID_25_);}
	.st44{clip-path:url(#SVGID_10_);fill-rule:evenodd;clip-rule:evenodd;fill:#EE4633;}
	.st45{clip-path:url(#SVGID_10_);fill-rule:evenodd;clip-rule:evenodd;fill:#FDDC0D;}
	.st46{clip-path:url(#SVGID_27_);fill:url(#SVGID_28_);}
	.st47{clip-path:url(#SVGID_30_);fill:url(#SVGID_31_);}
	.st48{clip-path:url(#SVGID_33_);fill:url(#SVGID_34_);}
	.st49{clip-path:url(#SVGID_36_);fill:url(#SVGID_37_);}
	.st50{fill-rule:evenodd;clip-rule:evenodd;fill:#562772;}
	.st51{clip-path:url(#SVGID_39_);}
	.st52{clip-path:url(#SVGID_41_);fill:url(#SVGID_42_);}
	.st53{clip-path:url(#SVGID_39_);fill-rule:evenodd;clip-rule:evenodd;fill:#F7A8A5;}
	.st54{clip-path:url(#SVGID_39_);fill-rule:evenodd;clip-rule:evenodd;fill:#FFFFFF;}
	.st55{clip-path:url(#SVGID_44_);fill:url(#SVGID_45_);}
	.st56{clip-path:url(#SVGID_47_);fill:url(#SVGID_48_);}
	.st57{clip-path:url(#SVGID_39_);fill-rule:evenodd;clip-rule:evenodd;fill:#283C93;}
	.st58{clip-path:url(#SVGID_39_);fill-rule:evenodd;clip-rule:evenodd;fill:#EE412C;}
	.st59{clip-path:url(#SVGID_50_);fill:url(#SVGID_51_);}
	.st60{clip-path:url(#SVGID_39_);fill-rule:evenodd;clip-rule:evenodd;fill:#CC3829;}
	.st61{clip-path:url(#SVGID_39_);fill-rule:evenodd;clip-rule:evenodd;fill:#F48E97;}
	.st62{clip-path:url(#SVGID_53_);fill:url(#SVGID_54_);}
	.st63{clip-path:url(#SVGID_39_);fill-rule:evenodd;clip-rule:evenodd;fill:#EE4633;}
	.st64{clip-path:url(#SVGID_39_);fill-rule:evenodd;clip-rule:evenodd;fill:#FDDC0D;}
	.st65{clip-path:url(#SVGID_56_);fill:url(#SVGID_57_);}
	.st66{clip-path:url(#SVGID_59_);fill:url(#SVGID_60_);}
	.st67{clip-path:url(#SVGID_62_);fill:url(#SVGID_63_);}
	.st68{clip-path:url(#SVGID_65_);fill:url(#SVGID_66_);}
	.st69{fill:#00937B;}
	.st70{fill-rule:evenodd;clip-rule:evenodd;fill:#00937B;}
	.st71{fill:#FFFFFF;}
	.st72{fill:#89CC53;}
	.st73{fill:#3CB8AD;}
	.st74{fill:#3394D7;}
	.st75{fill:none;}
	.st76{fill:#2772BC;}
	.st77{fill:#1B5B83;}
	.st78{fill:#993233;}
	.st79{fill:#E13030;}
	.st80{fill:#F28824;}
	.st81{fill:#F5C836;}
	.st82{fill:#2F9B46;}
	.st83{fill:#60B54D;}
</style>
<g>
	<path class="st72" d="M6.51,10.22c0.14,0.32,0.35,0.56,0.62,0.72c0.01,0.01,0.03,0.02,0.04,0.02V9.88C7.15,9.8,7.12,9.74,7.11,9.66
		C7.07,9.2,7.14,7.94,7.1,7.67l-0.72,0c-0.02,0.13,0,1.13,0,1.35C6.38,9.47,6.34,9.84,6.51,10.22z"/>
	<path class="st73" d="M8.19,11.2c0.12-0.01,0.23-0.05,0.34-0.09v-0.73c-0.09,0.07-0.19,0.13-0.34,0.17
		c-0.33,0.05-0.58-0.03-0.76-0.21c-0.12-0.11-0.2-0.27-0.26-0.46v1.09C7.44,11.13,7.81,11.25,8.19,11.2z"/>
	<path class="st74" d="M9.56,10.07C9.67,9.71,9.64,9.3,9.64,8.9c0-0.2,0.01-1.11,0-1.23l-0.72,0C8.89,7.81,8.91,9.21,8.91,9.48
		c0,0.31-0.04,0.49-0.19,0.7c-0.05,0.08-0.12,0.14-0.19,0.19v0.73C9.04,10.93,9.42,10.54,9.56,10.07z"/>
</g>
<g>
	<polygon class="st75" points="11.26,7.76 11.26,8.66 11.26,8.65 11.26,7.76 	"/>
	<path class="st76" d="M10.82,8.08c-0.17,0.17-0.41,0.62-0.44,1.01c0,0.05-0.02,0.18-0.02,0.24c0,0.37-0.02,1.65,0.01,1.79
		c0.09,0.02,0.65,0.02,0.74,0l0-2c-0.01-0.16,0.07-0.33,0.16-0.46v-0.9C11.08,7.85,10.94,7.96,10.82,8.08z"/>
	<path class="st77" d="M11.81,7.59c-0.21,0.02-0.39,0.08-0.55,0.17v0.89c0.02-0.04,0.05-0.09,0.07-0.11
		c0.05-0.06,0.15-0.14,0.22-0.19c0.11-0.07,0.17-0.11,0.29-0.12c0.27-0.04,0.52,0.02,0.76,0.23c0.01,0.01,0.02,0.03,0.03,0.04V7.7
		C12.39,7.61,12.12,7.56,11.81,7.59z"/>
	<path class="st78" d="M13.49,8.56c-0.16-0.35-0.46-0.68-0.87-0.86v0.8c0.13,0.14,0.26,0.37,0.27,0.63
		c0.03,0.47-0.04,1.67,0.01,1.98l0.71,0c0.02-0.12,0.01-1.14,0.01-1.35C13.62,9.33,13.66,8.93,13.49,8.56z"/>
</g>
<g>
	<path class="st75" d="M15.44,8.52c-0.04,0.03-0.07,0.07-0.11,0.11c-0.15,0.19-0.27,0.5-0.27,0.76c0,0.26,0.11,0.57,0.27,0.76
		c0.03,0.04,0.07,0.09,0.11,0.11c0.22,0.21,0.6,0.36,1.01,0.26c0.02,0,0.03,0,0.05-0.01c0.18-0.05,0.34-0.14,0.44-0.25
		c0.2-0.2,0.15-0.17,0.29-0.4c0.13-0.38,0.13-0.58,0-0.96c-0.14-0.23-0.09-0.2-0.29-0.4c-0.14-0.14-0.31-0.21-0.49-0.25
		C16.1,8.19,15.72,8.27,15.44,8.52z"/>
	<polygon class="st75" points="17.97,12.66 17.97,8.92 17.97,12.66 	"/>
	<path class="st79" d="M15.07,9.39c0-0.26,0.11-0.57,0.27-0.76V7.78C15.22,7.84,15.19,7.85,15,8c-0.88,0.72-0.89,2.06,0.01,2.8
		c0.18,0.14,0.22,0.15,0.33,0.21v-0.85C15.18,9.96,15.07,9.66,15.07,9.39z"/>
	<path class="st80" d="M15.44,10.27c-0.04-0.03-0.07-0.07-0.11-0.11v0.85c0.03,0.01,0.05,0.03,0.09,0.05
		c0.33,0.11,0.56,0.19,0.97,0.13c0.02,0,0.03-0.01,0.05-0.01v-0.64C16.04,10.63,15.67,10.47,15.44,10.27z"/>
	<path class="st80" d="M15.44,8.52c0.27-0.25,0.66-0.33,1.01-0.25V7.61c-0.01,0-0.02,0-0.02-0.01c-0.38-0.06-0.68,0.01-1,0.13
		c-0.04,0.02-0.06,0.04-0.09,0.05v0.85C15.37,8.59,15.41,8.55,15.44,8.52z"/>
	<path class="st81" d="M17.97,8.92l0-1.25c-0.09-0.02-0.37-0.01-0.5-0.01c-0.02,0-0.07,0-0.09,0l-0.06,0.02l-0.03,0.3l-0.06-0.02
		c-0.11-0.14-0.53-0.3-0.79-0.35v0.66c0.18,0.04,0.36,0.11,0.49,0.25c0.2,0.2,0.15,0.16,0.29,0.4c0.13,0.38,0.13,0.59,0,0.96
		c-0.14,0.23-0.09,0.2-0.29,0.4c-0.11,0.11-0.27,0.2-0.44,0.25c-0.02,0-0.03,0-0.05,0.01v0.64c0.14-0.02,0.28-0.06,0.4-0.11
		c0.16-0.07,0.24-0.13,0.36-0.2c0.02,0.02,0.01-0.01,0.02,0.05c0.01,0.11-0.02,1.47,0,1.74c0.09,0.02,0.64,0.02,0.74,0V8.92z"/>
</g>
<g>
	<path class="st75" d="M2.85,9.45c0,0.35,0.19,0.64,0.46,0.82c0.15,0.1,0.33,0.17,0.53,0.17c0.55,0,0.99-0.44,0.99-0.99
		S4.39,8.46,3.84,8.46c-0.2,0-0.37,0.07-0.53,0.17C3.04,8.8,2.85,9.1,2.85,9.45z"/>
	<path class="st82" d="M2.85,9.45c0-0.35,0.19-0.64,0.46-0.82V7.68C3.19,7.72,3.06,7.78,2.94,7.85L2.76,7.95l0-1.8L2.03,6.16l0,4.98
		c0.1,0.02,0.23,0.01,0.33,0.01c0.03,0,0.29,0.01,0.3-0.01c0-0.01,0.01,0,0.01-0.01c0.01-0.04,0.02-0.11,0.02-0.16
		c0-0.04,0-0.13,0.04-0.12c0.1,0.11,0.36,0.23,0.59,0.31v-0.89C3.04,10.09,2.85,9.79,2.85,9.45z"/>
	<path class="st83" d="M4.57,7.75c-0.4-0.17-0.84-0.19-1.25-0.07v0.94c0.15-0.1,0.33-0.17,0.53-0.17c0.55,0,0.99,0.44,0.99,0.99
		s-0.44,0.99-0.99,0.99c-0.2,0-0.37-0.07-0.53-0.17v0.89c0.08,0.03,0.16,0.05,0.23,0.06c0.35,0.06,0.74,0.01,1.02-0.12
		c0.14-0.06,0.27-0.14,0.4-0.24V7.99C4.84,7.89,4.7,7.81,4.57,7.75z"/>
	<path class="st72" d="M4.97,7.99v2.86c0.39-0.31,0.69-0.82,0.69-1.43C5.66,8.81,5.36,8.3,4.97,7.99z"/>
</g>
</svg>
