<?xml version="1.0" encoding="utf-8"?>
<!-- Generator: Adobe Illustrator 23.0.0, SVG Export Plug-In . SVG Version: 6.00 Build 0)  -->
<svg version="1.1" id="Calque_1" xmlns="http://www.w3.org/2000/svg" xmlns:xlink="http://www.w3.org/1999/xlink" x="0px" y="0px"
	 viewBox="0 0 94.45 70.92" style="enable-background:new 0 0 94.45 70.92;" xml:space="preserve">
<style type="text/css">
	.st0{fill:#FFFFFF;}
	.st1{fill-rule:evenodd;clip-rule:evenodd;fill:none;stroke:#1E3A6A;stroke-width:0.5;stroke-miterlimit:10;}
	.st2{fill:#1E3A6A;}
	.st3{fill:#1D3A6A;}
	.st4{fill:#5BC4EB;}
	.st5{fill:#0E9A5A;}
	.st6{fill-rule:evenodd;clip-rule:evenodd;fill:#517A42;}
	.st7{fill-rule:evenodd;clip-rule:evenodd;fill:#234273;}
	.st8{fill-rule:evenodd;clip-rule:evenodd;fill:#FFFFFF;}
	.st9{fill:#234273;}
	.st10{fill:#107DC1;}
	.st11{fill:#1E3667;}
	.st12{fill-rule:evenodd;clip-rule:evenodd;fill:#1D4484;}
	.st13{fill-rule:evenodd;clip-rule:evenodd;fill:#B3DBF4;}
	.st14{fill-rule:evenodd;clip-rule:evenodd;fill:#6BBCE9;}
	.st15{fill-rule:evenodd;clip-rule:evenodd;fill:#1E4B8F;}
	.st16{filter:url(#Adobe_OpacityMaskFilter);}
	.st17{clip-path:url(#SVGID_2_);fill:url(#SVGID_4_);}
	.st18{clip-path:url(#SVGID_2_);mask:url(#SVGID_3_);fill:url(#SVGID_5_);}
	.st19{fill-rule:evenodd;clip-rule:evenodd;fill:#758EB7;}
	.st20{fill-rule:evenodd;clip-rule:evenodd;fill:#1A4789;}
	.st21{fill-rule:evenodd;clip-rule:evenodd;fill:#8097BC;}
	.st22{fill-rule:evenodd;clip-rule:evenodd;fill:#3974BA;}
	.st23{fill-rule:evenodd;clip-rule:evenodd;fill:#1F97D4;}
	.st24{fill-rule:evenodd;clip-rule:evenodd;fill:none;stroke:url(#SVGID_6_);stroke-width:0.5;stroke-miterlimit:10;}
	.st25{fill-rule:evenodd;clip-rule:evenodd;fill:#FAB517;}
	.st26{clip-path:url(#SVGID_8_);fill-rule:evenodd;clip-rule:evenodd;fill:#F29120;}
	.st27{clip-path:url(#SVGID_8_);fill-rule:evenodd;clip-rule:evenodd;fill:#F29020;}
	.st28{clip-path:url(#SVGID_8_);fill-rule:evenodd;clip-rule:evenodd;fill:#F18F20;}
	.st29{clip-path:url(#SVGID_8_);fill-rule:evenodd;clip-rule:evenodd;fill:#F08F21;}
	.st30{clip-path:url(#SVGID_8_);fill-rule:evenodd;clip-rule:evenodd;fill:#F08E21;}
	.st31{clip-path:url(#SVGID_8_);fill-rule:evenodd;clip-rule:evenodd;fill:#F08D21;}
	.st32{clip-path:url(#SVGID_8_);fill-rule:evenodd;clip-rule:evenodd;fill:#F08C21;}
	.st33{clip-path:url(#SVGID_8_);fill-rule:evenodd;clip-rule:evenodd;fill:#F08A21;}
	.st34{clip-path:url(#SVGID_8_);fill-rule:evenodd;clip-rule:evenodd;fill:#EF8B22;}
	.st35{clip-path:url(#SVGID_8_);fill-rule:evenodd;clip-rule:evenodd;fill:#EF8922;}
	.st36{clip-path:url(#SVGID_8_);fill-rule:evenodd;clip-rule:evenodd;fill:#F08821;}
	.st37{clip-path:url(#SVGID_8_);fill-rule:evenodd;clip-rule:evenodd;fill:#F08822;}
	.st38{clip-path:url(#SVGID_8_);fill-rule:evenodd;clip-rule:evenodd;fill:#EF8722;}
	.st39{clip-path:url(#SVGID_8_);fill-rule:evenodd;clip-rule:evenodd;fill:#EF8522;}
	.st40{clip-path:url(#SVGID_8_);fill-rule:evenodd;clip-rule:evenodd;fill:#EE8522;}
	.st41{clip-path:url(#SVGID_8_);fill-rule:evenodd;clip-rule:evenodd;fill:#EE8422;}
	.st42{clip-path:url(#SVGID_8_);fill-rule:evenodd;clip-rule:evenodd;fill:#ED8322;}
	.st43{clip-path:url(#SVGID_8_);fill-rule:evenodd;clip-rule:evenodd;fill:#ED8223;}
	.st44{clip-path:url(#SVGID_10_);fill-rule:evenodd;clip-rule:evenodd;fill:#E75B24;}
	.st45{clip-path:url(#SVGID_10_);fill-rule:evenodd;clip-rule:evenodd;fill:#E75C25;}
	.st46{clip-path:url(#SVGID_10_);fill-rule:evenodd;clip-rule:evenodd;fill:#E75D25;}
	.st47{clip-path:url(#SVGID_10_);fill-rule:evenodd;clip-rule:evenodd;fill:#E75E24;}
	.st48{clip-path:url(#SVGID_10_);fill-rule:evenodd;clip-rule:evenodd;fill:#E75D24;}
	.st49{clip-path:url(#SVGID_10_);fill-rule:evenodd;clip-rule:evenodd;fill:#E86024;}
	.st50{clip-path:url(#SVGID_10_);fill-rule:evenodd;clip-rule:evenodd;fill:#E86124;}
	.st51{clip-path:url(#SVGID_10_);fill-rule:evenodd;clip-rule:evenodd;fill:#E86224;}
	.st52{clip-path:url(#SVGID_10_);fill-rule:evenodd;clip-rule:evenodd;fill:#EA6424;}
	.st53{clip-path:url(#SVGID_10_);fill-rule:evenodd;clip-rule:evenodd;fill:#EA6524;}
	.st54{clip-path:url(#SVGID_10_);fill-rule:evenodd;clip-rule:evenodd;fill:#EA6624;}
	.st55{clip-path:url(#SVGID_10_);fill-rule:evenodd;clip-rule:evenodd;fill:#EA6724;}
	.st56{clip-path:url(#SVGID_10_);fill-rule:evenodd;clip-rule:evenodd;fill:#E96824;}
	.st57{clip-path:url(#SVGID_10_);fill-rule:evenodd;clip-rule:evenodd;fill:#EB6824;}
	.st58{clip-path:url(#SVGID_10_);fill-rule:evenodd;clip-rule:evenodd;fill:#EB6924;}
	.st59{clip-path:url(#SVGID_10_);fill-rule:evenodd;clip-rule:evenodd;fill:#EC6A24;}
	.st60{clip-path:url(#SVGID_10_);fill-rule:evenodd;clip-rule:evenodd;fill:#E96A24;}
	.st61{clip-path:url(#SVGID_10_);fill-rule:evenodd;clip-rule:evenodd;fill:#E96C24;}
	.st62{clip-path:url(#SVGID_10_);fill-rule:evenodd;clip-rule:evenodd;fill:#EB6D24;}
	.st63{clip-path:url(#SVGID_10_);fill-rule:evenodd;clip-rule:evenodd;fill:#EC6E23;}
	.st64{clip-path:url(#SVGID_10_);fill-rule:evenodd;clip-rule:evenodd;fill:#EC6F23;}
	.st65{clip-path:url(#SVGID_10_);fill-rule:evenodd;clip-rule:evenodd;fill:#EB7024;}
	.st66{clip-path:url(#SVGID_10_);fill-rule:evenodd;clip-rule:evenodd;fill:#EB7124;}
	.st67{clip-path:url(#SVGID_10_);fill-rule:evenodd;clip-rule:evenodd;fill:#EC7224;}
	.st68{clip-path:url(#SVGID_10_);fill-rule:evenodd;clip-rule:evenodd;fill:#EC7323;}
	.st69{clip-path:url(#SVGID_10_);fill-rule:evenodd;clip-rule:evenodd;fill:#ED7423;}
	.st70{clip-path:url(#SVGID_10_);fill-rule:evenodd;clip-rule:evenodd;fill:#ED7523;}
	.st71{clip-path:url(#SVGID_10_);fill-rule:evenodd;clip-rule:evenodd;fill:#ED7623;}
	.st72{clip-path:url(#SVGID_10_);fill-rule:evenodd;clip-rule:evenodd;fill:#EC7723;}
	.st73{clip-path:url(#SVGID_10_);fill-rule:evenodd;clip-rule:evenodd;fill:#EC7923;}
	.st74{clip-path:url(#SVGID_10_);fill-rule:evenodd;clip-rule:evenodd;fill:#EE7823;}
	.st75{clip-path:url(#SVGID_10_);fill-rule:evenodd;clip-rule:evenodd;fill:#ED7A23;}
	.st76{clip-path:url(#SVGID_10_);fill-rule:evenodd;clip-rule:evenodd;fill:#ED7B23;}
	.st77{clip-path:url(#SVGID_10_);fill-rule:evenodd;clip-rule:evenodd;fill:#ED7C23;}
	.st78{clip-path:url(#SVGID_10_);fill-rule:evenodd;clip-rule:evenodd;fill:#ED7D23;}
	.st79{clip-path:url(#SVGID_10_);fill-rule:evenodd;clip-rule:evenodd;fill:#EE7D22;}
	.st80{clip-path:url(#SVGID_10_);fill-rule:evenodd;clip-rule:evenodd;fill:#EE7E22;}
	.st81{clip-path:url(#SVGID_10_);fill-rule:evenodd;clip-rule:evenodd;fill:#EE7F22;}
	.st82{clip-path:url(#SVGID_10_);fill-rule:evenodd;clip-rule:evenodd;fill:#EF8022;}
	.st83{clip-path:url(#SVGID_10_);fill-rule:evenodd;clip-rule:evenodd;fill:#EF8122;}
	.st84{clip-path:url(#SVGID_10_);fill-rule:evenodd;clip-rule:evenodd;fill:#EF8222;}
	.st85{clip-path:url(#SVGID_10_);fill-rule:evenodd;clip-rule:evenodd;fill:#F08322;}
	.st86{clip-path:url(#SVGID_10_);fill-rule:evenodd;clip-rule:evenodd;fill:#F08421;}
	.st87{clip-path:url(#SVGID_10_);fill-rule:evenodd;clip-rule:evenodd;fill:#F08521;}
	.st88{clip-path:url(#SVGID_10_);fill-rule:evenodd;clip-rule:evenodd;fill:#EF8522;}
	.st89{clip-path:url(#SVGID_10_);fill-rule:evenodd;clip-rule:evenodd;fill:#F08722;}
	.st90{clip-path:url(#SVGID_10_);fill-rule:evenodd;clip-rule:evenodd;fill:#F08822;}
	.st91{clip-path:url(#SVGID_10_);fill-rule:evenodd;clip-rule:evenodd;fill:#F08821;}
	.st92{clip-path:url(#SVGID_10_);fill-rule:evenodd;clip-rule:evenodd;fill:#F18821;}
	.st93{clip-path:url(#SVGID_10_);fill-rule:evenodd;clip-rule:evenodd;fill:#F18921;}
	.st94{clip-path:url(#SVGID_10_);fill-rule:evenodd;clip-rule:evenodd;fill:#F18A21;}
	.st95{clip-path:url(#SVGID_10_);fill-rule:evenodd;clip-rule:evenodd;fill:#F08C21;}
	.st96{clip-path:url(#SVGID_10_);fill-rule:evenodd;clip-rule:evenodd;fill:#F08D21;}
	.st97{clip-path:url(#SVGID_10_);fill-rule:evenodd;clip-rule:evenodd;fill:#F18E21;}
	.st98{clip-path:url(#SVGID_10_);fill-rule:evenodd;clip-rule:evenodd;fill:#F18F20;}
	.st99{clip-path:url(#SVGID_10_);fill-rule:evenodd;clip-rule:evenodd;fill:#F29020;}
	.st100{clip-path:url(#SVGID_10_);fill-rule:evenodd;clip-rule:evenodd;fill:#F29120;}
	.st101{clip-path:url(#SVGID_10_);fill-rule:evenodd;clip-rule:evenodd;fill:#F29220;}
	.st102{clip-path:url(#SVGID_10_);fill-rule:evenodd;clip-rule:evenodd;fill:#F39320;}
	.st103{clip-path:url(#SVGID_10_);fill-rule:evenodd;clip-rule:evenodd;fill:#F3941F;}
	.st104{clip-path:url(#SVGID_10_);fill-rule:evenodd;clip-rule:evenodd;fill:#F3951F;}
	.st105{clip-path:url(#SVGID_10_);fill-rule:evenodd;clip-rule:evenodd;fill:#F3971F;}
	.st106{clip-path:url(#SVGID_10_);fill-rule:evenodd;clip-rule:evenodd;fill:#F3981F;}
	.st107{clip-path:url(#SVGID_10_);fill-rule:evenodd;clip-rule:evenodd;fill:#F4991F;}
	.st108{clip-path:url(#SVGID_10_);fill-rule:evenodd;clip-rule:evenodd;fill:#F49A1F;}
	.st109{clip-path:url(#SVGID_10_);fill-rule:evenodd;clip-rule:evenodd;fill:#F49B1E;}
	.st110{clip-path:url(#SVGID_10_);fill-rule:evenodd;clip-rule:evenodd;fill:#F49C1E;}
	.st111{clip-path:url(#SVGID_10_);fill-rule:evenodd;clip-rule:evenodd;fill:#F49D1E;}
	.st112{clip-path:url(#SVGID_10_);fill-rule:evenodd;clip-rule:evenodd;fill:#F59E1D;}
	.st113{clip-path:url(#SVGID_10_);fill-rule:evenodd;clip-rule:evenodd;fill:#F49F1E;}
	.st114{clip-path:url(#SVGID_10_);fill-rule:evenodd;clip-rule:evenodd;fill:#F59F1E;}
	.st115{clip-path:url(#SVGID_10_);fill-rule:evenodd;clip-rule:evenodd;fill:#F5A11D;}
	.st116{clip-path:url(#SVGID_10_);fill-rule:evenodd;clip-rule:evenodd;fill:#F5A31D;}
	.st117{clip-path:url(#SVGID_10_);fill-rule:evenodd;clip-rule:evenodd;fill:#F6A21D;}
	.st118{clip-path:url(#SVGID_10_);fill-rule:evenodd;clip-rule:evenodd;fill:#F5A41D;}
	.st119{clip-path:url(#SVGID_10_);fill-rule:evenodd;clip-rule:evenodd;fill:#F5A61C;}
	.st120{clip-path:url(#SVGID_10_);fill-rule:evenodd;clip-rule:evenodd;fill:#F6A81C;}
	.st121{clip-path:url(#SVGID_10_);fill-rule:evenodd;clip-rule:evenodd;fill:#F7A91B;}
	.st122{clip-path:url(#SVGID_10_);fill-rule:evenodd;clip-rule:evenodd;fill:#F6A91C;}
	.st123{clip-path:url(#SVGID_10_);fill-rule:evenodd;clip-rule:evenodd;fill:#F6AA1B;}
	.st124{filter:url(#Adobe_OpacityMaskFilter_1_);}
	.st125{fill:url(#SVGID_12_);}
	.st126{mask:url(#SVGID_11_);fill-rule:evenodd;clip-rule:evenodd;fill:#EB7224;}
	.st127{fill-rule:evenodd;clip-rule:evenodd;fill:#EE8522;}
	.st128{fill-rule:evenodd;clip-rule:evenodd;fill:#EA6624;}
	.st129{filter:url(#Adobe_OpacityMaskFilter_2_);}
	.st130{fill:url(#SVGID_14_);}
	.st131{mask:url(#SVGID_13_);fill-rule:evenodd;clip-rule:evenodd;fill:#E65725;}
	.st132{fill-rule:evenodd;clip-rule:evenodd;fill:#D62128;}
	.st133{fill-rule:evenodd;clip-rule:evenodd;fill:none;stroke:#0D6341;stroke-width:0.5;stroke-miterlimit:10;}
	.st134{fill:#84BC41;}
	.st135{fill:#069648;}
	.st136{fill:#C2D42F;}
	.st137{fill:#006341;}
	.st138{fill:#BCD7F0;}
	.st139{fill:#144A96;}
	.st140{fill:#EE2738;}
	.st141{fill-rule:evenodd;clip-rule:evenodd;fill:#582D82;}
	.st142{fill:#E31F31;}
	.st143{fill-rule:evenodd;clip-rule:evenodd;fill:#2E327F;}
	.st144{fill-rule:evenodd;clip-rule:evenodd;fill:#12A260;}
	.st145{fill-rule:evenodd;clip-rule:evenodd;fill:#EE272D;}
</style>
<path class="st5" d="M88.12,70.92H6.33c-3.47,0-6.27-2.81-6.27-6.28V6.41c0-3.47,2.81-6.28,6.27-6.28h81.78
	c3.47,0,6.28,2.81,6.28,6.28v58.24C94.39,68.12,91.58,70.92,88.12,70.92z"/>
<g>
	<g>
		<g>
			<path class="st8" d="M58.04,11.52c-3.59,0.43-7.7,2.01-10.64,3.32c0.3,0.01,7.36-1.02,10.19-1.1c-0.22,0.59-1.23,1.84-1.64,2.36
				c-0.61,0.78-1.29,1.44-1.83,2.14l6.98-3.63c1.25,1.5,1.35,6.12,1.45,8.46c0.92-1.34,2.05-8.5,1.68-10.55
				c0.88-0.54,1.81-1.32,2.24-2.43c-0.68,0.04-1.51,0.1-2.17,0.18c-0.77,0.09-1.42,0.39-1.93,0.13c-1.19-0.59-2.09-1.04-3.43-1.51
				c-1.57-0.55-6.25-1.86-8-1.71C51.33,7.23,57.2,10.39,58.04,11.52"/>
			<path class="st8" d="M31.56,19.63c2,0.2,3.28,0.42,4.61,1.34c-0.19,0.38-3.5,3.78-4.79,7.17c0.67-0.4,4.43-4.22,6.23-5.07
				l1.72,5.03c0.51-1.62,0.68-3.18,1.38-5.3c0.25-0.75,0.2-0.98,1.08-1.13c2.86-0.48,5.52-0.05,8.24,0.31
				c-1.1-0.67-2.13-1.22-3.51-1.73c-1.39-0.51-4.08-1.11-4.28-1.21c0.16-0.96,0.85-1.8,1.17-2.55c-1.21,0.36-2.72,1.08-3.72,1.78
				c-0.59,0.41-0.48,0.54-1.43,0.52C35.84,18.74,33.62,18.85,31.56,19.63"/>
			<path class="st8" d="M30.72,36.3c-0.48,0.14-0.91,0.25-1.39,0.42c-0.45,0.16-1.06,0.36-1.34,0.65c0.61,0.28,1.31,0.78,1.98,1.12
				c0.62,0.32,1.52,0.6,1.88,1.23c0.62,1.12,1.77,3.13,2.6,3.55c-0.27-0.98-0.29-1.86-0.21-2.95c1.55,0.32,2.8,0.71,4.56,0.74
				c-0.67-0.39-1.45-0.68-2.14-1.1c-0.77-0.46-1.33-1.09-1.94-1.44c0.11-0.88,1.14-2.72,1.53-3.22c-0.88-0.11-2.55,0.45-3.57,0.46
				c-1.06-1.47-1.35-3.5-1.9-5.41C30.35,32.21,30.48,34.41,30.72,36.3"/>
		</g>
		<path class="st8" d="M41.95,41.55c0.74,0.39,1.6,0.66,2.46,0.83c-0.16,0.29-0.02,0.09-0.25,0.34l-2.06,1.63
			c2.06-0.3,3.66-1.38,4.57-1.7c0.6-0.21,1.36-0.07,1.97-0.18c0.23-0.41-0.03-0.83-0.1-1.36c0.51-0.5,1.12-1.03,1.65-1.45
			c0.56-0.45,1.05-1.05,1.53-1.51c-0.98,0.37-2.14,1.48-3.36,1.81l-0.13-1.83c-0.73,0.67-1.39,1.95-2.16,2.61
			C45.27,41.42,43.15,41.29,41.95,41.55"/>
	</g>
	<g>
		<path class="st0" d="M74.78,57.65c-0.15,0-0.29,0-0.43,0c-18.17,0-36.35,0-54.52,0c-0.53,0-0.54-0.02-0.51-0.52
			c0.01-0.19,0.08-0.28,0.27-0.27c0.12,0,0.23,0,0.35,0c18.09,0,36.18,0,54.28,0C74.88,56.85,74.88,56.85,74.78,57.65z"/>
		<path class="st0" d="M62.93,52.31c0.18,0.1,0.34,0.17,0.48,0.26c0.49,0.3,0.79,0.71,0.74,1.32c-0.05,0.57-0.39,0.94-0.89,1.1
			c-0.51,0.17-1.06,0.27-1.59,0.31c-0.73,0.05-1.47,0.01-2.2,0.01c-0.43,0-0.44-0.02-0.42-0.46c0.03-0.77,0.07-1.53,0.07-2.3
			c0-0.75-0.04-1.51-0.08-2.26c-0.02-0.46,0-0.5,0.47-0.49c1.02,0.03,2.04,0.05,3.06,0.11c0.23,0.01,0.47,0.12,0.68,0.23
			c0.76,0.4,0.83,1.31,0.16,1.84C63.29,52.1,63.14,52.18,62.93,52.31z M60.95,52.73c0.07-0.62,0.13-0.68,0.7-0.79
			c0.17-0.03,0.37-0.08,0.47-0.19c0.14-0.16,0.29-0.39,0.27-0.58c-0.02-0.19-0.2-0.45-0.37-0.51c-0.34-0.12-0.72-0.12-1.09-0.17
			c-0.26-0.03-0.39,0.1-0.39,0.36c0,1.16-0.01,2.32,0.01,3.49c0,0.09,0.18,0.26,0.27,0.26c0.37,0,0.74-0.03,1.11-0.09
			c0.48-0.09,0.71-0.33,0.74-0.71c0.03-0.39-0.19-0.73-0.66-0.87C61.68,52.83,61.32,52.8,60.95,52.73z"/>
		<path class="st0" d="M23.19,52.31c0.21,0.11,0.37,0.19,0.52,0.29c0.45,0.29,0.73,0.69,0.71,1.24c-0.03,0.59-0.38,0.98-0.92,1.16
			c-0.49,0.16-1.01,0.27-1.53,0.3c-0.77,0.05-1.54,0.01-2.3,0.02c-0.29,0-0.37-0.08-0.36-0.38c0.04-1.34,0.04-2.67,0.05-4.01
			c0-0.29-0.05-0.58-0.04-0.87c0-0.09,0.13-0.24,0.2-0.24c1.15,0.02,2.3,0.06,3.45,0.12c0.19,0.01,0.38,0.12,0.55,0.21
			c0.79,0.44,0.84,1.34,0.12,1.89C23.5,52.12,23.37,52.2,23.19,52.31z M20.81,52.65c0,0.56,0.01,1.11,0,1.67
			c0,0.22,0.08,0.32,0.31,0.3c0.36-0.04,0.72-0.04,1.07-0.11c0.44-0.08,0.7-0.34,0.73-0.68c0.04-0.4-0.15-0.72-0.6-0.87
			c-0.28-0.1-0.59-0.11-0.88-0.17c-0.09-0.02-0.22-0.07-0.24-0.13c-0.08-0.24,0.25-0.66,0.5-0.7c0.21-0.03,0.46-0.06,0.62-0.18
			c0.16-0.12,0.29-0.35,0.33-0.56c0.05-0.26-0.11-0.51-0.37-0.56c-0.42-0.08-0.84-0.11-1.27-0.13c-0.07,0-0.2,0.17-0.2,0.27
			C20.8,51.42,20.81,52.03,20.81,52.65z"/>
		<path class="st0" d="M26.7,51.65c0,1.11-0.01,2.18,0.01,3.24c0.01,0.29-0.04,0.43-0.36,0.43c-0.92,0.01-0.92,0.02-0.92-0.89
			c0-1.41,0-2.81-0.02-4.22c0-0.31,0.09-0.38,0.41-0.42c0.81-0.1,1.32,0.19,1.71,0.9c0.42,0.76,0.95,1.46,1.47,2.24
			c0.02-0.13,0.04-0.2,0.04-0.26c-0.03-0.79-0.06-1.58-0.11-2.37c-0.02-0.47-0.01-0.49,0.46-0.49c0.91,0,0.87,0,0.85,0.92
			c-0.03,1.4-0.01,2.81,0.02,4.22c0.01,0.29-0.07,0.36-0.36,0.39c-0.5,0.04-0.8-0.13-1.07-0.56c-0.63-1.02-1.33-1.99-2-2.98
			C26.79,51.74,26.75,51.71,26.7,51.65z"/>
		<path class="st0" d="M53.97,52.89c0.54,0.8,1.05,1.56,1.63,2.42c-0.61,0-1.11,0.01-1.62-0.01c-0.07,0-0.15-0.11-0.19-0.18
			c-0.52-0.86-1.04-1.73-1.56-2.6c-0.02-0.03-0.02-0.06-0.04-0.15c0.16-0.01,0.31,0.01,0.44-0.03c0.26-0.08,0.56-0.13,0.76-0.29
			c0.52-0.41,0.36-1.18-0.3-1.37c-0.35-0.1-0.73-0.11-1.1-0.12c-0.08,0-0.24,0.16-0.24,0.25c-0.01,1.37,0,2.74,0.03,4.12
			c0.01,0.27-0.03,0.42-0.34,0.4c-0.29-0.02-0.58-0.02-0.87,0c-0.27,0.02-0.33-0.1-0.33-0.35c0.03-1,0.04-2,0.05-3
			c0-0.62-0.02-1.23-0.04-1.85c-0.01-0.18,0.01-0.32,0.25-0.31c1.03,0.04,2.07,0.06,3.1,0.13c0.29,0.02,0.58,0.15,0.85,0.29
			c0.5,0.26,0.73,0.71,0.72,1.26c-0.02,0.56-0.3,0.97-0.8,1.22C54.25,52.76,54.13,52.81,53.97,52.89z"/>
		<path class="st0" d="M47.06,61.85c0.47,0.62,0.92,1.21,1.38,1.81c-0.01,0.04-0.02,0.07-0.02,0.11c-0.27,0-0.54-0.03-0.8,0.01
			c-0.62,0.1-0.97-0.14-1.23-0.72c-0.26-0.56-0.63-1.08-0.96-1.62c0.24-0.06,0.45-0.1,0.66-0.17c0.32-0.11,0.55-0.43,0.55-0.74
			c0-0.3-0.25-0.59-0.6-0.69c-0.81-0.23-0.96-0.13-0.96,0.7c0.01,0.98,0.02,1.95,0.04,2.93c0,0.21-0.06,0.3-0.27,0.3
			c-0.34-0.01-0.67-0.01-1.01,0c-0.22,0-0.3-0.07-0.29-0.31c0.02-1.38,0.01-2.76,0.03-4.15c0-0.09,0.13-0.24,0.19-0.24
			c1.07,0.03,2.14,0.03,3.19,0.16c0.78,0.1,1.21,0.68,1.14,1.38c-0.03,0.26-0.2,0.54-0.37,0.75C47.56,61.55,47.31,61.67,47.06,61.85
			z"/>
		<path class="st0" d="M64.38,55.32c0.07-0.19,0.1-0.29,0.15-0.39c0.71-1.6,1.43-3.2,2.14-4.81c0.1-0.24,0.24-0.3,0.49-0.32
			c0.53-0.06,0.8,0.12,1.01,0.63c0.63,1.52,1.32,3.03,2,4.53c0.13,0.28,0.09,0.39-0.22,0.37c-0.14-0.01-0.28,0-0.42,0
			c-0.96-0.02-0.7,0.13-1.06-0.75c-0.27-0.65-0.12-0.53-0.78-0.54c-0.41-0.01-0.82,0.01-1.22-0.01c-0.23-0.01-0.34,0.08-0.4,0.29
			c-0.07,0.23-0.18,0.46-0.23,0.69c-0.06,0.24-0.18,0.32-0.42,0.32C65.09,55.31,64.77,55.32,64.38,55.32z M67.92,53.23
			c-0.24-0.56-0.45-1.08-0.67-1.6c-0.03,0-0.06,0.01-0.1,0.01c-0.22,0.51-0.44,1.02-0.68,1.58C66.99,53.23,67.41,53.23,67.92,53.23z
			"/>
		<path class="st0" d="M40.87,53.07c0,0.67-0.02,1.28,0.01,1.9c0.01,0.26-0.05,0.36-0.32,0.35c-0.3-0.01-0.61-0.01-0.91,0
			c-0.23,0.01-0.3-0.09-0.29-0.31c0.02-1.4,0.02-2.79,0.03-4.19c0-0.09,0-0.19,0-0.28c-0.02-0.73-0.02-0.75,0.72-0.73
			c0.87,0.02,1.74,0.04,2.61,0.12c0.56,0.06,1.09,0.28,1.38,0.83c0.38,0.71,0.11,1.57-0.61,1.94c-0.62,0.32-1.28,0.39-1.97,0.38
			C41.32,53.07,41.11,53.07,40.87,53.07z M40.85,52.31c0.57,0.07,1.09,0.06,1.57-0.23c0.52-0.32,0.51-1.07-0.05-1.29
			c-0.41-0.17-0.9-0.17-1.35-0.23c-0.05-0.01-0.17,0.11-0.17,0.16C40.84,51.24,40.85,51.76,40.85,52.31z"/>
		<path class="st0" d="M46.61,54.04c-0.24,0-0.49,0.02-0.73,0c-0.27-0.02-0.38,0.11-0.43,0.34c-0.02,0.07-0.04,0.13-0.07,0.2
			c-0.1,0.24-0.15,0.62-0.33,0.69c-0.3,0.12-0.68,0.07-1.03,0.05c-0.25-0.01-0.18-0.18-0.12-0.32c0.45-0.98,0.9-1.96,1.34-2.95
			c0.29-0.64,0.57-1.27,0.83-1.92c0.09-0.22,0.21-0.3,0.46-0.33c0.56-0.06,0.84,0.14,1.06,0.67c0.62,1.51,1.32,3,1.98,4.5
			c0.14,0.31,0.11,0.36-0.23,0.36c-0.37,0-0.82,0.1-1.09-0.06c-0.25-0.15-0.34-0.6-0.46-0.93c-0.09-0.24-0.23-0.32-0.47-0.3
			C47.08,54.04,46.85,54.03,46.61,54.04C46.61,54.03,46.61,54.03,46.61,54.04z M45.88,53.24c0.52,0,0.95,0,1.45,0
			c-0.23-0.56-0.45-1.07-0.66-1.58c-0.04,0-0.07,0.01-0.11,0.01C46.34,52.17,46.12,52.67,45.88,53.24z"/>
		<path class="st0" d="M31.63,53.02c0-0.98,0.01-1.95-0.01-2.93c0-0.23,0.08-0.29,0.28-0.28c1.02,0.04,2.04,0.06,3.06,0.12
			c0.28,0.02,0.56,0.14,0.82,0.27c0.51,0.26,0.75,0.69,0.74,1.28c-0.01,0.58-0.29,0.97-0.78,1.23c-0.65,0.34-1.35,0.38-2.07,0.37
			c-0.62-0.01-0.58-0.1-0.58,0.58c0,0.45,0.02,0.91,0.05,1.36c0.01,0.22-0.06,0.32-0.29,0.31c-0.31-0.01-0.63-0.01-0.94,0
			c-0.21,0-0.31-0.07-0.3-0.31C31.64,54.34,31.62,53.68,31.63,53.02C31.63,53.02,31.63,53.02,31.63,53.02z M33.1,51.44
			C33.1,51.44,33.1,51.44,33.1,51.44c0,0.22-0.01,0.44,0.01,0.66c0.01,0.08,0.09,0.21,0.15,0.21c0.52,0.05,1.03,0.03,1.48-0.27
			c0.45-0.31,0.43-1-0.06-1.25c-0.27-0.14-0.59-0.23-0.9-0.24c-0.77-0.02-0.68-0.11-0.69,0.64C33.1,51.28,33.1,51.36,33.1,51.44z"/>
		<path class="st0" d="M70.77,53.94c0.57,0.17,1.1,0.37,1.64,0.48c0.31,0.06,0.65,0.03,0.96-0.02c0.15-0.03,0.35-0.2,0.37-0.34
			c0.03-0.16-0.06-0.41-0.19-0.51c-0.26-0.2-0.58-0.34-0.88-0.49c-0.46-0.23-0.95-0.4-1.37-0.68c-0.92-0.62-0.88-1.77,0.07-2.36
			c0.83-0.51,1.74-0.44,2.65-0.29c0.66,0.11,0.66,0.13,0.66,0.81c0,0.07,0,0.14,0,0.21c0.02,0.29-0.11,0.33-0.36,0.24
			c-0.43-0.14-0.86-0.27-1.3-0.37c-0.18-0.04-0.4-0.03-0.58,0.02c-0.15,0.04-0.35,0.17-0.37,0.29c-0.03,0.15,0.07,0.38,0.19,0.47
			c0.23,0.18,0.52,0.3,0.79,0.43c0.43,0.2,0.88,0.37,1.3,0.6c0.51,0.28,0.84,0.71,0.81,1.32c-0.03,0.67-0.41,1.12-1.02,1.37
			c-0.82,0.34-1.66,0.33-2.51,0.17c-0.91-0.17-0.9-0.2-0.88-1.13C70.75,54.1,70.76,54.02,70.77,53.94z"/>
		<path class="st0" d="M39.98,58.93c1.48,0,2.55,1.03,2.55,2.47c0,1.43-1.07,2.48-2.55,2.48c-1.5,0-2.55-1.01-2.56-2.46
			C37.43,59.95,38.46,58.93,39.98,58.93z M41.09,61.48c0.01-0.47-0.16-0.94-0.35-1.36c-0.32-0.7-1.16-0.73-1.51-0.05
			c-0.44,0.86-0.45,1.78-0.02,2.65c0.33,0.66,1.16,0.67,1.5,0.01C40.91,62.37,41.08,61.94,41.09,61.48z"/>
		<path class="st0" d="M60.6,60.33c-0.48-0.17-0.88-0.32-1.28-0.44c-0.14-0.04-0.3-0.04-0.45-0.04c-0.33,0.01-0.42,0.07-0.47,0.23
			c-0.05,0.18,0.15,0.36,0.29,0.46c0.22,0.16,0.5,0.24,0.75,0.36c0.31,0.15,0.65,0.27,0.94,0.46c0.87,0.56,0.84,1.63-0.06,2.15
			c-0.54,0.32-1.15,0.38-1.75,0.36c-0.41-0.01-0.83-0.1-1.23-0.2c-0.12-0.03-0.26-0.21-0.29-0.34c-0.05-0.2-0.01-0.42-0.01-0.63
			c0-0.23,0.08-0.28,0.31-0.2c0.45,0.17,0.91,0.35,1.38,0.46c0.48,0.11,0.78-0.02,0.83-0.29c0.08-0.41-0.25-0.53-0.53-0.67
			c-0.44-0.22-0.9-0.39-1.32-0.62c-0.39-0.21-0.68-0.51-0.72-1c-0.08-0.88,0.66-1.34,1.46-1.4c0.63-0.05,1.27,0.05,1.9,0.1
			c0.09,0.01,0.24,0.11,0.25,0.18C60.62,59.61,60.6,59.95,60.6,60.33z"/>
		<path class="st0" d="M34.48,61.01c0.54,0,1.02,0,1.51,0c0.02,0.07,0.04,0.11,0.05,0.15c0.05,0.63,0.04,0.63-0.59,0.63
			c-0.08,0-0.16,0-0.24,0c-0.73,0-0.74,0-0.72,0.75c0.01,0.3,0.04,0.6,0.07,0.9c0.02,0.22-0.05,0.33-0.28,0.32
			c-0.34-0.01-0.67-0.01-1.01,0c-0.22,0.01-0.27-0.11-0.27-0.3c0.01-1.38,0.02-2.77,0.02-4.15c0-0.21,0.08-0.26,0.26-0.26
			c1.08,0,2.16,0.01,3.24,0c0.39,0,0.24,0.28,0.27,0.47c0.03,0.22-0.03,0.35-0.3,0.34c-0.55-0.03-1.09-0.02-1.64-0.05
			c-0.26-0.01-0.39,0.06-0.36,0.35C34.49,60.43,34.48,60.7,34.48,61.01z"/>
		<path class="st0" d="M50.98,59.05c0.63,0,1.26,0.01,1.89-0.01c0.43-0.01,0.3,0.28,0.32,0.5c0.02,0.25-0.08,0.33-0.33,0.3
			c-0.26-0.04-0.53-0.03-0.8-0.06c-0.25-0.03-0.36,0.05-0.35,0.32c0.02,1.1,0.01,2.21,0.05,3.31c0.01,0.27-0.07,0.35-0.32,0.35
			c-0.33-0.01-0.65-0.01-0.98,0c-0.24,0.01-0.29-0.11-0.28-0.32c0.03-1.08,0.05-2.16,0.07-3.24c0.01-0.39-0.06-0.44-0.45-0.41
			c-0.24,0.02-0.49,0.02-0.73,0.06c-0.25,0.04-0.35-0.07-0.33-0.31c0.01-0.22-0.08-0.49,0.31-0.49
			C49.68,59.06,50.33,59.05,50.98,59.05z"/>
		<path class="st0" d="M57.74,52.12c0,0.94-0.01,1.88,0.01,2.82c0.01,0.29-0.08,0.4-0.37,0.38c-0.29-0.02-0.58-0.01-0.87,0
			c-0.22,0-0.3-0.08-0.3-0.31c0.01-1.63,0.02-3.25,0.01-4.88c0-0.22,0.06-0.33,0.29-0.32c0.31,0.01,0.63,0.02,0.94,0
			c0.26-0.02,0.31,0.1,0.31,0.33C57.73,50.8,57.74,51.46,57.74,52.12z"/>
		<path class="st0" d="M54.26,59.06c0.44,0,0.88,0,1.32,0c0.23,0,0.21,0.17,0.2,0.32c-0.02,0.74-0.06,1.49-0.07,2.23
			c0,0.6,0.02,1.21,0.06,1.81c0.02,0.25-0.06,0.34-0.3,0.34c-0.31-0.01-0.63-0.02-0.94,0c-0.27,0.02-0.33-0.11-0.33-0.35
			c0.03-0.86,0.04-1.72,0.05-2.58C54.27,60.26,54.26,59.7,54.26,59.06z"/>
	</g>
</g>
</svg>
