<?xml version="1.0" encoding="utf-8"?>
<!-- Generator: Adobe Illustrator 23.0.0, SVG Export Plug-In . SVG Version: 6.00 Build 0)  -->
<svg version="1.1" id="Calque_1" xmlns="http://www.w3.org/2000/svg" xmlns:xlink="http://www.w3.org/1999/xlink" x="0px" y="0px"
	 viewBox="0 0 94.45 70.92" style="enable-background:new 0 0 94.45 70.92;" xml:space="preserve">
<style type="text/css">
	.st0{fill:#FFFFFF;}
	.st1{fill-rule:evenodd;clip-rule:evenodd;fill:none;stroke:#1E3A6A;stroke-width:0.5;stroke-miterlimit:10;}
	.st2{fill:#1E3A6A;}
	.st3{fill:#1D3A6A;}
	.st4{fill:#5BC4EB;}
	.st5{fill:#0E9A5A;}
	.st6{fill-rule:evenodd;clip-rule:evenodd;fill:#517A42;}
	.st7{fill-rule:evenodd;clip-rule:evenodd;fill:#234273;}
	.st8{fill-rule:evenodd;clip-rule:evenodd;fill:#FFFFFF;}
	.st9{fill:#234273;}
	.st10{fill:#107DC1;}
	.st11{fill:#1E3667;}
	.st12{fill-rule:evenodd;clip-rule:evenodd;fill:#1D4484;}
	.st13{fill-rule:evenodd;clip-rule:evenodd;fill:#B3DBF4;}
	.st14{fill-rule:evenodd;clip-rule:evenodd;fill:#6BBCE9;}
	.st15{fill-rule:evenodd;clip-rule:evenodd;fill:#1E4B8F;}
	.st16{filter:url(#Adobe_OpacityMaskFilter);}
	.st17{clip-path:url(#SVGID_2_);fill:url(#SVGID_4_);}
	.st18{clip-path:url(#SVGID_2_);mask:url(#SVGID_3_);fill:url(#SVGID_5_);}
	.st19{fill-rule:evenodd;clip-rule:evenodd;fill:#758EB7;}
	.st20{fill-rule:evenodd;clip-rule:evenodd;fill:#1A4789;}
	.st21{fill-rule:evenodd;clip-rule:evenodd;fill:#8097BC;}
	.st22{fill-rule:evenodd;clip-rule:evenodd;fill:#3974BA;}
	.st23{fill-rule:evenodd;clip-rule:evenodd;fill:#1F97D4;}
	.st24{fill-rule:evenodd;clip-rule:evenodd;fill:none;stroke:url(#SVGID_6_);stroke-width:0.5;stroke-miterlimit:10;}
	.st25{fill-rule:evenodd;clip-rule:evenodd;fill:#FAB517;}
	.st26{clip-path:url(#SVGID_8_);fill-rule:evenodd;clip-rule:evenodd;fill:#F29120;}
	.st27{clip-path:url(#SVGID_8_);fill-rule:evenodd;clip-rule:evenodd;fill:#F29020;}
	.st28{clip-path:url(#SVGID_8_);fill-rule:evenodd;clip-rule:evenodd;fill:#F18F20;}
	.st29{clip-path:url(#SVGID_8_);fill-rule:evenodd;clip-rule:evenodd;fill:#F08F21;}
	.st30{clip-path:url(#SVGID_8_);fill-rule:evenodd;clip-rule:evenodd;fill:#F08E21;}
	.st31{clip-path:url(#SVGID_8_);fill-rule:evenodd;clip-rule:evenodd;fill:#F08D21;}
	.st32{clip-path:url(#SVGID_8_);fill-rule:evenodd;clip-rule:evenodd;fill:#F08C21;}
	.st33{clip-path:url(#SVGID_8_);fill-rule:evenodd;clip-rule:evenodd;fill:#F08A21;}
	.st34{clip-path:url(#SVGID_8_);fill-rule:evenodd;clip-rule:evenodd;fill:#EF8B22;}
	.st35{clip-path:url(#SVGID_8_);fill-rule:evenodd;clip-rule:evenodd;fill:#EF8922;}
	.st36{clip-path:url(#SVGID_8_);fill-rule:evenodd;clip-rule:evenodd;fill:#F08821;}
	.st37{clip-path:url(#SVGID_8_);fill-rule:evenodd;clip-rule:evenodd;fill:#F08822;}
	.st38{clip-path:url(#SVGID_8_);fill-rule:evenodd;clip-rule:evenodd;fill:#EF8722;}
	.st39{clip-path:url(#SVGID_8_);fill-rule:evenodd;clip-rule:evenodd;fill:#EF8522;}
	.st40{clip-path:url(#SVGID_8_);fill-rule:evenodd;clip-rule:evenodd;fill:#EE8522;}
	.st41{clip-path:url(#SVGID_8_);fill-rule:evenodd;clip-rule:evenodd;fill:#EE8422;}
	.st42{clip-path:url(#SVGID_8_);fill-rule:evenodd;clip-rule:evenodd;fill:#ED8322;}
	.st43{clip-path:url(#SVGID_8_);fill-rule:evenodd;clip-rule:evenodd;fill:#ED8223;}
	.st44{clip-path:url(#SVGID_10_);fill-rule:evenodd;clip-rule:evenodd;fill:#E75B24;}
	.st45{clip-path:url(#SVGID_10_);fill-rule:evenodd;clip-rule:evenodd;fill:#E75C25;}
	.st46{clip-path:url(#SVGID_10_);fill-rule:evenodd;clip-rule:evenodd;fill:#E75D25;}
	.st47{clip-path:url(#SVGID_10_);fill-rule:evenodd;clip-rule:evenodd;fill:#E75E24;}
	.st48{clip-path:url(#SVGID_10_);fill-rule:evenodd;clip-rule:evenodd;fill:#E75D24;}
	.st49{clip-path:url(#SVGID_10_);fill-rule:evenodd;clip-rule:evenodd;fill:#E86024;}
	.st50{clip-path:url(#SVGID_10_);fill-rule:evenodd;clip-rule:evenodd;fill:#E86124;}
	.st51{clip-path:url(#SVGID_10_);fill-rule:evenodd;clip-rule:evenodd;fill:#E86224;}
	.st52{clip-path:url(#SVGID_10_);fill-rule:evenodd;clip-rule:evenodd;fill:#EA6424;}
	.st53{clip-path:url(#SVGID_10_);fill-rule:evenodd;clip-rule:evenodd;fill:#EA6524;}
	.st54{clip-path:url(#SVGID_10_);fill-rule:evenodd;clip-rule:evenodd;fill:#EA6624;}
	.st55{clip-path:url(#SVGID_10_);fill-rule:evenodd;clip-rule:evenodd;fill:#EA6724;}
	.st56{clip-path:url(#SVGID_10_);fill-rule:evenodd;clip-rule:evenodd;fill:#E96824;}
	.st57{clip-path:url(#SVGID_10_);fill-rule:evenodd;clip-rule:evenodd;fill:#EB6824;}
	.st58{clip-path:url(#SVGID_10_);fill-rule:evenodd;clip-rule:evenodd;fill:#EB6924;}
	.st59{clip-path:url(#SVGID_10_);fill-rule:evenodd;clip-rule:evenodd;fill:#EC6A24;}
	.st60{clip-path:url(#SVGID_10_);fill-rule:evenodd;clip-rule:evenodd;fill:#E96A24;}
	.st61{clip-path:url(#SVGID_10_);fill-rule:evenodd;clip-rule:evenodd;fill:#E96C24;}
	.st62{clip-path:url(#SVGID_10_);fill-rule:evenodd;clip-rule:evenodd;fill:#EB6D24;}
	.st63{clip-path:url(#SVGID_10_);fill-rule:evenodd;clip-rule:evenodd;fill:#EC6E23;}
	.st64{clip-path:url(#SVGID_10_);fill-rule:evenodd;clip-rule:evenodd;fill:#EC6F23;}
	.st65{clip-path:url(#SVGID_10_);fill-rule:evenodd;clip-rule:evenodd;fill:#EB7024;}
	.st66{clip-path:url(#SVGID_10_);fill-rule:evenodd;clip-rule:evenodd;fill:#EB7124;}
	.st67{clip-path:url(#SVGID_10_);fill-rule:evenodd;clip-rule:evenodd;fill:#EC7224;}
	.st68{clip-path:url(#SVGID_10_);fill-rule:evenodd;clip-rule:evenodd;fill:#EC7323;}
	.st69{clip-path:url(#SVGID_10_);fill-rule:evenodd;clip-rule:evenodd;fill:#ED7423;}
	.st70{clip-path:url(#SVGID_10_);fill-rule:evenodd;clip-rule:evenodd;fill:#ED7523;}
	.st71{clip-path:url(#SVGID_10_);fill-rule:evenodd;clip-rule:evenodd;fill:#ED7623;}
	.st72{clip-path:url(#SVGID_10_);fill-rule:evenodd;clip-rule:evenodd;fill:#EC7723;}
	.st73{clip-path:url(#SVGID_10_);fill-rule:evenodd;clip-rule:evenodd;fill:#EC7923;}
	.st74{clip-path:url(#SVGID_10_);fill-rule:evenodd;clip-rule:evenodd;fill:#EE7823;}
	.st75{clip-path:url(#SVGID_10_);fill-rule:evenodd;clip-rule:evenodd;fill:#ED7A23;}
	.st76{clip-path:url(#SVGID_10_);fill-rule:evenodd;clip-rule:evenodd;fill:#ED7B23;}
	.st77{clip-path:url(#SVGID_10_);fill-rule:evenodd;clip-rule:evenodd;fill:#ED7C23;}
	.st78{clip-path:url(#SVGID_10_);fill-rule:evenodd;clip-rule:evenodd;fill:#ED7D23;}
	.st79{clip-path:url(#SVGID_10_);fill-rule:evenodd;clip-rule:evenodd;fill:#EE7D22;}
	.st80{clip-path:url(#SVGID_10_);fill-rule:evenodd;clip-rule:evenodd;fill:#EE7E22;}
	.st81{clip-path:url(#SVGID_10_);fill-rule:evenodd;clip-rule:evenodd;fill:#EE7F22;}
	.st82{clip-path:url(#SVGID_10_);fill-rule:evenodd;clip-rule:evenodd;fill:#EF8022;}
	.st83{clip-path:url(#SVGID_10_);fill-rule:evenodd;clip-rule:evenodd;fill:#EF8122;}
	.st84{clip-path:url(#SVGID_10_);fill-rule:evenodd;clip-rule:evenodd;fill:#EF8222;}
	.st85{clip-path:url(#SVGID_10_);fill-rule:evenodd;clip-rule:evenodd;fill:#F08322;}
	.st86{clip-path:url(#SVGID_10_);fill-rule:evenodd;clip-rule:evenodd;fill:#F08421;}
	.st87{clip-path:url(#SVGID_10_);fill-rule:evenodd;clip-rule:evenodd;fill:#F08521;}
	.st88{clip-path:url(#SVGID_10_);fill-rule:evenodd;clip-rule:evenodd;fill:#EF8522;}
	.st89{clip-path:url(#SVGID_10_);fill-rule:evenodd;clip-rule:evenodd;fill:#F08722;}
	.st90{clip-path:url(#SVGID_10_);fill-rule:evenodd;clip-rule:evenodd;fill:#F08822;}
	.st91{clip-path:url(#SVGID_10_);fill-rule:evenodd;clip-rule:evenodd;fill:#F08821;}
	.st92{clip-path:url(#SVGID_10_);fill-rule:evenodd;clip-rule:evenodd;fill:#F18821;}
	.st93{clip-path:url(#SVGID_10_);fill-rule:evenodd;clip-rule:evenodd;fill:#F18921;}
	.st94{clip-path:url(#SVGID_10_);fill-rule:evenodd;clip-rule:evenodd;fill:#F18A21;}
	.st95{clip-path:url(#SVGID_10_);fill-rule:evenodd;clip-rule:evenodd;fill:#F08C21;}
	.st96{clip-path:url(#SVGID_10_);fill-rule:evenodd;clip-rule:evenodd;fill:#F08D21;}
	.st97{clip-path:url(#SVGID_10_);fill-rule:evenodd;clip-rule:evenodd;fill:#F18E21;}
	.st98{clip-path:url(#SVGID_10_);fill-rule:evenodd;clip-rule:evenodd;fill:#F18F20;}
	.st99{clip-path:url(#SVGID_10_);fill-rule:evenodd;clip-rule:evenodd;fill:#F29020;}
	.st100{clip-path:url(#SVGID_10_);fill-rule:evenodd;clip-rule:evenodd;fill:#F29120;}
	.st101{clip-path:url(#SVGID_10_);fill-rule:evenodd;clip-rule:evenodd;fill:#F29220;}
	.st102{clip-path:url(#SVGID_10_);fill-rule:evenodd;clip-rule:evenodd;fill:#F39320;}
	.st103{clip-path:url(#SVGID_10_);fill-rule:evenodd;clip-rule:evenodd;fill:#F3941F;}
	.st104{clip-path:url(#SVGID_10_);fill-rule:evenodd;clip-rule:evenodd;fill:#F3951F;}
	.st105{clip-path:url(#SVGID_10_);fill-rule:evenodd;clip-rule:evenodd;fill:#F3971F;}
	.st106{clip-path:url(#SVGID_10_);fill-rule:evenodd;clip-rule:evenodd;fill:#F3981F;}
	.st107{clip-path:url(#SVGID_10_);fill-rule:evenodd;clip-rule:evenodd;fill:#F4991F;}
	.st108{clip-path:url(#SVGID_10_);fill-rule:evenodd;clip-rule:evenodd;fill:#F49A1F;}
	.st109{clip-path:url(#SVGID_10_);fill-rule:evenodd;clip-rule:evenodd;fill:#F49B1E;}
	.st110{clip-path:url(#SVGID_10_);fill-rule:evenodd;clip-rule:evenodd;fill:#F49C1E;}
	.st111{clip-path:url(#SVGID_10_);fill-rule:evenodd;clip-rule:evenodd;fill:#F49D1E;}
	.st112{clip-path:url(#SVGID_10_);fill-rule:evenodd;clip-rule:evenodd;fill:#F59E1D;}
	.st113{clip-path:url(#SVGID_10_);fill-rule:evenodd;clip-rule:evenodd;fill:#F49F1E;}
	.st114{clip-path:url(#SVGID_10_);fill-rule:evenodd;clip-rule:evenodd;fill:#F59F1E;}
	.st115{clip-path:url(#SVGID_10_);fill-rule:evenodd;clip-rule:evenodd;fill:#F5A11D;}
	.st116{clip-path:url(#SVGID_10_);fill-rule:evenodd;clip-rule:evenodd;fill:#F5A31D;}
	.st117{clip-path:url(#SVGID_10_);fill-rule:evenodd;clip-rule:evenodd;fill:#F6A21D;}
	.st118{clip-path:url(#SVGID_10_);fill-rule:evenodd;clip-rule:evenodd;fill:#F5A41D;}
	.st119{clip-path:url(#SVGID_10_);fill-rule:evenodd;clip-rule:evenodd;fill:#F5A61C;}
	.st120{clip-path:url(#SVGID_10_);fill-rule:evenodd;clip-rule:evenodd;fill:#F6A81C;}
	.st121{clip-path:url(#SVGID_10_);fill-rule:evenodd;clip-rule:evenodd;fill:#F7A91B;}
	.st122{clip-path:url(#SVGID_10_);fill-rule:evenodd;clip-rule:evenodd;fill:#F6A91C;}
	.st123{clip-path:url(#SVGID_10_);fill-rule:evenodd;clip-rule:evenodd;fill:#F6AA1B;}
	.st124{filter:url(#Adobe_OpacityMaskFilter_1_);}
	.st125{fill:url(#SVGID_12_);}
	.st126{mask:url(#SVGID_11_);fill-rule:evenodd;clip-rule:evenodd;fill:#EB7224;}
	.st127{fill-rule:evenodd;clip-rule:evenodd;fill:#EE8522;}
	.st128{fill-rule:evenodd;clip-rule:evenodd;fill:#EA6624;}
	.st129{filter:url(#Adobe_OpacityMaskFilter_2_);}
	.st130{fill:url(#SVGID_14_);}
	.st131{mask:url(#SVGID_13_);fill-rule:evenodd;clip-rule:evenodd;fill:#E65725;}
	.st132{fill-rule:evenodd;clip-rule:evenodd;fill:#D62128;}
	.st133{fill-rule:evenodd;clip-rule:evenodd;fill:none;stroke:#0D6341;stroke-width:0.5;stroke-miterlimit:10;}
	.st134{fill:#84BC41;}
	.st135{fill:#069648;}
	.st136{fill:#C2D42F;}
	.st137{fill:#006341;}
	.st138{fill:#BCD7F0;}
	.st139{fill:#144A96;}
	.st140{fill:#EE2738;}
	.st141{fill-rule:evenodd;clip-rule:evenodd;fill:#582D82;}
	.st142{fill:#E31F31;}
	.st143{fill-rule:evenodd;clip-rule:evenodd;fill:#2E327F;}
	.st144{fill-rule:evenodd;clip-rule:evenodd;fill:#12A260;}
	.st145{fill-rule:evenodd;clip-rule:evenodd;fill:#EE272D;}
</style>
<path class="st138" d="M88.18,70.92H6.39c-3.47,0-6.28-2.81-6.28-6.28V6.41c0-3.47,2.81-6.28,6.28-6.28h81.78
	c3.47,0,6.28,2.81,6.28,6.28v58.24C94.45,68.12,91.64,70.92,88.18,70.92z"/>
<g>
	<path class="st139" d="M76.58,28.35c0,10.91,0,21.82,0,32.73c0,1.96-0.97,2.92-2.91,2.92H9.87c-1.91,0-2.88-0.96-2.88-2.85
		c0-12.98,0-25.96,0-38.94c0-1.75,0.98-2.75,2.69-2.76c10.24-0.01,20.48,0,30.71,0c0.21,0,0.42,0.03,0.57,0.04
		c-0.73,2.6-1.53,5.09-2.12,7.63c-0.58,2.48-0.67,5-0.13,7.53c0.94,4.35,4.08,7.03,8.52,7.31c3.36,0.21,6.53-0.57,9.63-1.74
		c6.53-2.46,12.17-6.36,17.48-10.81c0.7-0.58,1.38-1.18,2.17-1.87C76.55,27.9,76.58,28.13,76.58,28.35z"/>
	<path class="st140" d="M83.26,7.79c-1.43,3.09-3.13,5.9-5.07,8.55c-5.17,7.06-11.31,13.08-18.9,17.51
		c-3.07,1.79-6.31,3.2-9.89,3.55c-1.13,0.11-2.33,0.05-3.44-0.19c-2.89-0.64-4.66-2.93-4.91-6.06c-0.32-3.96,0.88-7.58,2.44-11.12
		c0.11-0.25,0.46-0.47,0.75-0.57c0.95-0.33,1.92-0.59,3.05-0.93c-0.15,0.39-0.26,0.67-0.37,0.96c-0.84,2.17-1.58,4.37-1.22,6.75
		c0.4,2.6,2.08,4.02,4.72,4.01c1.92-0.01,3.73-0.58,5.44-1.42c6.19-3.02,10.94-7.66,14.84-13.23c0.97-1.39,1.73-2.93,2.62-4.39
		c0.19-0.31,0.48-0.67,0.8-0.77c2.9-0.92,5.82-1.78,8.73-2.65C82.92,7.77,83.02,7.79,83.26,7.79z"/>
	<path class="st140" d="M62.38,13.97c-0.25,0.49-0.4,0.82-0.58,1.12c-1.99,3.34-4.57,6.1-8.08,7.85c-0.95,0.47-2.06,0.73-3.13,0.83
		c-1.29,0.12-2.23-0.73-2.18-2.02c0.04-1.16,0.39-2.32,0.68-3.45c0.06-0.23,0.46-0.45,0.75-0.54
		C53.94,16.51,58.05,15.27,62.38,13.97z"/>
	<path class="st8" d="M11.22,57.63c0.36,0.38,1.98,0.47,2.65,0.47c0.35,0,0.62-0.04,0.98-0.11c0.3-0.06,0.36-0.12,0.58-0.18
		l0.24-0.08c0.01-0.01,0.02-0.02,0.03-0.02l0.24-0.16c0.06-0.04,0.11-0.07,0.16-0.1c0.01-0.01,0.32-0.22,0.43-0.38
		c0.42-0.59,0.7-1.17,0.7-1.93l-0.04-0.6c-0.06-0.35-0.1-0.51-0.23-0.79c-0.18-0.37-0.13-0.42-0.6-0.88
		c-0.3-0.29-0.7-0.54-1.12-0.67l-0.67-0.14c-0.18-0.03-0.36-0.05-0.55-0.06c-0.5-0.01-0.91,0.25-1.01,0l0.01-1.85
		c-0.04-0.51-0.28-0.37-1.57-0.37c-0.39,0-0.28,0.34-0.28,0.71C11.17,51.74,11.12,57.34,11.22,57.63 M15.35,55.5
		c-0.08,0.76-0.63,1.33-1.43,1.39c-0.32,0.02-0.63-0.01-0.88-0.12c-0.06-0.15-0.05-3.22-0.02-3.37l0.17-0.11
		c0.43,0,0.6-0.1,1.06,0.01c0.43,0.11,0.77,0.44,0.95,0.84l0.07,0.22C15.43,54.81,15.39,55.09,15.35,55.5z M20.06,58.07
		c0.3-0.14,0.5,0.02,0.84,0.03c0.75,0.04,1.9-0.21,2.53-0.82l0.21-0.2c0.75-0.9,0.87-2.58,0.29-3.56c-0.39-0.67-1.02-1.15-1.79-1.33
		c-1-0.23-1.85-0.17-2.86-0.02c-0.3,0.04-0.36,0.09-0.64,0.16c-0.24,0.06-0.37,0.1-0.39,0.38l0,4.62c0,0.65-0.11,2.57,0.09,2.99
		L20,60.3C20.14,59.93,20,58.6,20.06,58.07z M20.15,53.33c0.43-0.08,0.97-0.1,1.38,0.05l0.07,0.03c0.01,0,0.02,0.01,0.03,0.01
		c0.27,0.12,0.56,0.45,0.68,0.7c0.04,0.08,0.02,0.04,0.05,0.15c0.02,0.09,0.06,0.25,0.07,0.37c0.09,0.71,0,1.6-0.7,2.02
		c-0.5,0.3-1.67,0.36-1.67-0.1v-2.94C20.05,53.51,20.11,53.45,20.15,53.33z M27.84,58.15c1.05,0,1.86-0.01,2.7-0.84
		c0.24-0.24,0.37-0.39,0.56-0.76l0.18-0.44c0.15-0.44,0.13-1.34,0.05-1.82l-0.14-0.42c-0.08-0.23-0.1-0.2-0.18-0.37l-0.15-0.25
		c-0.69-0.86-1.03-0.94-2-1.17c-0.68-0.16-1.63,0.03-2.21,0.3c-0.81,0.38-1.22,1.08-1.46,1.87c-0.2,0.63-0.08,1.41,0.1,2.01
		c0.17,0.55,0.58,1.08,1.07,1.38l0.56,0.3C27.15,58.04,27.58,58.15,27.84,58.15z M26.9,55.3c-0.09-0.7,0.23-1.94,1.09-2.01
		c0.72-0.06,1.12,0.11,1.4,0.74c0.36,0.8,0.38,2.95-1.25,2.87c-0.16-0.01-0.18-0.02-0.33-0.08c-0.22-0.08-0.34-0.13-0.51-0.33
		C27.03,56.17,26.97,55.82,26.9,55.3z M35.16,56.13c0.18,1.43-2.49,0.46-2.5,0.46c-0.19,0.02-0.36,0.45-0.43,0.62
		c-0.19,0.48-0.21,0.15-0.18,0.58c0.2-0.02,0.31,0.1,0.54,0.17l0.74,0.15c0.02,0,0.03,0,0.04,0.01l0.57,0.04
		c0.72,0,1.05,0.01,1.74-0.16l0.78-0.39c0.07-0.05,0.13-0.12,0.21-0.19c0.6-0.6,0.59-1.83-0.35-2.37l-1.09-0.47
		c-0.08-0.03-0.2-0.05-0.28-0.07l-0.26-0.09c-0.28-0.13-0.76-0.27-0.67-0.71l0.02-0.08c0.03-0.1,0.02-0.08,0.09-0.17
		c0.11-0.13,0.44-0.24,0.72-0.26c0.72-0.05,1.32,0.4,1.52,0.24c0.13-0.15,0.24-0.6,0.43-0.68l0.02-0.31
		c-1.04-0.46-2.72-0.63-3.81-0.04c-0.27,0.15-0.66,0.52-0.76,0.82c0,0.01-0.01,0.03-0.01,0.04l-0.05,0.2
		c-0.07,0.31-0.03,0.73,0.1,0.96c0.19,0.36,0.27,0.38,0.54,0.59c0.42,0.33,0.97,0.44,1.34,0.58C35.2,55.98,34.47,55.61,35.16,56.13z
		 M38.55,51.04c0,0.19,0,0.37,0,0.56c0,0.15,0.02,0.31-0.03,0.45l-0.15,0.11c-0.47,0.1-0.7-0.24-0.69,0.56
		c0,0.34-0.02,0.34,0.07,0.61l0.71,0.01c0.42,0.66-0.31,3.13,0.43,4.11c0.07,0.1,0.15,0.17,0.24,0.26c0.1,0.09,0.19,0.15,0.31,0.21
		c0.01,0.01,0.02,0.01,0.03,0.02c0.3,0.15,1.23,0.22,1.56,0.17l0.57-0.16c0.19-1.49-0.1-1.22-0.51-1.22l-0.42-0.04
		c-0.37-0.13-0.32-0.6-0.32-1.03c0-0.43-0.08-2.03,0.06-2.3c0.18-0.04,0.38-0.02,0.58-0.02c0.26,0,0.58,0.06,0.63-0.16l0.01-0.46
		c0-0.27,0.02-0.36-0.09-0.54l-1.15-0.02c-0.1-0.38,0.1-1.31-0.1-1.61c-0.12-0.08-0.59,0.06-0.71,0.1
		C39.07,50.83,39.11,50.59,38.55,51.04z M48.59,58.1c0.35,0,0.95-0.11,1.3-0.25l0.36-0.16c0.16-0.1,0.16-0.06,0.33-0.18
		c0.35-0.24,0.75-0.66,0.91-1.07c0.04-0.1,0.05-0.11,0.08-0.18c0.08-0.17,0.02,0.02,0.08-0.2c0.21-0.86,0.18-1.73-0.22-2.5
		c-0.26-0.5-0.55-0.79-1.02-1.07l-1.15-0.39c-0.01,0-0.03-0.01-0.04-0.01l-0.12-0.02c-0.37-0.06-0.86-0.08-1.2,0.01
		c-0.13,0.04-0.22,0.15-0.34-0.02c-0.17-0.27,0.1-2.07-0.13-2.23c-0.39-0.1-1.33-0.07-1.7,0.05c-0.08,0.46-0.03,4.38-0.03,5.2
		c0,2.75-0.3,2.54,0.83,2.84C47.13,58.09,48.01,58.1,48.59,58.1z M47.51,56.67c0-0.91,0-1.83,0-2.74c0-0.23-0.02-0.48,0.12-0.59
		c0.11-0.09,0.7-0.12,0.97-0.08l0.22,0.04c0.81,0.18,1.28,1.22,1.04,2.32c-0.05,0.25-0.19,0.59-0.31,0.75
		C49.2,56.84,48.1,57.11,47.51,56.67z M52.87,52.61l0.12,0.29c0.33,0.63,0.18,0.68,0.8,0.49c0.12-0.04,0.08-0.03,0.2-0.05
		c0.01,0,0.03,0,0.04-0.01l0.08-0.02c0.66-0.12,1.47-0.29,2.09,0.07c0.2,0.11,0.19,0.11,0.25,0.3c0.06,0.17,0.08,0.32,0.05,0.5
		c-0.35,0.13-0.95,0.11-1.38,0.16l-1.26,0.28c-0.3,0.13-0.4,0.1-0.74,0.39l-0.09,0.07c-0.67,0.53-0.86,1.28-0.31,2.1l0.34,0.38
		c0.15,0.13,0.04,0.04,0.18,0.11c0.26,0.13,0.52,0.27,0.79,0.33c1.33,0.26,1.94,0.21,3.26,0.02l0.91-0.26
		c0.16-0.48,0.07-2.66,0.08-3.51l-0.06-0.68l-0.36-0.72c-0.84-1.04-2.75-0.84-3.95-0.66C53.58,52.24,52.87,52.34,52.87,52.61z
		 M56.5,56.87c-0.41,0.24-1.32,0.2-1.76,0.03c-0.2-0.08-0.45-0.15-0.53-0.49c-0.07-0.3,0.01-0.57,0.24-0.75
		c0.42-0.34,1.3-0.33,1.69-0.38c0.49-0.06,0.39,0.08,0.39,0.58C56.52,56.19,56.55,56.56,56.5,56.87z M61.3,57.96
		c0.13-0.18,0.05-3.47,0.05-4.19c0-0.39,0.08-0.42,0.44-0.45c0.6-0.05,0.96-0.12,1.41,0.17c0.15,0.1,0.3,0.31,0.35,0.54l0.01,2.53
		c0,1.73-0.25,1.45,1.11,1.45c0.68,0,0.74,0.06,0.73-0.49l-0.01-3.85c-0.1-0.7-0.68-1.12-1.27-1.38c-0.15-0.06-0.14-0.07-0.31-0.11
		c-0.06-0.01-0.18-0.04-0.31-0.06c-0.74-0.12-1.46-0.15-2.25-0.04c-0.02,0-0.03,0-0.04,0.01l-0.09,0.01
		c-0.07,0.01-0.12,0.02-0.17,0.02c-0.34,0.05-1.33,0.19-1.44,0.47c0,0.74-0.1,5.05,0.06,5.35c0.08,0.11,0.18,0.07,0.43,0.06
		C60.35,58.02,61.13,58.08,61.3,57.96z M66.68,57.93c0.24,0.13,1.67,0.15,1.79,0.01c0.21-0.26-0.11-2.42,0.09-2.66
		c0.11,0.01,0.1,0.03,0.2,0.14l1.88,2.2c0.12,0.15,0.26,0.39,0.5,0.4l1.59,0c0.13-0.01,0.23-0.05,0.19-0.17l-1.87-2.15
		c-0.01-0.01-0.01-0.02-0.02-0.03c-0.01-0.01-0.01-0.02-0.02-0.03c-0.03-0.04-0.07-0.08-0.1-0.11l-0.48-0.54
		c-0.01-0.01-0.02-0.02-0.03-0.04c0.14-0.35,0.74-0.87,1.03-1.18c0.09-0.1,0.1-0.09,0.18-0.18l0.95-0.99
		c0.13-0.13,0.24-0.16,0.18-0.41c-0.1-0.03-1.79-0.15-2.02,0.06c0,0-0.04,0.05-0.05,0.05c-0.01,0.01-0.04,0.04-0.05,0.05l-0.1,0.11
		c-0.01,0.01-0.01,0.02-0.02,0.03l-0.54,0.59c-0.19,0.19-1.3,1.46-1.4,1.47c-0.16-0.15-0.06-0.27-0.05-0.47
		c0.02-0.35,0.03-3.99-0.03-4.13c-0.1-0.25-0.75-0.14-1.3-0.14c-0.66,0-0.51,0.09-0.51,0.71C66.67,52.79,66.59,55.86,66.68,57.93z"
		/>
</g>
</svg>
