<?xml version="1.0" encoding="utf-8"?>
<!-- Generator: Adobe Illustrator 23.0.0, SVG Export Plug-In . SVG Version: 6.00 Build 0)  -->
<svg version="1.1" id="Calque_1" xmlns="http://www.w3.org/2000/svg" xmlns:xlink="http://www.w3.org/1999/xlink" x="0px" y="0px"
	 viewBox="0 0 94.45 70.92" style="enable-background:new 0 0 94.45 70.92;" xml:space="preserve">
<style type="text/css">
	.st0{fill:#FFFFFF;}
	.st1{fill-rule:evenodd;clip-rule:evenodd;fill:none;stroke:#1E3A6A;stroke-width:0.5;stroke-miterlimit:10;}
	.st2{fill:#1E3A6A;}
	.st3{fill:#1D3A6A;}
	.st4{fill:#5BC4EB;}
	.st5{fill:#0E9A5A;}
	.st6{fill-rule:evenodd;clip-rule:evenodd;fill:#517A42;}
	.st7{fill-rule:evenodd;clip-rule:evenodd;fill:#234273;}
	.st8{fill-rule:evenodd;clip-rule:evenodd;fill:#FFFFFF;}
	.st9{fill:#234273;}
	.st10{fill:#107DC1;}
	.st11{fill:#1E3667;}
	.st12{fill-rule:evenodd;clip-rule:evenodd;fill:#1D4484;}
	.st13{fill-rule:evenodd;clip-rule:evenodd;fill:#B3DBF4;}
	.st14{fill-rule:evenodd;clip-rule:evenodd;fill:#6BBCE9;}
	.st15{fill-rule:evenodd;clip-rule:evenodd;fill:#1E4B8F;}
	.st16{filter:url(#Adobe_OpacityMaskFilter);}
	.st17{clip-path:url(#SVGID_2_);fill:url(#SVGID_4_);}
	.st18{clip-path:url(#SVGID_2_);mask:url(#SVGID_3_);fill:url(#SVGID_5_);}
	.st19{fill-rule:evenodd;clip-rule:evenodd;fill:#758EB7;}
	.st20{fill-rule:evenodd;clip-rule:evenodd;fill:#1A4789;}
	.st21{fill-rule:evenodd;clip-rule:evenodd;fill:#8097BC;}
	.st22{fill-rule:evenodd;clip-rule:evenodd;fill:#3974BA;}
	.st23{fill-rule:evenodd;clip-rule:evenodd;fill:#1F97D4;}
	.st24{fill-rule:evenodd;clip-rule:evenodd;fill:none;stroke:url(#SVGID_6_);stroke-width:0.5;stroke-miterlimit:10;}
	.st25{fill-rule:evenodd;clip-rule:evenodd;fill:#FAB517;}
	.st26{clip-path:url(#SVGID_8_);fill-rule:evenodd;clip-rule:evenodd;fill:#F29120;}
	.st27{clip-path:url(#SVGID_8_);fill-rule:evenodd;clip-rule:evenodd;fill:#F29020;}
	.st28{clip-path:url(#SVGID_8_);fill-rule:evenodd;clip-rule:evenodd;fill:#F18F20;}
	.st29{clip-path:url(#SVGID_8_);fill-rule:evenodd;clip-rule:evenodd;fill:#F08F21;}
	.st30{clip-path:url(#SVGID_8_);fill-rule:evenodd;clip-rule:evenodd;fill:#F08E21;}
	.st31{clip-path:url(#SVGID_8_);fill-rule:evenodd;clip-rule:evenodd;fill:#F08D21;}
	.st32{clip-path:url(#SVGID_8_);fill-rule:evenodd;clip-rule:evenodd;fill:#F08C21;}
	.st33{clip-path:url(#SVGID_8_);fill-rule:evenodd;clip-rule:evenodd;fill:#F08A21;}
	.st34{clip-path:url(#SVGID_8_);fill-rule:evenodd;clip-rule:evenodd;fill:#EF8B22;}
	.st35{clip-path:url(#SVGID_8_);fill-rule:evenodd;clip-rule:evenodd;fill:#EF8922;}
	.st36{clip-path:url(#SVGID_8_);fill-rule:evenodd;clip-rule:evenodd;fill:#F08821;}
	.st37{clip-path:url(#SVGID_8_);fill-rule:evenodd;clip-rule:evenodd;fill:#F08822;}
	.st38{clip-path:url(#SVGID_8_);fill-rule:evenodd;clip-rule:evenodd;fill:#EF8722;}
	.st39{clip-path:url(#SVGID_8_);fill-rule:evenodd;clip-rule:evenodd;fill:#EF8522;}
	.st40{clip-path:url(#SVGID_8_);fill-rule:evenodd;clip-rule:evenodd;fill:#EE8522;}
	.st41{clip-path:url(#SVGID_8_);fill-rule:evenodd;clip-rule:evenodd;fill:#EE8422;}
	.st42{clip-path:url(#SVGID_8_);fill-rule:evenodd;clip-rule:evenodd;fill:#ED8322;}
	.st43{clip-path:url(#SVGID_8_);fill-rule:evenodd;clip-rule:evenodd;fill:#ED8223;}
	.st44{clip-path:url(#SVGID_10_);fill-rule:evenodd;clip-rule:evenodd;fill:#E75B24;}
	.st45{clip-path:url(#SVGID_10_);fill-rule:evenodd;clip-rule:evenodd;fill:#E75C25;}
	.st46{clip-path:url(#SVGID_10_);fill-rule:evenodd;clip-rule:evenodd;fill:#E75D25;}
	.st47{clip-path:url(#SVGID_10_);fill-rule:evenodd;clip-rule:evenodd;fill:#E75E24;}
	.st48{clip-path:url(#SVGID_10_);fill-rule:evenodd;clip-rule:evenodd;fill:#E75D24;}
	.st49{clip-path:url(#SVGID_10_);fill-rule:evenodd;clip-rule:evenodd;fill:#E86024;}
	.st50{clip-path:url(#SVGID_10_);fill-rule:evenodd;clip-rule:evenodd;fill:#E86124;}
	.st51{clip-path:url(#SVGID_10_);fill-rule:evenodd;clip-rule:evenodd;fill:#E86224;}
	.st52{clip-path:url(#SVGID_10_);fill-rule:evenodd;clip-rule:evenodd;fill:#EA6424;}
	.st53{clip-path:url(#SVGID_10_);fill-rule:evenodd;clip-rule:evenodd;fill:#EA6524;}
	.st54{clip-path:url(#SVGID_10_);fill-rule:evenodd;clip-rule:evenodd;fill:#EA6624;}
	.st55{clip-path:url(#SVGID_10_);fill-rule:evenodd;clip-rule:evenodd;fill:#EA6724;}
	.st56{clip-path:url(#SVGID_10_);fill-rule:evenodd;clip-rule:evenodd;fill:#E96824;}
	.st57{clip-path:url(#SVGID_10_);fill-rule:evenodd;clip-rule:evenodd;fill:#EB6824;}
	.st58{clip-path:url(#SVGID_10_);fill-rule:evenodd;clip-rule:evenodd;fill:#EB6924;}
	.st59{clip-path:url(#SVGID_10_);fill-rule:evenodd;clip-rule:evenodd;fill:#EC6A24;}
	.st60{clip-path:url(#SVGID_10_);fill-rule:evenodd;clip-rule:evenodd;fill:#E96A24;}
	.st61{clip-path:url(#SVGID_10_);fill-rule:evenodd;clip-rule:evenodd;fill:#E96C24;}
	.st62{clip-path:url(#SVGID_10_);fill-rule:evenodd;clip-rule:evenodd;fill:#EB6D24;}
	.st63{clip-path:url(#SVGID_10_);fill-rule:evenodd;clip-rule:evenodd;fill:#EC6E23;}
	.st64{clip-path:url(#SVGID_10_);fill-rule:evenodd;clip-rule:evenodd;fill:#EC6F23;}
	.st65{clip-path:url(#SVGID_10_);fill-rule:evenodd;clip-rule:evenodd;fill:#EB7024;}
	.st66{clip-path:url(#SVGID_10_);fill-rule:evenodd;clip-rule:evenodd;fill:#EB7124;}
	.st67{clip-path:url(#SVGID_10_);fill-rule:evenodd;clip-rule:evenodd;fill:#EC7224;}
	.st68{clip-path:url(#SVGID_10_);fill-rule:evenodd;clip-rule:evenodd;fill:#EC7323;}
	.st69{clip-path:url(#SVGID_10_);fill-rule:evenodd;clip-rule:evenodd;fill:#ED7423;}
	.st70{clip-path:url(#SVGID_10_);fill-rule:evenodd;clip-rule:evenodd;fill:#ED7523;}
	.st71{clip-path:url(#SVGID_10_);fill-rule:evenodd;clip-rule:evenodd;fill:#ED7623;}
	.st72{clip-path:url(#SVGID_10_);fill-rule:evenodd;clip-rule:evenodd;fill:#EC7723;}
	.st73{clip-path:url(#SVGID_10_);fill-rule:evenodd;clip-rule:evenodd;fill:#EC7923;}
	.st74{clip-path:url(#SVGID_10_);fill-rule:evenodd;clip-rule:evenodd;fill:#EE7823;}
	.st75{clip-path:url(#SVGID_10_);fill-rule:evenodd;clip-rule:evenodd;fill:#ED7A23;}
	.st76{clip-path:url(#SVGID_10_);fill-rule:evenodd;clip-rule:evenodd;fill:#ED7B23;}
	.st77{clip-path:url(#SVGID_10_);fill-rule:evenodd;clip-rule:evenodd;fill:#ED7C23;}
	.st78{clip-path:url(#SVGID_10_);fill-rule:evenodd;clip-rule:evenodd;fill:#ED7D23;}
	.st79{clip-path:url(#SVGID_10_);fill-rule:evenodd;clip-rule:evenodd;fill:#EE7D22;}
	.st80{clip-path:url(#SVGID_10_);fill-rule:evenodd;clip-rule:evenodd;fill:#EE7E22;}
	.st81{clip-path:url(#SVGID_10_);fill-rule:evenodd;clip-rule:evenodd;fill:#EE7F22;}
	.st82{clip-path:url(#SVGID_10_);fill-rule:evenodd;clip-rule:evenodd;fill:#EF8022;}
	.st83{clip-path:url(#SVGID_10_);fill-rule:evenodd;clip-rule:evenodd;fill:#EF8122;}
	.st84{clip-path:url(#SVGID_10_);fill-rule:evenodd;clip-rule:evenodd;fill:#EF8222;}
	.st85{clip-path:url(#SVGID_10_);fill-rule:evenodd;clip-rule:evenodd;fill:#F08322;}
	.st86{clip-path:url(#SVGID_10_);fill-rule:evenodd;clip-rule:evenodd;fill:#F08421;}
	.st87{clip-path:url(#SVGID_10_);fill-rule:evenodd;clip-rule:evenodd;fill:#F08521;}
	.st88{clip-path:url(#SVGID_10_);fill-rule:evenodd;clip-rule:evenodd;fill:#EF8522;}
	.st89{clip-path:url(#SVGID_10_);fill-rule:evenodd;clip-rule:evenodd;fill:#F08722;}
	.st90{clip-path:url(#SVGID_10_);fill-rule:evenodd;clip-rule:evenodd;fill:#F08822;}
	.st91{clip-path:url(#SVGID_10_);fill-rule:evenodd;clip-rule:evenodd;fill:#F08821;}
	.st92{clip-path:url(#SVGID_10_);fill-rule:evenodd;clip-rule:evenodd;fill:#F18821;}
	.st93{clip-path:url(#SVGID_10_);fill-rule:evenodd;clip-rule:evenodd;fill:#F18921;}
	.st94{clip-path:url(#SVGID_10_);fill-rule:evenodd;clip-rule:evenodd;fill:#F18A21;}
	.st95{clip-path:url(#SVGID_10_);fill-rule:evenodd;clip-rule:evenodd;fill:#F08C21;}
	.st96{clip-path:url(#SVGID_10_);fill-rule:evenodd;clip-rule:evenodd;fill:#F08D21;}
	.st97{clip-path:url(#SVGID_10_);fill-rule:evenodd;clip-rule:evenodd;fill:#F18E21;}
	.st98{clip-path:url(#SVGID_10_);fill-rule:evenodd;clip-rule:evenodd;fill:#F18F20;}
	.st99{clip-path:url(#SVGID_10_);fill-rule:evenodd;clip-rule:evenodd;fill:#F29020;}
	.st100{clip-path:url(#SVGID_10_);fill-rule:evenodd;clip-rule:evenodd;fill:#F29120;}
	.st101{clip-path:url(#SVGID_10_);fill-rule:evenodd;clip-rule:evenodd;fill:#F29220;}
	.st102{clip-path:url(#SVGID_10_);fill-rule:evenodd;clip-rule:evenodd;fill:#F39320;}
	.st103{clip-path:url(#SVGID_10_);fill-rule:evenodd;clip-rule:evenodd;fill:#F3941F;}
	.st104{clip-path:url(#SVGID_10_);fill-rule:evenodd;clip-rule:evenodd;fill:#F3951F;}
	.st105{clip-path:url(#SVGID_10_);fill-rule:evenodd;clip-rule:evenodd;fill:#F3971F;}
	.st106{clip-path:url(#SVGID_10_);fill-rule:evenodd;clip-rule:evenodd;fill:#F3981F;}
	.st107{clip-path:url(#SVGID_10_);fill-rule:evenodd;clip-rule:evenodd;fill:#F4991F;}
	.st108{clip-path:url(#SVGID_10_);fill-rule:evenodd;clip-rule:evenodd;fill:#F49A1F;}
	.st109{clip-path:url(#SVGID_10_);fill-rule:evenodd;clip-rule:evenodd;fill:#F49B1E;}
	.st110{clip-path:url(#SVGID_10_);fill-rule:evenodd;clip-rule:evenodd;fill:#F49C1E;}
	.st111{clip-path:url(#SVGID_10_);fill-rule:evenodd;clip-rule:evenodd;fill:#F49D1E;}
	.st112{clip-path:url(#SVGID_10_);fill-rule:evenodd;clip-rule:evenodd;fill:#F59E1D;}
	.st113{clip-path:url(#SVGID_10_);fill-rule:evenodd;clip-rule:evenodd;fill:#F49F1E;}
	.st114{clip-path:url(#SVGID_10_);fill-rule:evenodd;clip-rule:evenodd;fill:#F59F1E;}
	.st115{clip-path:url(#SVGID_10_);fill-rule:evenodd;clip-rule:evenodd;fill:#F5A11D;}
	.st116{clip-path:url(#SVGID_10_);fill-rule:evenodd;clip-rule:evenodd;fill:#F5A31D;}
	.st117{clip-path:url(#SVGID_10_);fill-rule:evenodd;clip-rule:evenodd;fill:#F6A21D;}
	.st118{clip-path:url(#SVGID_10_);fill-rule:evenodd;clip-rule:evenodd;fill:#F5A41D;}
	.st119{clip-path:url(#SVGID_10_);fill-rule:evenodd;clip-rule:evenodd;fill:#F5A61C;}
	.st120{clip-path:url(#SVGID_10_);fill-rule:evenodd;clip-rule:evenodd;fill:#F6A81C;}
	.st121{clip-path:url(#SVGID_10_);fill-rule:evenodd;clip-rule:evenodd;fill:#F7A91B;}
	.st122{clip-path:url(#SVGID_10_);fill-rule:evenodd;clip-rule:evenodd;fill:#F6A91C;}
	.st123{clip-path:url(#SVGID_10_);fill-rule:evenodd;clip-rule:evenodd;fill:#F6AA1B;}
	.st124{filter:url(#Adobe_OpacityMaskFilter_1_);}
	.st125{fill:url(#SVGID_12_);}
	.st126{mask:url(#SVGID_11_);fill-rule:evenodd;clip-rule:evenodd;fill:#EB7224;}
	.st127{fill-rule:evenodd;clip-rule:evenodd;fill:#EE8522;}
	.st128{fill-rule:evenodd;clip-rule:evenodd;fill:#EA6624;}
	.st129{filter:url(#Adobe_OpacityMaskFilter_2_);}
	.st130{fill:url(#SVGID_14_);}
	.st131{mask:url(#SVGID_13_);fill-rule:evenodd;clip-rule:evenodd;fill:#E65725;}
	.st132{fill-rule:evenodd;clip-rule:evenodd;fill:#D62128;}
	.st133{fill-rule:evenodd;clip-rule:evenodd;fill:none;stroke:#0D6341;stroke-width:0.5;stroke-miterlimit:10;}
	.st134{fill:#84BC41;}
	.st135{fill:#069648;}
	.st136{fill:#C2D42F;}
	.st137{fill:#006341;}
	.st138{fill:#BCD7F0;}
	.st139{fill:#144A96;}
	.st140{fill:#EE2738;}
	.st141{fill-rule:evenodd;clip-rule:evenodd;fill:#582D82;}
	.st142{fill:#E31F31;}
	.st143{fill-rule:evenodd;clip-rule:evenodd;fill:#2E327F;}
	.st144{fill-rule:evenodd;clip-rule:evenodd;fill:#12A260;}
	.st145{fill-rule:evenodd;clip-rule:evenodd;fill:#EE272D;}
</style>
<path class="st0" d="M87.51,70.46H6.95c-3.47,0-6.28-2.81-6.28-6.28V6.82c0-3.47,2.81-6.28,6.28-6.28h80.56
	c3.47,0,6.28,2.81,6.28,6.28v57.37C93.78,67.65,90.97,70.46,87.51,70.46z"/>
<path class="st133" d="M6.87,0.13h80.71c3.66,0,6.65,3.02,6.65,6.7v57.34c0,3.69-2.99,6.7-6.65,6.7H6.87c-3.66,0-6.65-3.02-6.65-6.7
	V6.84C0.22,3.15,3.21,0.13,6.87,0.13"/>
<g>
	<path class="st134" d="M45.38,34.24c0,1.27,0,2.55,0,3.82c0,0.17,0.08,0.4-0.17,0.47c-0.21,0.05-0.32-0.04-0.43-0.24
		c-0.61-1.11-1.6-1.83-2.65-2.45c-2.19-1.28-4.4-2.53-6.61-3.79c-1.06-0.61-2.08-1.28-2.99-2.08c-0.99-0.88-1.59-1.94-1.71-3.29
		c-0.26-2.79-0.58-5.58-0.87-8.38c-0.02-0.16-0.19-0.38,0.12-0.45c0.19-0.04,0.33-0.01,0.45,0.2c0.83,1.5,2.23,2.38,3.63,3.25
		c2.14,1.32,4.36,2.5,6.55,3.72c1.2,0.67,2.35,1.43,3.32,2.43c0.91,0.94,1.4,2.04,1.37,3.36C45.37,31.95,45.38,33.1,45.38,34.24z"/>
	<path class="st135" d="M45.36,48.36c0,1.25,0.01,2.5-0.01,3.75c0,0.21,0.14,0.51-0.2,0.6c-0.29,0.07-0.34-0.2-0.43-0.38
		c-0.57-1.04-1.5-1.71-2.48-2.29c-2.49-1.46-5-2.87-7.49-4.32c-0.73-0.43-1.4-0.94-2.07-1.48c-1.26-1.02-1.81-2.32-1.91-3.93
		c-0.16-2.46-0.48-4.91-0.73-7.36c-0.02-0.21-0.04-0.42-0.05-0.63c-0.01-0.13,0-0.27,0.17-0.3c0.14-0.02,0.24,0.03,0.32,0.17
		c1.12,1.93,3.04,2.9,4.86,3.97c1.87,1.1,3.78,2.11,5.67,3.18c0.9,0.51,1.75,1.1,2.52,1.79c1.18,1.06,1.9,2.31,1.83,3.97
		C45.32,46.18,45.36,47.27,45.36,48.36z"/>
	<path class="st135" d="M48.48,48.23c0-0.93,0.07-1.86-0.01-2.79c-0.18-2.08,0.81-3.55,2.35-4.76c1.63-1.29,3.5-2.18,5.3-3.18
		c1.52-0.85,3.07-1.67,4.52-2.64c1.04-0.7,2.05-1.42,2.67-2.56c0.09-0.17,0.19-0.34,0.42-0.27c0.29,0.09,0.11,0.31,0.1,0.47
		c-0.28,2.95-0.54,5.91-0.85,8.86c-0.14,1.36-1.03,2.29-2.05,3.09c-1.92,1.52-4.11,2.6-6.21,3.82c-1.12,0.65-2.26,1.27-3.36,1.95
		c-0.91,0.56-1.73,1.23-2.25,2.19c-0.09,0.16-0.16,0.35-0.4,0.32c-0.34-0.05-0.2-0.33-0.21-0.5C48.47,50.88,48.48,49.56,48.48,48.23
		z"/>
	<path class="st134" d="M48.48,34.11c0-0.85,0.08-1.71-0.02-2.55c-0.27-2.36,0.9-3.94,2.68-5.22c2.17-1.57,4.62-2.67,6.91-4.05
		c1.18-0.71,2.38-1.39,3.47-2.23c0.68-0.52,1.29-1.11,1.72-1.85c0.13-0.22,0.23-0.45,0.53-0.36c0.29,0.09,0.16,0.37,0.14,0.54
		c-0.31,2.98-0.6,5.96-0.98,8.93c-0.19,1.48-1.26,2.42-2.38,3.25c-2.32,1.73-4.94,2.97-7.43,4.43c-0.89,0.52-1.79,1.03-2.62,1.65
		c-0.54,0.4-1,0.87-1.35,1.44c-0.12,0.2-0.17,0.49-0.49,0.43c-0.35-0.07-0.2-0.39-0.2-0.59C48.47,36.66,48.48,35.39,48.48,34.11z"/>
	<path class="st136" d="M45.36,20.06c0,1.28,0,2.55,0,3.83c0,0.17,0.08,0.39-0.2,0.45c-0.24,0.05-0.31-0.13-0.41-0.29
		c-0.53-0.89-1.3-1.53-2.16-2.07c-0.78-0.5-1.58-0.96-2.35-1.48c-1.62-1.1-2.61-2.55-2.75-4.58c-0.18-2.62-0.49-5.22-0.75-7.84
		c-0.01-0.15-0.11-0.33,0.1-0.41c0.18-0.07,0.34-0.05,0.46,0.16c0.87,1.55,2.35,2.4,3.79,3.3c1.17,0.73,2.31,1.5,3.2,2.59
		c0.72,0.88,1.08,1.86,1.06,3C45.35,17.83,45.36,18.94,45.36,20.06z"/>
	<path class="st136" d="M48.49,19.9c0-0.85,0.07-1.71-0.01-2.55c-0.23-2.25,0.87-3.81,2.55-5.06c1.02-0.76,2.11-1.41,3.17-2.11
		c0.89-0.59,1.7-1.27,2.26-2.2c0.11-0.19,0.19-0.41,0.46-0.35c0.3,0.08,0.18,0.35,0.16,0.54c-0.17,1.85-0.35,3.69-0.54,5.53
		c-0.07,0.71-0.22,1.42-0.22,2.13c0.01,2.1-1.07,3.54-2.72,4.65c-0.83,0.56-1.7,1.07-2.54,1.62c-0.76,0.49-1.45,1.07-1.92,1.86
		c-0.11,0.18-0.18,0.42-0.45,0.36c-0.32-0.07-0.18-0.35-0.18-0.52C48.48,22.5,48.49,21.2,48.49,19.9z"/>
	<g>
		<path class="st137" d="M37.29,60.73c-0.25-0.17-0.69-0.09-1.04-0.08c-0.25,0-0.25,0.27-0.32,0.43c-0.27,0.61-0.76,0.94-1.39,1.05
			c-2.34,0.4-3.92-1.5-3.1-3.73c0.35-0.94,1.06-1.47,2.05-1.55c0.97-0.08,1.94,0.01,2.38,1.05c0.31,0.72,0.93,0.56,1.3,0.4
			c0.4-0.17,0-0.64-0.12-0.96c-0.13-0.34-0.35-0.63-0.64-0.84c-1.42-1.04-2.98-1.12-4.53-0.45c-1.44,0.62-2.02,1.87-2,3.31
			c-0.02,1.58,0.43,2.85,1.83,3.53c1.5,0.73,3.03,0.69,4.48-0.2c0.43-0.26,0.76-0.65,0.93-1.13C37.22,61.28,37.49,60.86,37.29,60.73
			z"/>
		<path class="st137" d="M57.69,62.43c-0.24-0.09-0.2-0.43-0.2-0.67c-0.01-0.55-0.03-1.1,0-1.65c0.11-1.86-0.56-2.63-2.68-2.61
			c-0.38,0-0.76,0.11-1.14,0.15c-0.72,0.08-1.05,0.39-0.64,1.12c2.35-0.71,3.36-0.33,3.17,1.19c-1.9-0.5-3.09-0.26-3.62,0.71
			c-0.37,0.67-0.2,1.7,0.36,2.2c0.39,0.35,0.87,0.46,1.37,0.5c0.87,0.07,1.58-0.3,2.21-0.92c0.12,0.45,0.25,0.83,0.72,0.85
			c0.28,0.01,0.66,0.17,0.81-0.16C58.18,62.83,58.08,62.57,57.69,62.43z M54.75,62.45c-0.74-0.01-1.17-0.4-1.14-1.01
			c0.03-0.64,0.52-1.01,1.37-0.96c0.53,0.03,1.2-0.04,1.29,0.58C56.25,61.94,55.58,62.46,54.75,62.45z"/>
		<path class="st137" d="M46.8,57.73c-1.15-0.44-2.29-0.37-3.25,0.48c-0.95,0.84-1.07,1.97-0.77,3.11c0.44,1.68,2.22,2.43,4.25,1.91
			c0.65-0.17,1.09-0.41,0.66-1.25c-0.72,0.31-1.48,0.39-2.26,0.33c-0.64-0.05-1.1-0.37-1.36-0.93c-0.2-0.43-0.21-0.79,0.48-0.75
			c0.77,0.05,1.54,0.01,2.32,0.01c1.36,0,1.5-0.21,1.13-1.54C47.81,58.44,47.41,57.96,46.8,57.73z M46.94,59.69
			c-0.1,0.22-0.34,0.1-0.51,0.11c-0.3,0.02-0.6,0-0.9,0c-0.25,0-0.49,0.02-0.74-0.01c-0.25-0.03-0.63,0.16-0.73-0.13
			c-0.12-0.32,0.14-0.62,0.37-0.85c0.59-0.58,1.86-0.47,2.35,0.18C46.94,59.21,47.06,59.44,46.94,59.69z"/>
		<path class="st137" d="M64.58,62.78c-0.04-1.08,0.01-2.15-0.03-3.23c-0.06-1.58-1.27-2.41-2.79-1.99
			c-0.49,0.14-0.88,0.43-1.26,0.75c-0.37-0.66-0.74-0.89-1.29-0.8c-0.18,0.03-0.42,0.03-0.45,0.28c-0.02,0.2-0.11,0.45,0.18,0.57
			c0.47,0.18,0.43,0.59,0.43,0.97c0,1.13,0.03,2.26-0.01,3.39c-0.02,0.53,0.23,0.55,0.64,0.56c0.42,0.01,0.58-0.1,0.56-0.55
			c-0.03-0.91-0.03-1.82,0-2.73c0.02-0.95,0.65-1.55,1.57-1.53c0.84,0.01,1.24,0.47,1.25,1.48c0.01,0.94,0.03,1.88-0.01,2.81
			c-0.02,0.49,0.22,0.52,0.6,0.51C64.33,63.28,64.59,63.29,64.58,62.78z"/>
		<path class="st137" d="M51.32,62.38c-0.76,0.03-0.88-0.44-0.87-1.08c0.02-1.79-0.01-3.58,0.02-5.37c0.01-0.48-0.16-0.59-0.61-0.6
			c-0.48-0.01-0.61,0.15-0.6,0.61c0.03,0.96,0.01,1.93,0.01,2.89c0,0,0,0,0,0c0,0.85,0,1.71,0,2.56c0,0.11,0,0.22,0.01,0.33
			c0.06,1.28,0.8,1.84,2.03,1.58c0.26-0.06,0.41-0.13,0.34-0.42C51.61,62.69,51.74,62.37,51.32,62.38z"/>
		<path class="st137" d="M41.07,57.55c-0.21,0.05-0.45,0.14-0.59,0.28c-0.36,0.38-0.58,0.41-0.89-0.08
			c-0.14-0.23-0.52-0.29-0.84-0.24c-0.21,0.03-0.48,0-0.53,0.28c-0.04,0.23-0.09,0.49,0.25,0.6c0.4,0.14,0.37,0.5,0.37,0.83
			c0,1.16,0.02,2.32-0.01,3.47c-0.01,0.49,0.17,0.58,0.61,0.59c0.49,0.01,0.6-0.16,0.58-0.62c-0.03-0.8-0.01-1.6-0.01-2.4
			c0.01-1.48,0.76-2.01,2.27-1.53c0.01-0.37,0.43-0.71,0.11-1.02C42.05,57.4,41.54,57.43,41.07,57.55z"/>
	</g>
</g>
</svg>
