<?xml version="1.0" encoding="utf-8"?>
<!-- Generator: Adobe Illustrator 23.0.0, SVG Export Plug-In . SVG Version: 6.00 Build 0)  -->
<svg version="1.1" id="Calque_1" xmlns="http://www.w3.org/2000/svg" xmlns:xlink="http://www.w3.org/1999/xlink" x="0px" y="0px"
	 viewBox="0 0 94.45 70.92" style="enable-background:new 0 0 94.45 70.92;" xml:space="preserve">
<style type="text/css">
	.st0{fill:#FFFFFF;}
	.st1{fill-rule:evenodd;clip-rule:evenodd;fill:none;stroke:#1E3A6A;stroke-width:0.5;stroke-miterlimit:10;}
	.st2{fill:#1E3A6A;}
	.st3{fill:#1D3A6A;}
	.st4{fill:#5BC4EB;}
	.st5{fill:#0E9A5A;}
	.st6{fill-rule:evenodd;clip-rule:evenodd;fill:#517A42;}
	.st7{fill-rule:evenodd;clip-rule:evenodd;fill:#234273;}
	.st8{fill-rule:evenodd;clip-rule:evenodd;fill:#FFFFFF;}
	.st9{fill:#234273;}
	.st10{fill:#107DC1;}
	.st11{fill:#1E3667;}
	.st12{fill-rule:evenodd;clip-rule:evenodd;fill:#1D4484;}
	.st13{fill-rule:evenodd;clip-rule:evenodd;fill:#B3DBF4;}
	.st14{fill-rule:evenodd;clip-rule:evenodd;fill:#6BBCE9;}
	.st15{fill-rule:evenodd;clip-rule:evenodd;fill:#1E4B8F;}
	.st16{filter:url(#Adobe_OpacityMaskFilter);}
	.st17{clip-path:url(#SVGID_2_);fill:url(#SVGID_4_);}
	.st18{clip-path:url(#SVGID_2_);mask:url(#SVGID_3_);fill:url(#SVGID_5_);}
	.st19{fill-rule:evenodd;clip-rule:evenodd;fill:#758EB7;}
	.st20{fill-rule:evenodd;clip-rule:evenodd;fill:#1A4789;}
	.st21{fill-rule:evenodd;clip-rule:evenodd;fill:#8097BC;}
	.st22{fill-rule:evenodd;clip-rule:evenodd;fill:#3974BA;}
	.st23{fill-rule:evenodd;clip-rule:evenodd;fill:#1F97D4;}
	.st24{fill-rule:evenodd;clip-rule:evenodd;fill:none;stroke:url(#SVGID_6_);stroke-width:0.5;stroke-miterlimit:10;}
	.st25{fill-rule:evenodd;clip-rule:evenodd;fill:#FAB517;}
	.st26{clip-path:url(#SVGID_8_);fill-rule:evenodd;clip-rule:evenodd;fill:#F29120;}
	.st27{clip-path:url(#SVGID_8_);fill-rule:evenodd;clip-rule:evenodd;fill:#F29020;}
	.st28{clip-path:url(#SVGID_8_);fill-rule:evenodd;clip-rule:evenodd;fill:#F18F20;}
	.st29{clip-path:url(#SVGID_8_);fill-rule:evenodd;clip-rule:evenodd;fill:#F08F21;}
	.st30{clip-path:url(#SVGID_8_);fill-rule:evenodd;clip-rule:evenodd;fill:#F08E21;}
	.st31{clip-path:url(#SVGID_8_);fill-rule:evenodd;clip-rule:evenodd;fill:#F08D21;}
	.st32{clip-path:url(#SVGID_8_);fill-rule:evenodd;clip-rule:evenodd;fill:#F08C21;}
	.st33{clip-path:url(#SVGID_8_);fill-rule:evenodd;clip-rule:evenodd;fill:#F08A21;}
	.st34{clip-path:url(#SVGID_8_);fill-rule:evenodd;clip-rule:evenodd;fill:#EF8B22;}
	.st35{clip-path:url(#SVGID_8_);fill-rule:evenodd;clip-rule:evenodd;fill:#EF8922;}
	.st36{clip-path:url(#SVGID_8_);fill-rule:evenodd;clip-rule:evenodd;fill:#F08821;}
	.st37{clip-path:url(#SVGID_8_);fill-rule:evenodd;clip-rule:evenodd;fill:#F08822;}
	.st38{clip-path:url(#SVGID_8_);fill-rule:evenodd;clip-rule:evenodd;fill:#EF8722;}
	.st39{clip-path:url(#SVGID_8_);fill-rule:evenodd;clip-rule:evenodd;fill:#EF8522;}
	.st40{clip-path:url(#SVGID_8_);fill-rule:evenodd;clip-rule:evenodd;fill:#EE8522;}
	.st41{clip-path:url(#SVGID_8_);fill-rule:evenodd;clip-rule:evenodd;fill:#EE8422;}
	.st42{clip-path:url(#SVGID_8_);fill-rule:evenodd;clip-rule:evenodd;fill:#ED8322;}
	.st43{clip-path:url(#SVGID_8_);fill-rule:evenodd;clip-rule:evenodd;fill:#ED8223;}
	.st44{clip-path:url(#SVGID_10_);fill-rule:evenodd;clip-rule:evenodd;fill:#E75B24;}
	.st45{clip-path:url(#SVGID_10_);fill-rule:evenodd;clip-rule:evenodd;fill:#E75C25;}
	.st46{clip-path:url(#SVGID_10_);fill-rule:evenodd;clip-rule:evenodd;fill:#E75D25;}
	.st47{clip-path:url(#SVGID_10_);fill-rule:evenodd;clip-rule:evenodd;fill:#E75E24;}
	.st48{clip-path:url(#SVGID_10_);fill-rule:evenodd;clip-rule:evenodd;fill:#E75D24;}
	.st49{clip-path:url(#SVGID_10_);fill-rule:evenodd;clip-rule:evenodd;fill:#E86024;}
	.st50{clip-path:url(#SVGID_10_);fill-rule:evenodd;clip-rule:evenodd;fill:#E86124;}
	.st51{clip-path:url(#SVGID_10_);fill-rule:evenodd;clip-rule:evenodd;fill:#E86224;}
	.st52{clip-path:url(#SVGID_10_);fill-rule:evenodd;clip-rule:evenodd;fill:#EA6424;}
	.st53{clip-path:url(#SVGID_10_);fill-rule:evenodd;clip-rule:evenodd;fill:#EA6524;}
	.st54{clip-path:url(#SVGID_10_);fill-rule:evenodd;clip-rule:evenodd;fill:#EA6624;}
	.st55{clip-path:url(#SVGID_10_);fill-rule:evenodd;clip-rule:evenodd;fill:#EA6724;}
	.st56{clip-path:url(#SVGID_10_);fill-rule:evenodd;clip-rule:evenodd;fill:#E96824;}
	.st57{clip-path:url(#SVGID_10_);fill-rule:evenodd;clip-rule:evenodd;fill:#EB6824;}
	.st58{clip-path:url(#SVGID_10_);fill-rule:evenodd;clip-rule:evenodd;fill:#EB6924;}
	.st59{clip-path:url(#SVGID_10_);fill-rule:evenodd;clip-rule:evenodd;fill:#EC6A24;}
	.st60{clip-path:url(#SVGID_10_);fill-rule:evenodd;clip-rule:evenodd;fill:#E96A24;}
	.st61{clip-path:url(#SVGID_10_);fill-rule:evenodd;clip-rule:evenodd;fill:#E96C24;}
	.st62{clip-path:url(#SVGID_10_);fill-rule:evenodd;clip-rule:evenodd;fill:#EB6D24;}
	.st63{clip-path:url(#SVGID_10_);fill-rule:evenodd;clip-rule:evenodd;fill:#EC6E23;}
	.st64{clip-path:url(#SVGID_10_);fill-rule:evenodd;clip-rule:evenodd;fill:#EC6F23;}
	.st65{clip-path:url(#SVGID_10_);fill-rule:evenodd;clip-rule:evenodd;fill:#EB7024;}
	.st66{clip-path:url(#SVGID_10_);fill-rule:evenodd;clip-rule:evenodd;fill:#EB7124;}
	.st67{clip-path:url(#SVGID_10_);fill-rule:evenodd;clip-rule:evenodd;fill:#EC7224;}
	.st68{clip-path:url(#SVGID_10_);fill-rule:evenodd;clip-rule:evenodd;fill:#EC7323;}
	.st69{clip-path:url(#SVGID_10_);fill-rule:evenodd;clip-rule:evenodd;fill:#ED7423;}
	.st70{clip-path:url(#SVGID_10_);fill-rule:evenodd;clip-rule:evenodd;fill:#ED7523;}
	.st71{clip-path:url(#SVGID_10_);fill-rule:evenodd;clip-rule:evenodd;fill:#ED7623;}
	.st72{clip-path:url(#SVGID_10_);fill-rule:evenodd;clip-rule:evenodd;fill:#EC7723;}
	.st73{clip-path:url(#SVGID_10_);fill-rule:evenodd;clip-rule:evenodd;fill:#EC7923;}
	.st74{clip-path:url(#SVGID_10_);fill-rule:evenodd;clip-rule:evenodd;fill:#EE7823;}
	.st75{clip-path:url(#SVGID_10_);fill-rule:evenodd;clip-rule:evenodd;fill:#ED7A23;}
	.st76{clip-path:url(#SVGID_10_);fill-rule:evenodd;clip-rule:evenodd;fill:#ED7B23;}
	.st77{clip-path:url(#SVGID_10_);fill-rule:evenodd;clip-rule:evenodd;fill:#ED7C23;}
	.st78{clip-path:url(#SVGID_10_);fill-rule:evenodd;clip-rule:evenodd;fill:#ED7D23;}
	.st79{clip-path:url(#SVGID_10_);fill-rule:evenodd;clip-rule:evenodd;fill:#EE7D22;}
	.st80{clip-path:url(#SVGID_10_);fill-rule:evenodd;clip-rule:evenodd;fill:#EE7E22;}
	.st81{clip-path:url(#SVGID_10_);fill-rule:evenodd;clip-rule:evenodd;fill:#EE7F22;}
	.st82{clip-path:url(#SVGID_10_);fill-rule:evenodd;clip-rule:evenodd;fill:#EF8022;}
	.st83{clip-path:url(#SVGID_10_);fill-rule:evenodd;clip-rule:evenodd;fill:#EF8122;}
	.st84{clip-path:url(#SVGID_10_);fill-rule:evenodd;clip-rule:evenodd;fill:#EF8222;}
	.st85{clip-path:url(#SVGID_10_);fill-rule:evenodd;clip-rule:evenodd;fill:#F08322;}
	.st86{clip-path:url(#SVGID_10_);fill-rule:evenodd;clip-rule:evenodd;fill:#F08421;}
	.st87{clip-path:url(#SVGID_10_);fill-rule:evenodd;clip-rule:evenodd;fill:#F08521;}
	.st88{clip-path:url(#SVGID_10_);fill-rule:evenodd;clip-rule:evenodd;fill:#EF8522;}
	.st89{clip-path:url(#SVGID_10_);fill-rule:evenodd;clip-rule:evenodd;fill:#F08722;}
	.st90{clip-path:url(#SVGID_10_);fill-rule:evenodd;clip-rule:evenodd;fill:#F08822;}
	.st91{clip-path:url(#SVGID_10_);fill-rule:evenodd;clip-rule:evenodd;fill:#F08821;}
	.st92{clip-path:url(#SVGID_10_);fill-rule:evenodd;clip-rule:evenodd;fill:#F18821;}
	.st93{clip-path:url(#SVGID_10_);fill-rule:evenodd;clip-rule:evenodd;fill:#F18921;}
	.st94{clip-path:url(#SVGID_10_);fill-rule:evenodd;clip-rule:evenodd;fill:#F18A21;}
	.st95{clip-path:url(#SVGID_10_);fill-rule:evenodd;clip-rule:evenodd;fill:#F08C21;}
	.st96{clip-path:url(#SVGID_10_);fill-rule:evenodd;clip-rule:evenodd;fill:#F08D21;}
	.st97{clip-path:url(#SVGID_10_);fill-rule:evenodd;clip-rule:evenodd;fill:#F18E21;}
	.st98{clip-path:url(#SVGID_10_);fill-rule:evenodd;clip-rule:evenodd;fill:#F18F20;}
	.st99{clip-path:url(#SVGID_10_);fill-rule:evenodd;clip-rule:evenodd;fill:#F29020;}
	.st100{clip-path:url(#SVGID_10_);fill-rule:evenodd;clip-rule:evenodd;fill:#F29120;}
	.st101{clip-path:url(#SVGID_10_);fill-rule:evenodd;clip-rule:evenodd;fill:#F29220;}
	.st102{clip-path:url(#SVGID_10_);fill-rule:evenodd;clip-rule:evenodd;fill:#F39320;}
	.st103{clip-path:url(#SVGID_10_);fill-rule:evenodd;clip-rule:evenodd;fill:#F3941F;}
	.st104{clip-path:url(#SVGID_10_);fill-rule:evenodd;clip-rule:evenodd;fill:#F3951F;}
	.st105{clip-path:url(#SVGID_10_);fill-rule:evenodd;clip-rule:evenodd;fill:#F3971F;}
	.st106{clip-path:url(#SVGID_10_);fill-rule:evenodd;clip-rule:evenodd;fill:#F3981F;}
	.st107{clip-path:url(#SVGID_10_);fill-rule:evenodd;clip-rule:evenodd;fill:#F4991F;}
	.st108{clip-path:url(#SVGID_10_);fill-rule:evenodd;clip-rule:evenodd;fill:#F49A1F;}
	.st109{clip-path:url(#SVGID_10_);fill-rule:evenodd;clip-rule:evenodd;fill:#F49B1E;}
	.st110{clip-path:url(#SVGID_10_);fill-rule:evenodd;clip-rule:evenodd;fill:#F49C1E;}
	.st111{clip-path:url(#SVGID_10_);fill-rule:evenodd;clip-rule:evenodd;fill:#F49D1E;}
	.st112{clip-path:url(#SVGID_10_);fill-rule:evenodd;clip-rule:evenodd;fill:#F59E1D;}
	.st113{clip-path:url(#SVGID_10_);fill-rule:evenodd;clip-rule:evenodd;fill:#F49F1E;}
	.st114{clip-path:url(#SVGID_10_);fill-rule:evenodd;clip-rule:evenodd;fill:#F59F1E;}
	.st115{clip-path:url(#SVGID_10_);fill-rule:evenodd;clip-rule:evenodd;fill:#F5A11D;}
	.st116{clip-path:url(#SVGID_10_);fill-rule:evenodd;clip-rule:evenodd;fill:#F5A31D;}
	.st117{clip-path:url(#SVGID_10_);fill-rule:evenodd;clip-rule:evenodd;fill:#F6A21D;}
	.st118{clip-path:url(#SVGID_10_);fill-rule:evenodd;clip-rule:evenodd;fill:#F5A41D;}
	.st119{clip-path:url(#SVGID_10_);fill-rule:evenodd;clip-rule:evenodd;fill:#F5A61C;}
	.st120{clip-path:url(#SVGID_10_);fill-rule:evenodd;clip-rule:evenodd;fill:#F6A81C;}
	.st121{clip-path:url(#SVGID_10_);fill-rule:evenodd;clip-rule:evenodd;fill:#F7A91B;}
	.st122{clip-path:url(#SVGID_10_);fill-rule:evenodd;clip-rule:evenodd;fill:#F6A91C;}
	.st123{clip-path:url(#SVGID_10_);fill-rule:evenodd;clip-rule:evenodd;fill:#F6AA1B;}
	.st124{filter:url(#Adobe_OpacityMaskFilter_1_);}
	.st125{fill:url(#SVGID_12_);}
	.st126{mask:url(#SVGID_11_);fill-rule:evenodd;clip-rule:evenodd;fill:#EB7224;}
	.st127{fill-rule:evenodd;clip-rule:evenodd;fill:#EE8522;}
	.st128{fill-rule:evenodd;clip-rule:evenodd;fill:#EA6624;}
	.st129{filter:url(#Adobe_OpacityMaskFilter_2_);}
	.st130{fill:url(#SVGID_14_);}
	.st131{mask:url(#SVGID_13_);fill-rule:evenodd;clip-rule:evenodd;fill:#E65725;}
	.st132{fill-rule:evenodd;clip-rule:evenodd;fill:#D62128;}
	.st133{fill-rule:evenodd;clip-rule:evenodd;fill:none;stroke:#0D6341;stroke-width:0.5;stroke-miterlimit:10;}
	.st134{fill:#84BC41;}
	.st135{fill:#069648;}
	.st136{fill:#C2D42F;}
	.st137{fill:#006341;}
	.st138{fill:#BCD7F0;}
	.st139{fill:#144A96;}
	.st140{fill:#EE2738;}
	.st141{fill-rule:evenodd;clip-rule:evenodd;fill:#582D82;}
	.st142{fill:#E31F31;}
	.st143{fill-rule:evenodd;clip-rule:evenodd;fill:#2E327F;}
	.st144{fill-rule:evenodd;clip-rule:evenodd;fill:#12A260;}
	.st145{fill-rule:evenodd;clip-rule:evenodd;fill:#EE272D;}
</style>
<path class="st23" d="M7.17,0h80.11c3.95,0,7.17,3.23,7.17,7.17v56.49c0,3.95-3.23,7.17-7.17,7.17H7.17C3.23,70.84,0,67.61,0,63.67
	V7.17C0,3.23,3.23,0,7.17,0"/>
<g>
	<path class="st8" d="M20.27,27.71l-0.02,4.15c0.82,0.13,26.17,0.03,26.93,0.03l26.94-0.08l0.06-8.45c-0.86-0.16-2.9-0.04-3.88-0.04
		l-15.36,0.44c-0.64,0.02-0.65,0.12-1.01,0.46c-0.11,0.1-0.15,0.14-0.26,0.24c-0.85,0.79-1.33,1.05-2.26,1.66
		c-0.84,0.55-1.9,0.86-2.86,1.13c-3.25,0.93-6.2,0.2-8.95-1.12l-0.91-0.58c-0.13-0.08-0.17-0.12-0.3-0.21
		c-0.26-0.18-0.4-0.25-0.77-0.2L20.27,27.71z"/>
	<path class="st8" d="M46.17,7.1c-1.52,0.31-2.95,0.78-4.1,1.68c-0.87,0.68-1.01,0.8-1.8,1.71c-0.77,0.89-1.11,1.73-1.64,2.94
		c-0.81,1.87-0.46,5.71,0.86,7.65c0.38,0.56,0.5,0.87,0.97,1.37c0.37,0.39,0.76,0.84,1.19,1.15c2.21,1.59,4.39,2.36,7.35,1.96
		c3.38-0.45,6.39-3.07,7.44-6.44c0.81-2.59,0.45-5.19-0.86-7.53C53.82,8.46,49.75,6.36,46.17,7.1"/>
	<path class="st8" d="M53.08,48.83c0.37-0.04,0.91-0.17,1.15-0.25c1.29-0.38,2.36-1.26,2.49-2.72c0.18-2.03-0.79-3.18-2.62-3.42
		c-0.37-0.05-0.44-0.01-0.6-0.25l0.13-0.06c0.02-0.01,0.04-0.02,0.07-0.02c0.4-0.12-0.31,0.07,0.15-0.03
		c3.38-0.74,3.81-4.92,0.99-6.14c-1.34-0.58-15.06-0.53-15.51-0.28c-0.17,0.18-0.12,13,0,13.12C39.57,48.88,51.91,48.95,53.08,48.83
		 M45.65,38.66c0.83-0.11,2.15-0.03,3.03-0.03c1.03,0,1.8,0.19,1.79,1.31c-0.02,1.07-0.87,1.22-1.87,1.22
		c-0.81,0-2.2,0.08-2.98-0.04L45.65,38.66z M45.66,43.58c0.89-0.1,2.17-0.03,3.11-0.03c1.03,0,1.82,0.23,1.84,1.3
		c0.02,1.1-0.9,1.24-1.92,1.25c-0.76,0.01-2.36,0.08-3.06-0.06L45.66,43.58z"/>
	<path class="st8" d="M37.7,48.87c-0.04-0.45-0.31-0.64-0.58-0.97l-3.35-4.08c-1.57-1.82-1.21-1.27-0.29-2.51l4.31-5.28
		c0.14-0.15,0.21-0.23,0.19-0.44l-6.99-0.06c-0.71,0-0.55,0.07-0.87,0.51l-1.44,2.31c-0.28,0.38-1.91,3.18-1.89,2.92
		c-0.31-0.32,0.09-5.07-0.16-5.68c-0.28-0.11-0.44-0.07-0.81-0.07c-0.41,0-1.52-0.02-2.62-0.03c-1.34-0.01-2.69,0-2.8,0.1
		c-0.08,0.11-0.05,0.04-0.1,0.23c0,0.61,0.08,2.89,0.07,5.37c-0.02,3.53-0.12,7.47,0.03,7.61c0.16,0.08,1.12,0.09,2.45,0.1
		c1.56,0.01,3.54-0.01,3.77-0.09c0.28-0.62,0.06-3.78,0.09-4.76c0.19,0.02,0.04-0.06,0.26,0.14c0.07,0.06,0.19,0.2,0.24,0.27
		c0.17,0.21,0.26,0.35,0.42,0.58l2.55,3.37c0.45,0.64,0.64,0.47,1.57,0.47C33.5,48.89,36.12,48.96,37.7,48.87"/>
	<path class="st8" d="M74.16,43.91c-1-0.05-1.49,1.33-5.36,0.94c-1.1-0.11-1.71-0.38-2.42-0.84c-2.35-1.52-0.96-3.67,1.23-4.27
		c0.25-0.07,0.4-0.15,0.62-0.2c1.54-0.34,3.28-0.25,4.74,0.41c0.46,0.21,0.68,0.46,1.2,0.43l-0.02-4.39
		c-0.33-0.15-0.13-0.14-0.59-0.23c-4.2-0.86-8.52-0.98-12.47,0.97c-0.91,0.45-1.83,1.31-2.33,2.11c-0.67,1.07-0.87,1.84-0.84,3.52
		c0.05,2.62,1.26,4.19,3.41,5.38c2.64,1.46,7.21,1.55,10.33,1.16c1.26-0.16,1.07-0.28,1.9-0.4c0.47-0.07,0.23-0.08,0.62-0.2
		L74.16,43.91z"/>
	<path class="st8" d="M26.68,59c-0.1-0.07-0.15-0.1-0.24-0.17c-0.18-0.15-0.1-0.07-0.21-0.22c1.45-0.87,1.42-2.97,0-3.9
		c-0.71-0.46-1.82-0.36-2.75-0.36c-0.96,0-2.07-0.05-3.05,0.02l0.03,1.43c1.19,0.08,0.89-0.39,0.89,3.25c0,3.91,0.24,2.87-0.85,3.19
		l-0.05,1.43c1.08,0.08,2.35,0.02,3.45,0.02c1.09,0,2.15,0,2.87-0.6C28.04,62.01,27.98,59.94,26.68,59 M25.54,57.35
		c-0.14,0.93-2.25,1.04-2.4,0.51c-0.06-0.22-0.07-1.7,0.06-2.01c0.51-0.17,2-0.18,2.36,0.6c0.12,0.25,0.08,0.67,0.03,0.81
		L25.54,57.35z M23.21,61.98c-0.03-0.54-0.08-2.01,0.07-2.47c1.18-0.15,2.52-0.02,2.57,1.19C25.92,62.21,24.56,62.16,23.21,61.98z"
		/>
	<path class="st8" d="M57.65,60.76l5.43-0.08l0.09-0.47c0.01-0.11,0-0.3-0.01-0.42c-0.12-3.6-5.6-5.02-7.09-0.6
		c-0.3,0.89,0,2.37,0.43,2.97c1.2,1.68,3.21,2.21,4.84,1.29c0.55-0.31,1.58-1.14,1.49-1.87c-2.19-0.09-1.45,0.08-2.24,0.55
		C59.19,62.98,57.49,61.63,57.65,60.76 M57.63,59.52c-0.06-0.81,1.07-1.59,1.98-1.57c0.88,0.02,2,0.81,1.97,1.57L57.63,59.52z"/>
	<path class="st8" d="M41.88,63.66l0-1.41c-0.72-0.27-0.85,0.27-0.84-0.79l-0.08-4.72l-2.28-0.01l0,1.28c0-0.01,0.02,0.05,0.03,0.07
		c0.56,0.16,0.79-0.19,0.81,0.61c0.01,0.44-0.01,0.9-0.01,1.34c0,0.83-0.01,1.75-0.76,2.01c-0.22,0.25-2.14,0.7-2.17-1.42
		l-0.05-3.96l-2.45,0.05l-0.03,1.37l0.83,0.02c0.15,0,0.03,0.63,0.03,1.02c-0.01,1.01-0.11,2.3,0.21,3.11
		c0.34,0.86,0.81,1.34,1.78,1.57c1.12,0.26,1.81-0.18,2.51-0.69c0.01,0.02,0.03,0.05,0.03,0.07l0.17,0.51L41.88,63.66z"/>
	<path class="st8" d="M51.5,58.79c-0.1-0.61,0.14-0.91,0.76-0.9c0.74,0.01,0.59,0.21,0.83,0.7l1.62-0.02
		c0.06-0.4,0.03-0.88,0.03-1.29c0-0.57,0.02-0.64-0.56-0.64c-0.99,0-0.44,0.18-0.92,0.16c-0.17-0.01-0.37-0.17-0.61-0.22
		c-1.42-0.28-3.04,0.37-3.09,1.87c-0.04,1.23,0.46,1.68,1.3,2.06c0.36,0.16,0.86,0.3,1.26,0.41c1.65,0.44,1.25,1.68,0.21,1.69
		c-0.56,0.01-0.77-0.21-0.96-0.6c-0.33-0.66-1.11-0.5-1.81-0.38l0.01,2.02c1.56,0.1,0.99-0.05,1.42-0.28
		c0.82,0.47,1.8,0.71,2.74,0.26c1.99-0.95,1.7-3.25,0.05-3.87C52.75,59.35,51.86,59.36,51.5,58.79"/>
	<path class="st8" d="M72.08,58.46l1.63,0.06l-0.01-1.81c-0.26,0.03-0.9-0.04-1.15,0.01c-0.17,0.03,0.01,0.16-0.09,0.28
		c-0.82-0.33-1.36-0.7-2.45-0.32c-0.33,0.11-0.67,0.34-0.9,0.61c-0.92,1.09-0.51,2.55,0.53,3.13c0.35,0.2,1.08,0.4,1.51,0.5
		c0.56,0.13,1.13,0.22,1.14,0.88c0.01,0.63-0.58,0.91-1.17,0.81c-0.86-0.14-0.49-0.9-1.18-1l-1.27-0.04l0,2.1
		c1.57,0.02,1.07,0.01,1.28-0.34c0.34,0.06,0.51,0.38,1.21,0.51c1.34,0.25,2.94-0.44,3.03-2.05c0.07-1.21-0.52-1.67-1.35-2.04
		c-0.45-0.2-0.8-0.27-1.35-0.4c-0.6-0.14-0.62-0.25-1.05-0.56C70.39,57.43,72.11,57.65,72.08,58.46"/>
	<path class="st8" d="M44.91,60.72c0.52,0.13,2.35,0.41,1.73,1.46c-0.36,0.61-1.36,0.56-1.66,0.07c-0.09-0.15-0.18-0.47-0.24-0.6
		c-0.43-0.1-1.2-0.08-1.67-0.01l0.01,2.03l1.09,0l0.17-0.35c0.37,0.06,0.49,0.32,0.99,0.43c2.7,0.62,4.02-1.84,2.89-3.32
		c-0.89-1.16-2.66-0.69-3.18-1.52c-0.46-0.75,0.27-1.25,0.93-1.08c0.42,0.1,0.57,0.44,0.7,0.76l1.37-0.01l0.02-1.8l-0.3-0.02
		c-0.1,0-0.68-0.01-0.73,0.02c-0.04,0.03,0.02,0.07-0.01,0.12c-0.1,0.2-0.93-0.28-1.43-0.29C42.54,56.52,42.03,59.97,44.91,60.72"/>
	<polygon class="st8" points="66.6,62.16 66.63,58.29 66.65,54.43 64.27,54.45 64.24,55.88 65,55.92 65.04,62.13 64.23,62.16 
		64.2,63.55 67.46,63.55 67.46,62.19 	"/>
	<path class="st8" d="M30.93,56.75c-0.56-0.01-1.32-0.04-1.87-0.01c-0.5,0.03-0.45,0.05-0.46,0.54c0,0.28,0,0.57,0.05,0.84
		l0.79,0.05c0.1,0.4,0.11,3.61,0.01,4l-0.75,0.07l-0.05,1.13c0.01,0.02,0.02,0.05,0.03,0.07l0.07,0.14
		c0.33,0.17,2.83,0.17,3.17,0.01c0.17-0.13,0.14-0.28,0.14-0.62c0-0.24,0-0.48-0.02-0.74l-0.83-0.06c-0.11-0.47-0.12-2.47,0.07-2.85
		c0.13-0.26,0.47-0.59,0.73-0.76c0.26-0.17,0.79-0.31,1.11-0.4l-0.05-1.36c-0.56-0.41-1.91,0.5-2.06,0.88L30.93,56.75z"/>
</g>
</svg>
