<?xml version="1.0" encoding="utf-8"?>
<!-- Generator: Adobe Illustrator 23.0.0, SVG Export Plug-In . SVG Version: 6.00 Build 0)  -->
<svg version="1.1" id="Calque_1" xmlns="http://www.w3.org/2000/svg" xmlns:xlink="http://www.w3.org/1999/xlink" x="0px" y="0px"
	 viewBox="0 0 210.88 158.16" style="enable-background:new 0 0 210.88 158.16;" xml:space="preserve">
<style type="text/css">
	.st0{fill-rule:evenodd;clip-rule:evenodd;fill:#CCD905;}
	.st1{fill-rule:evenodd;clip-rule:evenodd;fill:#00ADEF;}
	.st2{fill-rule:evenodd;clip-rule:evenodd;}
	.st3{fill-rule:evenodd;clip-rule:evenodd;fill:#009CDE;}
	.st4{fill-rule:evenodd;clip-rule:evenodd;fill:#FFFFFF;}
	.st5{fill:none;stroke:#000000;stroke-width:0.5669;stroke-miterlimit:22.9256;}
	.st6{fill-rule:evenodd;clip-rule:evenodd;fill:#377F7B;}
	.st7{fill-rule:evenodd;clip-rule:evenodd;fill:#1A1A1A;}
	.st8{fill:#FFFFFF;}
	.st9{fill:none;stroke:#FFFFFF;stroke-width:0.5669;stroke-miterlimit:22.9256;}
	.st10{fill-rule:evenodd;clip-rule:evenodd;fill:#009287;}
	.st11{fill-rule:evenodd;clip-rule:evenodd;fill:#99E1DE;}
	.st12{fill-rule:evenodd;clip-rule:evenodd;fill:#00A1E9;}
	.st13{fill-rule:evenodd;clip-rule:evenodd;fill:#016FD0;}
	.st14{fill-rule:evenodd;clip-rule:evenodd;fill:#FEFEFF;}
	.st15{fill-rule:evenodd;clip-rule:evenodd;fill:#8ABDE9;}
	.st16{fill-rule:evenodd;clip-rule:evenodd;fill:#EF533D;}
	.st17{clip-path:url(#SVGID_2_);fill:url(#SVGID_3_);}
	.st18{clip-path:url(#SVGID_5_);fill:url(#SVGID_6_);}
	.st19{fill-rule:evenodd;clip-rule:evenodd;fill:#1D3663;}
	.st20{fill-rule:evenodd;clip-rule:evenodd;fill:#FEFEFE;}
	.st21{fill-rule:evenodd;clip-rule:evenodd;fill:#EDEDED;}
	.st22{fill-rule:evenodd;clip-rule:evenodd;fill:#C30044;}
	.st23{fill-rule:evenodd;clip-rule:evenodd;fill:#FFDD00;}
	.st24{clip-path:url(#SVGID_8_);fill-rule:evenodd;clip-rule:evenodd;fill:#2F9B46;}
	.st25{clip-path:url(#SVGID_8_);fill-rule:evenodd;clip-rule:evenodd;fill:#60B54D;}
	.st26{clip-path:url(#SVGID_8_);fill-rule:evenodd;clip-rule:evenodd;fill:#89CC53;}
	.st27{clip-path:url(#SVGID_8_);fill-rule:evenodd;clip-rule:evenodd;fill:#3CB8AD;}
	.st28{clip-path:url(#SVGID_8_);fill-rule:evenodd;clip-rule:evenodd;fill:#3394D7;}
	.st29{clip-path:url(#SVGID_8_);fill:none;stroke:#3394D7;stroke-width:0.216;stroke-miterlimit:22.9256;}
	.st30{clip-path:url(#SVGID_8_);fill-rule:evenodd;clip-rule:evenodd;fill:#2772BC;}
	.st31{clip-path:url(#SVGID_8_);fill-rule:evenodd;clip-rule:evenodd;fill:#1B5B83;}
	.st32{clip-path:url(#SVGID_8_);fill-rule:evenodd;clip-rule:evenodd;fill:#993233;}
	.st33{clip-path:url(#SVGID_8_);fill-rule:evenodd;clip-rule:evenodd;fill:#E13030;}
	.st34{clip-path:url(#SVGID_8_);fill-rule:evenodd;clip-rule:evenodd;fill:#F28824;}
	.st35{clip-path:url(#SVGID_8_);fill-rule:evenodd;clip-rule:evenodd;fill:#F5C836;}
	.st36{clip-path:url(#SVGID_8_);fill-rule:evenodd;clip-rule:evenodd;fill:#238647;}
	.st37{clip-path:url(#SVGID_8_);fill-rule:evenodd;clip-rule:evenodd;fill:#EDEDED;}
	.st38{clip-path:url(#SVGID_10_);fill:url(#SVGID_11_);}
	.st39{fill-rule:evenodd;clip-rule:evenodd;fill:#184285;}
	.st40{fill-rule:evenodd;clip-rule:evenodd;fill:#B2DBF4;}
	.st41{fill-rule:evenodd;clip-rule:evenodd;fill:#68BCEB;}
	.st42{fill-rule:evenodd;clip-rule:evenodd;fill:#FDFEFE;}
	.st43{fill-rule:evenodd;clip-rule:evenodd;fill:#1E4A8F;}
	.st44{filter:url(#Adobe_OpacityMaskFilter);}
	.st45{clip-path:url(#SVGID_13_);fill:url(#SVGID_15_);}
	.st46{clip-path:url(#SVGID_13_);mask:url(#SVGID_14_);fill:url(#SVGID_16_);}
	.st47{fill-rule:evenodd;clip-rule:evenodd;fill:#748DB6;}
	.st48{fill-rule:evenodd;clip-rule:evenodd;fill:#1A458A;}
	.st49{fill-rule:evenodd;clip-rule:evenodd;fill:#8097BC;}
	.st50{clip-path:url(#SVGID_18_);fill-rule:evenodd;clip-rule:evenodd;fill:#2FACDD;}
	.st51{clip-path:url(#SVGID_18_);fill-rule:evenodd;clip-rule:evenodd;fill:#F49332;}
	.st52{clip-path:url(#SVGID_18_);fill-rule:evenodd;clip-rule:evenodd;fill:#F7A859;}
	.st53{clip-path:url(#SVGID_18_);fill-rule:evenodd;clip-rule:evenodd;fill:#5EC7DC;}
	.st54{clip-path:url(#SVGID_18_);fill-rule:evenodd;clip-rule:evenodd;fill:#32BAE2;}
	.st55{fill-rule:evenodd;clip-rule:evenodd;fill:#E61E28;}
	.st56{fill-rule:evenodd;clip-rule:evenodd;fill:#C8036F;}
	.st57{clip-path:url(#SVGID_20_);fill:url(#SVGID_21_);}
	.st58{fill-rule:evenodd;clip-rule:evenodd;fill:#000267;}
	.st59{fill-rule:evenodd;clip-rule:evenodd;fill:#EC2528;}
</style>
<path class="st1" d="M12.53,0h185.81c6.89,0,12.53,5.64,12.53,12.53v133.09c0,6.89-5.64,12.53-12.53,12.53H12.53
	C5.64,158.16,0,152.52,0,145.62V12.53C0,5.64,5.64,0,12.53,0"/>
<path class="st4" d="M82.16,138.51c0,1.27,0.38,1.65,1.65,1.65h34.15c9.04,0,15.42-2.56,15.42-11.02c0-5.76-4.1-8.26-9.92-8.26
	c2.08-1.45,3.74-0.8,6.63-3.28c4.21-3.61,4.2-10.41,0.14-13.96c-1.89-1.65-4.52-2.59-7.87-2.59H82.16V138.51z M113.18,116.67
	c-3.8,0.72-7.08,0.35-11.74,0.35v-6.61c3.04,0,11.99-1.69,13.26,1.92C115.24,113.86,115.07,116.31,113.18,116.67z M75,138.51v-13.77
	c-5.95,1.39-2.96,3.31-14.32,3.31c-4.04,0-8.41-1.78-10.34-3.98c-5.97-6.82,7.01-17.48,24.66-8.14v-13.77
	c-12.96-3.02-31.39-4.13-41.71,4.56c-5.87,4.94-7.8,13.82-4.02,21.9c5.7,12.21,27.48,13.13,39.3,11.18
	C71.13,139.36,72.85,138.69,75,138.51z M184.07,138.51v-13.77c-5.95,1.39-2.96,3.31-14.32,3.31c-10.11,0-16.13-8.36-8.26-13.22
	c7.49-4.62,15.83-2.47,22.58,1.1v-13.77c-12.96-3.02-31.39-4.13-41.71,4.56c-5.87,4.94-7.8,13.82-4.02,21.9
	c5.7,12.21,27.48,13.13,39.3,11.18C180.21,139.36,181.92,138.69,184.07,138.51z M101.44,131.35v-6.61c5.69,0,15.96-1.88,13.59,5.11
	C114.18,132.4,103.97,131.35,101.44,131.35z"/>
<path class="st4" d="M182.92,64.57l-58.16,1.4c0,0-0.81,1.8-4.15,4.09c-7.9,5.41-17.86,8.49-27.36,6.37
	c-8.76-1.95-15.76-6.74-15.76-6.74l-51.2,7.21v12.69h156.63V64.57z"/>
<path class="st4" d="M105.47,17.25c15.05,0,27.24,12.2,27.24,27.24c0,15.05-12.2,27.24-27.24,27.24s-27.24-12.2-27.24-27.24
	C78.22,29.45,90.42,17.25,105.47,17.25"/>
</svg>
