<?xml version="1.0" encoding="UTF-8"?>
<svg id="uuid-4f46b120-be9d-49f4-b6c1-60a757643d98" data-name="Layer_1" xmlns="http://www.w3.org/2000/svg" viewBox="0 0 500 325">
  <defs>
    <style>
      .uuid-ef5f8740-d8d2-444f-a2e6-4afbbfe203b2 {
        fill: #163255;
      }

      .uuid-212cf083-22da-48c8-b6b6-2b79d8f64a98 {
        fill: #cdf564;
      }
    </style>
  </defs>
  <rect class="uuid-ef5f8740-d8d2-444f-a2e6-4afbbfe203b2" x="1.5" y="1.93" width="497.5" height="322.14" rx="19.61" ry="19.61"/>
  <rect class="uuid-212cf083-22da-48c8-b6b6-2b79d8f64a98" x="1" y="121.43" width="498" height="24.5"/>
  <rect class="uuid-212cf083-22da-48c8-b6b6-2b79d8f64a98" x="202" y="251.93" width="41" height="19" rx="9.5" ry="9.5"/>
  <rect class="uuid-212cf083-22da-48c8-b6b6-2b79d8f64a98" x="405" y="251.93" width="41" height="19" rx="9.5" ry="9.5"/>
  <rect class="uuid-212cf083-22da-48c8-b6b6-2b79d8f64a98" x="252" y="251.93" width="67" height="19" rx="9.5" ry="9.5"/>
  <rect class="uuid-212cf083-22da-48c8-b6b6-2b79d8f64a98" x="328" y="251.93" width="67" height="19" rx="9.5" ry="9.5"/>
  <rect class="uuid-212cf083-22da-48c8-b6b6-2b79d8f64a98" x="121" y="1.93" width="24" height="322"/>
  <path class="uuid-212cf083-22da-48c8-b6b6-2b79d8f64a98" d="M78.53,53.82c4.85-2.07,9.93-3.27,15.15-3.96.71-.03,1.43-.05,2.14-.07.2,0,.4.02.61.03.26,0,.51,0,.77,0,.28,0,.55,0,.83,0,1.03.02,2.05.04,3.08.06,4.05.81,8.16,1.41,12.01,3.04,1.07.45,2.14.89,3.21,1.34,2.14,1.23,4.28,2.46,6.42,3.69.53.53,1.01,1.12,1.75,1.38,1.18,1.04,2.35,2.08,3.53,3.12.13.12.25.25.38.37.39.39.78.79,1.18,1.18.98,1.17,1.82,3.09,2.99,3.32,1.39.27,2.02-1.95,3.1-2.96.98-.92,1.93-1.89,2.89-2.84,1.15-.99,2.3-1.97,3.46-2.96,1.31-.88,2.62-1.76,3.93-2.64,2.46-1.18,4.93-2.36,7.39-3.54,1.46-.32,2.9-.69,4.25-1.37,1.08-.05,2.14-.14,3.14-.61,2.86-.2,5.72-.39,8.58-.59,1.43.05,2.86.09,4.28.14.32.31.72.39,1.15.34.38,0,.77,0,1.15.01,3.76.98,7.54,1.91,11.08,3.57,1.27.6,2.49,1.29,3.74,1.94,1.35.83,2.69,1.67,4.04,2.5.96,1.06,1.97,2.06,3.3,2.67,1.45,1.52,2.9,3.04,4.35,4.56,1.13,1.49,2.26,2.98,3.4,4.46.46,1.24,1.13,2.35,1.99,3.35,1.1,2.7,2.19,5.4,3.29,8.11.08.27.15.54.23.81-.17.42-.16.79.23,1.09.07.42.15.85.22,1.27-.08.32-.04.6.26.81.08.51.15,1.01.23,1.52.22,2.21.44,4.42.66,6.63,0,.39,0,.78,0,1.16-.53,3.09-.47,6.25-1.18,9.33-.52,2.26-1.43,4.38-1.95,6.63-1.26,2.45-2.51,4.9-3.77,7.34-.33.22-.45.55-.49.93-1.76,2.16-3.53,4.32-5.29,6.49-.75.6-1.61,1.09-2.14,1.95-2.48,1.82-4.96,3.64-7.44,5.46,0,0,.02-.04.02-.03-2.48,1.14-4.96,2.28-7.44,3.42-3.02.97-6.13,1.52-9.22,2.2-.92.06-1.83.12-2.75.18-.53,0-1.08-.26-1.55.18-.52.03-1.05.06-1.57.1-2.35-.28-4.69-.28-7.04,0-2.26,0-4.51,0-6.93,0,.54,1.02,1.14,1.48,1.88,1.78,1.52,1.85,3.24,3.5,5.04,5.08.54.76,1.18,1.42,1.95,1.95,1.71,1.93,3.5,3.78,5.48,5.43.12.13.24.25.37.38l.41.41c.39.38.77.76,1.16,1.14,1.8,1.73,3.6,3.46,5.4,5.19.79.99,1.67,1.9,2.69,2.66,1.44,1.71,3.01,3.28,4.72,4.72.94,1.14,1.93,2.23,3.13,3.12,1.15,1.68,2.75,2.9,4.34,4.12.32.9,1.66,1.15,1.51,2.36-.85.19-1.1.97-1.53,1.57-2.23,1.94-4.3,4.03-6.25,6.24-.53.51-1.06,1.02-1.59,1.53q-3,2.86-6.08-.08c-.18-.17-.41-.3-.61-.45,0,0-.06-.01-.06,0-.05-.34-.3-.47-.58-.58-.1-.41-.36-.68-.75-.82-1.08-1.26-2.2-2.47-3.52-3.48-.14-.13-.27-.26-.41-.4h.01c-.13-.12-.27-.26-.4-.39l-1.15-1.15c-.64-.93-1.43-1.72-2.36-2.36-.38-.38-.77-.76-1.15-1.15-.13-.13-.27-.27-.4-.4h.01c-.13-.12-.27-.26-.4-.39-1.17-1.31-2.36-2.6-3.85-3.56,0,0,.03.04.03.04-.16-.39-.37-.72-.85-.74-.17-.13-.35-.26-.52-.39-1.86-2.78-4.42-4.88-6.85-7.11-.11-.11-.22-.22-.33-.32-2.3-2.59-4.66-5.12-7.4-7.26,0,0-.06-.11-.06-.11-2.21-2.45-4.6-4.71-7.05-6.92-.19-.42-.44-.77-.92-.89-1.17-1.24-2.35-2.47-3.51-3.72-.66-.71-1.28-.8-1.84.11-.15.16-.29.31-.44.47l.04-.04c-.14.14-.28.28-.42.43h0c-1.22.85-2.23,1.93-3.16,3.09-1.41,1.4-2.82,2.8-4.24,4.2-1.16.97-2.25,2-3.16,3.21-1.38,1.35-2.76,2.71-4.14,4.06-1.22,1.08-2.68,1.92-3.52,3.39-1.57,1.28-2.99,2.71-4.28,4.28-1.24.84-2.28,1.87-3.12,3.12-1.58,1.27-2.99,2.71-4.29,4.26-1.38.93-2.42,2.23-3.58,3.39,0,0,0,.01,0,.01-.15.13-.29.27-.44.4,0,0,.03-.03.03-.03-.32.07-.51.27-.61.57,0,0-.03.03-.03.03l-.35.35s-.04.04-.04.04c-.12.11-.24.22-.35.33-.1.02-.14.07-.14.17-.15.16-.31.33-.46.49l.03-.05c-.32.07-.53.25-.61.57l-.03.03c-.12.12-.23.24-.35.35l-.03.03c-.32.09-.51.29-.57.61h-.01c-1.32.98-2.48,2.12-3.45,3.45,0,0,0,.02,0,.02-.16.15-.33.31-.49.46-.1,0-.16.03-.17.13-.11.12-.22.23-.33.35l-.04.04c-.12.12-.24.23-.36.35l-.03.03c-.31.1-.51.29-.57.61l.04-.04c-.32.07-.52.26-.61.57,0,0-.03.03-.03.03-.12.12-.23.23-.35.35l-.03.03c-.34.08-.52.32-.65.62-.09.09-.18.18-.27.28-.89.41-1.28-.32-1.75-.8-3.27-3.34-6.52-6.69-9.8-10.03-.43-.44-.77-1.06-1.51-1.1-.04-.35.12-.61.36-.85,4.52-4.44,9-8.91,13.55-13.32,4.77-4.62,9.57-9.22,14.11-14.08.38-.14.62-.42.77-.78,2.34-2.05,4.64-4.14,6.71-6.47.9-.8,1.79-1.61,3.14-2.82-3.8-.2-7.04-.28-10.3.03-2.08-.27-4.16-.11-6.25-.09-2.85-.41-5.7-.81-8.55-1.22-2.57-.88-5.15-1.75-7.72-2.63-1.18-.94-2.55-1.5-3.96-2-1.2-.97-2.43-1.89-3.84-2.53-.53-.46-1.06-.92-1.58-1.38-2.45-2.14-5.04-4.14-6.96-6.82-1.01-1.41-2.1-2.76-3.15-4.14-1.02-1.85-2.03-3.7-3.05-5.54,0,0,.06.02.06.02,0-.14-.05-.24-.18-.3-.13-.27-.25-.53-.38-.8-.04-1.41-.88-2.57-1.24-3.87.06-.24,0-.43-.23-.55l-.26-1.41c.1-.2.05-.35-.17-.43-.12-.5-.24-1-.37-1.5.07-.29-.02-.51-.26-.68.04-.07.04-.14-.02-.2-.22-2.43-.44-4.87-.67-7.3.03-1.82.07-3.64.1-5.46.52-3.14,1.08-6.26,1.94-9.33,1.22-3.05,2.21-6.21,4.09-8.97,1.3-1.91,2.56-3.86,3.84-5.79.63-.4,1.18-.87,1.47-1.58,1.94-1.82,3.88-3.64,5.82-5.46.58-.01.85-.47,1.18-.84,2.46-1.43,4.91-2.87,7.37-4.3ZM175.93,119.71l-.02.02c.88-.1,1.75-.21,2.39-.93,1.82-.57,3.56-1.29,4.97-2.64,2.45-1.45,4.6-3.22,6.02-5.74.68-.49,1.16-1.13,1.45-1.92,1.31-2.26,2.88-4.41,3.16-7.12.7-2.01,1.15-4.06.88-6.21.46-2.41,0-4.73-.65-7.03-2.35-9.52-8.19-15.86-17.44-19.08-.08-.2-.2-.27-.39-.14-.27-.05-.53-.09-.8-.14-2.38-1.06-4.9-1.17-7.45-1.05-2.09-.04-4.16.16-6.2.66-.18.07-.37.14-.55.21-.11-.03-.18.01-.22.12-6.69,1.74-11.76,5.6-15.27,11.54-1.8,2.34-2.85,4.99-3.3,7.89-.86,2.39-.85,4.86-.66,7.34-.3,2.62-.3,5.24,0,7.85-.17,2.31-.16,4.63,0,6.94-.28,2.62-.3,5.24.01,7.85,0,.76,0,1.51,0,2.27-.1.95.63.58,1.02.58,8.96.02,17.91.02,26.87-.02.66,0,1.45.18,2.02-.42,1.3.14,2.47-.5,3.73-.6.23.05.39-.02.45-.27ZM108.51,70.33c-2.09-1.29-4.38-1.94-6.81-2.18-3.1-.72-6.2-.65-9.29.06-2.21-.05-4.11.98-6.09,1.73-1.89.66-3.5,1.81-5.06,3.02-.58.05-.73.66-1.16.91-.23-.04-.34.06-.35.29-.27.27-.53.54-.8.81-1.89,1.59-3.55,3.35-4.46,5.7-1.41,1.32-1.73,3.17-2.36,4.87-.28.16-.42.37-.28.7-.12.5-.24,1.01-.36,1.51-1.41,3.86-1.26,7.76-.32,11.68.04.39.09.78.13,1.17-.12.47.09.8.45,1.06.03.17.07.34.1.51-.06.3.04.52.3.68l.03.13c2.3,7.25,7.02,12.31,13.96,15.35h.03c.18.08.36.17.54.25.07.12.17.18.31.17,3.25,1.76,6.81,2.27,10.42,2.28,8.38.03,16.76-.06,25.15-.08.45,0,.9.16,1.23-.3.43-.59.12-3.92-.45-4.63l.3-.63c.11-.83.3-1.66.31-2.49.03-5.02.02-10.04.01-15.07,0-3.27.13-6.55-1.05-9.69-.31-2.76-1.41-5.2-3.01-7.44-.85-2.06-2.26-3.69-3.96-5.09-.94-1.21-1.99-2.29-3.45-2.88-1.15-1.11-2.44-2-4.02-2.41Z"/>
</svg>