<?xml version="1.0" encoding="UTF-8"?>
<svg xmlns="http://www.w3.org/2000/svg" xmlns:xlink="http://www.w3.org/1999/xlink" width="96px" height="72px" viewBox="0 0 200 150" version="1.1">
<g id="surface1">
<path style=" stroke:none;fill-rule:evenodd;fill:rgb(8.627451%,19.607843%,33.333334%);fill-opacity:1;" d="M 14.875 0 L 184.625 0 C 192.863281 0 199.496094 6.644531 199.496094 14.898438 L 199.496094 135 C 199.496094 143.15625 192.863281 149.898438 184.625 149.898438 L 14.773438 149.898438 C 6.632812 149.898438 0 143.15625 0 135 L 0 14.898438 C 0 6.644531 6.632812 0 14.773438 0 Z M 14.875 0 "/>
<path style=" stroke:none;fill-rule:evenodd;fill:rgb(80.392158%,96.078432%,39.215687%);fill-opacity:1;" d="M 85.828125 116.175781 L 94.671875 116.175781 C 96.785156 116.175781 98.492188 117.886719 98.492188 120 C 98.492188 122.113281 96.785156 123.824219 94.671875 123.824219 L 85.828125 123.824219 C 83.71875 123.824219 82.011719 122.113281 82.011719 120 C 82.011719 117.886719 83.71875 116.175781 85.828125 116.175781 Z M 85.828125 116.175781 "/>
<path style=" stroke:none;fill-rule:evenodd;fill:rgb(80.392158%,96.078432%,39.215687%);fill-opacity:1;" d="M 57.6875 0 L 57.6875 150 L 46.53125 150 L 46.53125 0 Z M 57.6875 0 "/>
<path style=" stroke:none;fill-rule:evenodd;fill:rgb(80.392158%,96.078432%,39.215687%);fill-opacity:1;" d="M 105.730469 116.175781 L 125.023438 116.175781 C 127.136719 116.175781 128.84375 117.886719 128.84375 120 C 128.84375 122.113281 127.136719 123.824219 125.023438 123.824219 L 105.730469 123.824219 C 103.617188 123.824219 101.910156 122.113281 101.910156 120 C 101.910156 117.886719 103.617188 116.175781 105.730469 116.175781 Z M 105.730469 116.175781 "/>
<path style=" stroke:none;fill-rule:nonzero;fill:rgb(80.392158%,96.078432%,39.215687%);fill-opacity:1;" d="M 28.242188 39.261719 C 30.453125 38.355469 32.664062 37.75 34.976562 37.449219 C 35.308594 37.449219 35.613281 37.449219 35.878906 37.449219 C 36.011719 37.449219 36.113281 37.449219 36.179688 37.449219 C 36.316406 37.449219 36.414062 37.449219 36.480469 37.449219 C 36.617188 37.449219 36.75 37.449219 36.882812 37.449219 C 37.351562 37.449219 37.824219 37.449219 38.292969 37.449219 C 40 37.851562 41.910156 38.15625 43.519531 38.859375 C 44.054688 39.058594 44.554688 39.261719 45.023438 39.464844 C 45.964844 40 46.902344 40.535156 47.839844 41.074219 C 48.039062 41.273438 48.242188 41.578125 48.644531 41.679688 C 49.113281 42.148438 49.613281 42.617188 50.152344 43.085938 C 50.21875 43.15625 50.285156 43.1875 50.351562 43.1875 C 50.484375 43.390625 50.652344 43.589844 50.855469 43.792969 C 51.257812 44.296875 51.660156 45.101562 52.160156 45.203125 C 52.765625 45.300781 53.066406 44.394531 53.566406 43.894531 C 53.96875 43.488281 54.371094 43.085938 54.773438 42.683594 C 55.308594 42.214844 55.847656 41.777344 56.382812 41.375 C 56.917969 40.972656 57.488281 40.570312 58.089844 40.167969 C 59.164062 39.632812 60.269531 39.09375 61.40625 38.558594 C 62.011719 38.457031 62.613281 38.253906 63.214844 37.953125 C 63.71875 37.953125 64.222656 37.953125 64.625 37.75 C 65.894531 37.617188 67.167969 37.515625 68.441406 37.449219 C 69.046875 37.449219 69.683594 37.484375 70.351562 37.550781 C 70.484375 37.683594 70.652344 37.71875 70.855469 37.652344 C 70.988281 37.652344 71.15625 37.652344 71.355469 37.652344 C 72.964844 38.15625 74.671875 38.558594 76.179688 39.261719 C 76.785156 39.5625 77.285156 39.867188 77.890625 40.066406 C 78.492188 40.46875 79.09375 40.839844 79.699219 41.175781 C 80.101562 41.679688 80.503906 42.179688 81.105469 42.382812 C 81.777344 43.054688 82.410156 43.726562 83.015625 44.394531 C 83.550781 45.066406 84.054688 45.738281 84.523438 46.410156 C 84.722656 46.945312 85.023438 47.449219 85.425781 47.917969 C 85.894531 49.058594 86.398438 50.234375 86.933594 51.441406 C 86.933594 51.578125 86.96875 51.710938 87.035156 51.84375 C 86.933594 52.046875 86.933594 52.148438 87.136719 52.347656 C 87.136719 52.550781 87.167969 52.71875 87.234375 52.851562 C 87.167969 52.988281 87.203125 53.121094 87.335938 53.253906 C 87.335938 53.457031 87.371094 53.691406 87.4375 53.960938 C 87.503906 54.898438 87.605469 55.871094 87.738281 56.878906 C 87.738281 57.011719 87.738281 57.179688 87.738281 57.382812 C 87.4375 58.691406 87.539062 60.101562 87.136719 61.511719 C 86.933594 62.515625 86.53125 63.421875 86.332031 64.429688 C 85.796875 65.503906 85.226562 66.578125 84.625 67.652344 C 84.488281 67.785156 84.421875 67.917969 84.421875 68.054688 C 83.617188 69.058594 82.847656 70.035156 82.109375 70.972656 C 81.808594 71.273438 81.40625 71.476562 81.105469 71.878906 C 80.035156 72.683594 78.960938 73.488281 77.890625 74.296875 C 77.890625 74.226562 77.890625 74.195312 77.890625 74.195312 C 76.75 74.730469 75.644531 75.269531 74.574219 75.804688 C 73.265625 76.207031 71.859375 76.410156 70.453125 76.710938 C 70.050781 76.777344 69.648438 76.8125 69.246094 76.8125 C 69.046875 76.8125 68.84375 76.710938 68.644531 76.914062 C 68.375 76.914062 68.140625 76.914062 67.941406 76.914062 C 66.867188 76.777344 65.828125 76.777344 64.824219 76.914062 C 63.820312 76.914062 62.8125 76.914062 61.707031 76.914062 C 62.011719 77.417969 62.210938 77.617188 62.511719 77.71875 C 63.214844 78.523438 64.019531 79.226562 64.824219 79.933594 C 65.023438 80.269531 65.292969 80.570312 65.628906 80.839844 C 66.433594 81.644531 67.234375 82.550781 68.039062 83.253906 C 68.105469 83.320312 68.175781 83.390625 68.242188 83.457031 L 68.441406 83.558594 C 68.578125 83.757812 68.742188 83.925781 68.945312 84.058594 C 69.75 84.867188 70.554688 85.636719 71.355469 86.375 C 71.691406 86.84375 72.058594 87.25 72.460938 87.582031 C 73.132812 88.320312 73.835938 89.027344 74.574219 89.699219 C 74.976562 90.203125 75.476562 90.605469 75.980469 91.007812 C 76.480469 91.8125 77.1875 92.316406 77.890625 92.917969 C 77.988281 93.222656 78.59375 93.421875 78.59375 93.925781 C 78.191406 94.027344 78.089844 94.328125 77.890625 94.632812 C 76.882812 95.503906 75.945312 96.410156 75.074219 97.347656 C 74.875 97.617188 74.640625 97.851562 74.371094 98.054688 C 73.5 98.925781 72.628906 98.925781 71.757812 98.054688 C 71.625 97.988281 71.523438 97.917969 71.457031 97.851562 C 71.457031 97.652344 71.257812 97.652344 71.15625 97.550781 C 71.15625 97.347656 71.054688 97.25 70.855469 97.25 C 70.351562 96.644531 69.847656 96.140625 69.246094 95.636719 C 69.246094 95.570312 69.210938 95.503906 69.144531 95.4375 C 69.078125 95.4375 69.011719 95.402344 68.945312 95.335938 L 68.441406 94.832031 C 68.175781 94.429688 67.804688 94.058594 67.335938 93.726562 C 67.203125 93.589844 67.035156 93.421875 66.835938 93.222656 C 66.835938 93.15625 66.800781 93.085938 66.734375 93.019531 C 66.667969 93.019531 66.601562 92.988281 66.53125 92.917969 C 66.03125 92.316406 65.527344 91.710938 64.824219 91.308594 C 64.722656 91.207031 64.722656 91.007812 64.421875 91.007812 C 64.355469 90.941406 64.289062 90.871094 64.222656 90.804688 C 63.417969 89.597656 62.3125 88.691406 61.207031 87.683594 C 61.140625 87.617188 61.105469 87.582031 61.105469 87.582031 C 60 86.375 58.996094 85.269531 57.789062 84.363281 L 57.789062 84.261719 C 56.785156 83.15625 55.679688 82.148438 54.671875 81.242188 C 54.574219 81.039062 54.472656 80.839844 54.269531 80.839844 C 53.734375 80.300781 53.199219 79.730469 52.664062 79.128906 C 52.363281 78.824219 52.160156 78.824219 51.859375 79.226562 C 51.792969 79.296875 51.726562 79.363281 51.660156 79.429688 C 51.589844 79.496094 51.523438 79.5625 51.457031 79.632812 C 50.953125 79.933594 50.554688 80.4375 50.152344 80.941406 C 49.480469 81.609375 48.84375 82.25 48.242188 82.851562 C 47.738281 83.253906 47.234375 83.757812 46.835938 84.261719 C 46.230469 84.867188 45.628906 85.46875 45.023438 86.074219 C 44.421875 86.578125 43.820312 86.878906 43.417969 87.582031 C 42.746094 88.121094 42.109375 88.757812 41.507812 89.496094 C 40.972656 89.832031 40.535156 90.269531 40.199219 90.804688 C 39.464844 91.410156 38.828125 92.046875 38.292969 92.71875 C 37.6875 93.121094 37.1875 93.726562 36.683594 94.226562 C 36.617188 94.296875 36.550781 94.363281 36.480469 94.429688 C 36.347656 94.429688 36.28125 94.496094 36.28125 94.632812 L 36.179688 94.632812 L 36.082031 94.832031 C 36.011719 94.898438 35.945312 94.933594 35.878906 94.933594 C 35.878906 94.933594 35.878906 94.964844 35.878906 95.035156 C 35.8125 95.101562 35.746094 95.167969 35.679688 95.234375 C 35.542969 95.234375 35.445312 95.335938 35.375 95.535156 C 35.308594 95.605469 35.242188 95.636719 35.175781 95.636719 C 35.042969 95.703125 34.976562 95.804688 34.976562 95.941406 C 34.371094 96.34375 33.871094 96.84375 33.46875 97.449219 C 33.332031 97.515625 33.234375 97.582031 33.164062 97.652344 C 33.164062 97.652344 33.164062 97.683594 33.164062 97.75 C 33.097656 97.820312 33.03125 97.851562 32.964844 97.851562 L 32.964844 97.953125 C 32.898438 97.953125 32.832031 97.988281 32.765625 98.054688 C 32.628906 98.121094 32.5625 98.222656 32.5625 98.355469 C 32.429688 98.355469 32.328125 98.421875 32.261719 98.558594 C 32.195312 98.625 32.160156 98.691406 32.160156 98.757812 L 32.058594 98.757812 C 31.960938 98.757812 31.859375 98.960938 31.859375 99.058594 C 31.792969 99.058594 31.726562 99.09375 31.660156 99.160156 C 31.257812 99.363281 31.15625 99.058594 30.953125 98.859375 C 29.480469 97.382812 28.039062 95.871094 26.632812 94.328125 C 26.433594 94.226562 26.230469 93.925781 25.929688 93.925781 C 25.929688 93.726562 25.996094 93.589844 26.128906 93.523438 C 28.074219 91.511719 30.050781 89.53125 32.058594 87.582031 C 34.171875 85.570312 36.28125 83.558594 38.292969 81.34375 C 38.492188 81.273438 38.625 81.175781 38.695312 81.039062 C 39.699219 80.132812 40.703125 79.226562 41.609375 78.121094 C 42.011719 77.820312 42.410156 77.417969 43.015625 76.914062 C 41.304688 76.8125 39.898438 76.8125 38.492188 76.914062 C 37.488281 76.8125 36.582031 76.914062 35.679688 76.914062 C 34.40625 76.710938 33.164062 76.511719 31.960938 76.308594 C 30.820312 75.972656 29.683594 75.605469 28.542969 75.203125 C 27.941406 74.796875 27.335938 74.496094 26.734375 74.296875 C 26.230469 73.894531 25.628906 73.488281 25.023438 73.1875 C 24.824219 72.988281 24.589844 72.785156 24.320312 72.582031 C 23.214844 71.578125 22.109375 70.773438 21.304688 69.5625 C 20.804688 68.960938 20.300781 68.355469 19.898438 67.75 C 19.429688 66.878906 18.960938 66.039062 18.492188 65.234375 L 18.59375 65.234375 C 18.59375 65.167969 18.558594 65.132812 18.492188 65.132812 C 18.425781 65 18.359375 64.867188 18.292969 64.730469 C 18.292969 64.128906 17.890625 63.625 17.789062 63.019531 C 17.789062 62.953125 17.753906 62.886719 17.6875 62.820312 L 17.589844 62.214844 C 17.589844 62.082031 17.554688 62.011719 17.488281 62.011719 C 17.421875 61.8125 17.351562 61.578125 17.285156 61.308594 C 17.351562 61.175781 17.320312 61.074219 17.1875 61.007812 C 17.1875 61.007812 17.1875 60.972656 17.1875 60.90625 C 17.117188 59.832031 17.019531 58.757812 16.882812 57.683594 C 16.882812 56.878906 16.882812 56.074219 16.882812 55.269531 C 17.1875 53.859375 17.386719 52.550781 17.789062 51.140625 C 18.292969 49.832031 18.792969 48.421875 19.597656 47.214844 C 20.132812 46.34375 20.703125 45.46875 21.304688 44.597656 C 21.609375 44.496094 21.808594 44.195312 21.910156 43.894531 C 22.78125 43.085938 23.652344 42.28125 24.523438 41.476562 C 24.722656 41.476562 24.925781 41.273438 25.023438 41.175781 C 26.097656 40.503906 27.203125 39.867188 28.339844 39.261719 Z M 71.257812 68.457031 C 71.660156 68.355469 72.058594 68.355469 72.363281 68.054688 C 73.164062 67.75 73.871094 67.449219 74.472656 66.84375 C 75.578125 66.242188 76.582031 65.4375 77.1875 64.328125 C 77.453125 64.058594 77.65625 63.757812 77.789062 63.421875 C 78.390625 62.417969 79.09375 61.511719 79.195312 60.300781 C 79.496094 59.394531 79.699219 58.488281 79.597656 57.582031 C 79.800781 56.476562 79.597656 55.46875 79.296875 54.464844 C 78.292969 50.234375 75.710938 47.417969 71.558594 46.007812 C 71.558594 45.871094 71.523438 45.839844 71.457031 45.90625 C 71.324219 45.90625 71.1875 45.90625 71.054688 45.90625 C 70.050781 45.402344 68.945312 45.300781 67.738281 45.402344 C 66.867188 45.402344 65.964844 45.503906 65.023438 45.703125 C 64.957031 45.703125 64.890625 45.738281 64.824219 45.804688 C 64.757812 45.804688 64.722656 45.804688 64.722656 45.804688 C 61.777344 46.609375 59.53125 48.320312 57.988281 50.941406 C 57.1875 51.945312 56.683594 53.15625 56.480469 54.464844 C 56.082031 55.46875 56.082031 56.578125 56.179688 57.683594 C 56.046875 58.824219 56.046875 60 56.179688 61.207031 C 56.113281 62.214844 56.113281 63.222656 56.179688 64.226562 C 56.046875 65.367188 56.046875 66.542969 56.179688 67.75 C 56.179688 68.085938 56.179688 68.421875 56.179688 68.757812 C 56.179688 69.160156 56.480469 68.960938 56.683594 68.960938 C 60.636719 68.960938 64.589844 68.960938 68.542969 68.960938 C 68.84375 68.960938 69.144531 69.058594 69.445312 68.757812 C 70.050781 68.859375 70.554688 68.558594 71.054688 68.558594 C 71.1875 68.558594 71.257812 68.488281 71.257812 68.355469 Z M 41.507812 46.609375 C 40.503906 46.007812 39.496094 45.804688 38.492188 45.703125 C 37.085938 45.300781 35.679688 45.402344 34.371094 45.703125 C 33.367188 45.703125 32.5625 46.105469 31.660156 46.410156 C 30.855469 46.710938 30.152344 47.214844 29.445312 47.820312 C 29.144531 47.820312 29.046875 48.121094 28.945312 48.222656 C 28.8125 48.15625 28.742188 48.1875 28.742188 48.320312 C 28.609375 48.457031 28.476562 48.589844 28.339844 48.726562 C 27.539062 49.429688 26.835938 50.132812 26.433594 51.242188 C 25.828125 51.746094 25.628906 52.652344 25.328125 53.355469 C 25.226562 53.457031 25.226562 53.558594 25.226562 53.65625 C 25.160156 53.859375 25.125 54.09375 25.125 54.363281 C 24.421875 56.074219 24.523438 57.785156 24.925781 59.496094 C 24.992188 59.699219 25.023438 59.867188 25.023438 60 C 24.925781 60.203125 25.023438 60.402344 25.226562 60.503906 C 25.226562 60.570312 25.226562 60.636719 25.226562 60.703125 C 25.226562 60.839844 25.292969 60.941406 25.425781 61.007812 L 25.425781 61.105469 C 26.433594 64.328125 28.542969 66.542969 31.558594 67.851562 C 31.625 67.917969 31.726562 67.953125 31.859375 67.953125 C 31.859375 68.019531 31.894531 68.054688 31.960938 68.054688 C 33.367188 68.859375 34.976562 69.058594 36.582031 69.058594 C 40.300781 69.058594 44.019531 69.058594 47.738281 69.058594 C 47.839844 69.058594 48.039062 69.160156 48.242188 68.960938 C 48.441406 68.65625 48.242188 67.148438 48.039062 66.84375 L 48.140625 66.542969 C 48.242188 66.242188 48.339844 65.839844 48.339844 65.4375 C 48.339844 63.222656 48.339844 61.007812 48.339844 58.792969 C 48.339844 57.382812 48.339844 55.871094 47.839844 54.5625 C 47.738281 53.253906 47.234375 52.25 46.53125 51.242188 C 46.128906 50.335938 45.527344 49.632812 44.722656 48.925781 C 44.320312 48.421875 43.917969 47.917969 43.214844 47.71875 C 42.714844 47.214844 42.109375 46.8125 41.507812 46.609375 Z M 41.507812 46.609375 "/>
<path style=" stroke:none;fill-rule:evenodd;fill:rgb(80.392158%,96.078432%,39.215687%);fill-opacity:1;" d="M 136.882812 116.175781 L 156.179688 116.175781 C 158.292969 116.175781 160 117.886719 160 120 C 160 122.113281 158.292969 123.824219 156.179688 123.824219 L 136.882812 123.824219 C 134.773438 123.824219 133.066406 122.113281 133.066406 120 C 133.066406 117.886719 134.773438 116.175781 136.882812 116.175781 Z M 136.882812 116.175781 "/>
<path style=" stroke:none;fill-rule:evenodd;fill:rgb(80.392158%,96.078432%,39.215687%);fill-opacity:1;" d="M 168.242188 116.175781 L 177.085938 116.175781 C 179.195312 116.175781 180.90625 117.886719 180.90625 120 C 180.90625 122.113281 179.195312 123.824219 177.085938 123.824219 L 168.242188 123.824219 C 166.128906 123.824219 164.421875 122.113281 164.421875 120 C 164.421875 117.886719 166.128906 116.175781 168.242188 116.175781 Z M 168.242188 116.175781 "/>
</g>
</svg>
