<?xml version="1.0" encoding="utf-8"?>
<!-- Generator: Adobe Illustrator 23.0.0, SVG Export Plug-In . SVG Version: 6.00 Build 0)  -->
<svg version="1.1" id="Calque_1" xmlns="http://www.w3.org/2000/svg" xmlns:xlink="http://www.w3.org/1999/xlink" x="0px" y="0px"
	 viewBox="0 0 174.8 133.14" style="enable-background:new 0 0 174.8 133.14;" xml:space="preserve">
<style type="text/css">
	.st0{clip-path:url(#SVGID_2_);}
	.st1{clip-path:url(#SVGID_4_);}
	.st2{fill-rule:evenodd;clip-rule:evenodd;fill:#1C3377;}
	.st3{fill-rule:evenodd;clip-rule:evenodd;fill:#328F3F;}
	.st4{fill-rule:evenodd;clip-rule:evenodd;fill:none;}
	.st5{fill-rule:evenodd;clip-rule:evenodd;fill:#0018A8;}
	.st6{fill-rule:evenodd;clip-rule:evenodd;fill:#00927B;}
	.st7{fill-rule:evenodd;clip-rule:evenodd;fill:#D13139;}
	.st8{clip-path:url(#SVGID_8_);fill-rule:evenodd;clip-rule:evenodd;fill:#FFDE7F;}
	.st9{clip-path:url(#SVGID_8_);fill-rule:evenodd;clip-rule:evenodd;fill:#86BBE7;}
	.st10{fill-rule:evenodd;clip-rule:evenodd;fill:#3A3A42;}
	.st11{fill-rule:evenodd;clip-rule:evenodd;fill:#562873;}
	.st12{fill-rule:evenodd;clip-rule:evenodd;fill:#014787;}
	.st13{clip-path:url(#SVGID_10_);}
	.st14{clip-path:url(#SVGID_12_);}
	.st15{fill-rule:evenodd;clip-rule:evenodd;}
	.st16{fill-rule:evenodd;clip-rule:evenodd;fill:#A81616;}
	.st17{fill-rule:evenodd;clip-rule:evenodd;fill:#0FDCB5;}
	.st18{fill-rule:evenodd;clip-rule:evenodd;fill:#FF4785;}
	.st19{fill-rule:evenodd;clip-rule:evenodd;fill:#2D32AA;}
	.st20{fill-rule:evenodd;clip-rule:evenodd;fill:#3A97B8;}
	.st21{fill:none;stroke:#000000;stroke-width:0.5669;stroke-miterlimit:22.9256;}
	.st22{fill-rule:evenodd;clip-rule:evenodd;fill:#003853;}
	.st23{fill-rule:evenodd;clip-rule:evenodd;fill:#FEB3C7;}
	.st24{fill-rule:evenodd;clip-rule:evenodd;fill:#FF6500;}
	.st25{clip-path:url(#SVGID_16_);fill-rule:evenodd;clip-rule:evenodd;fill:#FFFEFE;}
	.st26{clip-path:url(#SVGID_16_);fill-rule:evenodd;clip-rule:evenodd;fill:#FF6200;}
	.st27{fill-rule:evenodd;clip-rule:evenodd;fill:#CCD905;}
	.st28{fill-rule:evenodd;clip-rule:evenodd;fill:#00ADEF;}
	.st29{fill-rule:evenodd;clip-rule:evenodd;fill:#009CDE;}
	.st30{fill-rule:evenodd;clip-rule:evenodd;fill:#FFFFFF;}
	.st31{fill-rule:evenodd;clip-rule:evenodd;fill:#377F7B;}
	.st32{fill-rule:evenodd;clip-rule:evenodd;fill:#1A1A1A;}
	.st33{fill:#FFFFFF;}
	.st34{fill:none;stroke:#FFFFFF;stroke-width:0.5669;stroke-miterlimit:22.9256;}
	.st35{fill-rule:evenodd;clip-rule:evenodd;fill:#009287;}
	.st36{fill-rule:evenodd;clip-rule:evenodd;fill:#99E1DE;}
	.st37{fill-rule:evenodd;clip-rule:evenodd;fill:#00A1E9;}
	.st38{fill-rule:evenodd;clip-rule:evenodd;fill:#016FD0;}
	.st39{fill-rule:evenodd;clip-rule:evenodd;fill:#FEFEFF;}
	.st40{fill-rule:evenodd;clip-rule:evenodd;fill:#8ABDE9;}
	.st41{fill-rule:evenodd;clip-rule:evenodd;fill:#EF533D;}
	.st42{clip-path:url(#SVGID_18_);fill:url(#SVGID_19_);}
	.st43{clip-path:url(#SVGID_21_);fill:url(#SVGID_22_);}
	.st44{fill-rule:evenodd;clip-rule:evenodd;fill:#1D3663;}
	.st45{fill-rule:evenodd;clip-rule:evenodd;fill:#FEFEFE;}
	.st46{fill-rule:evenodd;clip-rule:evenodd;fill:#EDEDED;}
	.st47{fill-rule:evenodd;clip-rule:evenodd;fill:#C30044;}
	.st48{fill-rule:evenodd;clip-rule:evenodd;fill:#FFDD00;}
	.st49{clip-path:url(#SVGID_24_);fill-rule:evenodd;clip-rule:evenodd;fill:#2F9B46;}
	.st50{clip-path:url(#SVGID_24_);fill-rule:evenodd;clip-rule:evenodd;fill:#60B54D;}
	.st51{clip-path:url(#SVGID_24_);fill-rule:evenodd;clip-rule:evenodd;fill:#89CC53;}
	.st52{clip-path:url(#SVGID_24_);fill-rule:evenodd;clip-rule:evenodd;fill:#3CB8AD;}
	.st53{clip-path:url(#SVGID_24_);fill-rule:evenodd;clip-rule:evenodd;fill:#3394D7;}
	.st54{clip-path:url(#SVGID_24_);fill:none;stroke:#3394D7;stroke-width:0.216;stroke-miterlimit:22.9256;}
	.st55{clip-path:url(#SVGID_24_);fill-rule:evenodd;clip-rule:evenodd;fill:#2772BC;}
	.st56{clip-path:url(#SVGID_24_);fill-rule:evenodd;clip-rule:evenodd;fill:#1B5B83;}
	.st57{clip-path:url(#SVGID_24_);fill-rule:evenodd;clip-rule:evenodd;fill:#993233;}
	.st58{clip-path:url(#SVGID_24_);fill-rule:evenodd;clip-rule:evenodd;fill:#E13030;}
	.st59{clip-path:url(#SVGID_24_);fill-rule:evenodd;clip-rule:evenodd;fill:#F28824;}
	.st60{clip-path:url(#SVGID_24_);fill-rule:evenodd;clip-rule:evenodd;fill:#F5C836;}
	.st61{clip-path:url(#SVGID_24_);fill-rule:evenodd;clip-rule:evenodd;fill:#238647;}
	.st62{clip-path:url(#SVGID_24_);fill-rule:evenodd;clip-rule:evenodd;fill:#EDEDED;}
	.st63{clip-path:url(#SVGID_26_);fill:url(#SVGID_27_);}
	.st64{fill-rule:evenodd;clip-rule:evenodd;fill:#184285;}
	.st65{fill-rule:evenodd;clip-rule:evenodd;fill:#B2DBF4;}
	.st66{fill-rule:evenodd;clip-rule:evenodd;fill:#68BCEB;}
	.st67{fill-rule:evenodd;clip-rule:evenodd;fill:#FDFEFE;}
	.st68{fill-rule:evenodd;clip-rule:evenodd;fill:#1E4A8F;}
	.st69{filter:url(#Adobe_OpacityMaskFilter);}
	.st70{clip-path:url(#SVGID_29_);fill:url(#SVGID_31_);}
	.st71{clip-path:url(#SVGID_29_);mask:url(#SVGID_30_);fill:url(#SVGID_32_);}
	.st72{fill-rule:evenodd;clip-rule:evenodd;fill:#748DB6;}
	.st73{fill-rule:evenodd;clip-rule:evenodd;fill:#1A458A;}
	.st74{fill-rule:evenodd;clip-rule:evenodd;fill:#8097BC;}
	.st75{clip-path:url(#SVGID_34_);fill-rule:evenodd;clip-rule:evenodd;fill:#2FACDD;}
	.st76{clip-path:url(#SVGID_34_);fill-rule:evenodd;clip-rule:evenodd;fill:#F49332;}
	.st77{clip-path:url(#SVGID_34_);fill-rule:evenodd;clip-rule:evenodd;fill:#F7A859;}
	.st78{clip-path:url(#SVGID_34_);fill-rule:evenodd;clip-rule:evenodd;fill:#5EC7DC;}
	.st79{clip-path:url(#SVGID_34_);fill-rule:evenodd;clip-rule:evenodd;fill:#32BAE2;}
	.st80{fill-rule:evenodd;clip-rule:evenodd;fill:#E61E28;}
	.st81{fill-rule:evenodd;clip-rule:evenodd;fill:#C8036F;}
	.st82{clip-path:url(#SVGID_36_);fill:url(#SVGID_37_);}
	.st83{fill-rule:evenodd;clip-rule:evenodd;fill:#000267;}
	.st84{fill-rule:evenodd;clip-rule:evenodd;fill:#EC2528;}
	.st85{fill-rule:evenodd;clip-rule:evenodd;fill:#005FA1;}
	.st86{clip-path:url(#SVGID_39_);fill-rule:evenodd;clip-rule:evenodd;fill:#FFFFFF;}
	.st87{fill-rule:evenodd;clip-rule:evenodd;fill:#CB0065;}
	.st88{fill-rule:evenodd;clip-rule:evenodd;fill:#CB0064;}
	.st89{fill-rule:evenodd;clip-rule:evenodd;fill:#112F77;}
	.st90{fill-rule:evenodd;clip-rule:evenodd;fill:#32ECC5;}
	.st91{fill-rule:evenodd;clip-rule:evenodd;fill:#F46717;}
	.st92{fill:#001254;}
	.st93{font-family:'Arial-BoldMT';}
	.st94{font-size:19.1804px;}
	.st95{font-family:'ArialMT';}
	.st96{font-size:18.3706px;}
	.st97{fill-rule:evenodd;clip-rule:evenodd;fill:#001254;}
	.st98{fill-rule:evenodd;clip-rule:evenodd;fill:#E5E5E5;}
	.st99{fill-rule:evenodd;clip-rule:evenodd;fill:#EA001B;}
	.st100{fill-rule:evenodd;clip-rule:evenodd;fill:#00A0E2;}
	.st101{fill-rule:evenodd;clip-rule:evenodd;fill:#7375CF;}
	.st102{fill-rule:evenodd;clip-rule:evenodd;fill:#00A1E5;}
	.st103{fill-rule:evenodd;clip-rule:evenodd;fill:#00A2E4;}
	.st104{fill-rule:evenodd;clip-rule:evenodd;fill:#FF0015;}
	.st105{fill-rule:evenodd;clip-rule:evenodd;fill:#FF9F00;}
	.st106{fill-rule:evenodd;clip-rule:evenodd;fill:#FE5E00;}
	.st107{fill-rule:evenodd;clip-rule:evenodd;fill:#2AAACD;}
	.st108{fill-rule:evenodd;clip-rule:evenodd;fill:#D30D47;}
	.st109{fill-rule:evenodd;clip-rule:evenodd;fill:#555390;}
	.st110{fill-rule:evenodd;clip-rule:evenodd;fill:#F9B92E;}
	.st111{fill-rule:evenodd;clip-rule:evenodd;fill:#009FE3;}
	.st112{fill-rule:evenodd;clip-rule:evenodd;fill:#DA0812;}
	.st113{clip-path:url(#SVGID_41_);}
	.st114{clip-path:url(#SVGID_45_);}
	.st115{clip-path:url(#SVGID_47_);}
	.st116{clip-path:url(#SVGID_51_);}
	.st117{clip-path:url(#SVGID_55_);fill-rule:evenodd;clip-rule:evenodd;fill:#FF6600;}
	.st118{fill-rule:evenodd;clip-rule:evenodd;fill:#020399;}
	.st119{fill-rule:evenodd;clip-rule:evenodd;fill:#D90801;}
	.st120{clip-path:url(#SVGID_57_);}
	.st121{clip-path:url(#SVGID_59_);}
	.st122{clip-path:url(#SVGID_63_);}
	.st123{clip-path:url(#SVGID_65_);}
	.st124{clip-path:url(#SVGID_69_);}
	.st125{fill-rule:evenodd;clip-rule:evenodd;fill:#002F3F;}
	.st126{fill-rule:evenodd;clip-rule:evenodd;fill:#0DE06F;}
	.st127{fill-rule:evenodd;clip-rule:evenodd;fill:#2B2F76;}
	.st128{clip-path:url(#SVGID_73_);}
	.st129{clip-path:url(#SVGID_77_);}
	.st130{clip-path:url(#SVGID_81_);fill-rule:evenodd;clip-rule:evenodd;fill:#65377F;}
	.st131{clip-path:url(#SVGID_81_);fill-rule:evenodd;clip-rule:evenodd;fill:#742693;}
	.st132{clip-path:url(#SVGID_81_);fill-rule:evenodd;clip-rule:evenodd;fill:#A32795;}
	.st133{clip-path:url(#SVGID_81_);fill-rule:evenodd;clip-rule:evenodd;fill:#723583;}
	.st134{clip-path:url(#SVGID_81_);fill-rule:evenodd;clip-rule:evenodd;fill:#7F2C7E;}
	.st135{clip-path:url(#SVGID_83_);}
	.st136{clip-path:url(#SVGID_85_);}
</style>
<path class="st91" d="M13.19,0h148.43c7.25,0,13.19,5.93,13.19,13.19v106.76c0,7.25-5.93,13.19-13.19,13.19H13.19
	C5.93,133.14,0,127.2,0,119.95V13.19C0,5.93,5.93,0,13.19,0"/>
<path class="st30" d="M49.74,75.01h1.36h79.92c3.85,0,7,3.15,7,7v12.07l-0.02,6.93l-6.98,0.07h-0.82H49.74c-3.85,0-7-3.15-7-7V82.01
	l0-6.89L49.74,75.01z"/>
<path class="st33" d="M62.04,36.46h9.76l22.26,25.31V42.31c0-2.08-0.26-3.37-0.76-3.89c-0.67-0.69-1.73-1.04-3.17-1.04h-1.28v-0.92
	h12.77v0.92h-1.3c-1.56,0-2.66,0.43-3.32,1.3c-0.39,0.53-0.59,1.75-0.59,3.63v28.4h-0.97L71.53,43.56v20.76
	c0,2.08,0.25,3.37,0.73,3.89c0.68,0.69,1.74,1.04,3.18,1.04h1.3v0.92H63.97v-0.92h1.28c1.57,0,2.68-0.43,3.33-1.3
	c0.39-0.53,0.59-1.75,0.59-3.63V40.88c-1.05-1.14-1.85-1.9-2.39-2.26c-0.55-0.36-1.34-0.7-2.39-1.03c-0.52-0.14-1.31-0.22-2.36-0.22
	V36.46z M57.89,69.25v0.92H42.33v-0.92h1.29c1.51,0,2.59-0.41,3.28-1.21c0.43-0.53,0.64-1.8,0.64-3.82V42.41
	c0-1.7-0.12-2.83-0.35-3.37c-0.18-0.42-0.55-0.77-1.11-1.07c-0.79-0.4-1.61-0.59-2.47-0.59h-1.29v-0.92h15.56v0.92h-1.31
	c-1.48,0-2.56,0.41-3.23,1.21c-0.45,0.53-0.67,1.8-0.67,3.82v21.81c0,1.7,0.12,2.83,0.35,3.37c0.17,0.42,0.55,0.77,1.12,1.07
	c0.77,0.4,1.57,0.59,2.43,0.59H57.89z M132.96,35.7l0.93,10.62h-0.99c-0.94-2.63-2.16-4.62-3.65-5.96c-2.16-1.92-4.92-2.89-8.3-2.89
	c-4.6,0-8.11,1.69-10.51,5.09c-2.01,2.86-3.01,6.27-3.01,10.23c0,3.21,0.67,6.13,2.01,8.79c1.33,2.64,3.09,4.58,5.25,5.82
	c2.16,1.23,4.39,1.85,6.68,1.85c1.33,0,2.63-0.16,3.88-0.47c1.24-0.31,2.45-0.78,3.61-1.4v-9.77c0-1.69-0.14-2.8-0.41-3.32
	c-0.28-0.53-0.71-0.92-1.29-1.19c-0.58-0.28-1.61-0.42-3.07-0.42v-0.92h14.03v0.92h-0.67c-1.39,0-2.34,0.43-2.86,1.3
	c-0.36,0.61-0.53,1.82-0.53,3.63v10.33c-2.05,1.03-4.07,1.79-6.06,2.27c-2,0.48-4.22,0.72-6.66,0.72c-7,0-12.32-2.08-15.96-6.26
	c-2.73-3.13-4.09-6.74-4.09-10.83c0-2.97,0.77-5.81,2.3-8.52c1.82-3.23,4.31-5.72,7.48-7.46c2.66-1.44,5.79-2.16,9.42-2.16
	c1.32,0,2.51,0.1,3.59,0.3c1.08,0.2,2.6,0.64,4.58,1.31c1,0.35,1.67,0.53,2.01,0.53c0.34,0,0.62-0.14,0.87-0.43
	c0.24-0.29,0.38-0.86,0.44-1.7H132.96z"/>
<text transform="matrix(1 0 0 1 99.6834 95.3799)" class="st92 st93 st94">Pay</text>
<text transform="matrix(1 0 0 1 45.9177 95.5166)" class="st92 st95 st96">Home</text>
<polygon class="st97" points="96.52,79.8 97.7,80.5 95,85.83 "/>
</svg>
