<?xml version="1.0" encoding="utf-8"?>
<!-- Generator: Adobe Illustrator 23.0.0, SVG Export Plug-In . SVG Version: 6.00 Build 0)  -->
<svg version="1.1" id="Calque_1" xmlns="http://www.w3.org/2000/svg" xmlns:xlink="http://www.w3.org/1999/xlink" x="0px" y="0px"
	 viewBox="0 0 241.96 181.53" style="enable-background:new 0 0 241.96 181.53;" xml:space="preserve">
<style type="text/css">
	.st0{fill-rule:evenodd;clip-rule:evenodd;fill:#F5E11C;}
	.st1{fill-rule:evenodd;clip-rule:evenodd;fill:#1A1A1A;}
	.st2{fill:#CDD905;}
	.st3{fill:#FFFFFF;}
	.st4{fill-rule:evenodd;clip-rule:evenodd;fill:#CDD905;}
	.st5{fill-rule:evenodd;clip-rule:evenodd;fill:#0356A2;}
	.st6{fill-rule:evenodd;clip-rule:evenodd;fill:#2CB34C;}
	.st7{fill-rule:evenodd;clip-rule:evenodd;fill:#FFFFFF;}
	.st8{fill-rule:evenodd;clip-rule:evenodd;fill:#EDEDED;}
	.st9{fill-rule:evenodd;clip-rule:evenodd;fill:#00ADEF;}
	.st10{fill:#00C191;}
	.st11{fill-rule:evenodd;clip-rule:evenodd;fill:#00BF8F;}
	.st12{fill-rule:evenodd;clip-rule:evenodd;fill:#F3F7F8;}
	.st13{fill-rule:evenodd;clip-rule:evenodd;fill:#009065;}
	.st14{clip-path:url(#SVGID_2_);fill-rule:evenodd;clip-rule:evenodd;fill:#FFDE7F;}
	.st15{clip-path:url(#SVGID_2_);fill-rule:evenodd;clip-rule:evenodd;fill:#86BBE7;}
	.st16{fill-rule:evenodd;clip-rule:evenodd;fill:#184285;}
	.st17{fill-rule:evenodd;clip-rule:evenodd;fill:#B2DBF4;}
	.st18{fill-rule:evenodd;clip-rule:evenodd;fill:#68BCEB;}
	.st19{fill-rule:evenodd;clip-rule:evenodd;fill:#FDFEFE;}
	.st20{fill-rule:evenodd;clip-rule:evenodd;fill:#1E4A8F;}
	.st21{filter:url(#Adobe_OpacityMaskFilter);}
	.st22{clip-path:url(#SVGID_4_);fill:url(#SVGID_6_);}
	.st23{clip-path:url(#SVGID_4_);mask:url(#SVGID_5_);fill:url(#SVGID_7_);}
	.st24{fill-rule:evenodd;clip-rule:evenodd;fill:#748DB6;}
	.st25{fill-rule:evenodd;clip-rule:evenodd;fill:#1A458A;}
	.st26{fill-rule:evenodd;clip-rule:evenodd;fill:#8097BC;}
	.st27{fill-rule:evenodd;clip-rule:evenodd;fill:#014787;}
	.st28{fill:#FFFEFF;}
	.st29{fill:#FFBF00;}
	.st30{fill:#0F298F;}
</style>
<g>
	<defs>
		<path id="SVGID_1_" d="M17.24,0.08h207.47c9.45,0,17.19,7.73,17.19,17.19v147c0,9.45-7.73,17.19-17.19,17.19H17.24
			c-9.45,0-17.19-7.73-17.19-17.19v-147C0.06,7.81,7.79,0.08,17.24,0.08"/>
	</defs>
	<clipPath id="SVGID_2_">
		<use xlink:href="#SVGID_1_"  style="overflow:visible;"/>
	</clipPath>
	<rect x="-10.26" y="-7.7" class="st14" width="262.42" height="98.41"/>
	<rect x="-10.2" y="90.82" class="st15" width="262.42" height="98.41"/>
</g>
<g>
	<path d="M172.04,110.31c-1.33,0-2.49,0-3.66,0c-2.68,0-5.35-0.02-8.03,0.01c-1.51,0.02-2.66-0.52-3.58-1.74
		c-3.99-5.24-8.03-10.45-12.05-15.67c-0.13-0.17-0.27-0.33-0.53-0.64c0,6.1,0,12.03,0,18.01c-0.3,0.01-0.51,0.03-0.73,0.03
		c-2.96,0-5.93,0-8.89,0c-1.45,0-1.68-0.23-1.68-1.71c0-15.66-0.01-31.32,0.01-46.98c0-2.24-0.23-4.4-0.99-6.51
		c-0.41-1.13-0.02-2.02,0.99-2.39c0.26-0.09,0.56-0.11,0.84-0.11c2.92-0.01,5.84-0.01,8.76,0c1.41,0,1.67,0.25,1.67,1.65
		c0,10.62,0,21.24,0,31.85c0,0.26,0,0.53,0,0.93c0.2-0.19,0.33-0.28,0.42-0.41c4.09-5.14,8.18-10.27,12.24-15.44
		c0.75-0.95,1.6-1.42,2.82-1.4c2.88,0.04,5.75,0.02,8.63,0.01c0.67,0,1.26,0.14,1.54,0.8c0.26,0.63,0.06,1.18-0.39,1.7
		c-4.72,5.6-9.42,11.21-14.12,16.82c-0.14,0.17-0.27,0.34-0.43,0.54C160.57,96.51,166.25,103.34,172.04,110.31z"/>
	<path d="M196.81,85.16c0.04-1.61,0.14-3.17-0.54-4.65c-0.9-1.96-2.59-2.88-4.58-3.23c-4.25-0.75-8.36-0.18-12.32,1.53
		c-1.99,0.86-2.07,0.85-3.28-0.93c-0.67-0.99-1.35-1.97-2.02-2.96c-0.87-1.31-0.63-2.22,0.77-2.98c2.91-1.57,6.05-2.47,9.3-2.98
		c4.5-0.71,8.99-0.67,13.42,0.52c4.2,1.12,7.51,3.4,9.24,7.55c0.62,1.5,1.02,3.06,1.02,4.7c0,9.27,0,18.53,0,27.8
		c0,0.24,0,0.47,0,0.78c-0.26,0-0.45,0-0.64,0c-2.85,0-5.71,0-8.56,0c-1.36,0-1.62-0.28-1.63-1.64c0-0.92,0-1.84,0-2.94
		c-0.41,0.52-0.69,0.9-1.01,1.25c-2.19,2.41-5.06,3.41-8.17,3.83c-2.86,0.38-5.7,0.3-8.44-0.71c-4.59-1.69-7.1-5.05-7.77-9.84
		c-0.3-2.12-0.22-4.23,0.33-6.31c0.87-3.25,2.88-5.57,5.82-7.11c2.53-1.33,5.28-1.85,8.09-2.1c3.3-0.29,6.58-0.03,9.85,0.36
		C196.06,85.12,196.41,85.13,196.81,85.16z M196.84,96.16c0-0.57,0-1.15,0-1.72c0-2.17-0.11-2.3-2.23-2.62
		c-0.07-0.01-0.13-0.03-0.2-0.04c-2.37-0.27-4.75-0.54-7.13-0.05c-3.77,0.78-5.59,3.7-4.54,7.34c0.39,1.33,1.25,2.26,2.51,2.82
		c1.46,0.65,2.99,0.75,4.55,0.61c2.21-0.21,4.29-0.83,6.11-2.17c0.6-0.44,0.98-0.98,0.93-1.79
		C196.8,97.76,196.84,96.96,196.84,96.16z"/>
	<path d="M99.14,110.3c-3.41,0-6.71,0.01-10-0.01c-0.99-0.01-1.27-0.38-1.27-1.51c0-10.02-0.02-20.04,0.01-30.06
		c0.01-2.3-0.22-4.54-1.01-6.71c-0.35-0.95-0.15-1.63,0.57-2.11c0.28-0.18,0.65-0.32,0.98-0.32c2.76-0.03,5.53-0.02,8.29-0.01
		c0.97,0,1.3,0.34,1.31,1.34c0.02,1.23,0,2.47,0,3.75c0.12-0.05,0.19-0.06,0.22-0.1c2.31-3.11,5.43-4.96,9.19-5.71
		c3.64-0.72,7.23-0.43,10.66,1.05c3.45,1.49,5.58,4.16,6.65,7.72c0.65,2.14,0.83,4.33,0.83,6.55c0,8.45,0,16.9,0,25.35
		c0,0.24,0,0.47,0,0.74c-0.27,0.02-0.46,0.04-0.66,0.04c-3.1,0-6.19,0-9.29,0c-1.26,0-1.49-0.24-1.49-1.53
		c0-7.48,0.02-14.95-0.02-22.43c-0.01-1.36-0.11-2.75-0.4-4.08c-0.56-2.49-2.28-3.77-4.82-3.97c-3.94-0.31-6.86,1.49-9.2,4.42
		c-0.42,0.53-0.55,1.4-0.55,2.12c-0.04,8.18-0.02,16.37-0.02,24.55C99.14,109.67,99.14,109.95,99.14,110.3z"/>
	<path d="M40.83,78.42c-1.53,0-2.96,0-4.4,0c-1.59,0-1.66-0.07-1.66-1.63c0-1.11-0.01-2.21,0.01-3.32c0.02-1.29,0.46-1.74,1.7-2.06
		c1.3-0.33,2.64-0.62,3.83-1.2c1.91-0.94,3.07-2.67,3.77-4.62c0.6-1.65,0.97-3.39,1.41-5.1c0.23-0.89,0.64-1.3,1.56-1.31
		c1.22-0.02,2.43-0.02,3.65,0c1.1,0.02,1.4,0.34,1.4,1.46c0.01,2.68,0,5.35,0,8.03c0,0.26,0,0.53,0,0.89c0.29,0,0.52,0,0.75,0
		c2.43,0,4.87,0,7.3,0c0.8,0,1.21,0.31,1.22,1.07c0.03,2.56,0.01,5.12,0.01,7.75c-3.09,0-6.13,0-9.22,0
		c-0.03,0.23-0.07,0.39-0.07,0.56c0,6.08,0.01,12.17,0.03,18.25c0,0.53,0.07,1.06,0.19,1.58c0.39,1.72,1.69,2.85,3.49,2.9
		c1.34,0.04,2.69-0.05,4.03-0.19c1.23-0.13,2.38,0.36,2.78,1.52c0.66,1.89,1.21,3.83,1.83,5.82c-0.73,0.27-1.4,0.56-2.08,0.78
		c-4.35,1.41-8.77,1.77-13.28,0.95c-4.59-0.84-7.66-4.15-8.1-8.82c-0.1-1.1-0.16-2.21-0.16-3.31c-0.02-6.37-0.01-12.74-0.01-19.11
		C40.83,79.05,40.83,78.77,40.83,78.42z"/>
	<path d="M80.27,110.3c-3.42,0-6.73,0.01-10.05-0.01c-0.99-0.01-1.22-0.33-1.22-1.46c0-10.63,0-21.27,0-31.9
		c0-1.56-0.28-3.07-0.86-4.53c-0.19-0.47-0.29-1.04-0.22-1.53c0.12-0.8,0.73-1.28,1.54-1.29c3.23-0.02,6.46-0.02,9.68,0
		c0.72,0,1.03,0.34,1.11,1.05c0.02,0.17,0.01,0.35,0.01,0.53c0,12.8,0,25.6,0,38.4C80.27,109.79,80.27,110.01,80.27,110.3z"/>
	<path d="M80.98,59.15c0.01,3.59-2.93,6.55-6.52,6.56c-3.59,0.01-6.53-2.93-6.54-6.53c-0.02-3.58,2.93-6.55,6.52-6.57
		C77.99,52.59,80.97,55.56,80.98,59.15z"/>
</g>
</svg>
