<svg xmlns="http://www.w3.org/2000/svg" xmlns:xlink="http://www.w3.org/1999/xlink" width="235" height="176" viewBox="0 0 235 176">
  <defs>
    <linearGradient id="linear-gradient" x1="0.824" y1="-0.458" x2="0.311" y2="0.963" gradientUnits="objectBoundingBox">
      <stop offset="0.024" stop-color="#1d1c1c" stop-opacity="0"/>
      <stop offset="0.676" stop-color="#1d1c1c"/>
    </linearGradient>
    <linearGradient id="linear-gradient-2" x1="0.094" y1="1.469" x2="0.612" y2="0.289" xlink:href="#linear-gradient"/>
  </defs>
  <g id="Group_8" data-name="Group 8" transform="translate(-1296 -244)">
    <rect id="Rectangle_1" data-name="Rectangle 1" width="235" height="176" rx="16" transform="translate(1296 244)" fill="#fff48d"/>
    <g id="Group_7" data-name="Group 7" transform="translate(1275.035 176.964)">
      <path id="Path_12" data-name="Path 12" d="M220.96,155.006c0-11.326,8.152-21.646,22.239-21.646,14.136,0,22.3,10.328,22.3,21.646s-8.152,21.646-22.3,21.646C229.12,176.66,220.96,166.333,220.96,155.006Zm32.153,0c0-5.456-3.637-10.5-9.914-10.5-6.219,0-9.914,5.042-9.914,10.5s3.694,10.5,9.914,10.5C249.475,165.513,253.113,160.462,253.113,155.006Z" transform="translate(-33.244 -0.009)" fill="#1d1c1c"/>
      <path id="Path_13" data-name="Path 13" d="M203.9,163.3a15.366,15.366,0,0,0-7.916-28.572H176.27V175.8h12.2V165.3h2.29l6.983,10.5h14.371Zm-10.385-7.445h-5.042V144.238h5.107c3.288,0,5.4,2.639,5.4,5.805A5.5,5.5,0,0,1,193.515,155.857Z" transform="translate(-24.84 -0.267)" fill="#1d1c1c"/>
      <path id="Path_14" data-name="Path 14" d="M95.723,134.68,88.4,159.16l-7.145-24.48H71.536l-7.2,24.48-7.259-24.48H44.19l14.761,40.995h10.6L76.4,153.363l6.788,22.312H93.848L108.6,134.68Z" transform="translate(0 -0.258)" fill="#1d1c1c"/>
      <path id="Path_15" data-name="Path 15" d="M141.121,165.4h-.032a9.508,9.508,0,0,1-9.142-6.333h31.008a22.731,22.731,0,0,0,.382-4.149c0-11.294-8.127-21.589-22.223-21.606v11.124a9.451,9.451,0,0,1,9.118,6.333H119.264a23.468,23.468,0,0,0-.373,4.149c0,11.3,8.136,21.606,22.19,21.606h.032V165.4Z" transform="translate(-14.048)" fill="#1d1c1c"/>
      <g id="Group_5" data-name="Group 5" transform="translate(105.402 133.31)">
        <path id="Path_16" data-name="Path 16" d="M142.674,182.7c.479,0,.95-.016,1.413-.041a24.012,24.012,0,0,0,7.754-1.648,20.341,20.341,0,0,0,10.32-9.077,21.7,21.7,0,0,0,2.2-5.805H151.434a11.019,11.019,0,0,1-.926,1.551,9.263,9.263,0,0,1-1.689,1.786,9.093,9.093,0,0,1-2.152,1.3,9.647,9.647,0,0,1-2.59.7,11.373,11.373,0,0,1-1.413.089,9.42,9.42,0,0,1-6.942-2.842l-8.4,8.4A22.19,22.19,0,0,0,142.674,182.7Z" transform="translate(-121.036 -139.482)" fill="url(#linear-gradient)"/>
        <path id="Path_17" data-name="Path 17" d="M141.218,133.31c-11.919,0-19.584,7.413-21.638,16.563h12.885a9.819,9.819,0,0,1,16.36-1.859l8.477-8.477C153.511,135.738,148.071,133.31,141.218,133.31Z" transform="translate(-119.58 -133.31)" fill="url(#linear-gradient-2)"/>
      </g>
    </g>
  </g>
</svg>
