<?xml version="1.0" encoding="utf-8"?>
<!-- Generator: Adobe Illustrator 23.0.0, SVG Export Plug-In . SVG Version: 6.00 Build 0)  -->
<svg version="1.1" id="Calque_1" xmlns="http://www.w3.org/2000/svg" xmlns:xlink="http://www.w3.org/1999/xlink" x="0px" y="0px"
	 viewBox="0 0 20 20" style="enable-background:new 0 0 20 20;" xml:space="preserve">
<style type="text/css">
	.st0{clip-path:url(#SVGID_2_);}
	.st1{fill-rule:evenodd;clip-rule:evenodd;fill:#2F9B46;}
	.st2{fill-rule:evenodd;clip-rule:evenodd;fill:#60B54D;}
	.st3{fill-rule:evenodd;clip-rule:evenodd;fill:#89CC53;}
	.st4{fill-rule:evenodd;clip-rule:evenodd;fill:#3CB8AD;}
	.st5{fill-rule:evenodd;clip-rule:evenodd;fill:#3394D7;}
	.st6{fill:none;stroke:#3394D7;stroke-width:0.216;stroke-miterlimit:22.9256;}
	.st7{fill-rule:evenodd;clip-rule:evenodd;fill:#2772BC;}
	.st8{fill-rule:evenodd;clip-rule:evenodd;fill:#1B5B83;}
	.st9{fill-rule:evenodd;clip-rule:evenodd;fill:#993233;}
	.st10{fill-rule:evenodd;clip-rule:evenodd;fill:#E13030;}
	.st11{fill-rule:evenodd;clip-rule:evenodd;fill:#F28824;}
	.st12{fill-rule:evenodd;clip-rule:evenodd;fill:#F5C836;}
	.st13{fill-rule:evenodd;clip-rule:evenodd;fill:#238647;}
	.st14{fill-rule:evenodd;clip-rule:evenodd;fill:#EDEDED;}
	.st15{clip-path:url(#SVGID_4_);fill-rule:evenodd;clip-rule:evenodd;fill:#2F9B46;}
	.st16{clip-path:url(#SVGID_4_);fill-rule:evenodd;clip-rule:evenodd;fill:#60B54D;}
	.st17{clip-path:url(#SVGID_4_);fill-rule:evenodd;clip-rule:evenodd;fill:#89CC53;}
	.st18{clip-path:url(#SVGID_4_);fill-rule:evenodd;clip-rule:evenodd;fill:#3CB8AD;}
	.st19{clip-path:url(#SVGID_4_);fill-rule:evenodd;clip-rule:evenodd;fill:#3394D7;}
	.st20{clip-path:url(#SVGID_4_);fill:none;stroke:#3394D7;stroke-width:0.216;stroke-miterlimit:22.9256;}
	.st21{clip-path:url(#SVGID_4_);fill-rule:evenodd;clip-rule:evenodd;fill:#2772BC;}
	.st22{clip-path:url(#SVGID_4_);fill-rule:evenodd;clip-rule:evenodd;fill:#1B5B83;}
	.st23{clip-path:url(#SVGID_4_);fill-rule:evenodd;clip-rule:evenodd;fill:#993233;}
	.st24{clip-path:url(#SVGID_4_);fill-rule:evenodd;clip-rule:evenodd;fill:#E13030;}
	.st25{clip-path:url(#SVGID_4_);fill-rule:evenodd;clip-rule:evenodd;fill:#F28824;}
	.st26{clip-path:url(#SVGID_4_);fill-rule:evenodd;clip-rule:evenodd;fill:#F5C836;}
	.st27{clip-path:url(#SVGID_4_);fill-rule:evenodd;clip-rule:evenodd;fill:#238647;}
	.st28{fill-rule:evenodd;clip-rule:evenodd;fill:#E1000E;}
	.st29{fill-rule:evenodd;clip-rule:evenodd;fill:#FFFFFF;}
	.st30{fill-rule:evenodd;clip-rule:evenodd;}
	.st31{fill-rule:evenodd;clip-rule:evenodd;fill:#009B89;}
	.st32{fill-rule:evenodd;clip-rule:evenodd;fill:#F9B800;}
	.st33{fill-rule:evenodd;clip-rule:evenodd;fill:#004D4D;}
	.st34{fill-rule:evenodd;clip-rule:evenodd;fill:#FF422E;}
	.st35{fill-rule:evenodd;clip-rule:evenodd;fill:#FF6500;}
	.st36{clip-path:url(#SVGID_6_);}
	.st37{fill-rule:evenodd;clip-rule:evenodd;fill:#FFFEFE;}
	.st38{fill:#FF6500;}
	.st39{fill:#071A57;}
	.st40{fill-rule:evenodd;clip-rule:evenodd;fill:#003C5D;}
	.st41{fill-rule:evenodd;clip-rule:evenodd;fill:#2D8F37;}
	.st42{fill-rule:evenodd;clip-rule:evenodd;fill:#000FAA;}
	.st43{clip-path:url(#SVGID_8_);}
	.st44{clip-path:url(#SVGID_10_);fill-rule:evenodd;clip-rule:evenodd;fill:#F76401;}
	.st45{clip-path:url(#SVGID_12_);}
	.st46{clip-path:url(#SVGID_14_);fill:url(#SVGID_15_);}
	.st47{clip-path:url(#SVGID_12_);fill-rule:evenodd;clip-rule:evenodd;fill:#F7A8A5;}
	.st48{clip-path:url(#SVGID_12_);fill-rule:evenodd;clip-rule:evenodd;fill:#FFFFFF;}
	.st49{clip-path:url(#SVGID_17_);fill:url(#SVGID_18_);}
	.st50{clip-path:url(#SVGID_20_);fill:url(#SVGID_21_);}
	.st51{clip-path:url(#SVGID_12_);fill-rule:evenodd;clip-rule:evenodd;fill:#283C93;}
	.st52{clip-path:url(#SVGID_12_);fill-rule:evenodd;clip-rule:evenodd;fill:#EE412C;}
	.st53{clip-path:url(#SVGID_23_);fill:url(#SVGID_24_);}
	.st54{clip-path:url(#SVGID_12_);fill-rule:evenodd;clip-rule:evenodd;fill:#CC3829;}
	.st55{clip-path:url(#SVGID_12_);fill-rule:evenodd;clip-rule:evenodd;fill:#F48E97;}
	.st56{clip-path:url(#SVGID_26_);fill:url(#SVGID_27_);}
	.st57{clip-path:url(#SVGID_12_);fill-rule:evenodd;clip-rule:evenodd;fill:#EE4633;}
	.st58{clip-path:url(#SVGID_12_);fill-rule:evenodd;clip-rule:evenodd;fill:#FDDC0D;}
	.st59{clip-path:url(#SVGID_29_);fill:url(#SVGID_30_);}
	.st60{clip-path:url(#SVGID_32_);fill:url(#SVGID_33_);}
	.st61{clip-path:url(#SVGID_35_);fill:url(#SVGID_36_);}
	.st62{clip-path:url(#SVGID_38_);fill:url(#SVGID_39_);}
	.st63{fill-rule:evenodd;clip-rule:evenodd;fill:#562772;}
	.st64{clip-path:url(#SVGID_41_);}
	.st65{clip-path:url(#SVGID_43_);fill:url(#SVGID_44_);}
	.st66{clip-path:url(#SVGID_41_);fill-rule:evenodd;clip-rule:evenodd;fill:#F7A8A5;}
	.st67{clip-path:url(#SVGID_41_);fill-rule:evenodd;clip-rule:evenodd;fill:#FFFFFF;}
	.st68{clip-path:url(#SVGID_46_);fill:url(#SVGID_47_);}
	.st69{clip-path:url(#SVGID_49_);fill:url(#SVGID_50_);}
	.st70{clip-path:url(#SVGID_41_);fill-rule:evenodd;clip-rule:evenodd;fill:#283C93;}
	.st71{clip-path:url(#SVGID_41_);fill-rule:evenodd;clip-rule:evenodd;fill:#EE412C;}
	.st72{clip-path:url(#SVGID_52_);fill:url(#SVGID_53_);}
	.st73{clip-path:url(#SVGID_41_);fill-rule:evenodd;clip-rule:evenodd;fill:#CC3829;}
	.st74{clip-path:url(#SVGID_41_);fill-rule:evenodd;clip-rule:evenodd;fill:#F48E97;}
	.st75{clip-path:url(#SVGID_55_);fill:url(#SVGID_56_);}
	.st76{clip-path:url(#SVGID_41_);fill-rule:evenodd;clip-rule:evenodd;fill:#EE4633;}
	.st77{clip-path:url(#SVGID_41_);fill-rule:evenodd;clip-rule:evenodd;fill:#FDDC0D;}
	.st78{clip-path:url(#SVGID_58_);fill:url(#SVGID_59_);}
	.st79{clip-path:url(#SVGID_61_);fill:url(#SVGID_62_);}
	.st80{clip-path:url(#SVGID_64_);fill:url(#SVGID_65_);}
	.st81{clip-path:url(#SVGID_67_);fill:url(#SVGID_68_);}
	.st82{fill:#00937B;}
	.st83{fill-rule:evenodd;clip-rule:evenodd;fill:#00937B;}
	.st84{fill:#FFFFFF;}
</style>
<path class="st34" d="M19,20H1c-0.55,0-1-0.45-1-1L0,1c0-0.55,0.45-1,1-1l18,0c0.55,0,1,0.45,1,1v18C20,19.55,19.55,20,19,20z"/>
<path class="st29" d="M6.19,12.93c0.03,0.3,0.13,1.19,0.67,2.18c0.61,1.11,1.42,1.71,1.58,1.83c1.18,0.92,2.48,0.98,3,1
	c0.8,0.03,1.21,0.04,1.4-0.17c0.36-0.39-0.46-0.23-1.16-0.77c-1-0.78-2.05-2.87-1.68-4.84c0.33-1.79,2.61-2.82,2.36-5.77
	c-0.04-0.48-0.16-1.78-1.05-2.78c-1.12-1.28-2.83-1.29-3.5-1.3c-0.61,0-1.88-0.02-3.07,0.9C3.51,4.15,3.21,5.46,3.11,5.93
	c-0.13,0.6-0.07,2.33,0.1,1.97c0.13-0.28,0.78-1.3,2.27-1.15c0.14,0.01,0.64,0.15,1.02,0.6c0.81,0.95,0.24,2.69,0.12,3.07
	c-0.15,0.46-0.32,0.77-0.41,1.43C6.18,11.97,6.14,12.39,6.19,12.93z"/>
<path class="st29" d="M16.59,7.03c-0.25-0.73,0.15-1.13-0.03-1.87c-0.06-0.24-0.19-0.56-0.3-0.55c-0.07,0.01-0.11,0.15-0.13,0.22
	c-0.28,0.94-0.44,1.48-0.68,1.55c-0.09,0.03-0.24-0.08-0.53-0.28c-0.56-0.39-0.89-0.63-1.1-1.05c-0.13-0.25-0.16-0.47-0.23-0.47
	c-0.03,0-0.08,0.04-0.12,0.42c-0.05,0.55-0.11,1.22,0.18,1.88c0.3,0.67,0.56,0.43,1.47,1.53c0.45,0.55,0.75,0.92,1.03,1.5
	c0.25,0.51,0.3,0.81,0.47,0.82c0.26,0.01,0.63-0.72,0.65-1.43c0.02-0.65-0.27-1.32-0.57-2.03C16.61,7.08,16.61,7.1,16.59,7.03z"/>
<path class="st29" d="M16.81,12.4c-0.21-0.32-1.4,0.12-1.48,0.15c-0.31,0.12-0.82,0.32-1.3,0.82c-0.41,0.43-0.6,0.87-0.68,1.08
	c-0.33,0.87-0.16,1.62-0.08,1.95c0.13,0.54,0.22,0.93,0.5,1.03c0.49,0.19,1.36-0.54,1.73-1.37c0.16-0.35,0.34-1.01,0.25-2.08
	c-0.03-0.3,0.07-0.79,0.3-0.96c0.24-0.17,0.18-0.14,0.47-0.31C16.59,12.66,16.86,12.48,16.81,12.4z"/>
<circle class="st29" cx="13.98" cy="8.98" r="0.44"/>
</svg>
