<?xml version="1.0" encoding="utf-8"?>
<!-- Generator: Adobe Illustrator 23.0.0, SVG Export Plug-In . SVG Version: 6.00 Build 0)  -->
<svg version="1.1" id="Calque_1" xmlns="http://www.w3.org/2000/svg" xmlns:xlink="http://www.w3.org/1999/xlink" x="0px" y="0px"
	 viewBox="0 0 20 20" style="enable-background:new 0 0 20 20;" xml:space="preserve">
<style type="text/css">
	.st0{clip-path:url(#SVGID_2_);}
	.st1{fill-rule:evenodd;clip-rule:evenodd;fill:#2F9B46;}
	.st2{fill-rule:evenodd;clip-rule:evenodd;fill:#60B54D;}
	.st3{fill-rule:evenodd;clip-rule:evenodd;fill:#89CC53;}
	.st4{fill-rule:evenodd;clip-rule:evenodd;fill:#3CB8AD;}
	.st5{fill-rule:evenodd;clip-rule:evenodd;fill:#3394D7;}
	.st6{fill:none;stroke:#3394D7;stroke-width:0.216;stroke-miterlimit:22.9256;}
	.st7{fill-rule:evenodd;clip-rule:evenodd;fill:#2772BC;}
	.st8{fill-rule:evenodd;clip-rule:evenodd;fill:#1B5B83;}
	.st9{fill-rule:evenodd;clip-rule:evenodd;fill:#993233;}
	.st10{fill-rule:evenodd;clip-rule:evenodd;fill:#E13030;}
	.st11{fill-rule:evenodd;clip-rule:evenodd;fill:#F28824;}
	.st12{fill-rule:evenodd;clip-rule:evenodd;fill:#F5C836;}
	.st13{fill-rule:evenodd;clip-rule:evenodd;fill:#238647;}
	.st14{fill-rule:evenodd;clip-rule:evenodd;fill:#EDEDED;}
	.st15{clip-path:url(#SVGID_4_);fill-rule:evenodd;clip-rule:evenodd;fill:#2F9B46;}
	.st16{clip-path:url(#SVGID_4_);fill-rule:evenodd;clip-rule:evenodd;fill:#60B54D;}
	.st17{clip-path:url(#SVGID_4_);fill-rule:evenodd;clip-rule:evenodd;fill:#89CC53;}
	.st18{clip-path:url(#SVGID_4_);fill-rule:evenodd;clip-rule:evenodd;fill:#3CB8AD;}
	.st19{clip-path:url(#SVGID_4_);fill-rule:evenodd;clip-rule:evenodd;fill:#3394D7;}
	.st20{clip-path:url(#SVGID_4_);fill:none;stroke:#3394D7;stroke-width:0.216;stroke-miterlimit:22.9256;}
	.st21{clip-path:url(#SVGID_4_);fill-rule:evenodd;clip-rule:evenodd;fill:#2772BC;}
	.st22{clip-path:url(#SVGID_4_);fill-rule:evenodd;clip-rule:evenodd;fill:#1B5B83;}
	.st23{clip-path:url(#SVGID_4_);fill-rule:evenodd;clip-rule:evenodd;fill:#993233;}
	.st24{clip-path:url(#SVGID_4_);fill-rule:evenodd;clip-rule:evenodd;fill:#E13030;}
	.st25{clip-path:url(#SVGID_4_);fill-rule:evenodd;clip-rule:evenodd;fill:#F28824;}
	.st26{clip-path:url(#SVGID_4_);fill-rule:evenodd;clip-rule:evenodd;fill:#F5C836;}
	.st27{clip-path:url(#SVGID_4_);fill-rule:evenodd;clip-rule:evenodd;fill:#238647;}
	.st28{fill-rule:evenodd;clip-rule:evenodd;fill:#E1000E;}
	.st29{fill-rule:evenodd;clip-rule:evenodd;fill:#FFFFFF;}
	.st30{fill-rule:evenodd;clip-rule:evenodd;}
	.st31{fill-rule:evenodd;clip-rule:evenodd;fill:#009B89;}
	.st32{fill-rule:evenodd;clip-rule:evenodd;fill:#F9B800;}
	.st33{fill-rule:evenodd;clip-rule:evenodd;fill:#004D4D;}
	.st34{fill-rule:evenodd;clip-rule:evenodd;fill:#FF422E;}
	.st35{fill-rule:evenodd;clip-rule:evenodd;fill:#FF6500;}
	.st36{clip-path:url(#SVGID_6_);}
	.st37{fill-rule:evenodd;clip-rule:evenodd;fill:#FFFEFE;}
	.st38{fill:#FF6500;}
	.st39{fill:#071A57;}
	.st40{fill-rule:evenodd;clip-rule:evenodd;fill:#003C5D;}
	.st41{fill-rule:evenodd;clip-rule:evenodd;fill:#2D8F37;}
	.st42{fill-rule:evenodd;clip-rule:evenodd;fill:#000FAA;}
	.st43{clip-path:url(#SVGID_8_);}
	.st44{clip-path:url(#SVGID_10_);fill-rule:evenodd;clip-rule:evenodd;fill:#F76401;}
	.st45{clip-path:url(#SVGID_12_);}
	.st46{clip-path:url(#SVGID_14_);fill:url(#SVGID_15_);}
	.st47{clip-path:url(#SVGID_12_);fill-rule:evenodd;clip-rule:evenodd;fill:#F7A8A5;}
	.st48{clip-path:url(#SVGID_12_);fill-rule:evenodd;clip-rule:evenodd;fill:#FFFFFF;}
	.st49{clip-path:url(#SVGID_17_);fill:url(#SVGID_18_);}
	.st50{clip-path:url(#SVGID_20_);fill:url(#SVGID_21_);}
	.st51{clip-path:url(#SVGID_12_);fill-rule:evenodd;clip-rule:evenodd;fill:#283C93;}
	.st52{clip-path:url(#SVGID_12_);fill-rule:evenodd;clip-rule:evenodd;fill:#EE412C;}
	.st53{clip-path:url(#SVGID_23_);fill:url(#SVGID_24_);}
	.st54{clip-path:url(#SVGID_12_);fill-rule:evenodd;clip-rule:evenodd;fill:#CC3829;}
	.st55{clip-path:url(#SVGID_12_);fill-rule:evenodd;clip-rule:evenodd;fill:#F48E97;}
	.st56{clip-path:url(#SVGID_26_);fill:url(#SVGID_27_);}
	.st57{clip-path:url(#SVGID_12_);fill-rule:evenodd;clip-rule:evenodd;fill:#EE4633;}
	.st58{clip-path:url(#SVGID_12_);fill-rule:evenodd;clip-rule:evenodd;fill:#FDDC0D;}
	.st59{clip-path:url(#SVGID_29_);fill:url(#SVGID_30_);}
	.st60{clip-path:url(#SVGID_32_);fill:url(#SVGID_33_);}
	.st61{clip-path:url(#SVGID_35_);fill:url(#SVGID_36_);}
	.st62{clip-path:url(#SVGID_38_);fill:url(#SVGID_39_);}
	.st63{fill-rule:evenodd;clip-rule:evenodd;fill:#562772;}
	.st64{clip-path:url(#SVGID_41_);}
	.st65{clip-path:url(#SVGID_43_);fill:url(#SVGID_44_);}
	.st66{clip-path:url(#SVGID_41_);fill-rule:evenodd;clip-rule:evenodd;fill:#F7A8A5;}
	.st67{clip-path:url(#SVGID_41_);fill-rule:evenodd;clip-rule:evenodd;fill:#FFFFFF;}
	.st68{clip-path:url(#SVGID_46_);fill:url(#SVGID_47_);}
	.st69{clip-path:url(#SVGID_49_);fill:url(#SVGID_50_);}
	.st70{clip-path:url(#SVGID_41_);fill-rule:evenodd;clip-rule:evenodd;fill:#283C93;}
	.st71{clip-path:url(#SVGID_41_);fill-rule:evenodd;clip-rule:evenodd;fill:#EE412C;}
	.st72{clip-path:url(#SVGID_52_);fill:url(#SVGID_53_);}
	.st73{clip-path:url(#SVGID_41_);fill-rule:evenodd;clip-rule:evenodd;fill:#CC3829;}
	.st74{clip-path:url(#SVGID_41_);fill-rule:evenodd;clip-rule:evenodd;fill:#F48E97;}
	.st75{clip-path:url(#SVGID_55_);fill:url(#SVGID_56_);}
	.st76{clip-path:url(#SVGID_41_);fill-rule:evenodd;clip-rule:evenodd;fill:#EE4633;}
	.st77{clip-path:url(#SVGID_41_);fill-rule:evenodd;clip-rule:evenodd;fill:#FDDC0D;}
	.st78{clip-path:url(#SVGID_58_);fill:url(#SVGID_59_);}
	.st79{clip-path:url(#SVGID_61_);fill:url(#SVGID_62_);}
	.st80{clip-path:url(#SVGID_64_);fill:url(#SVGID_65_);}
	.st81{clip-path:url(#SVGID_67_);fill:url(#SVGID_68_);}
	.st82{fill:#00937B;}
	.st83{fill-rule:evenodd;clip-rule:evenodd;fill:#00937B;}
	.st84{fill:#FFFFFF;}
</style>
<g>
	<defs>
		<path id="SVGID_3_" d="M8.19,11.2c0.68-0.08,1.2-0.56,1.37-1.12C9.67,9.71,9.64,9.3,9.64,8.9c0-0.2,0.01-1.11,0-1.23l-0.72,0
			C8.89,7.81,8.91,9.21,8.91,9.48c0,0.31-0.04,0.49-0.19,0.7c-0.12,0.18-0.27,0.28-0.53,0.37c-0.33,0.05-0.58-0.03-0.76-0.21
			c-0.16-0.16-0.3-0.36-0.32-0.68C7.07,9.2,7.14,7.94,7.1,7.67l-0.72,0c-0.02,0.13,0,1.13,0,1.35c0,0.45-0.04,0.82,0.13,1.2
			c0.14,0.32,0.35,0.56,0.62,0.72C7.4,11.12,7.79,11.25,8.19,11.2 M4.54,10.27c-0.14,0.1-0.24,0.2-0.46,0.25
			c-0.39,0.1-0.78-0.01-1.06-0.28c-0.04-0.04-0.12-0.13-0.16-0.2C2.83,9.99,2.8,9.89,2.74,9.83c0-0.1-0.07-0.26-0.07-0.44
			c0-0.19,0.06-0.29,0.07-0.44C2.8,8.9,2.83,8.8,2.87,8.73c0.14-0.21,0.35-0.38,0.61-0.46c0.2-0.06,0.41-0.06,0.61-0.01
			C4.3,8.32,4.4,8.41,4.54,8.52c0.08,0.11,0.18,0.18,0.27,0.36c0.16,0.35,0.16,0.69,0,1.03C4.73,10.09,4.62,10.16,4.54,10.27z
			 M2.72,10.82c0.14,0.15,0.55,0.32,0.82,0.36c0.35,0.06,0.74,0.01,1.02-0.12c0.57-0.23,1.09-0.86,1.09-1.67
			c0-0.81-0.52-1.43-1.09-1.67C4.04,7.5,3.44,7.54,2.94,7.82L2.76,7.93l0-1.8L2.03,6.13l0,4.98c0.1,0.02,0.23,0.01,0.33,0.01
			c0.03,0,0.29,0.01,0.3-0.01c0-0.01,0.01,0,0.01-0.01c0.01-0.04,0.02-0.11,0.02-0.16C2.69,10.9,2.69,10.81,2.72,10.82z
			 M17.21,10.87c0.02,0.02,0.01-0.01,0.02,0.05c0.01,0.11-0.02,1.47,0,1.74c0.09,0.02,0.65,0.02,0.74,0l-0.01-4.99
			c-0.09-0.02-0.37-0.01-0.5-0.01c-0.02,0-0.07,0-0.09,0l-0.06,0.02l-0.03,0.3l-0.06-0.02c-0.11-0.15-0.55-0.31-0.81-0.35
			c-0.38-0.06-0.68,0.01-1,0.13C15.22,7.85,15.23,7.81,15,8c-0.88,0.72-0.89,2.06,0.01,2.8c0.22,0.18,0.23,0.15,0.42,0.26
			c0.33,0.11,0.56,0.19,0.97,0.13c0.16-0.02,0.31-0.06,0.45-0.12C17.01,11,17.09,10.94,17.21,10.87z M10.37,9.09
			c-0.02,0.04-0.02,0.06-0.02,0.12c0,0.37-0.02,1.77,0.01,1.91c0.09,0.02,0.65,0.02,0.74,0l0-2c-0.01-0.21,0.13-0.46,0.23-0.58
			c0.05-0.06,0.15-0.14,0.22-0.19c0.11-0.07,0.18-0.07,0.29-0.12c0.39,0,0.52,0.02,0.76,0.23c0.14,0.13,0.29,0.39,0.31,0.68
			c0.03,0.47-0.04,1.67,0.01,1.98l0.71,0c0.02-0.12,0.01-1.14,0.01-1.35c0-0.44,0.03-0.84-0.14-1.2c-0.25-0.54-0.83-1.06-1.68-0.97
			c-0.44,0.05-0.76,0.26-0.99,0.49C10.65,8.25,10.36,8.71,10.37,9.09z M17.23,8.91c0.13,0.38,0.13,0.59,0,0.96
			c-0.14,0.23-0.09,0.2-0.29,0.4c-0.11,0.11-0.27,0.2-0.44,0.25c-0.43,0.12-0.82-0.04-1.06-0.26c-0.21-0.16-0.37-0.56-0.37-0.88
			c0-0.32,0.17-0.72,0.37-0.87c0.42-0.38,1.1-0.4,1.5-0.01C17.14,8.71,17.09,8.68,17.23,8.91z"/>
	</defs>
	<clipPath id="SVGID_2_">
		<use xlink:href="#SVGID_3_"  style="overflow:visible;"/>
	</clipPath>
	<path style="clip-path:url(#SVGID_2_);fill-rule:evenodd;clip-rule:evenodd;fill:#2F9B46;" d="M3.08,17.24h1.37v-6.2
		c0-2.76,0-6.47,0-10.24H3.08V17.24z"/>
	
		<rect x="4.43" y="0.79" style="clip-path:url(#SVGID_2_);fill-rule:evenodd;clip-rule:evenodd;fill:#60B54D;" width="1.37" height="16.44"/>
	
		<rect x="5.81" y="0.79" style="clip-path:url(#SVGID_2_);fill-rule:evenodd;clip-rule:evenodd;fill:#89CC53;" width="1.37" height="16.44"/>
	
		<rect x="7.17" y="0.78" style="clip-path:url(#SVGID_2_);fill-rule:evenodd;clip-rule:evenodd;fill:#3CB8AD;" width="1.37" height="16.44"/>
	<path style="clip-path:url(#SVGID_2_);fill-rule:evenodd;clip-rule:evenodd;fill:#3394D7;" d="M8.53,17.23H9.9v-6.2
		c0-2.76,0-6.47,0-10.24H8.53V17.23z"/>
	<path style="clip-path:url(#SVGID_2_);fill:none;stroke:#3394D7;stroke-width:0.216;stroke-miterlimit:22.9256;" d="M8.53,17.23
		H9.9v-6.2c0-2.76,0-6.47,0-10.24H8.53V17.23z"/>
	
		<rect x="9.89" y="0.79" style="clip-path:url(#SVGID_2_);fill-rule:evenodd;clip-rule:evenodd;fill:#2772BC;" width="1.37" height="16.44"/>
	
		<rect x="11.26" y="0.78" style="clip-path:url(#SVGID_2_);fill-rule:evenodd;clip-rule:evenodd;fill:#1B5B83;" width="1.37" height="16.44"/>
	
		<rect x="12.62" y="0.77" style="clip-path:url(#SVGID_2_);fill-rule:evenodd;clip-rule:evenodd;fill:#993233;" width="1.37" height="16.44"/>
	<path style="clip-path:url(#SVGID_2_);fill-rule:evenodd;clip-rule:evenodd;fill:#E13030;" d="M13.99,17.22h1.37v-6.2
		c0-2.76,0-6.47,0-10.24h-1.37V17.22z"/>
	
		<rect x="15.34" y="0.77" style="clip-path:url(#SVGID_2_);fill-rule:evenodd;clip-rule:evenodd;fill:#F28824;" width="1.37" height="16.44"/>
	
		<rect x="16.72" y="0.76" style="clip-path:url(#SVGID_2_);fill-rule:evenodd;clip-rule:evenodd;fill:#F5C836;" width="1.37" height="16.44"/>
	<path style="clip-path:url(#SVGID_2_);fill-rule:evenodd;clip-rule:evenodd;fill:#238647;" d="M1.72,17.24h1.37v-6.2
		c0-2.76,0-6.47,0-10.24H1.72V17.24z"/>
</g>
</svg>
