<?xml version="1.0" encoding="utf-8"?>
<!-- Generator: Adobe Illustrator 23.0.0, SVG Export Plug-In . SVG Version: 6.00 Build 0)  -->
<svg version="1.1" id="Calque_1" xmlns="http://www.w3.org/2000/svg" xmlns:xlink="http://www.w3.org/1999/xlink" x="0px" y="0px"
	 viewBox="0 0 20 20" style="enable-background:new 0 0 20 20;" xml:space="preserve">
<style type="text/css">
	.st0{fill-rule:evenodd;clip-rule:evenodd;}
	.st1{clip-path:url(#SVGID_2_);}
	.st2{fill-rule:evenodd;clip-rule:evenodd;fill:#2F9B46;}
	.st3{fill-rule:evenodd;clip-rule:evenodd;fill:#60B54D;}
	.st4{fill-rule:evenodd;clip-rule:evenodd;fill:#89CC53;}
	.st5{fill-rule:evenodd;clip-rule:evenodd;fill:#3CB8AD;}
	.st6{fill-rule:evenodd;clip-rule:evenodd;fill:#3394D7;}
	.st7{fill:none;stroke:#3394D7;stroke-width:0.216;stroke-miterlimit:22.9256;}
	.st8{fill-rule:evenodd;clip-rule:evenodd;fill:#2772BC;}
	.st9{fill-rule:evenodd;clip-rule:evenodd;fill:#1B5B83;}
	.st10{fill-rule:evenodd;clip-rule:evenodd;fill:#993233;}
	.st11{fill-rule:evenodd;clip-rule:evenodd;fill:#E13030;}
	.st12{fill-rule:evenodd;clip-rule:evenodd;fill:#F28824;}
	.st13{fill-rule:evenodd;clip-rule:evenodd;fill:#F5C836;}
	.st14{fill-rule:evenodd;clip-rule:evenodd;fill:#238647;}
	.st15{fill-rule:evenodd;clip-rule:evenodd;fill:#FFFFFF;}
	.st16{fill-rule:evenodd;clip-rule:evenodd;fill:#E1000E;}
	.st17{fill-rule:evenodd;clip-rule:evenodd;fill:#009B89;}
	.st18{fill-rule:evenodd;clip-rule:evenodd;fill:#F9B800;}
	.st19{fill-rule:evenodd;clip-rule:evenodd;fill:#004D4D;}
	.st20{fill-rule:evenodd;clip-rule:evenodd;fill:#FF422E;}
	.st21{fill-rule:evenodd;clip-rule:evenodd;fill:none;stroke:#EDEDED;stroke-width:0.25;stroke-miterlimit:10;}
	.st22{fill-rule:evenodd;clip-rule:evenodd;fill:#FF6500;}
	.st23{clip-path:url(#SVGID_4_);}
	.st24{fill-rule:evenodd;clip-rule:evenodd;fill:#FFFEFE;}
	.st25{fill:#FF6500;}
	.st26{fill:#071A57;}
	.st27{fill-rule:evenodd;clip-rule:evenodd;fill:#003C5D;}
	.st28{fill-rule:evenodd;clip-rule:evenodd;fill:#2D8F37;}
	.st29{fill-rule:evenodd;clip-rule:evenodd;fill:#000FAA;}
	.st30{clip-path:url(#SVGID_6_);}
	.st31{clip-path:url(#SVGID_8_);fill-rule:evenodd;clip-rule:evenodd;fill:#F76401;}
	.st32{clip-path:url(#SVGID_10_);}
	.st33{clip-path:url(#SVGID_12_);fill:url(#SVGID_13_);}
	.st34{clip-path:url(#SVGID_10_);fill-rule:evenodd;clip-rule:evenodd;fill:#F7A8A5;}
	.st35{clip-path:url(#SVGID_10_);fill-rule:evenodd;clip-rule:evenodd;fill:#FFFFFF;}
	.st36{clip-path:url(#SVGID_15_);fill:url(#SVGID_16_);}
	.st37{clip-path:url(#SVGID_18_);fill:url(#SVGID_19_);}
	.st38{clip-path:url(#SVGID_10_);fill-rule:evenodd;clip-rule:evenodd;fill:#283C93;}
	.st39{clip-path:url(#SVGID_10_);fill-rule:evenodd;clip-rule:evenodd;fill:#EE412C;}
	.st40{clip-path:url(#SVGID_21_);fill:url(#SVGID_22_);}
	.st41{clip-path:url(#SVGID_10_);fill-rule:evenodd;clip-rule:evenodd;fill:#CC3829;}
	.st42{clip-path:url(#SVGID_10_);fill-rule:evenodd;clip-rule:evenodd;fill:#F48E97;}
	.st43{clip-path:url(#SVGID_24_);fill:url(#SVGID_25_);}
	.st44{clip-path:url(#SVGID_10_);fill-rule:evenodd;clip-rule:evenodd;fill:#EE4633;}
	.st45{clip-path:url(#SVGID_10_);fill-rule:evenodd;clip-rule:evenodd;fill:#FDDC0D;}
	.st46{clip-path:url(#SVGID_27_);fill:url(#SVGID_28_);}
	.st47{clip-path:url(#SVGID_30_);fill:url(#SVGID_31_);}
	.st48{clip-path:url(#SVGID_33_);fill:url(#SVGID_34_);}
	.st49{clip-path:url(#SVGID_36_);fill:url(#SVGID_37_);}
	.st50{fill-rule:evenodd;clip-rule:evenodd;fill:#562772;}
	.st51{clip-path:url(#SVGID_39_);}
	.st52{clip-path:url(#SVGID_41_);fill:url(#SVGID_42_);}
	.st53{clip-path:url(#SVGID_39_);fill-rule:evenodd;clip-rule:evenodd;fill:#F7A8A5;}
	.st54{clip-path:url(#SVGID_39_);fill-rule:evenodd;clip-rule:evenodd;fill:#FFFFFF;}
	.st55{clip-path:url(#SVGID_44_);fill:url(#SVGID_45_);}
	.st56{clip-path:url(#SVGID_47_);fill:url(#SVGID_48_);}
	.st57{clip-path:url(#SVGID_39_);fill-rule:evenodd;clip-rule:evenodd;fill:#283C93;}
	.st58{clip-path:url(#SVGID_39_);fill-rule:evenodd;clip-rule:evenodd;fill:#EE412C;}
	.st59{clip-path:url(#SVGID_50_);fill:url(#SVGID_51_);}
	.st60{clip-path:url(#SVGID_39_);fill-rule:evenodd;clip-rule:evenodd;fill:#CC3829;}
	.st61{clip-path:url(#SVGID_39_);fill-rule:evenodd;clip-rule:evenodd;fill:#F48E97;}
	.st62{clip-path:url(#SVGID_53_);fill:url(#SVGID_54_);}
	.st63{clip-path:url(#SVGID_39_);fill-rule:evenodd;clip-rule:evenodd;fill:#EE4633;}
	.st64{clip-path:url(#SVGID_39_);fill-rule:evenodd;clip-rule:evenodd;fill:#FDDC0D;}
	.st65{clip-path:url(#SVGID_56_);fill:url(#SVGID_57_);}
	.st66{clip-path:url(#SVGID_59_);fill:url(#SVGID_60_);}
	.st67{clip-path:url(#SVGID_62_);fill:url(#SVGID_63_);}
	.st68{clip-path:url(#SVGID_65_);fill:url(#SVGID_66_);}
	.st69{fill:#00937B;}
	.st70{fill-rule:evenodd;clip-rule:evenodd;fill:#00937B;}
	.st71{fill:#FFFFFF;}
	.st72{fill:#89CC53;}
	.st73{fill:#3CB8AD;}
	.st74{fill:#3394D7;}
	.st75{fill:none;}
	.st76{fill:#2F9B46;}
	.st77{fill:#60B54D;}
	.st78{fill:#238647;}
	.st79{fill:#2772BC;}
	.st80{fill:#1B5B83;}
	.st81{fill:#993233;}
	.st82{fill:#E13030;}
	.st83{fill:#F28824;}
	.st84{fill:#F5C836;}
	.st85{fill:none;stroke:#FFFFFF;stroke-width:0.25;stroke-miterlimit:10;}
</style>
<g>
	<defs>
		<path id="SVGID_1_" d="M19,20H1c-0.55,0-1-0.45-1-1L0,1c0-0.55,0.45-1,1-1l18,0c0.55,0,1,0.45,1,1v18C20,19.55,19.55,20,19,20z"/>
	</defs>
	<clipPath id="SVGID_2_">
		<use xlink:href="#SVGID_1_"  style="overflow:visible;"/>
	</clipPath>
	<g class="st1">
		<path class="st2" d="M1.66,20.07h1.68V12.5c0-3.38,0-7.9,0-12.52H1.66V20.07z"/>
		<rect x="3.32" y="-0.03" class="st3" width="1.68" height="20.09"/>
		<rect x="5" y="-0.04" class="st4" width="1.68" height="20.09"/>
		<rect x="6.66" y="-0.05" class="st5" width="1.68" height="20.09"/>
		<path class="st6" d="M8.33,20.06H10v-7.57c0-3.38,0-7.9,0-12.52H8.33V20.06z"/>
		<path class="st7" d="M8.33,20.06H10v-7.57c0-3.38,0-7.9,0-12.52H8.33V20.06z"/>
		<rect x="9.98" y="-0.04" class="st8" width="1.68" height="20.09"/>
		<rect x="11.66" y="-0.05" class="st9" width="1.68" height="20.09"/>
		<rect x="13.32" y="-0.05" class="st10" width="1.68" height="20.09"/>
		<path class="st11" d="M14.99,20.04h1.68v-7.57c0-3.38,0-7.9,0-12.52h-1.68V20.04z"/>
		<rect x="16.64" y="-0.06" class="st12" width="1.68" height="20.09"/>
		<rect x="18.32" y="-0.07" class="st13" width="1.68" height="20.09"/>
		<path class="st14" d="M0,20.07h1.68V12.5c0-3.38,0-7.9,0-12.52H0V20.07z"/>
		<path class="st15" d="M8.19,11.2c0.68-0.08,1.2-0.56,1.37-1.12C9.67,9.72,9.64,9.3,9.64,8.91c0-0.2,0.01-1.11,0-1.23l-0.72,0
			C8.89,7.82,8.91,9.22,8.91,9.48c0,0.31-0.04,0.49-0.19,0.7c-0.12,0.18-0.27,0.28-0.53,0.37c-0.33,0.05-0.58-0.03-0.76-0.21
			c-0.16-0.16-0.3-0.36-0.32-0.68C7.07,9.21,7.14,7.95,7.1,7.68l-0.72,0c-0.02,0.13,0,1.13,0,1.35c0,0.45-0.04,0.82,0.13,1.2
			c0.14,0.32,0.35,0.56,0.62,0.72C7.4,11.13,7.79,11.26,8.19,11.2 M4.54,10.28c-0.14,0.1-0.24,0.2-0.46,0.25
			c-0.39,0.1-0.78-0.01-1.06-0.28c-0.04-0.04-0.12-0.13-0.16-0.2C2.83,9.99,2.8,9.9,2.74,9.84c0-0.1-0.07-0.26-0.07-0.44
			c0-0.19,0.06-0.29,0.07-0.44C2.8,8.9,2.83,8.8,2.87,8.74c0.14-0.21,0.35-0.38,0.61-0.46c0.2-0.06,0.41-0.06,0.61-0.01
			C4.3,8.32,4.4,8.42,4.54,8.52C4.62,8.63,4.73,8.7,4.81,8.88c0.16,0.35,0.16,0.69,0,1.03C4.73,10.1,4.62,10.16,4.54,10.28z
			 M2.72,10.83c0.14,0.15,0.55,0.32,0.82,0.36c0.35,0.06,0.74,0.01,1.02-0.12c0.57-0.23,1.09-0.86,1.09-1.67
			c0-0.81-0.52-1.43-1.09-1.67C4.04,7.5,3.44,7.54,2.94,7.82L2.76,7.93l0-1.8L2.02,6.14l0,4.98c0.1,0.02,0.23,0.01,0.33,0.01
			c0.03,0,0.29,0.01,0.3-0.01c0-0.01,0.01,0,0.01-0.01c0.01-0.04,0.02-0.11,0.02-0.16C2.69,10.91,2.69,10.82,2.72,10.83z
			 M17.21,10.87c0.02,0.02,0.01-0.01,0.02,0.05c0.01,0.11-0.02,1.47,0,1.74c0.09,0.02,0.65,0.02,0.74,0l-0.01-4.99
			c-0.09-0.02-0.37-0.01-0.5-0.01c-0.02,0-0.07,0-0.09,0l-0.06,0.02l-0.03,0.3l-0.06-0.02c-0.11-0.15-0.55-0.31-0.81-0.35
			c-0.38-0.06-0.68,0.01-1,0.13C15.22,7.86,15.23,7.82,15,8c-0.88,0.72-0.89,2.06,0.01,2.8c0.22,0.18,0.23,0.15,0.42,0.26
			c0.33,0.11,0.56,0.19,0.97,0.13c0.16-0.02,0.31-0.06,0.45-0.12C17.01,11.01,17.09,10.94,17.21,10.87z M17.23,8.92
			c0.13,0.38,0.13,0.59,0,0.96c-0.14,0.23-0.09,0.2-0.29,0.4c-0.11,0.11-0.27,0.2-0.44,0.25c-0.43,0.12-0.82-0.04-1.06-0.26
			c-0.21-0.16-0.37-0.56-0.37-0.88c0-0.32,0.17-0.72,0.37-0.87c0.42-0.38,1.1-0.4,1.5-0.01C17.14,8.72,17.09,8.68,17.23,8.92z"/>
	</g>
</g>
<path class="st71" d="M13.69,9.83c0-0.44,0.03-0.84-0.14-1.2c-0.16-0.35-0.46-0.68-0.87-0.86c-0.23-0.1-0.5-0.15-0.81-0.11
	c-0.21,0.02-0.39,0.08-0.55,0.17c0,0,0,0-0.01,0c-0.17,0.09-0.32,0.2-0.44,0.32c-0.17,0.17-0.41,0.62-0.44,1.01
	c0,0.05-0.02,0.18-0.02,0.24c0,0.37-0.02,1.65,0.01,1.79c0.09,0.02,0.65,0.02,0.74,0l0-2c-0.01-0.16,0.08-0.34,0.08-0.34
	s0.05-0.11,0.06-0.12c0.02-0.03,0.07-0.09,0.09-0.12c0.05-0.06,0.15-0.14,0.22-0.19c0.11-0.07,0.17-0.11,0.29-0.12
	c0.27-0.04,0.52,0.02,0.76,0.23c0.01,0.01,0.02,0.03,0.03,0.04c0.13,0.14,0.26,0.37,0.27,0.63c0.03,0.47-0.04,1.67,0.01,1.98l0.71,0
	C13.7,11.07,13.69,10.04,13.69,9.83z"/>
<circle class="st85" cx="3.85" cy="9.38" r="1.17"/>
</svg>
