<svg width="96" height="96" viewBox="0 0 96 96" fill="none" xmlns="http://www.w3.org/2000/svg">
<rect width="96" height="96" rx="7.68" fill="#151525"/>
<g clip-path="url(#clip0_30_150)">
<path d="M46.5513 63.4327C46.4675 63.2818 46.3571 63.1517 46.2215 63.0441C44.7971 61.916 43.7333 60.1924 43.3782 58.4367C43.3083 58.0956 43.1112 57.8021 42.8205 57.6092C42.5311 57.4176 42.1844 57.3506 41.8448 57.4191C41.5037 57.4876 41.2101 57.6861 41.0186 57.9755C40.8271 58.2648 40.7586 58.6115 40.8271 58.9525C41.1011 60.3084 41.663 61.6183 42.4682 62.7869C40.4636 62.2725 38.6198 61.3611 36.9773 60.0708C36.5608 59.7423 35.9933 59.699 35.532 59.9618C33.0829 61.3485 30.2816 61.9873 27.4285 61.8056C23.5312 61.5582 19.9639 59.8178 17.3848 56.9018C14.8085 53.9901 13.5239 50.2564 13.7685 46.3885C14.2745 38.3982 21.2261 32.3119 29.2653 32.8207C32.7838 33.0444 35.9346 34.357 38.3752 36.6201C38.6296 36.8564 38.9624 36.9794 39.309 36.9654C39.6557 36.9528 39.9772 36.8047 40.2134 36.5503C40.4497 36.2958 40.5727 35.9631 40.5587 35.6165C40.5461 35.2698 40.3979 34.9483 40.1435 34.7121C37.2989 32.0757 33.4939 30.4821 29.4288 30.2249C19.9611 29.6252 11.771 36.8019 11.1727 46.225C10.8833 50.789 12.3972 55.1936 15.4362 58.6269C18.4751 62.06 22.6758 64.1121 27.2635 64.4028C30.3207 64.5958 33.3554 63.9835 36.0562 62.6303C38.7122 64.5175 41.8448 65.6246 45.1298 65.8315C45.1633 65.8328 45.1968 65.8343 45.2304 65.8343C45.8902 65.8343 46.4661 65.4345 46.6968 64.8152C46.8673 64.3567 46.8128 63.8409 46.5513 63.4313V63.4327Z" fill="#6D3CFF"/>
<path fill-rule="evenodd" clip-rule="evenodd" d="M37.3602 49.2895C37.3602 53.251 40.5836 56.4745 44.5452 56.4745C48.5067 56.4745 51.7303 53.251 51.7303 49.2895V40.1431C51.7303 39.0291 50.8258 38.1246 49.7117 38.1246C48.5976 38.1246 47.6931 39.0291 47.6931 40.1431V49.2895C47.6931 51.0256 46.2813 52.4375 44.5452 52.4375C42.809 52.4375 41.3972 51.0256 41.3972 49.2895V40.1431C41.3972 39.0291 40.4928 38.1246 39.3787 38.1246C38.2646 38.1246 37.3602 39.0291 37.3602 40.1431V49.2895ZM54.1317 49.2895C54.1317 53.251 57.3552 56.4745 61.3168 56.4745C65.2783 56.4745 68.5019 53.251 68.5019 49.2895V40.1431C68.5019 39.0291 67.5975 38.1246 66.4833 38.1246C65.3692 38.1246 64.4648 39.0291 64.4648 40.1431V49.2895C64.4648 51.0256 63.0529 52.4375 61.3168 52.4375C59.5806 52.4375 58.1688 51.0256 58.1688 49.2895V40.1431C58.1688 39.0291 57.2644 38.1246 56.1503 38.1246C55.0362 38.1246 54.1317 39.0291 54.1317 40.1431V49.2895ZM82.7182 38.1246H71.9154C70.8781 38.1246 70.0381 38.9648 70.0381 40.002C70.0381 41.0392 70.8781 41.8793 71.9154 41.8793H75.2982L75.2843 54.2617C75.2843 55.3758 76.1887 56.2802 77.3028 56.2802C78.4169 56.2802 79.3213 55.3758 79.3213 54.2617L79.3353 41.8793H82.7182C83.7553 41.8793 84.5955 41.0392 84.5955 40.002C84.5955 38.9648 83.7553 38.1246 82.7182 38.1246ZM31.8427 46.3092C32.975 46.5356 33.8682 47.0486 34.5351 47.858V47.8594C35.1893 48.6687 35.5233 49.6459 35.5233 50.7893C35.5233 51.5051 35.4031 52.1956 35.1655 52.8624C34.9265 53.5292 34.5448 54.1135 34.0332 54.6251C33.5201 55.1367 32.8534 55.5421 32.0552 55.8398C31.2458 56.1376 30.2813 56.2927 29.149 56.2927H23.6918C23.1438 56.2927 22.6545 56.1152 22.238 55.7574C21.8199 55.3995 21.6061 54.8879 21.6061 54.2323V40.2229L21.5935 40.1865C21.5935 39.5197 21.8088 39.0193 22.2254 38.6614C22.6434 38.3049 23.1312 38.126 23.6792 38.126H28.875C29.6607 38.126 30.375 38.2448 31.0068 38.4713C31.6387 38.6978 32.1866 39.0193 32.627 39.4358C33.0672 39.8538 33.4139 40.3528 33.6515 40.9371C33.8906 41.5215 34.0095 42.1644 34.0095 42.855C34.0095 43.308 33.9382 43.7245 33.7955 44.0935C33.653 44.4626 33.474 44.7967 33.2602 45.0819C33.0449 45.3684 32.8072 45.606 32.557 45.8087C32.2957 45.9988 32.0566 46.1665 31.8427 46.3092ZM28.3327 41.3006H25.6753V44.991H28.3327C29.3517 44.991 30.1779 44.1649 30.1779 43.1458C30.1779 42.1267 29.3517 41.3006 28.3327 41.3006ZM25.6893 52.6555H29.1406C30.6434 52.6555 31.5352 51.7427 31.5352 50.6174C31.5352 49.4921 30.6713 48.5345 29.1406 48.5345H25.6893V52.6555Z" fill="white"/>
</g>
<defs>
<clipPath id="clip0_30_150">
<rect width="74.7" height="36" fill="white" transform="translate(11 30.0002)"/>
</clipPath>
</defs>
</svg>
