<svg width="96" height="96" viewBox="0 0 96 96" fill="none" xmlns="http://www.w3.org/2000/svg">
<path d="M46.5513 63.4325C46.4675 63.2816 46.3571 63.1515 46.2215 63.0439C44.7971 61.9158 43.7333 60.1922 43.3782 58.4365C43.3083 58.0954 43.1112 57.8019 42.8205 57.609C42.5311 57.4175 42.1844 57.3504 41.8448 57.4189C41.5037 57.4874 41.2101 57.6859 41.0186 57.9753C40.8271 58.2646 40.7586 58.6113 40.8271 58.9523C41.1011 60.3083 41.663 61.6181 42.4682 62.7867C40.4636 62.2723 38.6198 61.3609 36.9773 60.0707C36.5608 59.7422 35.9933 59.6989 35.532 59.9617C33.0829 61.3483 30.2816 61.9871 27.4285 61.8054C23.5312 61.558 19.9639 59.8177 17.3848 56.9017C14.8085 53.9899 13.5239 50.2562 13.7685 46.3883C14.2745 38.3981 21.2261 32.3117 29.2653 32.8206C32.7838 33.0442 35.9346 34.3568 38.3752 36.62C38.6296 36.8562 38.9624 36.9792 39.309 36.9652C39.6557 36.9527 39.9772 36.8045 40.2134 36.5501C40.4497 36.2957 40.5727 35.963 40.5587 35.6163C40.5461 35.2696 40.3979 34.9481 40.1435 34.7119C37.2989 32.0755 33.4939 30.4819 29.4288 30.2247C19.9611 29.625 11.771 36.8017 11.1727 46.2248C10.8833 50.7888 12.3972 55.1935 15.4362 58.6267C18.4751 62.0598 22.6758 64.1119 27.2635 64.4026C30.3207 64.5956 33.3554 63.9833 36.0562 62.6302C38.7122 64.5173 41.8448 65.6244 45.1298 65.8313C45.1633 65.8326 45.1968 65.8341 45.2304 65.8341C45.8902 65.8341 46.4661 65.4343 46.6968 64.815C46.8673 64.3565 46.8128 63.8408 46.5513 63.4312V63.4325Z" fill="#6D3CFF"/>
<path fill-rule="evenodd" clip-rule="evenodd" d="M37.3602 49.2893C37.3602 53.2509 40.5836 56.4744 44.5452 56.4744C48.5067 56.4744 51.7303 53.2509 51.7303 49.2893V40.143C51.7303 39.029 50.8258 38.1245 49.7117 38.1245C48.5976 38.1245 47.6931 39.029 47.6931 40.143V49.2893C47.6931 51.0254 46.2813 52.4374 44.5452 52.4374C42.809 52.4374 41.3972 51.0254 41.3972 49.2893V40.143C41.3972 39.029 40.4928 38.1245 39.3787 38.1245C38.2646 38.1245 37.3602 39.029 37.3602 40.143V49.2893ZM54.1317 49.2893C54.1317 53.2509 57.3552 56.4744 61.3168 56.4744C65.2783 56.4744 68.5019 53.2509 68.5019 49.2893V40.143C68.5019 39.029 67.5975 38.1245 66.4833 38.1245C65.3692 38.1245 64.4648 39.029 64.4648 40.143V49.2893C64.4648 51.0254 63.0529 52.4374 61.3168 52.4374C59.5806 52.4374 58.1688 51.0254 58.1688 49.2893V40.143C58.1688 39.029 57.2644 38.1245 56.1503 38.1245C55.0362 38.1245 54.1317 39.029 54.1317 40.143V49.2893ZM82.7182 38.1245H71.9154C70.8781 38.1245 70.0381 38.9646 70.0381 40.0019C70.0381 41.039 70.8781 41.8792 71.9154 41.8792H75.2982L75.2843 54.2616C75.2843 55.3757 76.1887 56.2801 77.3028 56.2801C78.4169 56.2801 79.3213 55.3757 79.3213 54.2616L79.3353 41.8792H82.7182C83.7553 41.8792 84.5955 41.039 84.5955 40.0019C84.5955 38.9646 83.7553 38.1245 82.7182 38.1245ZM31.8427 46.3091C32.975 46.5355 33.8682 47.0485 34.5351 47.8579V47.8592C35.1893 48.6686 35.5233 49.6457 35.5233 50.7892C35.5233 51.505 35.4031 52.1954 35.1655 52.8622C34.9265 53.5291 34.5448 54.1133 34.0332 54.625C33.5201 55.1365 32.8534 55.542 32.0552 55.8397C31.2458 56.1374 30.2813 56.2926 29.149 56.2926H23.6918C23.1438 56.2926 22.6545 56.1151 22.238 55.7573C21.8199 55.3993 21.6061 54.8878 21.6061 54.2321V40.2227L21.5935 40.1864C21.5935 39.5196 21.8088 39.0192 22.2254 38.6613C22.6434 38.3048 23.1312 38.1259 23.6792 38.1259H28.875C29.6607 38.1259 30.375 38.2447 31.0068 38.4712C31.6387 38.6976 32.1866 39.0192 32.627 39.4357C33.0672 39.8536 33.4139 40.3527 33.6515 40.937C33.8906 41.5213 34.0095 42.1643 34.0095 42.8549C34.0095 43.3078 33.9382 43.7244 33.7955 44.0934C33.653 44.4625 33.474 44.7965 33.2602 45.0817C33.0449 45.3683 32.8072 45.6059 32.557 45.8086C32.2957 45.9987 32.0566 46.1664 31.8427 46.3091ZM28.3327 41.3005H25.6753V44.9908H28.3327C29.3517 44.9908 30.1779 44.1647 30.1779 43.1457C30.1779 42.1266 29.3517 41.3005 28.3327 41.3005ZM25.6893 52.6553H29.1406C30.6434 52.6553 31.5352 51.7426 31.5352 50.6173C31.5352 49.492 30.6713 48.5344 29.1406 48.5344H25.6893V52.6553Z" fill="#151525"/>
</svg>
