<?xml version="1.0" encoding="utf-8"?>
<!-- Generator: Adobe Illustrator 23.0.0, SVG Export Plug-In . SVG Version: 6.00 Build 0)  -->
<svg version="1.1" id="Calque_1" xmlns="http://www.w3.org/2000/svg" xmlns:xlink="http://www.w3.org/1999/xlink" x="0px" y="0px"
	 viewBox="0 0 20 20" style="enable-background:new 0 0 20 20;" xml:space="preserve">
<style type="text/css">
	.st0{clip-path:url(#SVGID_2_);}
	.st1{fill-rule:evenodd;clip-rule:evenodd;fill:#2F9B46;}
	.st2{fill-rule:evenodd;clip-rule:evenodd;fill:#60B54D;}
	.st3{fill-rule:evenodd;clip-rule:evenodd;fill:#89CC53;}
	.st4{fill-rule:evenodd;clip-rule:evenodd;fill:#3CB8AD;}
	.st5{fill-rule:evenodd;clip-rule:evenodd;fill:#3394D7;}
	.st6{fill:none;stroke:#3394D7;stroke-width:0.216;stroke-miterlimit:22.9256;}
	.st7{fill-rule:evenodd;clip-rule:evenodd;fill:#2772BC;}
	.st8{fill-rule:evenodd;clip-rule:evenodd;fill:#1B5B83;}
	.st9{fill-rule:evenodd;clip-rule:evenodd;fill:#993233;}
	.st10{fill-rule:evenodd;clip-rule:evenodd;fill:#E13030;}
	.st11{fill-rule:evenodd;clip-rule:evenodd;fill:#F28824;}
	.st12{fill-rule:evenodd;clip-rule:evenodd;fill:#F5C836;}
	.st13{fill-rule:evenodd;clip-rule:evenodd;fill:#238647;}
	.st14{fill-rule:evenodd;clip-rule:evenodd;fill:#EDEDED;}
	.st15{clip-path:url(#SVGID_4_);fill-rule:evenodd;clip-rule:evenodd;fill:#2F9B46;}
	.st16{clip-path:url(#SVGID_4_);fill-rule:evenodd;clip-rule:evenodd;fill:#60B54D;}
	.st17{clip-path:url(#SVGID_4_);fill-rule:evenodd;clip-rule:evenodd;fill:#89CC53;}
	.st18{clip-path:url(#SVGID_4_);fill-rule:evenodd;clip-rule:evenodd;fill:#3CB8AD;}
	.st19{clip-path:url(#SVGID_4_);fill-rule:evenodd;clip-rule:evenodd;fill:#3394D7;}
	.st20{clip-path:url(#SVGID_4_);fill:none;stroke:#3394D7;stroke-width:0.216;stroke-miterlimit:22.9256;}
	.st21{clip-path:url(#SVGID_4_);fill-rule:evenodd;clip-rule:evenodd;fill:#2772BC;}
	.st22{clip-path:url(#SVGID_4_);fill-rule:evenodd;clip-rule:evenodd;fill:#1B5B83;}
	.st23{clip-path:url(#SVGID_4_);fill-rule:evenodd;clip-rule:evenodd;fill:#993233;}
	.st24{clip-path:url(#SVGID_4_);fill-rule:evenodd;clip-rule:evenodd;fill:#E13030;}
	.st25{clip-path:url(#SVGID_4_);fill-rule:evenodd;clip-rule:evenodd;fill:#F28824;}
	.st26{clip-path:url(#SVGID_4_);fill-rule:evenodd;clip-rule:evenodd;fill:#F5C836;}
	.st27{clip-path:url(#SVGID_4_);fill-rule:evenodd;clip-rule:evenodd;fill:#238647;}
	.st28{fill-rule:evenodd;clip-rule:evenodd;fill:#E1000E;}
	.st29{fill-rule:evenodd;clip-rule:evenodd;fill:#FFFFFF;}
	.st30{fill-rule:evenodd;clip-rule:evenodd;}
	.st31{fill-rule:evenodd;clip-rule:evenodd;fill:#009B89;}
	.st32{fill-rule:evenodd;clip-rule:evenodd;fill:#F9B800;}
	.st33{fill-rule:evenodd;clip-rule:evenodd;fill:#004D4D;}
	.st34{fill-rule:evenodd;clip-rule:evenodd;fill:#FF422E;}
	.st35{fill-rule:evenodd;clip-rule:evenodd;fill:#FF6500;}
	.st36{clip-path:url(#SVGID_6_);}
	.st37{fill-rule:evenodd;clip-rule:evenodd;fill:#FFFEFE;}
	.st38{fill:#FF6500;}
	.st39{fill:#071A57;}
	.st40{fill-rule:evenodd;clip-rule:evenodd;fill:#003C5D;}
	.st41{fill-rule:evenodd;clip-rule:evenodd;fill:#2D8F37;}
	.st42{fill-rule:evenodd;clip-rule:evenodd;fill:#000FAA;}
	.st43{clip-path:url(#SVGID_8_);}
	.st44{clip-path:url(#SVGID_10_);fill-rule:evenodd;clip-rule:evenodd;fill:#F76401;}
	.st45{clip-path:url(#SVGID_12_);}
	.st46{clip-path:url(#SVGID_14_);fill:url(#SVGID_15_);}
	.st47{clip-path:url(#SVGID_12_);fill-rule:evenodd;clip-rule:evenodd;fill:#F7A8A5;}
	.st48{clip-path:url(#SVGID_12_);fill-rule:evenodd;clip-rule:evenodd;fill:#FFFFFF;}
	.st49{clip-path:url(#SVGID_17_);fill:url(#SVGID_18_);}
	.st50{clip-path:url(#SVGID_20_);fill:url(#SVGID_21_);}
	.st51{clip-path:url(#SVGID_12_);fill-rule:evenodd;clip-rule:evenodd;fill:#283C93;}
	.st52{clip-path:url(#SVGID_12_);fill-rule:evenodd;clip-rule:evenodd;fill:#EE412C;}
	.st53{clip-path:url(#SVGID_23_);fill:url(#SVGID_24_);}
	.st54{clip-path:url(#SVGID_12_);fill-rule:evenodd;clip-rule:evenodd;fill:#CC3829;}
	.st55{clip-path:url(#SVGID_12_);fill-rule:evenodd;clip-rule:evenodd;fill:#F48E97;}
	.st56{clip-path:url(#SVGID_26_);fill:url(#SVGID_27_);}
	.st57{clip-path:url(#SVGID_12_);fill-rule:evenodd;clip-rule:evenodd;fill:#EE4633;}
	.st58{clip-path:url(#SVGID_12_);fill-rule:evenodd;clip-rule:evenodd;fill:#FDDC0D;}
	.st59{clip-path:url(#SVGID_29_);fill:url(#SVGID_30_);}
	.st60{clip-path:url(#SVGID_32_);fill:url(#SVGID_33_);}
	.st61{clip-path:url(#SVGID_35_);fill:url(#SVGID_36_);}
	.st62{clip-path:url(#SVGID_38_);fill:url(#SVGID_39_);}
	.st63{fill-rule:evenodd;clip-rule:evenodd;fill:#562772;}
	.st64{clip-path:url(#SVGID_41_);}
	.st65{clip-path:url(#SVGID_43_);fill:url(#SVGID_44_);}
	.st66{clip-path:url(#SVGID_41_);fill-rule:evenodd;clip-rule:evenodd;fill:#F7A8A5;}
	.st67{clip-path:url(#SVGID_41_);fill-rule:evenodd;clip-rule:evenodd;fill:#FFFFFF;}
	.st68{clip-path:url(#SVGID_46_);fill:url(#SVGID_47_);}
	.st69{clip-path:url(#SVGID_49_);fill:url(#SVGID_50_);}
	.st70{clip-path:url(#SVGID_41_);fill-rule:evenodd;clip-rule:evenodd;fill:#283C93;}
	.st71{clip-path:url(#SVGID_41_);fill-rule:evenodd;clip-rule:evenodd;fill:#EE412C;}
	.st72{clip-path:url(#SVGID_52_);fill:url(#SVGID_53_);}
	.st73{clip-path:url(#SVGID_41_);fill-rule:evenodd;clip-rule:evenodd;fill:#CC3829;}
	.st74{clip-path:url(#SVGID_41_);fill-rule:evenodd;clip-rule:evenodd;fill:#F48E97;}
	.st75{clip-path:url(#SVGID_55_);fill:url(#SVGID_56_);}
	.st76{clip-path:url(#SVGID_41_);fill-rule:evenodd;clip-rule:evenodd;fill:#EE4633;}
	.st77{clip-path:url(#SVGID_41_);fill-rule:evenodd;clip-rule:evenodd;fill:#FDDC0D;}
	.st78{clip-path:url(#SVGID_58_);fill:url(#SVGID_59_);}
	.st79{clip-path:url(#SVGID_61_);fill:url(#SVGID_62_);}
	.st80{clip-path:url(#SVGID_64_);fill:url(#SVGID_65_);}
	.st81{clip-path:url(#SVGID_67_);fill:url(#SVGID_68_);}
	.st82{fill:#00937B;}
	.st83{fill-rule:evenodd;clip-rule:evenodd;fill:#00937B;}
	.st84{fill:#FFFFFF;}
</style>
<path class="st35" d="M19,20H1c-0.55,0-1-0.45-1-1L0,1c0-0.55,0.45-1,1-1l18,0c0.55,0,1,0.45,1,1v18C20,19.55,19.55,20,19,20z"/>
<g>
	<defs>
		<path id="SVGID_5_" d="M19,20H1c-0.55,0-1-0.45-1-1L0,1c0-0.55,0.45-1,1-1l18,0c0.55,0,1,0.45,1,1v18C20,19.55,19.55,20,19,20z"/>
	</defs>
	<clipPath id="SVGID_2_">
		<use xlink:href="#SVGID_5_"  style="overflow:visible;"/>
	</clipPath>
	<g class="st0">
		<path class="st37" d="M20.17,15.51v-0.57c-0.29-0.12-0.59-0.31-0.88-0.43c-0.3-0.13-0.59-0.22-0.91-0.36l0.01-0.67l1.78,0.39
			v-0.58c-0.56-0.12-0.86-0.27-1.52-0.31c-0.29-0.02-0.32,0.06-0.43-0.18c0.14-0.23,0.65-0.25,1.01-1.34
			c0.12-0.36,0.31-0.43,0.47-0.67c0.14-0.22,0.23-0.57,0.27-0.87c-0.29,0.01-0.35,0.15-0.6,0.23c0.14-0.63,0.4-1.52,0.42-2.16
			c0.08-0.05,0.28-0.15,0.38-0.19V4.73c-0.24-0.15-0.37-0.46-0.72-0.6C18.83,3.88,17.79,4,17.33,4.5c-0.32,0.35-0.24,0.53-0.38,1.01
			c-0.6,0.02-1.2,0.08-1.73,0.32c-0.18,0.08-0.31,0.19-0.46,0.26c-1.45-0.51-0.8-0.31-2.19-0.42c-0.38-1.08-1.38-1.48-2.47-1.53
			C9.67,4.12,9.4,4.32,9.12,4.51c-0.44,0.3-0.83,1.4-0.63,1.97c0.08,0.24,0.34,0.67,0.49,0.85c0.2,0.25,0.75,0.28,0.86,0.5
			c0.02,0.06-0.12,0.92-0.07,1.25c0.06,0.43,0.15,0.84,0.23,1.25c-0.24-0.03-0.64-0.32-0.58,0.07l0.23,0.57
			c0.17,0.37,0.75,0.74,1.16,1.4c0.12,0.2,0.06,0.22,0.14,0.42c-2.3,0.19-1.72,0.28-3.48,0.92l0.06,0.6
			c0.24-0.06,0.53-0.21,0.76-0.3c0.76-0.31,1.79-0.58,2.62-0.54c0.05,0.17,0.11,0.27,0.11,0.48L7.9,15.49
			c0.04,0.24,0.06,0.41,0.14,0.6c0.34-0.09,2.97-1.72,3.55-1.42c0.24,0.13,0.2,0.59,0.75,0.32c0.71-0.35,1.07-0.46,1.88-0.65
			c0.24-0.05,0.25-0.1,0.29-0.35c0.15-0.89,0.14-0.34-0.35-0.9c-0.16-0.18-0.18-0.32-0.15-0.63c-0.21,0.07-0.35,0.2-0.61,0.16
			c-0.12-0.11-0.21-0.37-0.15-0.6c0.16-0.66,2.89-0.59,3.16-0.1c0.11,0.21,0.09,0.47-0.04,0.62c-0.19,0.22-0.34,0.01-0.59,0
			c-0.19,0.7-0.18,0.53-0.59,0.83c-0.16,0.12-0.01,0.52,0.08,0.84c0.72,0.24,0.97,0.17,1.58,0.59c0.12,0.09,0.52,0.39,0.68,0.35
			c0.12-0.03,0.22-0.19,0.28-0.27c0.1-0.15,0.12-0.18,0.25-0.29C18.6,14.74,19.66,15.31,20.17,15.51 M11.75,5.97
			c-0.24,0.18-0.83,0.55-1.02,0.75c-0.59,0.63-0.42,0.58-0.95,0.11c-0.85-0.75-0.58-1.74,0.63-1.91c0.33-0.05,0.68,0.15,0.92,0.28
			C11.56,5.33,11.8,5.61,11.75,5.97z M17.76,6.02c-0.03-0.44,0.27-0.9,0.53-1.07c0.3-0.19,1.83-0.46,1.67,1.19
			c-0.06,0.56-0.15,0.85-0.71,0.89C18.93,6.63,18.47,6.2,17.76,6.02z M17.41,7.39c-0.26,0.34-1.02,0.25-1.32,0.24
			c-0.01-0.84-0.47-0.45-0.66-0.88c-0.09-0.22,0.16-0.14,0.48-0.08C16.27,6.74,17.75,6.94,17.41,7.39z M12.39,7.71
			c0.02-0.22,0.08-0.25,0.2-0.37c0.38-0.35,0.46-0.42,1.05-0.61c0.96-0.3,0.06,0.68,0.02,0.73C13.35,7.86,13.47,7.76,12.39,7.71z
			 M12.19,12.16c-0.16,0.08-0.25,0.2-0.47,0.22c-0.27-0.18-0.24-0.47-0.09-0.77c0.11-0.22,0.33-0.38,0.58-0.49
			c0.54-0.24,0.62-0.25,0.53-1.53c-0.2,0.03-0.59,0.09-0.77,0.04c-0.31-0.08-1.13-0.89-1.23-1.13c0.27-0.15,1.06-0.11,1.42-0.11
			c0.46,0,1.04-0.07,1.29,0.2c0.19,0.22-0.01,0.94-0.05,1.26c-0.06,0.46-0.08,0.91-0.13,1.37c-0.1,0.08-0.25,0.17-0.41,0.25
			c-0.23,0.13-0.17,0.13-0.28,0.39C12.48,12.06,12.37,12.08,12.19,12.16z M16.09,11.04c-0.01-0.38-0.06-1.03-0.11-1.39
			c-0.03-0.21-0.08-0.42-0.12-0.64C15.72,8.24,17,8.39,17.37,8.4c0.44,0.01,0.95,0.02,1.38,0.07c0,0.01,0,0.02,0,0.03
			c0,0,0,0.02,0,0.03c0,0.01,0,0.02,0,0.02l-0.16,0.19c-0.09,0.09-0.12,0.11-0.25,0.18c-0.43,0.23-0.19,0.28-0.43,0.47
			c-0.28,0.22-0.97,0.34-1.37-0.11l0.09,1.27c0.25,0.14,0.27,0.09,0.46,0.32c0.12,0.15,0.18,0.29,0.36,0.39
			c0.23,0.13,0.77,0.41,0.93,0.57c-0.18,0.15-0.14,0.42-0.42,0.62c-0.1-0.04-0.34-0.23-0.51-0.32c-0.14-0.07-0.45-0.18-0.55-0.28
			C16.67,11.63,16.78,11.27,16.09,11.04z M11.69,13.39c0.31-0.08,0.81-0.16,1.1,0l-0.95,0.49L11.69,13.39z M16.62,13.55
			c0.01-0.64,0.63-0.31,1.15-0.17l-0.08,0.51C17.27,13.8,17.13,13.59,16.62,13.55z"/>
		<path class="st37" d="M20.13,3.37c0-0.31-0.16-0.67-0.28-0.92c-0.02-0.04-0.04-0.1-0.06-0.14c-0.02-0.04-0.02-0.04-0.04-0.07
			C19.72,2.2,19.72,2.2,19.7,2.18c-0.2-0.09-1.23-0.63-1.38-0.63c-0.22,0.01-0.79,0.81-1.28,0.71c-0.08-0.32,0.05-0.55,0-0.82
			l-0.7-0.06c-0.06,0.3-0.18,0.75-0.29,1.02c-0.14,0.35-0.31,0.54-0.76,0.56c0-0.24-0.04-0.58,0.05-0.8
			c0.09-0.23,0.2-0.35,0.23-0.63c-1.44,0.2-1.36,0.8-2.1,0.46c-0.21-0.1-0.45-0.2-0.65-0.29l-0.4,1.13
			c-0.13-0.12-1.39-0.85-1.68-1.3c-0.67,0.04-2.02,0.52-2.42,0.91c-0.08,0.08-0.11,0.13-0.19,0.2C8.04,2.73,7.99,2.77,7.9,2.86
			C7.38,3.4,7.57,3.2,7.18,3.79C7.06,3.97,6.94,4.11,6.85,4.31c0.21,0.16,0.58,0.25,0.84,0.34C7.83,4.57,8.1,4.17,8.22,4
			c0.27-0.4,1.35-0.77,2.12-1.43l0.62,0.41c0.55,0.33,1.48,0.91,2.06,1.08c0.35-0.48,0.37-0.76,0.53-1.08
			c0.41,0.22,0.82,0.13,0.87,0.3c0,0.42,0.05,0.66,0.1,1.04c0.26,0,0.47-0.16,0.74-0.23c0.26-0.07,0.5-0.13,0.76-0.18
			c0.37-0.08,0.4-0.12,0.65-0.3c0.77-0.56,0.74-1.05,1.99-0.66C19.18,3.11,19.51,3.44,20.13,3.37"/>
		<path class="st37" d="M12.14,15.68c0.04,0.22,0.12,0.45,0.21,0.64c0.09,0.21,0.17,0.33,0.37,0.45c0.2-0.14,0.32-0.41,0.63-0.49
			c0.02,0.35-0.05,1.13,0.29,1.23c0.77,0.22,0.78-0.4,0.88-0.6c0.45,0.75,1.13,0.6,1.22,0.39c0.1-0.22,0.13-0.52,0.09-0.75
			c0.25,0.1,0.59,0.45,0.78,0.63c0.38-0.3,0.55-1,0.53-1.65C16.15,14.7,13.03,14.88,12.14,15.68"/>
		<path class="st37" d="M6.56,7.19C6.41,7.34,5.93,7.7,5.69,7.77l0.17,1.42c0.06-0.04,0.29-0.33,0.39-0.41l0.96-0.77
			C7.39,7.85,7.6,7.9,7.74,7.67C7.92,7.4,7.48,6.81,7.39,6.47c-0.12-0.47,0.13-1.1,0.14-1.56C5.97,4.67,6.46,6.14,6.56,7.19"/>
		<path class="st37" d="M5.07,12.25l0.17,1.71l1.35-1.43c0.19-0.18,0.54-0.4,0.83-0.56c0.25-0.13,0.22-0.1,0.3-0.42
			c0.05-0.2,0.08-0.37,0.09-0.6c-0.29,0.03-1.28,0.35-1.53,0.48C6.11,11.51,5.14,12.13,5.07,12.25"/>
		<path class="st37" d="M5.33,14.38c0,0.89,0.05,2.2,0.47,2.96c0.17-0.09,0.45-0.46,0.55-0.64c0.23-0.42,0.26-0.37,0.13-0.91
			c-0.24-1.06-0.18-1.01-0.01-2.05C6.28,13.81,5.39,14.24,5.33,14.38"/>
		<path class="st37" d="M5.88,11.15c0.15-0.08,0.11-0.14,0.47-0.37c0.41-0.27,1.13-0.88,1.51-1.05C7.9,9.6,8,9.06,7.98,8.95
			C7.5,8.8,6.42,9.1,6.01,9.3C5.47,9.55,5.72,10.9,5.88,11.15"/>
		<path class="st37" d="M6.64,20.74h0.09c0.11-0.1,0.28-0.17,0.39-0.26c0.09-0.07,0.63-0.77,0.93-0.96c-0.05-0.15-0.1-0.16-0.18-0.3
			c-0.03-0.06-0.05-0.09-0.08-0.16l-0.1-0.16c-0.35,0.03-1.37,0.36-1.65,0.51C6.26,19.78,6.51,20.26,6.64,20.74"/>
		<path class="st37" d="M16.99,20.74L16.99,20.74c0.2,0,0.2-0.01,0.35-0.04c-0.05-0.32-0.18-0.63-0.19-0.95
			c-0.01-0.39,0-0.79,0-1.19c-0.26,0.05-0.51,0.14-0.7,0.27c-0.3,0.19-0.29,0.26-0.24,0.69c0.02,0.15,0.07,0.84,0.1,0.89
			C16.4,20.59,16.82,20.62,16.99,20.74"/>
		<path class="st37" d="M14.49,20.74h0.59c0.12-0.24,0.37-0.42,0.47-0.74c0.09-0.26,0-0.85-0.1-1.1c-0.35,0.08-0.96,0.1-1.06,0.45
			C14.3,19.72,14.53,20.23,14.49,20.74"/>
		<path class="st37" d="M9.9,19.21c-0.09-0.38-0.33-0.92-0.36-1.31c-0.02-0.28,0.08-0.5-0.09-0.73c-0.1-0.13-0.36-0.29-0.58-0.29
			c-0.36,0.46-0.32,0.78-0.14,1.53c0.08,0.32,0.26,0.34,0.51,0.48C9.42,18.97,9.72,19.14,9.9,19.21"/>
		<path class="st37" d="M13.07,20.74h0.74c-0.04-0.22-0.11-0.43-0.13-0.65c-0.11-0.94,0-0.68-0.71-0.91c-0.29-0.1-0.35-0.1-0.6,0.03
			c-0.06,0.31,0.17,0.87,0.44,1.2C12.87,20.48,13.04,20.66,13.07,20.74"/>
		<path class="st37" d="M18.52,20.28c0.15-0.06,0.46-0.3,0.57-0.41c-0.05-0.19-0.12-0.38-0.17-0.6c-0.14-0.56,0.14-0.68-0.26-0.81
			l-0.7-0.23c-0.17,0.31-0.08,0.84,0.03,1.17l0.35,0.68C18.42,20.21,18.41,20.22,18.52,20.28"/>
		<path class="st37" d="M5.88,17.62c-0.01,0.28,0.14,0.27,0.18,0.61c0.03,0.25,0.06,0.47,0.07,0.72c0.21-0.08,0.23-0.31,0.62-0.7
			l0.69-0.64c-0.11-0.39-0.3-0.53-0.49-0.75c-0.13,0.05-0.46,0.29-0.55,0.37C6.02,17.6,6.1,17.41,5.88,17.62"/>
		<path class="st37" d="M11.33,19.78c0.81-1.24-0.06-2.28-0.59-2.25c-0.08,0.18-0.1,0.45-0.15,0.65c-0.06,0.23-0.01,0.12,0.23,0.5
			C11.02,18.98,11.12,19.59,11.33,19.78"/>
		<path class="st37" d="M19.86,18.82c0.1-0.23,0.28-0.63,0.28-0.96l-0.77-0.16c0.03,0.21,0.09,0.42,0.16,0.61
			C19.62,18.57,19.66,18.68,19.86,18.82"/>
	</g>
</g>
</svg>
