<?xml version="1.0" encoding="utf-8"?>
<!-- Generator: Adobe Illustrator 23.0.0, SVG Export Plug-In . SVG Version: 6.00 Build 0)  -->
<svg version="1.1" id="Calque_1" xmlns="http://www.w3.org/2000/svg" xmlns:xlink="http://www.w3.org/1999/xlink" x="0px" y="0px"
	 viewBox="0 0 20 20" style="enable-background:new 0 0 20 20;" xml:space="preserve">
<style type="text/css">
	.st0{clip-path:url(#SVGID_2_);}
	.st1{fill-rule:evenodd;clip-rule:evenodd;fill:#2F9B46;}
	.st2{fill-rule:evenodd;clip-rule:evenodd;fill:#60B54D;}
	.st3{fill-rule:evenodd;clip-rule:evenodd;fill:#89CC53;}
	.st4{fill-rule:evenodd;clip-rule:evenodd;fill:#3CB8AD;}
	.st5{fill-rule:evenodd;clip-rule:evenodd;fill:#3394D7;}
	.st6{fill:none;stroke:#3394D7;stroke-width:0.216;stroke-miterlimit:22.9256;}
	.st7{fill-rule:evenodd;clip-rule:evenodd;fill:#2772BC;}
	.st8{fill-rule:evenodd;clip-rule:evenodd;fill:#1B5B83;}
	.st9{fill-rule:evenodd;clip-rule:evenodd;fill:#993233;}
	.st10{fill-rule:evenodd;clip-rule:evenodd;fill:#E13030;}
	.st11{fill-rule:evenodd;clip-rule:evenodd;fill:#F28824;}
	.st12{fill-rule:evenodd;clip-rule:evenodd;fill:#F5C836;}
	.st13{fill-rule:evenodd;clip-rule:evenodd;fill:#238647;}
	.st14{fill-rule:evenodd;clip-rule:evenodd;fill:#EDEDED;}
	.st15{clip-path:url(#SVGID_4_);fill-rule:evenodd;clip-rule:evenodd;fill:#2F9B46;}
	.st16{clip-path:url(#SVGID_4_);fill-rule:evenodd;clip-rule:evenodd;fill:#60B54D;}
	.st17{clip-path:url(#SVGID_4_);fill-rule:evenodd;clip-rule:evenodd;fill:#89CC53;}
	.st18{clip-path:url(#SVGID_4_);fill-rule:evenodd;clip-rule:evenodd;fill:#3CB8AD;}
	.st19{clip-path:url(#SVGID_4_);fill-rule:evenodd;clip-rule:evenodd;fill:#3394D7;}
	.st20{clip-path:url(#SVGID_4_);fill:none;stroke:#3394D7;stroke-width:0.216;stroke-miterlimit:22.9256;}
	.st21{clip-path:url(#SVGID_4_);fill-rule:evenodd;clip-rule:evenodd;fill:#2772BC;}
	.st22{clip-path:url(#SVGID_4_);fill-rule:evenodd;clip-rule:evenodd;fill:#1B5B83;}
	.st23{clip-path:url(#SVGID_4_);fill-rule:evenodd;clip-rule:evenodd;fill:#993233;}
	.st24{clip-path:url(#SVGID_4_);fill-rule:evenodd;clip-rule:evenodd;fill:#E13030;}
	.st25{clip-path:url(#SVGID_4_);fill-rule:evenodd;clip-rule:evenodd;fill:#F28824;}
	.st26{clip-path:url(#SVGID_4_);fill-rule:evenodd;clip-rule:evenodd;fill:#F5C836;}
	.st27{clip-path:url(#SVGID_4_);fill-rule:evenodd;clip-rule:evenodd;fill:#238647;}
	.st28{fill-rule:evenodd;clip-rule:evenodd;fill:#E1000E;}
	.st29{fill-rule:evenodd;clip-rule:evenodd;fill:#FFFFFF;}
	.st30{fill-rule:evenodd;clip-rule:evenodd;}
	.st31{fill-rule:evenodd;clip-rule:evenodd;fill:#009B89;}
	.st32{fill-rule:evenodd;clip-rule:evenodd;fill:#F9B800;}
	.st33{fill-rule:evenodd;clip-rule:evenodd;fill:#004D4D;}
	.st34{fill-rule:evenodd;clip-rule:evenodd;fill:#FF422E;}
	.st35{fill-rule:evenodd;clip-rule:evenodd;fill:#FF6500;}
	.st36{clip-path:url(#SVGID_6_);}
	.st37{fill-rule:evenodd;clip-rule:evenodd;fill:#FFFEFE;}
	.st38{fill:#FF6500;}
	.st39{fill:#071A57;}
	.st40{fill-rule:evenodd;clip-rule:evenodd;fill:#003C5D;}
	.st41{fill-rule:evenodd;clip-rule:evenodd;fill:#2D8F37;}
	.st42{fill-rule:evenodd;clip-rule:evenodd;fill:#000FAA;}
	.st43{clip-path:url(#SVGID_8_);}
	.st44{clip-path:url(#SVGID_10_);fill-rule:evenodd;clip-rule:evenodd;fill:#F76401;}
	.st45{clip-path:url(#SVGID_12_);}
	.st46{clip-path:url(#SVGID_14_);fill:url(#SVGID_15_);}
	.st47{clip-path:url(#SVGID_12_);fill-rule:evenodd;clip-rule:evenodd;fill:#F7A8A5;}
	.st48{clip-path:url(#SVGID_12_);fill-rule:evenodd;clip-rule:evenodd;fill:#FFFFFF;}
	.st49{clip-path:url(#SVGID_17_);fill:url(#SVGID_18_);}
	.st50{clip-path:url(#SVGID_20_);fill:url(#SVGID_21_);}
	.st51{clip-path:url(#SVGID_12_);fill-rule:evenodd;clip-rule:evenodd;fill:#283C93;}
	.st52{clip-path:url(#SVGID_12_);fill-rule:evenodd;clip-rule:evenodd;fill:#EE412C;}
	.st53{clip-path:url(#SVGID_23_);fill:url(#SVGID_24_);}
	.st54{clip-path:url(#SVGID_12_);fill-rule:evenodd;clip-rule:evenodd;fill:#CC3829;}
	.st55{clip-path:url(#SVGID_12_);fill-rule:evenodd;clip-rule:evenodd;fill:#F48E97;}
	.st56{clip-path:url(#SVGID_26_);fill:url(#SVGID_27_);}
	.st57{clip-path:url(#SVGID_12_);fill-rule:evenodd;clip-rule:evenodd;fill:#EE4633;}
	.st58{clip-path:url(#SVGID_12_);fill-rule:evenodd;clip-rule:evenodd;fill:#FDDC0D;}
	.st59{clip-path:url(#SVGID_29_);fill:url(#SVGID_30_);}
	.st60{clip-path:url(#SVGID_32_);fill:url(#SVGID_33_);}
	.st61{clip-path:url(#SVGID_35_);fill:url(#SVGID_36_);}
	.st62{clip-path:url(#SVGID_38_);fill:url(#SVGID_39_);}
	.st63{fill-rule:evenodd;clip-rule:evenodd;fill:#562772;}
	.st64{clip-path:url(#SVGID_41_);}
	.st65{clip-path:url(#SVGID_43_);fill:url(#SVGID_44_);}
	.st66{clip-path:url(#SVGID_41_);fill-rule:evenodd;clip-rule:evenodd;fill:#F7A8A5;}
	.st67{clip-path:url(#SVGID_41_);fill-rule:evenodd;clip-rule:evenodd;fill:#FFFFFF;}
	.st68{clip-path:url(#SVGID_46_);fill:url(#SVGID_47_);}
	.st69{clip-path:url(#SVGID_49_);fill:url(#SVGID_50_);}
	.st70{clip-path:url(#SVGID_41_);fill-rule:evenodd;clip-rule:evenodd;fill:#283C93;}
	.st71{clip-path:url(#SVGID_41_);fill-rule:evenodd;clip-rule:evenodd;fill:#EE412C;}
	.st72{clip-path:url(#SVGID_52_);fill:url(#SVGID_53_);}
	.st73{clip-path:url(#SVGID_41_);fill-rule:evenodd;clip-rule:evenodd;fill:#CC3829;}
	.st74{clip-path:url(#SVGID_41_);fill-rule:evenodd;clip-rule:evenodd;fill:#F48E97;}
	.st75{clip-path:url(#SVGID_55_);fill:url(#SVGID_56_);}
	.st76{clip-path:url(#SVGID_41_);fill-rule:evenodd;clip-rule:evenodd;fill:#EE4633;}
	.st77{clip-path:url(#SVGID_41_);fill-rule:evenodd;clip-rule:evenodd;fill:#FDDC0D;}
	.st78{clip-path:url(#SVGID_58_);fill:url(#SVGID_59_);}
	.st79{clip-path:url(#SVGID_61_);fill:url(#SVGID_62_);}
	.st80{clip-path:url(#SVGID_64_);fill:url(#SVGID_65_);}
	.st81{clip-path:url(#SVGID_67_);fill:url(#SVGID_68_);}
	.st82{fill:#00937B;}
	.st83{fill-rule:evenodd;clip-rule:evenodd;fill:#00937B;}
	.st84{fill:#FFFFFF;}
</style>
<g>
	<path class="st38" d="M11.32,9.95c0.09,0.13,0.07,0.26-0.04,0.32c-0.02-0.05-0.05-0.1-0.07-0.15c-0.01,0-0.01,0-0.02,0
		c-0.01,0.04-0.03,0.08-0.03,0.12c-0.01,0.16,0.05,0.3,0.13,0.44c0,0.01,0.02,0.02,0.03,0.02c0.05,0,0.1,0,0.16,0
		c-0.03-0.25-0.13-0.5,0.03-0.76C11.43,9.94,11.38,9.95,11.32,9.95z"/>
	<path class="st38" d="M15.78,7.62c-0.06-0.45-0.22-0.87-0.46-1.26c-0.25-0.41-0.58-0.75-0.98-1.03c-0.27-0.19-0.49-0.41-0.65-0.7
		c-0.06-0.1-0.16-0.17-0.28-0.23c0.02,0.06,0.04,0.12,0.05,0.17c-0.09,0.02-0.23-0.04-0.3-0.12c0.02-0.03,0.05-0.05,0.07-0.08
		c-0.02-0.01-0.03-0.02-0.04-0.02c-0.11,0-0.22-0.03-0.32,0c-0.22,0.04-0.43,0.11-0.65,0.17c-0.01,0-0.02,0.02-0.02,0.02
		c0,0.01,0.01,0.02,0.02,0.03c0.09,0.04,0.14,0.11,0.18,0.19c0.03,0.06,0.07,0.13,0.11,0.18c0.01,0.02,0.04,0.03,0.07,0.04
		c0.06,0.01,0.12,0.02,0.17,0.03c0.01,0,0.02,0,0.04,0.01c-0.01-0.03-0.02-0.06-0.03-0.08c-0.01-0.04,0-0.06,0.04-0.06
		c0.02,0,0.04,0.01,0.06,0.02c0.03,0.01,0.07,0.02,0.1,0.03c0.03,0.01,0.06,0,0.1,0c0.07,0,0.13,0.05,0.15,0.11
		c-0.11,0-0.23-0.01-0.32,0.06c0.01,0.03,0.03,0.06,0.04,0.1c-0.06-0.01-0.1-0.01-0.15-0.02c-0.04-0.01-0.09-0.02-0.13-0.03
		c0.01,0.01,0.02,0.02,0.03,0.04c0.1,0.1,0.21,0.17,0.33,0.22c0.07,0.03,0.15,0.06,0.24,0.05c0.1-0.01,0.21-0.02,0.31-0.04
		c0.15-0.02,0.29-0.01,0.42,0.07c0.33,0.19,0.61,0.44,0.83,0.74c0.39,0.52,0.6,1.11,0.6,1.76c0,0.15-0.02,0.3-0.04,0.45
		c-0.04,0.31-0.13,0.6-0.29,0.87c-0.17,0.28-0.39,0.51-0.7,0.63c-0.18,0.08-0.37,0.12-0.56,0.02c-0.11-0.05-0.11-0.05-0.08-0.16
		c0,0,0-0.01,0-0.01c0.08-0.37,0.08-0.74,0.04-1.11c-0.04-0.39-0.14-0.76-0.3-1.11c-0.16-0.37-0.38-0.69-0.7-0.94
		c-0.16-0.13-0.34-0.2-0.55-0.2c-0.23,0-0.39,0.22-0.39,0.4c0,0.04-0.02,0.06-0.05,0.08c-0.15,0.09-0.32,0.13-0.5,0.15
		c-0.3,0.02-0.57-0.08-0.8-0.26c-0.02-0.01-0.03-0.05-0.03-0.07c0-0.07,0-0.13,0-0.2c0-0.04-0.01-0.06-0.05-0.08
		c-0.04-0.02-0.08-0.06-0.11-0.09c-0.02-0.02-0.02-0.04-0.03-0.07c0-0.05,0.03-0.06,0.07-0.04c0.02,0.01,0.05,0.03,0.08,0.04
		c0-0.04-0.01-0.07-0.01-0.1c-0.01-0.09-0.03-0.18-0.08-0.26c-0.01-0.02-0.04-0.03-0.06-0.03c-0.12-0.01-0.24-0.14-0.25-0.26
		c0-0.01,0-0.01,0-0.01c0.07,0.03,0.13,0.05,0.2,0.08c-0.03-0.12-0.05-0.23-0.09-0.33c-0.04-0.12-0.09-0.24-0.14-0.36
		C9.99,4.93,9.95,4.87,9.91,4.82C9.83,4.74,9.74,4.67,9.66,4.59C9.62,4.56,9.59,4.53,9.55,4.51c-0.08-0.03-0.12-0.09-0.1-0.19
		c0.03,0.01,0.06,0.03,0.09,0.04c0,0,0.01-0.01,0.01-0.01c-0.07-0.15-0.13-0.3-0.21-0.44c-0.05-0.09-0.11-0.17-0.2-0.23
		C9.12,3.66,9.1,3.65,9.06,3.68C9.05,3.69,9.03,3.69,9.01,3.69c-0.08,0-0.16,0-0.24,0c-0.01,0-0.02,0-0.03-0.01c0,0,0-0.01,0-0.01
		c0.05-0.03,0.11-0.06,0.16-0.09c-0.07-0.08-0.18-0.1-0.26-0.05C8.58,3.57,8.53,3.6,8.46,3.59C8.44,3.52,8.46,3.46,8.52,3.41
		c-0.1,0-0.2,0-0.3,0.01c-0.01,0-0.03,0.02-0.04,0.04C8.14,3.56,8.11,3.68,8.02,3.76C8.01,3.78,7.99,3.79,7.98,3.8
		c-0.01,0-0.01,0-0.02-0.01c0.03-0.11,0.06-0.22,0.09-0.34C8.03,3.46,8.01,3.46,7.99,3.47c-0.1,0.06-0.19,0.05-0.3,0
		C7.61,3.42,7.51,3.4,7.42,3.37c0.05,0.09,0.07,0.17,0.04,0.32C7.44,3.68,7.41,3.67,7.39,3.65C7.34,3.58,7.3,3.52,7.26,3.45
		C7.24,3.41,7.23,3.41,7.19,3.41c-0.01,0-0.03,0-0.04,0.01c-0.07,0.02-0.14,0.05-0.21,0.1c0.08,0.02,0.14,0.06,0.18,0.13
		c-0.02,0.01-0.04,0.01-0.05,0C6.99,3.63,6.9,3.61,6.82,3.6C6.77,3.6,6.72,3.56,6.66,3.61C6.58,3.7,6.49,3.78,6.41,3.86
		C6.35,3.92,6.31,4,6.29,4.08C6.33,4.09,6.36,4.09,6.4,4.1C6.34,4.15,6.29,4.2,6.24,4.24C6.22,4.25,6.21,4.28,6.21,4.3
		c0,0.06,0,0.13,0,0.19c0,0.04-0.02,0.07-0.04,0.1C6.11,4.65,6.05,4.71,6.03,4.78C5.99,4.89,5.96,5.01,5.95,5.13
		C5.92,5.36,5.92,5.6,5.9,5.83c0,0.06-0.02,0.11-0.08,0.15C5.82,5.98,5.8,6,5.8,6.01c0,0.09,0,0.18,0,0.27
		c0.06-0.05,0.11-0.09,0.17-0.14c0,0,0.01,0.01,0.01,0.01c0,0.08,0,0.15,0,0.23c0,0.01-0.02,0.02-0.03,0.03
		C5.89,6.43,5.84,6.5,5.84,6.57c0,0.05,0.01,0.1,0.01,0.15c0,0.05,0.01,0.09,0.01,0.14C5.93,6.79,6,6.75,6.1,6.74
		C6.07,6.79,6.05,6.83,6.03,6.87C6,6.92,5.96,6.96,5.93,7.02C5.92,7.05,5.9,7.09,5.91,7.12C5.97,7.46,6.07,7.79,6.2,8.1
		C6.25,8.21,6.25,8.29,6.19,8.4C6.02,8.73,5.91,9.09,5.81,9.45c0,0.02-0.01,0.03-0.02,0.05C5.79,9.5,5.78,9.5,5.78,9.49
		c-0.1-0.08-0.21-0.11-0.33-0.1C5.33,9.4,5.22,9.44,5.14,9.54C5.13,9.55,5.11,9.56,5.09,9.56C4.84,9.49,4.61,9.65,4.6,9.91
		c0,0.02-0.02,0.05-0.03,0.07c-0.03,0.06-0.08,0.12-0.09,0.19c-0.02,0.16,0,0.33,0.08,0.48c0.02,0.04,0.04,0.05,0.09,0.05
		c0.97,0,1.93,0,2.9,0c0.02,0,0.04,0,0.07,0c-0.03-0.05-0.05-0.1-0.07-0.13c-0.11-0.15-0.07-0.31-0.04-0.46
		c0.02-0.1,0.1-0.19,0.16-0.29C7.68,9.78,7.68,9.75,7.7,9.73c0.01-0.02,0.02-0.04,0.04-0.04c0.1-0.03,0.2-0.05,0.3-0.07
		c0.02,0,0.05-0.01,0.06,0c0.04,0.03,0.05,0.01,0.07-0.02c0.04-0.07,0.09-0.1,0.17-0.1c0.01,0,0.03,0,0.04,0
		c0.14,0,0.27,0.02,0.38,0.12C8.78,9.63,8.8,9.67,8.83,9.7c0,0.01-0.01,0.01-0.01,0.02C8.77,9.71,8.72,9.71,8.68,9.7
		C8.59,9.67,8.51,9.64,8.41,9.65c-0.02,0-0.06,0.01-0.07,0.03C8.33,9.73,8.33,9.79,8.33,9.85c0,0.01,0.04,0.03,0.07,0.04
		c0.03,0.02,0.05,0.04,0.08,0.05c0.02,0.01,0.04,0.03,0.06,0.04c0-0.01,0-0.01,0-0.02C8.59,9.94,8.65,9.9,8.72,9.88
		c0.15-0.04,0.29,0.07,0.29,0.22c0,0.04,0.01,0.08,0,0.12c-0.02,0.09,0.03,0.14,0.11,0.17c0.04,0.01,0.07,0.03,0.11,0.04
		c0.02,0.01,0.04,0.02,0.06,0.02c-0.02,0.05-0.06,0.08-0.11,0.08c-0.05,0-0.11,0-0.16,0c-0.05,0-0.09-0.01-0.12-0.07
		c-0.04,0.08-0.08,0.15-0.13,0.22c0.78,0,1.54,0,2.32,0c-0.03-0.05-0.05-0.08-0.07-0.13c-0.02-0.03-0.04-0.07-0.04-0.1
		c-0.01-0.11-0.02-0.21-0.03-0.32c0-0.02,0.01-0.04,0.02-0.05c0.06-0.09,0.13-0.17,0.19-0.26c0.01-0.01,0.02-0.02,0.04-0.02
		c0.12-0.02,0.24-0.04,0.37-0.05c0.04,0,0.07-0.01,0.08-0.05c0.01-0.02,0.04-0.03,0.06-0.04c0.11-0.01,0.23-0.01,0.34,0.02
		c0.04,0.01,0.06,0.03,0.05,0.07c-0.01,0.05-0.05,0.04-0.09,0.03c-0.02-0.01-0.05-0.02-0.07-0.02c-0.01,0-0.03,0-0.04,0.01
		c-0.01,0.01,0,0.03,0,0.04c0.01,0.02,0.02,0.04,0.03,0.07c-0.04-0.01-0.07-0.02-0.1-0.03c-0.03-0.01-0.06-0.02-0.09-0.03
		c-0.07,0.14-0.07,0.14,0.04,0.25c0,0,0,0,0.01,0.01c0.03,0.03,0.03,0.06,0.01,0.09c-0.02,0.03-0.04,0.07-0.06,0.11
		c-0.03-0.02-0.07-0.04-0.11-0.06c-0.05,0.15,0,0.31-0.02,0.46c0.06,0,0.11,0,0.17,0c0.04,0,0.05-0.01,0.05-0.05
		c0-0.08,0-0.17,0.01-0.25c0.03-0.23,0.15-0.42,0.33-0.57c0.04-0.03,0.09-0.04,0.14-0.02c0.12,0.03,0.18,0.14,0.27,0.22
		c0.01,0.01,0,0.03,0,0.04c-0.03,0.05-0.15,0.05-0.19,0c-0.01-0.02-0.03-0.04-0.04-0.05c-0.04,0.04-0.08,0.08-0.11,0.1
		c0.04,0.07,0.1,0.13,0.12,0.2c0.02,0.08-0.01,0.15-0.08,0.21c-0.03-0.07-0.07-0.13-0.1-0.2c-0.02-0.05-0.03-0.05-0.08-0.02
		c-0.01,0.01-0.03,0.02-0.04,0.04c-0.08,0.1-0.08,0.22-0.1,0.34c0,0,0,0.01,0.01,0.01c0.01,0,0.03,0,0.04,0c0.38,0,0.77,0,1.15,0
		c0.12,0,0.24-0.03,0.35-0.08c0.05-0.03,0.11-0.04,0.16-0.04c0.2,0,0.4,0,0.6-0.04c0.35-0.08,0.63-0.27,0.87-0.53
		c0.47-0.52,0.67-1.14,0.69-1.82C15.83,7.99,15.81,7.8,15.78,7.62z M13.08,4.68C13,4.67,12.93,4.66,12.85,4.65
		c-0.02,0-0.05,0-0.07,0.01c-0.07,0.02-0.12,0.01-0.17-0.04c0.08-0.03,0.15-0.07,0.23-0.1c0.01-0.01,0.03-0.01,0.04-0.01
		c0.06,0.04,0.13,0.08,0.19,0.13c0.01,0.01,0.01,0.02,0.02,0.02C13.09,4.67,13.08,4.67,13.08,4.68z M13.52,4.97
		c-0.01,0-0.01-0.01-0.01-0.01c-0.06-0.06-0.11-0.12-0.17-0.18c0.05-0.02,0.1-0.03,0.15-0.05c0.03-0.01,0.06,0,0.07,0.03
		c0.02,0.05,0.06,0.08,0.09,0.13c0.03,0.05,0.04,0.11,0.05,0.18C13.65,5.01,13.59,4.98,13.52,4.97z M4.96,10.17
		c-0.03-0.02-0.06-0.03-0.09-0.05c-0.03-0.02-0.06-0.01-0.06,0.03c0,0.06,0,0.12,0.01,0.18c0.01,0.08,0.02,0.15-0.01,0.23
		c-0.06-0.01-0.13-0.09-0.13-0.16c0-0.1,0-0.2,0-0.3c0-0.01,0-0.02,0.01-0.03c0.05-0.07,0.1-0.14,0.16-0.2
		C4.95,9.92,5,10.06,4.96,10.17z M10.22,7.6c-0.09,0.1-0.41,0.02-0.5-0.09c0.05-0.03,0.1-0.07,0.16-0.1c0.01,0,0.02,0,0.03,0.01
		C9.99,7.5,10.1,7.56,10.22,7.6z M9.55,8.73c0.08,0,0.15,0.04,0.19,0.1c0.04,0.06,0.08,0.12,0.12,0.18c0,0-0.01,0.01-0.01,0.01
		c-0.08,0.01-0.16,0-0.22-0.08C9.61,8.91,9.58,8.88,9.52,8.92c-0.02,0.01-0.06,0.01-0.09,0C9.39,8.91,9.36,8.89,9.32,8.88
		C9.27,8.86,9.23,8.86,9.19,8.9C9.14,8.95,9.08,8.97,9.01,8.98C8.99,8.91,9.06,8.81,9.13,8.8c0.05-0.01,0.09-0.03,0.13-0.05
		c0.03-0.01,0.05-0.04,0.08-0.06c0.03-0.02,0.07-0.02,0.11,0C9.48,8.71,9.52,8.73,9.55,8.73z M9.23,7.72
		c0.06-0.05,0.14-0.06,0.21-0.08c0.01,0,0.04,0.02,0.05,0.04c0.08,0.09,0.15,0.17,0.23,0.26C9.59,7.98,9.35,7.87,9.23,7.72z
		 M9.88,6.74C9.92,6.78,9.96,6.82,10,6.86c0,0.02-0.03,0.03-0.06,0.01C9.89,6.84,9.83,6.85,9.77,6.85c-0.08,0-0.09-0.02-0.11-0.11
		C9.71,6.73,9.75,6.71,9.8,6.71C9.82,6.7,9.86,6.72,9.88,6.74z M9.63,5.99c0.02,0.04,0.03,0.07,0.04,0.1
		C9.68,6.12,9.7,6.15,9.74,6.14c0.01,0,0.03,0.01,0.04,0.02C9.81,6.23,9.84,6.3,9.87,6.38c0,0.01,0,0.01,0,0.02
		C9.68,6.41,9.57,6.22,9.63,5.99z M9.47,6.96C9.53,7.02,9.6,7.08,9.66,7.14c0,0.01,0,0.02-0.01,0.02c-0.07,0-0.14,0-0.21,0
		c-0.02,0-0.03-0.01-0.05-0.02C9.35,7.12,9.34,7.1,9.38,7.05C9.41,7.03,9.44,7,9.47,6.96z M9.42,5.63c0,0.01-0.01,0.02-0.02,0.02
		C9.35,5.67,9.3,5.68,9.24,5.69c0.03-0.15,0.07-0.29,0.1-0.43C9.47,5.37,9.46,5.5,9.42,5.63z M7.04,5.94c0-0.07-0.01-0.13-0.06-0.18
		c-0.11-0.1-0.19-0.21-0.23-0.35C6.74,5.36,6.74,5.33,6.79,5.32c0.01,0,0.02-0.01,0.03-0.01c-0.06-0.31-0.06-0.36,0-0.51
		C6.76,4.75,6.7,4.71,6.65,4.67C6.54,4.57,6.5,4.43,6.46,4.29c0-0.01,0-0.04,0.01-0.05c0.04-0.08,0.09-0.15,0.13-0.23
		C6.61,4,6.61,4,6.62,3.99C6.7,3.95,6.79,3.9,6.87,3.86c0.02-0.01,0.06-0.02,0.08-0.01C7.04,3.87,7.12,3.89,7.2,3.92
		c0.02,0,0.02,0.03,0.04,0.04c0.02,0.02,0.03,0.06,0.05,0.06c0.06,0.02,0.09,0.05,0.11,0.1c0.03,0.11,0.09,0.14,0.2,0.14
		c0.09,0,0.17,0.05,0.26,0.07c0.01,0,0.03,0,0.04,0c0.14-0.07,0.28-0.09,0.44-0.08c0.01,0,0.03-0.01,0.04-0.02
		c0.03-0.06,0.05-0.13,0.07-0.18C8.49,4.04,8.52,4.02,8.55,4C8.61,3.97,8.67,3.93,8.73,3.9c0.03-0.01,0.07,0.01,0.11,0.01
		c0.05,0.01,0.09,0.03,0.14,0.03C9.06,3.97,9.12,4,9.16,4.07C9.2,4.15,9.24,4.23,9.28,4.31c0,0.01,0.01,0.02,0.01,0.03
		C9.27,4.41,9.27,4.49,9.25,4.56C9.23,4.6,9.2,4.63,9.18,4.66C9.17,4.68,9.16,4.69,9.15,4.7C9.09,4.75,9.03,4.8,8.96,4.85
		c0.05,0.14,0.01,0.29-0.05,0.45c0.04-0.02,0.07-0.04,0.11-0.06C9.01,5.31,9.01,5.38,9,5.44c0,0.02-0.01,0.04-0.02,0.06
		c-0.07,0.11-0.13,0.22-0.2,0.32c-0.04,0.05-0.1,0.08-0.15,0.12C8.61,5.95,8.61,5.96,8.6,5.97c0.01,0,0.02,0.01,0.03,0.01
		c0.25,0,0.49,0.08,0.71,0.19C9.42,6.21,9.44,6.25,9.4,6.34C9.16,6.21,8.9,6.11,8.62,6.1C8.62,6.14,8.61,6.18,8.61,6.23
		c0.09,0.04,0.18,0.08,0.26,0.13C8.98,6.43,9.09,6.51,9.2,6.58c0.04,0.02,0.05,0.06,0.05,0.1c0,0.04,0,0.07,0,0.11
		c0,0-0.01,0-0.01,0.01C9.2,6.76,9.17,6.73,9.13,6.69C9,6.58,8.87,6.47,8.71,6.39c0,0,0,0,0,0C8.58,6.33,8.54,6.35,8.47,6.47
		c0,0.01-0.01,0.02-0.02,0.03C8.44,6.49,8.42,6.48,8.4,6.46C8.27,6.38,8.15,6.31,8,6.28c-0.02,0-0.04-0.02-0.05-0.04
		C7.93,6.2,7.91,6.14,7.9,6.09c0-0.01,0.01-0.03,0.02-0.04c0.07-0.04,0.13-0.09,0.17-0.17c0.01-0.01,0.04-0.02,0.06-0.02
		c0.04,0,0.08,0,0.09-0.05c0.01-0.06,0-0.11-0.06-0.12C8.09,5.67,8.01,5.66,7.92,5.65c-0.08-0.01-0.17,0-0.25,0.01
		c-0.04,0-0.08,0.02-0.11,0.03C7.5,5.72,7.49,5.8,7.55,5.84c0.02,0.01,0.04,0.01,0.06,0.01c0.03,0,0.05-0.02,0.07-0.03
		c0.01,0.01,0.01,0.01,0.01,0.01c-0.01,0.1,0.03,0.18,0.12,0.22c0.01,0,0.02,0.02,0.02,0.03c0,0.05-0.01,0.1-0.01,0.16
		c0,0.01-0.02,0.02-0.03,0.02C7.61,6.27,7.44,6.34,7.28,6.42C7.24,6.45,7.21,6.44,7.18,6.4C7.16,6.37,7.13,6.35,7.11,6.32
		C7.09,6.29,7.07,6.28,7.05,6.3C6.89,6.4,6.72,6.5,6.57,6.59C6.52,6.62,6.49,6.65,6.45,6.68C6.42,6.59,6.43,6.54,6.5,6.49
		c0.14-0.08,0.28-0.16,0.42-0.24c0.01,0,0.02-0.01,0.02-0.01c0.08-0.04,0.09-0.07,0.08-0.15c0-0.01-0.01-0.02-0.02-0.03
		C6.98,6.06,6.95,6.05,6.93,6.06C6.72,6.07,6.52,6.12,6.35,6.25c-0.01,0-0.01,0.01-0.02,0.01c0,0-0.01,0-0.01,0
		c0,0-0.01-0.01-0.01-0.01C6.3,6.12,6.3,6.12,6.41,6.07C6.61,5.98,6.81,5.92,7.04,5.94z M9.09,7.28c0.03,0.03,0.06,0.06,0.09,0.09
		c0,0.01-0.01,0.01-0.01,0.02C9.15,7.38,9.11,7.38,9.08,7.36C9.03,7.33,8.97,7.3,8.91,7.26C8.9,7.25,8.89,7.23,8.89,7.21
		C8.87,7.14,8.85,7.06,8.83,6.97c0.05,0.02,0.09,0.04,0.14,0.06c0.06,0.03,0.09,0.08,0.08,0.15C9.05,7.22,9.06,7.25,9.09,7.28z
		 M8.47,7.72c-0.07-0.03-0.14-0.06-0.2-0.1C8.23,7.6,8.22,7.56,8.24,7.51C8.26,7.45,8.31,7.4,8.37,7.37C8.4,7.48,8.43,7.6,8.47,7.72
		z M7.23,7.16C7.21,7.24,7.19,7.31,7.17,7.4C7.1,7.28,7.03,7.11,7.03,7.02C7.1,7.07,7.16,7.1,7.22,7.14
		C7.23,7.15,7.23,7.15,7.23,7.16z M6.7,7.69c0.02,0,0.04,0.02,0.04,0.04C6.76,7.82,6.64,8,6.54,8.04C6.54,8,6.55,7.96,6.55,7.93
		c0.01-0.05,0.03-0.1,0.03-0.15C6.6,7.72,6.64,7.68,6.7,7.69z M6.6,6.96c0.06,0,0.1,0.04,0.13,0.08C6.78,7.1,6.81,7.15,6.85,7.2
		c0.05,0.07,0.1,0.14,0.12,0.22c0,0.01,0,0.02,0,0.03C6.75,7.38,6.58,7.19,6.6,6.96z M6.94,7.96c0.03-0.04,0.06-0.02,0.1-0.01
		C7,8.04,6.98,8.14,6.95,8.23C6.94,8.25,6.91,8.27,6.89,8.27c-0.09,0.03-0.17,0.02-0.26,0C6.76,8.2,6.85,8.08,6.94,7.96z M6.52,7.39
		C6.44,7.48,6.36,7.56,6.28,7.63C6.27,7.6,6.25,7.55,6.24,7.51C6.23,7.44,6.32,7.36,6.38,7.37C6.43,7.38,6.47,7.38,6.52,7.39z
		 M6.37,4.61c0.01,0,0.01,0,0.02,0c0,0.07,0,0.14,0,0.22c0,0.01-0.01,0.02-0.02,0.02C6.33,4.87,6.29,4.88,6.24,4.89
		C6.25,4.77,6.31,4.69,6.37,4.61z M6.18,5.54C6.13,5.41,6.19,5.3,6.25,5.2c0.03-0.04,0.1-0.05,0.15-0.07
		c-0.09,0.1-0.07,0.23-0.09,0.34C6.29,5.56,6.28,5.65,6.26,5.75C6.25,5.73,6.24,5.72,6.24,5.71C6.22,5.65,6.21,5.59,6.18,5.54z
		 M5.48,9.96c0,0.07-0.02,0.14-0.06,0.21c-0.01-0.02-0.02-0.04-0.03-0.05c-0.02-0.03-0.03-0.06-0.06-0.08
		c-0.06-0.06-0.09-0.05-0.13,0.02c-0.06,0.11-0.04,0.23,0,0.34c0.02,0.05,0.01,0.08-0.03,0.1c-0.04,0.03-0.09,0.05-0.14,0.09
		C5.02,10.51,5,10.45,5,10.39c-0.01-0.16-0.01-0.31,0.05-0.46c0.03-0.09,0.1-0.17,0.16-0.25c0.01-0.01,0.02-0.01,0.04-0.01
		c0.05,0,0.1,0,0.15,0C5.37,9.69,5.35,9.71,5.35,9.73c-0.01,0.04-0.01,0.08,0.04,0.1C5.45,9.85,5.48,9.9,5.48,9.96z M6.14,10.2
		c-0.06,0.1-0.13,0.18-0.21,0.25c-0.01,0-0.01-0.01-0.02-0.01c0.02-0.08,0.03-0.15,0.05-0.23c0.02-0.1,0.01-0.12-0.08-0.16
		c-0.06-0.02-0.1-0.02-0.11,0.04c-0.03,0.11-0.11,0.2-0.17,0.3c-0.03,0.04-0.05,0.09-0.07,0.15c-0.01-0.02-0.01-0.03-0.01-0.04
		c0-0.18,0.01-0.36,0.07-0.53C5.64,9.79,5.76,9.7,5.95,9.69c0.03,0,0.07,0.01,0.11,0.02C6.03,9.75,6.01,9.79,5.99,9.83
		c0.03,0.02,0.06,0.04,0.09,0.06C6.19,9.98,6.21,10.08,6.14,10.2z M6.72,9.89C6.72,9.94,6.7,10,6.68,10.06c-0.01,0-0.01,0-0.02,0
		C6.64,9.99,6.61,9.92,6.59,9.85C6.56,9.72,6.48,9.65,6.36,9.6C6.27,9.56,6.19,9.51,6.1,9.48c-0.02-0.01-0.05-0.01-0.07,0
		c-0.05,0.01-0.06,0-0.05-0.05C6,9.29,6.05,9.28,6.17,9.31C6.26,9.34,6.34,9.4,6.43,9.45C6.47,9.47,6.48,9.5,6.48,9.55
		c0,0.08,0.02,0.11,0.1,0.13c0,0,0.01,0,0.01,0c0.04,0.01,0.1,0.01,0.11,0.04C6.73,9.77,6.73,9.83,6.72,9.89z M7.02,9.6
		C6.97,9.64,6.93,9.68,6.88,9.72C6.87,9.69,6.87,9.67,6.86,9.64C6.85,9.6,6.84,9.56,6.83,9.52c0-0.02,0-0.03,0-0.05
		C6.85,9.44,6.84,9.42,6.81,9.4C6.78,9.39,6.75,9.37,6.72,9.36C6.59,9.32,6.48,9.23,6.37,9.14C6.33,9.1,6.3,9.1,6.25,9.11
		C6.2,9.12,6.15,9.13,6.11,9.15C6.08,9.07,6.15,8.94,6.22,8.92c0.08-0.02,0.15-0.01,0.21,0.04C6.48,9,6.54,9.03,6.59,9.06
		c0.08,0.06,0.16,0.12,0.24,0.19C6.84,9.26,6.85,9.29,6.85,9.3c0.01,0.04,0.03,0.07,0.08,0.08C6.96,9.39,6.99,9.43,7,9.45
		c0.02,0.04,0.02,0.08,0.03,0.12C7.03,9.58,7.02,9.6,7.02,9.6z M7.13,9.06C7.12,9.12,7.12,9.18,7.1,9.24
		c-0.02-0.03-0.03-0.07-0.05-0.1c-0.05-0.08-0.1-0.13-0.19-0.16c-0.06-0.02-0.1-0.09-0.14-0.14C6.7,8.79,6.67,8.78,6.62,8.77
		c-0.05,0-0.09-0.03-0.14-0.03c-0.07,0-0.15,0.02-0.23,0.04c0.01-0.02,0.01-0.04,0.02-0.06c0-0.01,0.01-0.01,0.02-0.02
		c0.04-0.04,0.08-0.11,0.12-0.12C6.5,8.57,6.59,8.6,6.68,8.61c0.01,0,0.03,0.01,0.04,0.02c0.06,0.05,0.13,0.1,0.19,0.15
		c0.03,0.03,0.07,0.05,0.07,0.1c0,0.01,0.01,0.02,0.02,0.03c0.02,0.01,0.03,0.01,0.05,0.02C7.14,8.96,7.14,8.96,7.13,9.06z
		 M7.05,8.28C7.07,8.27,7.08,8.25,7.1,8.25c0.1-0.04,0.19-0.1,0.25-0.19C7.41,7.98,7.49,8,7.57,8C7.52,8.22,7.27,8.36,7.05,8.28z
		 M7.39,7.38c0.06,0,0.12,0,0.17,0.03c0.01,0.01,0.02,0.02,0.02,0.03C7.59,7.52,7.6,7.61,7.62,7.7c0,0,0,0.01-0.01,0.03
		C7.51,7.62,7.4,7.53,7.39,7.38z M7.45,8.56c0.01-0.01,0.02-0.03,0.03-0.04C7.56,8.43,7.63,8.33,7.7,8.24
		c0.04-0.05,0.1-0.06,0.16-0.07c0.02,0,0.05,0,0.07,0c0,0.07-0.05,0.11-0.07,0.16C7.78,8.49,7.62,8.52,7.45,8.56z M7.74,8.97
		c-0.02,0-0.03-0.02-0.04-0.04C7.67,8.89,7.65,8.85,7.61,8.8c0.11,0,0.2,0,0.3,0c0.01,0,0.03,0.03,0.04,0.04
		c0.01,0.02,0.03,0.05,0.04,0.08C7.91,8.98,7.83,8.99,7.74,8.97z M7.87,7.78C7.86,7.72,7.85,7.66,7.84,7.6c0-0.01,0-0.02,0.01-0.03
		c0.06-0.05,0.12-0.1,0.18-0.16C8.06,7.55,7.99,7.74,7.87,7.78z M8.13,6.76c0,0-0.01,0-0.01,0C8.1,6.83,8.08,6.89,8.07,6.96
		C8.06,6.99,8.05,7.02,8.01,7.03c-0.05,0.01-0.1,0.03-0.15,0c-0.01,0-0.01-0.02-0.01-0.03C7.84,6.95,7.84,6.89,7.83,6.84
		c0-0.01-0.01-0.03-0.02-0.04C7.8,6.81,7.78,6.81,7.77,6.82C7.74,6.88,7.72,6.94,7.7,6.99C7.69,7.03,7.68,7.04,7.65,7.03
		C7.61,7.02,7.57,7,7.53,6.98C7.52,6.97,7.51,6.95,7.51,6.93c0-0.06,0-0.11,0-0.19C7.46,6.78,7.43,6.81,7.39,6.85
		C7.37,6.82,7.34,6.8,7.33,6.77C7.31,6.7,7.3,6.63,7.29,6.56C7.28,6.53,7.3,6.51,7.33,6.5C7.5,6.41,7.69,6.39,7.89,6.41
		C8.05,6.42,8.2,6.48,8.35,6.53c0.01,0,0.03,0.03,0.03,0.04c-0.02,0.11-0.04,0.22-0.12,0.3C8.24,6.89,8.22,6.91,8.21,6.92
		C8.18,6.86,8.15,6.81,8.13,6.76z M8.26,8.73c-0.01-0.04,0-0.06,0.04-0.06c0.12,0,0.12,0,0.16,0.1C8.48,8.81,8.5,8.86,8.52,8.9
		C8.41,8.91,8.27,8.82,8.26,8.73z M8.49,8.36c-0.01,0-0.02-0.01-0.03-0.01C8.34,8.25,8.25,8.12,8.16,8c0,0,0.01-0.01,0.01-0.01
		c0.1,0.02,0.2,0.04,0.3,0.06c0.01,0,0.01,0,0.02,0.01C8.56,8.12,8.63,8.2,8.71,8.28C8.64,8.33,8.57,8.35,8.49,8.36z M8.76,7.67
		c-0.02,0-0.04-0.01-0.06-0.03c-0.11-0.1-0.12-0.38-0.01-0.5c0.02,0.08,0.04,0.14,0.05,0.21C8.75,7.46,8.8,7.54,8.9,7.59
		C8.92,7.6,8.94,7.61,8.96,7.62C8.95,7.63,8.95,7.64,8.94,7.65C8.88,7.66,8.82,7.67,8.76,7.67z M8.99,7.93c0,0,0.01,0,0.02,0
		c0.09-0.03,0.15,0,0.18,0.09c0,0.01,0.02,0.03,0.04,0.03c0.06,0.03,0.12,0.07,0.19,0.1C9.29,8.19,9.18,8.2,9.08,8.17
		C8.97,8.13,8.87,8.06,8.77,7.99c0-0.01,0-0.01,0-0.02C8.84,7.96,8.91,7.94,8.99,7.93z M8.78,9.38c0,0-0.01-0.01-0.01-0.01
		C8.8,9.3,8.83,9.22,8.86,9.15c0-0.01,0.01-0.01,0.02-0.01c0.1-0.02,0.2-0.06,0.31-0.06c0.17,0,0.33,0.03,0.5,0.05
		c0.03,0,0.07,0.02,0.1,0.04C9.89,9.23,9.91,9.29,9.9,9.42C9.82,9.38,9.72,9.37,9.66,9.28C9.65,9.26,9.61,9.26,9.59,9.26
		c-0.12,0-0.24,0.01-0.36,0.01c-0.03,0-0.07,0.01-0.09-0.02c-0.01-0.01-0.03,0-0.05,0C8.98,9.27,8.87,9.29,8.78,9.38z M9.34,10.18
		c-0.01-0.05-0.03-0.09-0.03-0.13C9.29,9.99,9.27,9.94,9.19,9.92C9.13,9.91,9.07,9.86,9,9.83C9.09,9.73,9.2,9.75,9.25,9.85
		C9.26,9.89,9.28,9.9,9.32,9.9c0.05,0,0.07,0.02,0.09,0.07C9.44,10.08,9.43,10.11,9.34,10.18z M10.09,9.88
		c-0.02,0.06-0.04,0.12-0.06,0.19C10,10,9.98,9.94,9.95,9.89c-0.03-0.06-0.06-0.1-0.13-0.11c-0.01,0-0.03-0.02-0.03-0.03
		c-0.03-0.1-0.1-0.14-0.2-0.15c-0.02,0-0.03,0-0.06-0.01c0.02,0.06,0.13,0.09,0.05,0.18C9.62,9.79,9.64,9.8,9.66,9.82
		c0.1,0.06,0.15,0.16,0.12,0.28c0,0.01-0.01,0.02-0.02,0.03c-0.03,0.02-0.06,0.03-0.1,0.05c0-0.06,0-0.1,0-0.15
		c0-0.04-0.01-0.08-0.03-0.12C9.61,9.86,9.58,9.84,9.52,9.84c-0.03,0-0.07-0.03-0.1-0.05c-0.05-0.05-0.1-0.11-0.15-0.17
		C9.27,9.61,9.25,9.61,9.24,9.61C9.18,9.62,9.12,9.63,9.06,9.64C9.01,9.65,8.97,9.65,8.92,9.66c0.02-0.11,0.1-0.18,0.21-0.2
		C9.2,9.45,9.27,9.44,9.34,9.43c0.11-0.02,0.22,0.01,0.32,0.05c0.07,0.03,0.13,0.05,0.2,0.08c0.07,0.03,0.12,0.08,0.13,0.15
		c0,0.03,0.02,0.04,0.05,0.05C10.11,9.79,10.12,9.8,10.09,9.88z M10.32,9.79c-0.02-0.03-0.03-0.05-0.05-0.06
		c-0.07-0.05-0.06-0.11-0.06-0.18c0.01-0.11-0.03-0.21-0.07-0.31c-0.02-0.06-0.06-0.13-0.04-0.21c0.06,0.07,0.11,0.13,0.17,0.19
		c0.05,0.05,0.04,0.12,0.04,0.18c0.01,0.11,0.01,0.23,0.01,0.34C10.33,9.75,10.33,9.76,10.32,9.79z M10.11,7.27
		c0.05-0.02,0.1-0.04,0.15-0.06c0,0,0.01,0,0.01,0c0.06,0.03,0.12,0.06,0.17,0.09C10.38,7.39,10.17,7.36,10.11,7.27z M10.56,7.65
		c0.01,0,0.01-0.01,0.02-0.01c0.04,0.06,0.08,0.11,0.11,0.17c0.03,0.05,0,0.1-0.07,0.15C10.54,7.9,10.52,7.77,10.56,7.65z
		 M10.84,8.83c-0.03,0.09-0.06,0.19-0.09,0.28c0,0-0.01,0-0.01,0c-0.01-0.04-0.01-0.08-0.02-0.12c-0.01-0.04-0.03-0.08-0.06-0.12
		c-0.02-0.03-0.03-0.04,0-0.07c0.02-0.02,0.01-0.05-0.01-0.06c-0.02-0.02-0.04-0.03-0.06-0.05c-0.05-0.05-0.06-0.1-0.02-0.16
		c0.03-0.05,0.06-0.09,0.09-0.14c0.06,0.03,0.1,0.12,0.08,0.21c0,0.01,0,0.01,0,0.01c-0.02,0.09-0.02,0.09,0.06,0.13
		C10.83,8.77,10.85,8.8,10.84,8.83z M10.96,8.29c-0.04,0.08-0.08,0.09-0.13,0.02c-0.1-0.12-0.1-0.24-0.01-0.36
		C10.87,7.97,10.9,8,10.89,8.06c0,0.04,0.01,0.07,0.04,0.1C10.97,8.19,10.99,8.24,10.96,8.29z M11.28,9.1
		c-0.04,0.07-0.08,0.13-0.12,0.2c0,0-0.01-0.01-0.01-0.01c0-0.06,0.01-0.13,0.01-0.19c0-0.05-0.01-0.08-0.07-0.08
		c-0.09-0.01-0.09-0.01-0.07-0.1c0.01-0.09,0.02-0.17-0.04-0.25c-0.03-0.04,0-0.09,0.03-0.12c0.04-0.04,0.1-0.08,0.15-0.12
		c0.01,0.05,0.01,0.1,0.01,0.14c0.01,0.07,0.02,0.14,0.02,0.21c0,0.05,0,0.1-0.01,0.15c-0.01,0.03,0,0.05,0.03,0.06
		C11.31,8.99,11.32,9.02,11.28,9.1z M11.48,8.48c-0.01,0.12-0.02,0.24-0.02,0.36c-0.05,0-0.06-0.03-0.06-0.06
		c-0.02-0.23-0.11-0.45-0.21-0.66c-0.04-0.08-0.07-0.16-0.12-0.23c-0.02-0.04-0.05-0.06-0.09-0.09c-0.03-0.03-0.07-0.05-0.1-0.07
		c0-0.01,0-0.01,0.01-0.02c0.08,0,0.18-0.01,0.24,0.06c0.06,0.07,0.11,0.14,0.19,0.18c0.02,0.01,0.02,0.03,0.03,0.05
		c0.03,0.06,0.06,0.12,0.1,0.19c-0.03,0.03-0.06,0.07-0.1,0.12c0.03,0.02,0.05,0.03,0.07,0.05C11.46,8.39,11.49,8.43,11.48,8.48z
		 M11.14,7.43c0-0.01,0.01-0.01,0.01-0.02c0.03,0.01,0.07,0.02,0.1,0.04c0.07,0.05,0.14,0.11,0.22,0.16c0.1,0.06,0.13,0.15,0.1,0.27
		C11.38,7.77,11.28,7.59,11.14,7.43z M11.73,8.61c-0.05-0.11-0.1-0.21-0.15-0.32c-0.02-0.04-0.01-0.06,0.04-0.06
		c0.04,0,0.07,0.01,0.09,0.05C11.79,8.39,11.76,8.49,11.73,8.61z M13.13,8.14c-0.11,0.01-0.2,0-0.28-0.06
		C12.82,8.07,12.8,8.03,12.79,8c-0.02-0.07-0.07-0.09-0.13-0.05c-0.05,0.04-0.09,0.04-0.14,0.02c-0.03-0.01-0.05,0-0.05,0.03
		c-0.01,0.07-0.06,0.11-0.13,0.12c-0.01,0-0.02,0-0.03,0c-0.05-0.01-0.09-0.01-0.14-0.02c0-0.06-0.01-0.12,0-0.19
		c0-0.01,0.02-0.02,0.03-0.02c0.09,0,0.17-0.02,0.25-0.06c0.05-0.03,0.1-0.02,0.15,0c0.04,0.01,0.09,0.02,0.13,0.02
		c0.02,0,0.03,0,0.05-0.01c0.04-0.03,0.08-0.03,0.12-0.02c0.08,0.03,0.15,0.07,0.18,0.16C13.09,8.04,13.11,8.09,13.13,8.14z
		 M12.93,8.59c-0.06-0.02-0.12-0.04-0.17-0.06c-0.02-0.01-0.03-0.04-0.03-0.06c-0.01-0.04-0.03-0.07-0.07-0.08
		c-0.08-0.02-0.16,0-0.24,0.03c-0.09,0.03-0.09,0.03-0.13-0.05c-0.01-0.03-0.02-0.05-0.03-0.08c0.09-0.04,0.18-0.06,0.28-0.06
		c0.07,0,0.15,0.01,0.22,0.02c0.02,0,0.04,0.03,0.06,0.05c0.02,0.03,0.03,0.06,0.05,0.08C12.91,8.43,12.94,8.49,12.93,8.59z
		 M12.67,7.4c0.03,0.06,0.05,0.06,0.1,0.04c0.12-0.04,0.17-0.03,0.23,0.08c0.03,0.05,0.04,0.11,0.07,0.16c0,0-0.01,0.01-0.01,0.01
		C13.03,7.69,13.02,7.69,13,7.68c-0.13-0.07-0.27-0.11-0.41-0.13c-0.16-0.02-0.29,0.06-0.42,0.14c-0.02,0.01-0.03,0.02-0.05,0.03
		c-0.01-0.05-0.02-0.1-0.03-0.15c0-0.02,0-0.03,0.02-0.05c0.03-0.02,0.06-0.05,0.09-0.07c0.03-0.02,0.06-0.04,0.09-0.05
		c0.1-0.02,0.19-0.01,0.29-0.05C12.62,7.35,12.65,7.37,12.67,7.4z M12.11,7.2c0.05-0.05,0.11-0.09,0.17-0.12
		c0.1-0.05,0.26,0.02,0.3,0.12c0.01,0.02,0.01,0.03,0.01,0.06c-0.05,0-0.1-0.01-0.14-0.01c-0.17-0.01-0.22,0.01-0.35,0.12
		C12.06,7.32,12.06,7.24,12.11,7.2z M12.02,6.89c0-0.1,0.09-0.21,0.19-0.23c0.06-0.02,0.1,0,0.13,0.06
		c0.01,0.02,0.04,0.04,0.06,0.04c0.14,0.02,0.17,0.04,0.2,0.18c0,0.01,0,0.01,0,0.03c-0.05-0.02-0.09-0.03-0.12-0.05
		c-0.15-0.08-0.29-0.05-0.43,0.03c-0.01,0-0.01,0.01-0.03,0.01C12.03,6.94,12.02,6.92,12.02,6.89z M12.55,9.7
		c-0.01,0.01-0.03,0.01-0.05,0c-0.07-0.01-0.14-0.03-0.21-0.05c-0.01,0-0.03-0.02-0.04-0.03c-0.01-0.02-0.01-0.05-0.03-0.08
		c-0.04-0.09-0.09-0.1-0.17-0.04c-0.03,0.02-0.06,0.04-0.08,0.05c0-0.01-0.01-0.01-0.01-0.02C12,9.5,12.04,9.47,12.07,9.43
		c0.03-0.03,0.05-0.06,0.08-0.09c0.02-0.03,0.04-0.03,0.07-0.01c0.04,0.02,0.08,0.04,0.12,0.06c0,0.02,0,0.05-0.01,0.07
		c-0.01,0.03,0,0.05,0.03,0.04c0.07-0.01,0.11,0.04,0.17,0.07c0.02,0.01,0.03,0.04,0.03,0.06C12.58,9.66,12.57,9.68,12.55,9.7z
		 M12.74,9.43c0,0.01-0.03,0.02-0.04,0.01c-0.06-0.02-0.09-0.07-0.11-0.13C12.55,9.2,12.5,9.17,12.38,9.2
		c-0.04,0.01-0.07,0.02-0.11,0.02c-0.01,0-0.03-0.01-0.04-0.02c-0.03-0.06,0-0.13,0.04-0.17c0.02-0.03,0.09-0.02,0.14-0.02
		c0.1-0.01,0.18,0.05,0.26,0.07c0.01,0,0.01,0,0.02,0.01c0.03,0.06,0.06,0.12,0.09,0.18C12.76,9.33,12.75,9.38,12.74,9.43z
		 M12.83,9.02c0,0-0.01,0.01-0.01,0.01C12.8,9.01,12.77,9,12.76,8.98c-0.02-0.03-0.03-0.07-0.05-0.1c-0.03-0.06-0.07-0.1-0.14-0.12
		C12.5,8.74,12.45,8.74,12.4,8.8c-0.02,0.03-0.06,0.05-0.09,0.07c-0.01,0-0.01-0.01-0.02-0.01c0.01-0.07,0.02-0.14,0.04-0.21
		c0.03-0.1,0.13-0.12,0.21-0.05c0.07,0.06,0.16,0.1,0.25,0.12c0.01,0,0.03,0.02,0.03,0.03C12.84,8.84,12.83,8.93,12.83,9.02z
		 M13.16,9.84c-0.02,0.02-0.03,0.05-0.04,0.07c-0.06-0.07-0.11-0.14-0.16-0.21c-0.06-0.08-0.05-0.15,0.02-0.22
		c0.01-0.01,0.03,0,0.04,0c0.07,0.05,0.13,0.11,0.11,0.22c0,0.02,0.01,0.05,0.02,0.07C13.18,9.79,13.18,9.81,13.16,9.84z
		 M13.25,9.55c-0.04-0.06-0.08-0.12-0.11-0.17c0,0,0-0.01,0-0.01c0.03-0.08,0.06-0.16,0.09-0.24C13.34,9.22,13.35,9.42,13.25,9.55z"
		/>
	<path class="st38" d="M8.01,9.85c-0.01,0-0.01,0-0.02,0c-0.05,0.01-0.1,0.02-0.15,0.03c-0.05,0.01-0.1,0.09-0.09,0.14
		C7.77,10.01,7.79,10,7.81,10c0.01,0,0.03,0,0.04,0c0.05,0.04,0.05,0.1,0,0.14c-0.03,0.02-0.06,0.04-0.09,0.05
		c-0.03,0.01-0.06,0.03-0.05,0.07c0.01,0.06,0.01,0.13,0.04,0.18c0.03,0.08,0.07,0.16,0.11,0.23c0,0.01,0.01,0.02,0.02,0.02
		c0.07,0,0.14,0,0.21,0C7.98,10.41,7.93,10.14,8.01,9.85z"/>
	<path class="st38" d="M8.28,10.02C8.25,9.99,8.24,10,8.22,10.02c-0.04,0.05-0.07,0.11-0.06,0.18c0.02,0.14,0.05,0.28,0.07,0.42
		c0.01,0.06,0.03,0.09,0.09,0.07c0.09,0,0.09,0,0.09-0.08c0-0.14,0.01-0.28,0.02-0.41c0-0.01,0-0.03-0.01-0.04
		C8.38,10.11,8.33,10.07,8.28,10.02z"/>
	<path class="st38" d="M8.86,10.19c0.01-0.02,0-0.05-0.02-0.08c-0.02-0.03-0.1-0.05-0.15-0.03c-0.06,0.02-0.1,0.06-0.1,0.11
		c-0.01,0.09-0.01,0.18-0.02,0.27c0,0.07-0.01,0.15-0.01,0.22c0.11,0.02,0.11,0.02,0.15-0.07c0.03-0.07,0.06-0.15,0.09-0.22
		C8.82,10.32,8.84,10.26,8.86,10.19z"/>
	<path class="st38" d="M8.59,4.34C8.7,4.41,8.8,4.5,8.86,4.62c0.06,0.11,0.12,0.01,0.17,0.02c0.02,0,0.04-0.03,0.06-0.04
		c0.01,0,0.01-0.02,0.01-0.02C9.1,4.53,9.11,4.49,9.11,4.45c0-0.15-0.06-0.25-0.18-0.33C8.8,4.03,8.8,4.03,8.66,4.12
		c-0.06,0.04-0.1,0.1-0.1,0.17C8.57,4.31,8.58,4.33,8.59,4.34z"/>
	<path class="st38" d="M7.12,5.05c0.02,0.06,0.11,0.12,0.16,0.1c0.05-0.01,0.1-0.02,0.15-0.04c0,0.02,0.01,0.04,0.01,0.05
		c0,0.05-0.01,0.1-0.01,0.16c0,0.12-0.05,0.2-0.18,0.23C7.22,5.56,7.18,5.58,7.18,5.6C7.16,5.65,7.16,5.71,7.15,5.77
		c0,0.01,0.02,0.02,0.03,0.02C7.24,5.76,7.3,5.73,7.36,5.7c0,0,0.01-0.01,0.01-0.02C7.4,5.65,7.44,5.6,7.47,5.56
		C7.48,5.55,7.5,5.53,7.51,5.51c0.02-0.13,0.04-0.26,0.06-0.39c0-0.04,0-0.07,0-0.11c0-0.05-0.06-0.11-0.11-0.12
		c-0.15,0-0.31,0-0.47,0C7,4.95,7.02,4.99,7.07,5C7.1,5.01,7.11,5.02,7.12,5.05z"/>
	<path class="st38" d="M8.29,4.91C8.26,4.92,8.23,4.94,8.2,4.96C8.17,4.99,8.13,5.01,8.13,5.05c0.01,0.14,0.02,0.29,0.03,0.43
		c0,0.03,0.02,0.04,0.04,0.05c0.04,0.02,0.1,0.06,0.1,0.09c0.02,0.08,0.07,0.1,0.13,0.13C8.46,5.77,8.49,5.78,8.52,5.8
		c0.04,0.03,0.06,0.02,0.07-0.02C8.6,5.76,8.6,5.75,8.61,5.73c0.02-0.04,0-0.07-0.03-0.08C8.54,5.63,8.5,5.62,8.47,5.6
		C8.44,5.58,8.39,5.56,8.39,5.52C8.38,5.47,8.35,5.45,8.3,5.44C8.26,5.44,8.25,5.41,8.25,5.37c0-0.08-0.01-0.16-0.02-0.24
		c0-0.01,0-0.02,0.01-0.04c0,0,0.01-0.01,0.01-0.01C8.3,5.18,8.37,5.17,8.45,5.17c0.07-0.01,0.13-0.03,0.15-0.11
		C8.6,5.02,8.62,5.01,8.66,5C8.68,5,8.7,4.98,8.73,4.97c0,0,0-0.01,0-0.01c-0.01,0-0.02-0.01-0.04-0.01
		C8.58,4.93,8.48,4.92,8.37,4.91C8.34,4.9,8.32,4.9,8.29,4.91z"/>
	<path class="st38" d="M7.26,4.33C7.27,4.33,7.28,4.3,7.28,4.28c-0.02-0.06-0.06-0.1-0.11-0.13C7.11,4.12,7.05,4.09,6.99,4.06
		C6.91,4.02,6.85,4.03,6.78,4.09C6.7,4.16,6.68,4.26,6.67,4.36C6.66,4.43,6.7,4.48,6.77,4.49c0.05,0.01,0.1,0.03,0.16,0.05
		c0.04-0.03,0.1-0.07,0.16-0.11C7.14,4.4,7.2,4.37,7.26,4.33z"/>
	<path class="st38" d="M7.57,4.73c0.01,0,0.02,0,0.03-0.01C7.63,4.66,7.68,4.6,7.72,4.54C7.58,4.53,7.38,4.63,7.38,4.73
		C7.44,4.73,7.5,4.73,7.57,4.73z"/>
	<path class="st38" d="M8.17,4.62c0.01,0.02,0.01,0.04,0.02,0.06C8.21,4.7,8.23,4.72,8.25,4.72c0.05,0.01,0.1,0,0.17,0
		C8.4,4.7,8.4,4.68,8.38,4.67c-0.06,0-0.08-0.04-0.11-0.09C8.26,4.57,8.24,4.56,8.22,4.55c-0.03-0.01-0.07-0.01-0.1-0.01
		c-0.02,0-0.04,0.01-0.06,0.01c0,0,0,0.01,0,0.01C8.11,4.56,8.16,4.57,8.17,4.62z"/>
	<path class="st38" d="M7.16,6.03c0.01,0.03,0.01,0.06,0.03,0.07C7.2,6.12,7.23,6.14,7.24,6.13c0.05-0.02,0.1-0.05,0.16-0.08
		C7.32,6.01,7.25,6.07,7.16,6.03z"/>
	<path class="st38" d="M8.44,6.08c-0.05-0.01-0.11,0-0.16,0c0,0.01,0,0.01,0,0.02C8.34,6.11,8.4,6.14,8.47,6.16
		C8.46,6.12,8.5,6.08,8.44,6.08z"/>
</g>
<path class="st39" d="M5.9,11.62h1.49l3.4,3.61v-2.78c0-0.3-0.04-0.48-0.12-0.56c-0.1-0.1-0.26-0.15-0.48-0.15H10v-0.13h1.95v0.13
	h-0.2c-0.24,0-0.41,0.06-0.51,0.19c-0.06,0.08-0.09,0.25-0.09,0.52v4.06H11l-3.65-3.88v2.96c0,0.3,0.04,0.48,0.11,0.56
	c0.1,0.1,0.27,0.15,0.48,0.15h0.2v0.13H6.2V16.3h0.2c0.24,0,0.41-0.06,0.51-0.19c0.06-0.08,0.09-0.25,0.09-0.52v-3.35
	c-0.16-0.16-0.28-0.27-0.37-0.32c-0.08-0.05-0.2-0.1-0.37-0.15c-0.08-0.02-0.2-0.03-0.36-0.03V11.62z M5.27,16.3v0.13H2.9V16.3h0.2
	c0.23,0,0.4-0.06,0.5-0.17c0.07-0.08,0.1-0.26,0.1-0.55v-3.11c0-0.24-0.02-0.4-0.05-0.48c-0.03-0.06-0.08-0.11-0.17-0.15
	c-0.12-0.06-0.25-0.08-0.38-0.08H2.9v-0.13h2.37v0.13h-0.2c-0.23,0-0.39,0.06-0.49,0.17c-0.07,0.08-0.1,0.26-0.1,0.55v3.11
	c0,0.24,0.02,0.4,0.05,0.48c0.03,0.06,0.08,0.11,0.17,0.15c0.12,0.06,0.24,0.08,0.37,0.08H5.27z M16.73,11.51l0.14,1.52h-0.15
	c-0.14-0.38-0.33-0.66-0.56-0.85c-0.33-0.27-0.75-0.41-1.27-0.41c-0.7,0-1.24,0.24-1.6,0.73c-0.31,0.41-0.46,0.9-0.46,1.46
	c0,0.46,0.1,0.88,0.31,1.25c0.2,0.38,0.47,0.65,0.8,0.83c0.33,0.18,0.67,0.26,1.02,0.26c0.2,0,0.4-0.02,0.59-0.07
	c0.19-0.04,0.37-0.11,0.55-0.2v-1.4c0-0.24-0.02-0.4-0.06-0.47c-0.04-0.08-0.11-0.13-0.2-0.17c-0.09-0.04-0.25-0.06-0.47-0.06V13.8
	h2.14v0.13h-0.1c-0.21,0-0.36,0.06-0.44,0.19c-0.05,0.09-0.08,0.26-0.08,0.52v1.48c-0.31,0.15-0.62,0.26-0.93,0.32
	c-0.31,0.07-0.64,0.1-1.02,0.1c-1.07,0-1.88-0.3-2.43-0.89c-0.42-0.45-0.62-0.96-0.62-1.55c0-0.42,0.12-0.83,0.35-1.22
	c0.28-0.46,0.66-0.82,1.14-1.06c0.41-0.21,0.88-0.31,1.44-0.31c0.2,0,0.38,0.01,0.55,0.04c0.16,0.03,0.4,0.09,0.7,0.19
	c0.15,0.05,0.26,0.08,0.31,0.08c0.05,0,0.09-0.02,0.13-0.06c0.04-0.04,0.06-0.12,0.07-0.24H16.73z"/>
</svg>
