<?xml version="1.0" encoding="utf-8"?>
<!-- Generator: Adobe Illustrator 23.0.0, SVG Export Plug-In . SVG Version: 6.00 Build 0)  -->
<svg version="1.1" id="Calque_1" xmlns="http://www.w3.org/2000/svg" xmlns:xlink="http://www.w3.org/1999/xlink" x="0px" y="0px"
	 viewBox="0 0 20 20" style="enable-background:new 0 0 20 20;" xml:space="preserve">
<style type="text/css">
	.st0{clip-path:url(#SVGID_2_);}
	.st1{fill-rule:evenodd;clip-rule:evenodd;fill:#2F9B46;}
	.st2{fill-rule:evenodd;clip-rule:evenodd;fill:#60B54D;}
	.st3{fill-rule:evenodd;clip-rule:evenodd;fill:#89CC53;}
	.st4{fill-rule:evenodd;clip-rule:evenodd;fill:#3CB8AD;}
	.st5{fill-rule:evenodd;clip-rule:evenodd;fill:#3394D7;}
	.st6{fill:none;stroke:#3394D7;stroke-width:0.216;stroke-miterlimit:22.9256;}
	.st7{fill-rule:evenodd;clip-rule:evenodd;fill:#2772BC;}
	.st8{fill-rule:evenodd;clip-rule:evenodd;fill:#1B5B83;}
	.st9{fill-rule:evenodd;clip-rule:evenodd;fill:#993233;}
	.st10{fill-rule:evenodd;clip-rule:evenodd;fill:#E13030;}
	.st11{fill-rule:evenodd;clip-rule:evenodd;fill:#F28824;}
	.st12{fill-rule:evenodd;clip-rule:evenodd;fill:#F5C836;}
	.st13{fill-rule:evenodd;clip-rule:evenodd;fill:#238647;}
	.st14{fill-rule:evenodd;clip-rule:evenodd;fill:#EDEDED;}
	.st15{clip-path:url(#SVGID_4_);fill-rule:evenodd;clip-rule:evenodd;fill:#2F9B46;}
	.st16{clip-path:url(#SVGID_4_);fill-rule:evenodd;clip-rule:evenodd;fill:#60B54D;}
	.st17{clip-path:url(#SVGID_4_);fill-rule:evenodd;clip-rule:evenodd;fill:#89CC53;}
	.st18{clip-path:url(#SVGID_4_);fill-rule:evenodd;clip-rule:evenodd;fill:#3CB8AD;}
	.st19{clip-path:url(#SVGID_4_);fill-rule:evenodd;clip-rule:evenodd;fill:#3394D7;}
	.st20{clip-path:url(#SVGID_4_);fill:none;stroke:#3394D7;stroke-width:0.216;stroke-miterlimit:22.9256;}
	.st21{clip-path:url(#SVGID_4_);fill-rule:evenodd;clip-rule:evenodd;fill:#2772BC;}
	.st22{clip-path:url(#SVGID_4_);fill-rule:evenodd;clip-rule:evenodd;fill:#1B5B83;}
	.st23{clip-path:url(#SVGID_4_);fill-rule:evenodd;clip-rule:evenodd;fill:#993233;}
	.st24{clip-path:url(#SVGID_4_);fill-rule:evenodd;clip-rule:evenodd;fill:#E13030;}
	.st25{clip-path:url(#SVGID_4_);fill-rule:evenodd;clip-rule:evenodd;fill:#F28824;}
	.st26{clip-path:url(#SVGID_4_);fill-rule:evenodd;clip-rule:evenodd;fill:#F5C836;}
	.st27{clip-path:url(#SVGID_4_);fill-rule:evenodd;clip-rule:evenodd;fill:#238647;}
	.st28{fill-rule:evenodd;clip-rule:evenodd;fill:#E1000E;}
	.st29{fill-rule:evenodd;clip-rule:evenodd;fill:#FFFFFF;}
	.st30{fill-rule:evenodd;clip-rule:evenodd;}
	.st31{fill-rule:evenodd;clip-rule:evenodd;fill:#009B89;}
	.st32{fill-rule:evenodd;clip-rule:evenodd;fill:#F9B800;}
	.st33{fill-rule:evenodd;clip-rule:evenodd;fill:#004D4D;}
	.st34{fill-rule:evenodd;clip-rule:evenodd;fill:#FF422E;}
	.st35{fill-rule:evenodd;clip-rule:evenodd;fill:#FF6500;}
	.st36{clip-path:url(#SVGID_6_);}
	.st37{fill-rule:evenodd;clip-rule:evenodd;fill:#FFFEFE;}
	.st38{fill:#FF6500;}
	.st39{fill:#071A57;}
	.st40{fill-rule:evenodd;clip-rule:evenodd;fill:#003C5D;}
	.st41{fill-rule:evenodd;clip-rule:evenodd;fill:#2D8F37;}
	.st42{fill-rule:evenodd;clip-rule:evenodd;fill:#000FAA;}
	.st43{clip-path:url(#SVGID_8_);}
	.st44{clip-path:url(#SVGID_10_);fill-rule:evenodd;clip-rule:evenodd;fill:#F76401;}
	.st45{clip-path:url(#SVGID_12_);}
	.st46{clip-path:url(#SVGID_14_);fill:url(#SVGID_15_);}
	.st47{clip-path:url(#SVGID_12_);fill-rule:evenodd;clip-rule:evenodd;fill:#F7A8A5;}
	.st48{clip-path:url(#SVGID_12_);fill-rule:evenodd;clip-rule:evenodd;fill:#FFFFFF;}
	.st49{clip-path:url(#SVGID_17_);fill:url(#SVGID_18_);}
	.st50{clip-path:url(#SVGID_20_);fill:url(#SVGID_21_);}
	.st51{clip-path:url(#SVGID_12_);fill-rule:evenodd;clip-rule:evenodd;fill:#283C93;}
	.st52{clip-path:url(#SVGID_12_);fill-rule:evenodd;clip-rule:evenodd;fill:#EE412C;}
	.st53{clip-path:url(#SVGID_23_);fill:url(#SVGID_24_);}
	.st54{clip-path:url(#SVGID_12_);fill-rule:evenodd;clip-rule:evenodd;fill:#CC3829;}
	.st55{clip-path:url(#SVGID_12_);fill-rule:evenodd;clip-rule:evenodd;fill:#F48E97;}
	.st56{clip-path:url(#SVGID_26_);fill:url(#SVGID_27_);}
	.st57{clip-path:url(#SVGID_12_);fill-rule:evenodd;clip-rule:evenodd;fill:#EE4633;}
	.st58{clip-path:url(#SVGID_12_);fill-rule:evenodd;clip-rule:evenodd;fill:#FDDC0D;}
	.st59{clip-path:url(#SVGID_29_);fill:url(#SVGID_30_);}
	.st60{clip-path:url(#SVGID_32_);fill:url(#SVGID_33_);}
	.st61{clip-path:url(#SVGID_35_);fill:url(#SVGID_36_);}
	.st62{clip-path:url(#SVGID_38_);fill:url(#SVGID_39_);}
	.st63{fill-rule:evenodd;clip-rule:evenodd;fill:#562772;}
	.st64{clip-path:url(#SVGID_41_);}
	.st65{clip-path:url(#SVGID_43_);fill:url(#SVGID_44_);}
	.st66{clip-path:url(#SVGID_41_);fill-rule:evenodd;clip-rule:evenodd;fill:#F7A8A5;}
	.st67{clip-path:url(#SVGID_41_);fill-rule:evenodd;clip-rule:evenodd;fill:#FFFFFF;}
	.st68{clip-path:url(#SVGID_46_);fill:url(#SVGID_47_);}
	.st69{clip-path:url(#SVGID_49_);fill:url(#SVGID_50_);}
	.st70{clip-path:url(#SVGID_41_);fill-rule:evenodd;clip-rule:evenodd;fill:#283C93;}
	.st71{clip-path:url(#SVGID_41_);fill-rule:evenodd;clip-rule:evenodd;fill:#EE412C;}
	.st72{clip-path:url(#SVGID_52_);fill:url(#SVGID_53_);}
	.st73{clip-path:url(#SVGID_41_);fill-rule:evenodd;clip-rule:evenodd;fill:#CC3829;}
	.st74{clip-path:url(#SVGID_41_);fill-rule:evenodd;clip-rule:evenodd;fill:#F48E97;}
	.st75{clip-path:url(#SVGID_55_);fill:url(#SVGID_56_);}
	.st76{clip-path:url(#SVGID_41_);fill-rule:evenodd;clip-rule:evenodd;fill:#EE4633;}
	.st77{clip-path:url(#SVGID_41_);fill-rule:evenodd;clip-rule:evenodd;fill:#FDDC0D;}
	.st78{clip-path:url(#SVGID_58_);fill:url(#SVGID_59_);}
	.st79{clip-path:url(#SVGID_61_);fill:url(#SVGID_62_);}
	.st80{clip-path:url(#SVGID_64_);fill:url(#SVGID_65_);}
	.st81{clip-path:url(#SVGID_67_);fill:url(#SVGID_68_);}
	.st82{fill:#00937B;}
	.st83{fill-rule:evenodd;clip-rule:evenodd;fill:#00937B;}
	.st84{fill:#FFFFFF;}
</style>
<path class="st40" d="M19.08,20h-18c-0.55,0-1-0.45-1-1V1c0-0.55,0.45-1,1-1l18,0c0.55,0,1,0.45,1,1v18
	C20.08,19.55,19.63,20,19.08,20z"/>
<g>
	<path class="st29" d="M17.77,9.72c-0.13-0.27-0.38-0.55-0.64-0.7C17.11,9,17.09,8.99,17.06,8.97c-0.52-0.28-1.25-0.28-1.75,0.07
		c-0.04,0.03-0.07,0.05-0.1,0.08c0-0.1,0.01-0.17,0.01-0.26v-1.5h-1.03C14.07,7.35,14,7.48,14,7.6v4.72c0,0.09,0.04,0.19,0.12,0.23
		c0.06,0.03,0.25,0.01,0.34,0.01c0.24,0,0.47,0,0.71,0l-0.01-0.29c0.07,0.04,0.1,0.09,0.21,0.15c0.06,0.03,0.12,0.07,0.18,0.09
		c0.03,0.01,0.04,0.02,0.07,0.03c0.43,0.16,0.93,0.13,1.36-0.05c0.17-0.07,0.43-0.25,0.54-0.4c0.07-0.09,0.1-0.11,0.17-0.23
		c0.08-0.13,0.09-0.14,0.15-0.3c0.09-0.2,0.15-0.53,0.15-0.74C17.99,10.35,17.96,10.13,17.77,9.72z M16.75,11.07
		c-0.08,0.23-0.21,0.39-0.41,0.49c-0.04,0.02-0.12,0.05-0.16,0.06c-0.05,0.01-0.14,0.03-0.21,0.03c-0.3,0-0.57-0.15-0.72-0.41
		c-0.18-0.3-0.17-0.69-0.05-1.02c0.01-0.03,0.02-0.05,0.04-0.07c0.12-0.25,0.41-0.43,0.7-0.43c0.29,0,0.48,0.09,0.66,0.29
		c0.06,0.07,0.12,0.19,0.15,0.29C16.83,10.54,16.83,10.83,16.75,11.07z"/>
	<path class="st29" d="M5.04,11.26l-0.28-0.44c-0.03-0.05-0.06-0.1-0.09-0.15l-0.28-0.44c0.03-0.02,0.06-0.05,0.09-0.08L5.2,9.41
		C5.29,9.3,5.49,9.13,5.54,9.06c0.02-0.02,0.02-0.03,0.04-0.05c0.04-0.04,0.14-0.13,0.17-0.18c-0.31,0-0.62,0-0.93,0
		c-0.53,0-0.41-0.03-0.69,0.25C4.1,9.12,4.1,9.12,4.08,9.15C4.06,9.17,4.04,9.19,4.02,9.21C3.99,9.24,3.99,9.24,3.96,9.27
		C3.95,9.29,3.93,9.31,3.9,9.33L3.45,9.82C3.43,9.84,3.43,9.85,3.4,9.88l-0.17,0.19V7.35H2.22c-0.07,0-0.11,0.02-0.14,0.06
		C2.04,7.45,2.01,7.5,2.01,7.56v4.8c0,0.1,0.07,0.21,0.17,0.21h1.04v-1.11c0-0.03,0.32-0.33,0.33-0.33
		c0.01,0.04,0.73,1.15,0.81,1.29c0.03,0.05,0.06,0.08,0.12,0.11c0.12,0.06,0.26,0.04,0.43,0.04c0.31,0,0.63,0,0.94,0L5.13,11.4
		C5.09,11.36,5.07,11.31,5.04,11.26z"/>
	<path class="st29" d="M9.26,9.13c-0.07-0.09-0.25-0.2-0.34-0.24C8.56,8.74,8.02,8.72,7.66,8.92C7.59,8.95,7.53,8.99,7.47,9.04
		l-0.3,0.34V8.84h-1c-0.13,0-0.21,0.11-0.21,0.24v3.26c0,0.11,0.08,0.23,0.19,0.23h1.03v-1.82c0-0.36,0.07-0.83,0.43-0.94
		c0.22-0.07,0.49-0.05,0.65,0.14c0.02,0.02,0.03,0.04,0.04,0.07c0.09,0.17,0.1,0.35,0.1,0.56c0,0.07,0.01,0.13,0.01,0.2v1.53
		c0,0.1,0,0.12,0.04,0.18c0.03,0.04,0.07,0.08,0.14,0.08h1.01c0.02,0,0.03-0.01,0.03-0.03v-2.06c0-0.42-0.03-0.91-0.28-1.26
		C9.31,9.19,9.29,9.17,9.26,9.13z"/>
	<path class="st29" d="M12.94,9.08c-0.03-0.02-0.03-0.02-0.06-0.04c-0.11-0.07-0.24-0.13-0.37-0.16c-0.53-0.15-1.14-0.11-1.67,0.02
		c-0.14,0.04-0.26,0.08-0.39,0.12c-0.14,0.05-0.27,0.08-0.27,0.24c0,0.07,0.03,0.12,0.06,0.2c0.02,0.06,0.04,0.11,0.07,0.16
		l0.1,0.24c0.01,0.03,0.03,0.06,0.03,0.09l0.24-0.12c0.05-0.02,0.08-0.03,0.13-0.05c0.05-0.02,0.09-0.04,0.14-0.05
		c0.19-0.05,0.39-0.11,0.63-0.11c0.27,0,0.51,0.07,0.65,0.25c0.09,0.12,0.11,0.28,0.11,0.43l-0.21,0.01c-0.17,0-0.47,0.03-0.64,0.03
		c-0.13,0-0.29,0.02-0.41,0.04c-0.3,0.05-0.49,0.12-0.73,0.28c-0.15,0.1-0.28,0.27-0.34,0.44c-0.16,0.43-0.03,0.98,0.33,1.26
		c0.28,0.22,0.6,0.32,0.98,0.32c0.38,0,0.66-0.13,0.92-0.35l0.03-0.02c0.04-0.03,0.06-0.07,0.1-0.1c0,0.06,0.01,0.25,0.03,0.28
		c0.03,0.08,0.1,0.1,0.21,0.1h0.95v-2.18C13.55,9.84,13.38,9.38,12.94,9.08z M12.35,11.52c0,0.05-0.08,0.13-0.12,0.16l-0.01,0.01
		c-0.39,0.35-1.05,0.2-1.05-0.26c0-0.26,0.18-0.38,0.41-0.43c0.1-0.02,0.27-0.03,0.38-0.03l0.39-0.03V11.52z"/>
</g>
</svg>
