<?xml version="1.0" encoding="utf-8"?>
<!-- Generator: Adobe Illustrator 23.0.0, SVG Export Plug-In . SVG Version: 6.00 Build 0)  -->
<svg version="1.1" id="Calque_1" xmlns="http://www.w3.org/2000/svg" xmlns:xlink="http://www.w3.org/1999/xlink" x="0px" y="0px"
	 viewBox="0 0 20 20" style="enable-background:new 0 0 20 20;" xml:space="preserve">
<style type="text/css">
	.st0{clip-path:url(#SVGID_2_);}
	.st1{fill-rule:evenodd;clip-rule:evenodd;fill:#2F9B46;}
	.st2{fill-rule:evenodd;clip-rule:evenodd;fill:#60B54D;}
	.st3{fill-rule:evenodd;clip-rule:evenodd;fill:#89CC53;}
	.st4{fill-rule:evenodd;clip-rule:evenodd;fill:#3CB8AD;}
	.st5{fill-rule:evenodd;clip-rule:evenodd;fill:#3394D7;}
	.st6{fill:none;stroke:#3394D7;stroke-width:0.216;stroke-miterlimit:22.9256;}
	.st7{fill-rule:evenodd;clip-rule:evenodd;fill:#2772BC;}
	.st8{fill-rule:evenodd;clip-rule:evenodd;fill:#1B5B83;}
	.st9{fill-rule:evenodd;clip-rule:evenodd;fill:#993233;}
	.st10{fill-rule:evenodd;clip-rule:evenodd;fill:#E13030;}
	.st11{fill-rule:evenodd;clip-rule:evenodd;fill:#F28824;}
	.st12{fill-rule:evenodd;clip-rule:evenodd;fill:#F5C836;}
	.st13{fill-rule:evenodd;clip-rule:evenodd;fill:#238647;}
	.st14{fill-rule:evenodd;clip-rule:evenodd;fill:#EDEDED;}
	.st15{clip-path:url(#SVGID_4_);fill-rule:evenodd;clip-rule:evenodd;fill:#2F9B46;}
	.st16{clip-path:url(#SVGID_4_);fill-rule:evenodd;clip-rule:evenodd;fill:#60B54D;}
	.st17{clip-path:url(#SVGID_4_);fill-rule:evenodd;clip-rule:evenodd;fill:#89CC53;}
	.st18{clip-path:url(#SVGID_4_);fill-rule:evenodd;clip-rule:evenodd;fill:#3CB8AD;}
	.st19{clip-path:url(#SVGID_4_);fill-rule:evenodd;clip-rule:evenodd;fill:#3394D7;}
	.st20{clip-path:url(#SVGID_4_);fill:none;stroke:#3394D7;stroke-width:0.216;stroke-miterlimit:22.9256;}
	.st21{clip-path:url(#SVGID_4_);fill-rule:evenodd;clip-rule:evenodd;fill:#2772BC;}
	.st22{clip-path:url(#SVGID_4_);fill-rule:evenodd;clip-rule:evenodd;fill:#1B5B83;}
	.st23{clip-path:url(#SVGID_4_);fill-rule:evenodd;clip-rule:evenodd;fill:#993233;}
	.st24{clip-path:url(#SVGID_4_);fill-rule:evenodd;clip-rule:evenodd;fill:#E13030;}
	.st25{clip-path:url(#SVGID_4_);fill-rule:evenodd;clip-rule:evenodd;fill:#F28824;}
	.st26{clip-path:url(#SVGID_4_);fill-rule:evenodd;clip-rule:evenodd;fill:#F5C836;}
	.st27{clip-path:url(#SVGID_4_);fill-rule:evenodd;clip-rule:evenodd;fill:#238647;}
	.st28{fill-rule:evenodd;clip-rule:evenodd;fill:#E1000E;}
	.st29{fill-rule:evenodd;clip-rule:evenodd;fill:#FFFFFF;}
	.st30{fill-rule:evenodd;clip-rule:evenodd;}
	.st31{fill-rule:evenodd;clip-rule:evenodd;fill:#009B89;}
	.st32{fill-rule:evenodd;clip-rule:evenodd;fill:#F9B800;}
	.st33{fill-rule:evenodd;clip-rule:evenodd;fill:#004D4D;}
	.st34{fill-rule:evenodd;clip-rule:evenodd;fill:#FF422E;}
	.st35{fill-rule:evenodd;clip-rule:evenodd;fill:#FF6500;}
	.st36{clip-path:url(#SVGID_6_);}
	.st37{fill-rule:evenodd;clip-rule:evenodd;fill:#FFFEFE;}
	.st38{fill:#FF6500;}
	.st39{fill:#071A57;}
	.st40{fill-rule:evenodd;clip-rule:evenodd;fill:#003C5D;}
	.st41{fill-rule:evenodd;clip-rule:evenodd;fill:#2D8F37;}
	.st42{fill-rule:evenodd;clip-rule:evenodd;fill:#000FAA;}
	.st43{clip-path:url(#SVGID_8_);}
	.st44{clip-path:url(#SVGID_10_);fill-rule:evenodd;clip-rule:evenodd;fill:#F76401;}
	.st45{clip-path:url(#SVGID_12_);}
	.st46{clip-path:url(#SVGID_14_);fill:url(#SVGID_15_);}
	.st47{clip-path:url(#SVGID_12_);fill-rule:evenodd;clip-rule:evenodd;fill:#F7A8A5;}
	.st48{clip-path:url(#SVGID_12_);fill-rule:evenodd;clip-rule:evenodd;fill:#FFFFFF;}
	.st49{clip-path:url(#SVGID_17_);fill:url(#SVGID_18_);}
	.st50{clip-path:url(#SVGID_20_);fill:url(#SVGID_21_);}
	.st51{clip-path:url(#SVGID_12_);fill-rule:evenodd;clip-rule:evenodd;fill:#283C93;}
	.st52{clip-path:url(#SVGID_12_);fill-rule:evenodd;clip-rule:evenodd;fill:#EE412C;}
	.st53{clip-path:url(#SVGID_23_);fill:url(#SVGID_24_);}
	.st54{clip-path:url(#SVGID_12_);fill-rule:evenodd;clip-rule:evenodd;fill:#CC3829;}
	.st55{clip-path:url(#SVGID_12_);fill-rule:evenodd;clip-rule:evenodd;fill:#F48E97;}
	.st56{clip-path:url(#SVGID_26_);fill:url(#SVGID_27_);}
	.st57{clip-path:url(#SVGID_12_);fill-rule:evenodd;clip-rule:evenodd;fill:#EE4633;}
	.st58{clip-path:url(#SVGID_12_);fill-rule:evenodd;clip-rule:evenodd;fill:#FDDC0D;}
	.st59{clip-path:url(#SVGID_29_);fill:url(#SVGID_30_);}
	.st60{clip-path:url(#SVGID_32_);fill:url(#SVGID_33_);}
	.st61{clip-path:url(#SVGID_35_);fill:url(#SVGID_36_);}
	.st62{clip-path:url(#SVGID_38_);fill:url(#SVGID_39_);}
	.st63{fill-rule:evenodd;clip-rule:evenodd;fill:#562772;}
	.st64{clip-path:url(#SVGID_41_);}
	.st65{clip-path:url(#SVGID_43_);fill:url(#SVGID_44_);}
	.st66{clip-path:url(#SVGID_41_);fill-rule:evenodd;clip-rule:evenodd;fill:#F7A8A5;}
	.st67{clip-path:url(#SVGID_41_);fill-rule:evenodd;clip-rule:evenodd;fill:#FFFFFF;}
	.st68{clip-path:url(#SVGID_46_);fill:url(#SVGID_47_);}
	.st69{clip-path:url(#SVGID_49_);fill:url(#SVGID_50_);}
	.st70{clip-path:url(#SVGID_41_);fill-rule:evenodd;clip-rule:evenodd;fill:#283C93;}
	.st71{clip-path:url(#SVGID_41_);fill-rule:evenodd;clip-rule:evenodd;fill:#EE412C;}
	.st72{clip-path:url(#SVGID_52_);fill:url(#SVGID_53_);}
	.st73{clip-path:url(#SVGID_41_);fill-rule:evenodd;clip-rule:evenodd;fill:#CC3829;}
	.st74{clip-path:url(#SVGID_41_);fill-rule:evenodd;clip-rule:evenodd;fill:#F48E97;}
	.st75{clip-path:url(#SVGID_55_);fill:url(#SVGID_56_);}
	.st76{clip-path:url(#SVGID_41_);fill-rule:evenodd;clip-rule:evenodd;fill:#EE4633;}
	.st77{clip-path:url(#SVGID_41_);fill-rule:evenodd;clip-rule:evenodd;fill:#FDDC0D;}
	.st78{clip-path:url(#SVGID_58_);fill:url(#SVGID_59_);}
	.st79{clip-path:url(#SVGID_61_);fill:url(#SVGID_62_);}
	.st80{clip-path:url(#SVGID_64_);fill:url(#SVGID_65_);}
	.st81{clip-path:url(#SVGID_67_);fill:url(#SVGID_68_);}
	.st82{fill:#00937B;}
	.st83{fill-rule:evenodd;clip-rule:evenodd;fill:#00937B;}
	.st84{fill:#FFFFFF;}
</style>
<path class="st42" d="M19,20H1c-0.55,0-1-0.45-1-1L0,1c0-0.55,0.45-1,1-1l18,0c0.55,0,1,0.45,1,1v18C20,19.55,19.55,20,19,20z"/>
<path class="st29" d="M3.86,10.29c0.1-0.09,0.37-0.17,0.48-0.49c0.2-0.6-0.11-0.99-0.77-1.02c-0.23-0.01-0.71-0.02-0.93,0
	C2.6,8.99,2.56,9.2,2.52,9.42c-0.04,0.22-0.07,0.43-0.11,0.64c-0.03,0.18-0.22,1.17-0.2,1.27c0.05,0.01,0.54,0.02,0.57-0.01
	c0.05-0.07,0.11-0.74,0.17-0.88l0.32,0c0.12,0.25,0.17,0.64,0.29,0.89l0.62,0C4.17,11.16,3.87,10.47,3.86,10.29 M11.08,9.54
	c0.02-0.32,0.13-0.59,0.15-0.91l-0.56,0l-0.04,0.18c-0.01,0.05-0.02,0.11-0.03,0.16c-0.07,0.37-0.38,2.15-0.4,2.36l0.51,0
	c0.02-0.06,0.03-0.11,0.06-0.17c0.08,0.02,0.14,0.18,0.37,0.21c0.17,0.02,0.35-0.02,0.47-0.1c0.46-0.3,0.58-1.34,0.28-1.69
	c-0.08-0.1-0.22-0.18-0.38-0.18C11.22,9.39,11.26,9.49,11.08,9.54z M11.2,9.87c0.33-0.1,0.31,0.23,0.29,0.47
	c-0.02,0.24-0.07,0.5-0.27,0.56c-0.13,0.03-0.28,0-0.32-0.09c-0.03-0.07,0.01-0.31,0.03-0.38C11,10.07,10.97,9.94,11.2,9.87z
	 M7.33,8.63l-0.57,0C6.71,8.85,6.68,9.07,6.64,9.3l-0.31,1.84c-0.02,0.13,0,0.17,0,0.16c0,0,0,0.01,0.01,0.02l0.47,0
	c0.03-0.04,0.05-0.13,0.07-0.18c0.05,0.03,0.09,0.09,0.16,0.13c0.33,0.21,0.76,0.04,0.94-0.32c0.06-0.11,0.13-0.3,0.15-0.42
	c0.08-0.4,0.05-0.92-0.31-1.1C7.48,9.28,7.24,9.52,7.16,9.54L7.33,8.63z M7.57,10.39c-0.03,0.23-0.07,0.49-0.31,0.51
	c-0.4,0.04-0.27-0.29-0.23-0.52c0.04-0.22,0.04-0.48,0.29-0.53C7.64,9.8,7.6,10.15,7.57,10.39z M16.77,10.01
	c0.01-0.19,0.24-1.3,0.24-1.39l-0.58,0.01c-0.05,0.19-0.07,0.46-0.11,0.67C16.28,9.55,16,11.18,16,11.33l0.55,0
	c0.03-0.1,0.06-0.3,0.07-0.41c0.02-0.15,0.17-0.25,0.23-0.26c0.06,0.1,0.19,0.5,0.24,0.6c0.03,0.06,0.01,0.03,0.05,0.06
	c0.11,0.04,0.45,0.02,0.59,0.01c-0.01-0.14-0.38-0.88-0.46-1.08c0.02-0.06,0.33-0.35,0.39-0.41c0.06-0.06,0.36-0.34,0.39-0.41
	c-0.16,0-0.31,0-0.47,0c-0.24,0-0.2-0.04-0.34,0.11l-0.42,0.45C16.78,10.02,16.83,9.99,16.77,10.01z M12.95,10.02
	c0.03-0.08,0.04-0.13,0.11-0.17c0.09-0.06,0.3-0.09,0.28,0.22c-0.01,0.13-0.03,0.11-0.15,0.11c-0.51-0.01-1.02,0.14-0.99,0.69
	c0.03,0.53,0.73,0.64,0.98,0.33c0.03,0.03,0.01,0,0.03,0.05l0.02,0.08c0.08,0.04,0.44,0.03,0.56,0.02c0.01-0.08-0.02-0.16-0.02-0.25
	c0-0.46,0.35-1.28-0.07-1.54c-0.59-0.36-1.33-0.01-1.31,0.48L12.95,10.02z M12.78,10.89c-0.04-0.31,0.19-0.44,0.48-0.4
	c0.01,0.2-0.07,0.41-0.27,0.45C12.87,10.96,12.85,10.93,12.78,10.89z M5.23,10.01c0.03-0.08,0.07-0.24,0.27-0.2
	c0.15,0.03,0.11,0.24,0.08,0.35c-0.46-0.01-1.09,0.04-1.12,0.63c-0.01,0.27,0.15,0.46,0.35,0.53c0.41,0.14,0.58-0.11,0.67-0.14
	l0.03,0.15l0.56-0.01c-0.01-0.21-0.05-0.19,0-0.52c0.02-0.14,0.05-0.29,0.07-0.45c0.05-0.36,0.1-0.6-0.15-0.81
	c-0.48-0.38-1.41-0.04-1.31,0.47L5.23,10.01z M5.53,10.49c0.01,0.07-0.01,0.13-0.02,0.2c-0.05,0.27-0.35,0.3-0.43,0.22
	C5.01,10.83,5.02,10.45,5.53,10.49z M14.86,9.43c-0.12-0.01-0.43-0.03-0.52,0.01l-0.33,1.89c0.45,0.01,0.55,0.07,0.59-0.1
	c0.06-0.31,0.13-0.83,0.2-1.15c0.02-0.11,0.02-0.1,0.09-0.15c0.05-0.04,0.06-0.06,0.15-0.07c0.38-0.03,0.23,0.38,0.18,0.64
	c-0.02,0.12-0.14,0.72-0.12,0.84l0.55-0.01c0.03-0.05,0.1-0.61,0.12-0.73c0.04-0.23,0.11-0.53,0.07-0.77
	c-0.03-0.22-0.18-0.41-0.42-0.42c-0.14-0.01-0.25,0.01-0.35,0.06c-0.15,0.08-0.17,0.15-0.24,0.17L14.86,9.43z M10.09,10.53
	C10.18,9.96,10,9.43,9.4,9.4c-0.77-0.04-1.11,0.68-1.05,1.28c0.01,0.1,0.08,0.29,0.12,0.36C8.92,11.67,9.96,11.36,10.09,10.53z
	 M9.22,9.87c0.31-0.1,0.35,0.23,0.33,0.47c-0.02,0.22-0.08,0.5-0.28,0.56C8.73,11.06,8.87,9.98,9.22,9.87z M3.03,9.95
	c-0.01-0.18,0.09-0.49,0.1-0.69c0.08-0.02,0.43-0.02,0.5,0.01c0.14,0.05,0.18,0.22,0.14,0.38C3.7,9.97,3.4,9.99,3.03,9.95z"/>
<g>
	<defs>
		<path id="SVGID_7_" d="M19,20H1c-0.55,0-1-0.45-1-1L0,1c0-0.55,0.45-1,1-1l18,0c0.55,0,1,0.45,1,1v18C20,19.55,19.55,20,19,20z"/>
	</defs>
	<clipPath id="SVGID_2_">
		<use xlink:href="#SVGID_7_"  style="overflow:visible;"/>
	</clipPath>
	<g class="st0">
		<defs>
			<path id="SVGID_9_" d="M1.29,5.66h17.43c0.79,0,1.43,0.65,1.43,1.43v12.27c0,0.79-0.65,1.43-1.43,1.43H1.29
				c-0.79,0-1.43-0.65-1.43-1.43V7.09C-0.15,6.3,0.5,5.66,1.29,5.66"/>
		</defs>
		<clipPath id="SVGID_4_">
			<use xlink:href="#SVGID_9_"  style="overflow:visible;"/>
		</clipPath>
		<path style="clip-path:url(#SVGID_4_);fill-rule:evenodd;clip-rule:evenodd;fill:#F76401;" d="M-0.37,17.79
			c0.73-0.28,2.18-0.67,3.71-0.96c1.53-0.29,3.14-0.48,5-0.56c1.87-0.08,4-0.05,5.91,0.19c1.92,0.23,3.62,0.67,4.57,0.91
			c0.95,0.23,1.14,0.27,1.23,0.63c0.1,0.36,0.1,1.05,0.14,1.82c0.04,0.77,0.12,1.63-1.38,2.46c-1.5,0.84-4.59,1.66-8.18,1.99
			c-3.58,0.33-7.66,0.16-9.69-0.51c-2.04-0.68-2.04-1.86-2.04-2.84s0-1.75,0-2.22C-1.1,18.22-1.1,18.06-0.37,17.79"/>
	</g>
</g>
</svg>
