<?xml version="1.0" encoding="utf-8"?>
<!-- Generator: Adobe Illustrator 23.0.0, SVG Export Plug-In . SVG Version: 6.00 Build 0)  -->
<svg version="1.1" id="Calque_1" xmlns="http://www.w3.org/2000/svg" xmlns:xlink="http://www.w3.org/1999/xlink" x="0px" y="0px"
	 viewBox="0 0 20 20" style="enable-background:new 0 0 20 20;" xml:space="preserve">
<style type="text/css">
	.st0{clip-path:url(#SVGID_2_);}
	.st1{fill-rule:evenodd;clip-rule:evenodd;fill:#2F9B46;}
	.st2{fill-rule:evenodd;clip-rule:evenodd;fill:#60B54D;}
	.st3{fill-rule:evenodd;clip-rule:evenodd;fill:#89CC53;}
	.st4{fill-rule:evenodd;clip-rule:evenodd;fill:#3CB8AD;}
	.st5{fill-rule:evenodd;clip-rule:evenodd;fill:#3394D7;}
	.st6{fill:none;stroke:#3394D7;stroke-width:0.216;stroke-miterlimit:22.9256;}
	.st7{fill-rule:evenodd;clip-rule:evenodd;fill:#2772BC;}
	.st8{fill-rule:evenodd;clip-rule:evenodd;fill:#1B5B83;}
	.st9{fill-rule:evenodd;clip-rule:evenodd;fill:#993233;}
	.st10{fill-rule:evenodd;clip-rule:evenodd;fill:#E13030;}
	.st11{fill-rule:evenodd;clip-rule:evenodd;fill:#F28824;}
	.st12{fill-rule:evenodd;clip-rule:evenodd;fill:#F5C836;}
	.st13{fill-rule:evenodd;clip-rule:evenodd;fill:#238647;}
	.st14{fill-rule:evenodd;clip-rule:evenodd;fill:#EDEDED;}
	.st15{clip-path:url(#SVGID_4_);fill-rule:evenodd;clip-rule:evenodd;fill:#2F9B46;}
	.st16{clip-path:url(#SVGID_4_);fill-rule:evenodd;clip-rule:evenodd;fill:#60B54D;}
	.st17{clip-path:url(#SVGID_4_);fill-rule:evenodd;clip-rule:evenodd;fill:#89CC53;}
	.st18{clip-path:url(#SVGID_4_);fill-rule:evenodd;clip-rule:evenodd;fill:#3CB8AD;}
	.st19{clip-path:url(#SVGID_4_);fill-rule:evenodd;clip-rule:evenodd;fill:#3394D7;}
	.st20{clip-path:url(#SVGID_4_);fill:none;stroke:#3394D7;stroke-width:0.216;stroke-miterlimit:22.9256;}
	.st21{clip-path:url(#SVGID_4_);fill-rule:evenodd;clip-rule:evenodd;fill:#2772BC;}
	.st22{clip-path:url(#SVGID_4_);fill-rule:evenodd;clip-rule:evenodd;fill:#1B5B83;}
	.st23{clip-path:url(#SVGID_4_);fill-rule:evenodd;clip-rule:evenodd;fill:#993233;}
	.st24{clip-path:url(#SVGID_4_);fill-rule:evenodd;clip-rule:evenodd;fill:#E13030;}
	.st25{clip-path:url(#SVGID_4_);fill-rule:evenodd;clip-rule:evenodd;fill:#F28824;}
	.st26{clip-path:url(#SVGID_4_);fill-rule:evenodd;clip-rule:evenodd;fill:#F5C836;}
	.st27{clip-path:url(#SVGID_4_);fill-rule:evenodd;clip-rule:evenodd;fill:#238647;}
	.st28{fill-rule:evenodd;clip-rule:evenodd;fill:#E1000E;}
	.st29{fill-rule:evenodd;clip-rule:evenodd;fill:#FFFFFF;}
	.st30{fill-rule:evenodd;clip-rule:evenodd;}
	.st31{fill-rule:evenodd;clip-rule:evenodd;fill:#009B89;}
	.st32{fill-rule:evenodd;clip-rule:evenodd;fill:#F9B800;}
	.st33{fill-rule:evenodd;clip-rule:evenodd;fill:#004D4D;}
	.st34{fill-rule:evenodd;clip-rule:evenodd;fill:#FF422E;}
	.st35{fill-rule:evenodd;clip-rule:evenodd;fill:#FF6500;}
	.st36{clip-path:url(#SVGID_6_);}
	.st37{fill-rule:evenodd;clip-rule:evenodd;fill:#FFFEFE;}
	.st38{fill:#FF6500;}
	.st39{fill:#071A57;}
	.st40{fill-rule:evenodd;clip-rule:evenodd;fill:#003C5D;}
	.st41{fill-rule:evenodd;clip-rule:evenodd;fill:#2D8F37;}
	.st42{fill-rule:evenodd;clip-rule:evenodd;fill:#000FAA;}
	.st43{clip-path:url(#SVGID_8_);}
	.st44{clip-path:url(#SVGID_10_);fill-rule:evenodd;clip-rule:evenodd;fill:#F76401;}
	.st45{clip-path:url(#SVGID_12_);}
	.st46{clip-path:url(#SVGID_14_);fill:url(#SVGID_15_);}
	.st47{clip-path:url(#SVGID_12_);fill-rule:evenodd;clip-rule:evenodd;fill:#F7A8A5;}
	.st48{clip-path:url(#SVGID_12_);fill-rule:evenodd;clip-rule:evenodd;fill:#FFFFFF;}
	.st49{clip-path:url(#SVGID_17_);fill:url(#SVGID_18_);}
	.st50{clip-path:url(#SVGID_20_);fill:url(#SVGID_21_);}
	.st51{clip-path:url(#SVGID_12_);fill-rule:evenodd;clip-rule:evenodd;fill:#283C93;}
	.st52{clip-path:url(#SVGID_12_);fill-rule:evenodd;clip-rule:evenodd;fill:#EE412C;}
	.st53{clip-path:url(#SVGID_23_);fill:url(#SVGID_24_);}
	.st54{clip-path:url(#SVGID_12_);fill-rule:evenodd;clip-rule:evenodd;fill:#CC3829;}
	.st55{clip-path:url(#SVGID_12_);fill-rule:evenodd;clip-rule:evenodd;fill:#F48E97;}
	.st56{clip-path:url(#SVGID_26_);fill:url(#SVGID_27_);}
	.st57{clip-path:url(#SVGID_12_);fill-rule:evenodd;clip-rule:evenodd;fill:#EE4633;}
	.st58{clip-path:url(#SVGID_12_);fill-rule:evenodd;clip-rule:evenodd;fill:#FDDC0D;}
	.st59{clip-path:url(#SVGID_29_);fill:url(#SVGID_30_);}
	.st60{clip-path:url(#SVGID_32_);fill:url(#SVGID_33_);}
	.st61{clip-path:url(#SVGID_35_);fill:url(#SVGID_36_);}
	.st62{clip-path:url(#SVGID_38_);fill:url(#SVGID_39_);}
	.st63{fill-rule:evenodd;clip-rule:evenodd;fill:#562772;}
	.st64{clip-path:url(#SVGID_41_);}
	.st65{clip-path:url(#SVGID_43_);fill:url(#SVGID_44_);}
	.st66{clip-path:url(#SVGID_41_);fill-rule:evenodd;clip-rule:evenodd;fill:#F7A8A5;}
	.st67{clip-path:url(#SVGID_41_);fill-rule:evenodd;clip-rule:evenodd;fill:#FFFFFF;}
	.st68{clip-path:url(#SVGID_46_);fill:url(#SVGID_47_);}
	.st69{clip-path:url(#SVGID_49_);fill:url(#SVGID_50_);}
	.st70{clip-path:url(#SVGID_41_);fill-rule:evenodd;clip-rule:evenodd;fill:#283C93;}
	.st71{clip-path:url(#SVGID_41_);fill-rule:evenodd;clip-rule:evenodd;fill:#EE412C;}
	.st72{clip-path:url(#SVGID_52_);fill:url(#SVGID_53_);}
	.st73{clip-path:url(#SVGID_41_);fill-rule:evenodd;clip-rule:evenodd;fill:#CC3829;}
	.st74{clip-path:url(#SVGID_41_);fill-rule:evenodd;clip-rule:evenodd;fill:#F48E97;}
	.st75{clip-path:url(#SVGID_55_);fill:url(#SVGID_56_);}
	.st76{clip-path:url(#SVGID_41_);fill-rule:evenodd;clip-rule:evenodd;fill:#EE4633;}
	.st77{clip-path:url(#SVGID_41_);fill-rule:evenodd;clip-rule:evenodd;fill:#FDDC0D;}
	.st78{clip-path:url(#SVGID_58_);fill:url(#SVGID_59_);}
	.st79{clip-path:url(#SVGID_61_);fill:url(#SVGID_62_);}
	.st80{clip-path:url(#SVGID_64_);fill:url(#SVGID_65_);}
	.st81{clip-path:url(#SVGID_67_);fill:url(#SVGID_68_);}
	.st82{fill:#00937B;}
	.st83{fill-rule:evenodd;clip-rule:evenodd;fill:#00937B;}
	.st84{fill:#FFFFFF;}
</style>
<g>
	<path class="st28" d="M2.13,8.2l0,2.78c0,0.21,0.06,0.19,0.26,0.19c0.23,0,0.17-0.14,0.17-0.62c0-0.26-0.01-0.54,0-0.8
		c0.46,0,0.64,0.05,0.85,0.55c0.11,0.28,0.15,0.46,0.24,0.73c0.06,0.18,0.16,0.16,0.49,0.13c0.05-0.18-0.23-0.79-0.29-0.94
		C3.71,9.88,3.6,9.72,3.28,9.58c0.24-0.05,0.4-0.13,0.51-0.27C4.04,9,4.03,8.42,3.62,8.17c-0.32-0.2-0.9-0.14-1.31-0.14
		C2.16,8.03,2.13,8.03,2.13,8.2 M2.55,8.41l0.4,0c0.33,0,0.59,0.13,0.57,0.51C3.49,9.27,3.23,9.39,2.9,9.39l-0.35,0V8.41z"/>
	<path class="st28" d="M6.3,10.36c-0.07,0.13-0.21,0.2-0.19,0.44c0.04,0.61,1.09,0.13,1.26,0.48c0.19,0.39-0.32,0.52-0.63,0.48
		c-0.46-0.07-0.17-0.36-0.5-0.38c-0.13-0.01-0.16-0.02-0.24,0.04c-0.05,0.06-0.06,0.56,0.57,0.68c1.24,0.25,1.47-0.86,1.03-1.17
		c-0.36-0.26-0.77-0.05-1.09-0.19c-0.01-0.11,0.02-0.15,0.06-0.22c0.41,0.01,0.69,0.02,0.91-0.27c0.09-0.12,0.16-0.29,0.16-0.49
		c0.01-0.28-0.1-0.33-0.15-0.5c0.23-0.02,0.26-0.02,0.22-0.3C7.55,8.86,7.13,8.91,6.9,8.9C5.77,8.8,5.81,10.16,6.3,10.36 M6.63,9.24
		c0.17-0.07,0.5-0.08,0.57,0.28c0.06,0.28-0.01,0.58-0.21,0.66C6.31,10.45,6.23,9.39,6.63,9.24z"/>
	<path class="st28" d="M9.26,8.92c-1.08,0.32-0.8,2.62,0.5,2.24C10.78,10.87,10.57,8.53,9.26,8.92 M9.38,9.27
		c0.39-0.13,0.55,0.26,0.58,0.63c0.03,0.39-0.03,0.83-0.32,0.93c-0.42,0.14-0.58-0.25-0.6-0.64C9.02,9.78,9.07,9.37,9.38,9.27z"/>
	<path class="st28" d="M5.64,10.76c-0.27-0.04-1.02,0.43-1.08-0.61c1.27,0,1.28,0.11,1.24-0.34c-0.1-1.05-1-1.18-1.45-0.61
		C4.06,9.57,3.8,11.25,5.18,11.2C5.52,11.19,5.9,11.13,5.64,10.76 M4.57,9.83c-0.05-0.73,0.82-0.86,0.8,0L4.57,9.83z"/>
	<g>
		<path class="st28" d="M10.51,11.16c0.1,0.08,0.8,0.04,0.98,0.04c1.24-0.02,1.2-1.53,0.31-1.67c0.22-0.17,0.33-0.12,0.45-0.4
			c0.1-0.24,0.06-0.53-0.06-0.73c-0.25-0.43-0.77-0.36-1.34-0.36c-0.5,0-0.38-0.15-0.38,1.36l0,1.58
			C10.47,11.09,10.46,11.09,10.51,11.16 M10.9,8.4c0.44,0,0.97-0.09,0.96,0.48c-0.01,0.55-0.53,0.47-0.97,0.47L10.9,8.4z
			 M10.9,10.81l0-1.11c0.5,0,1.06-0.05,1.08,0.54C11.99,10.91,11.41,10.81,10.9,10.81z"/>
		<path class="st28" d="M17.13,9.9c0.06-0.12,0.24-0.35,0.33-0.47c0.11-0.15,0.29-0.35,0.28-0.49c-0.3-0.04-0.41-0.06-0.53,0.14
			c-0.06,0.09-0.1,0.16-0.16,0.25c-0.07,0.11-0.26,0.43-0.35,0.5c0-0.37,0-0.74,0-1.11c0-0.88,0.1-0.93-0.39-0.84
			c-0.04,0.55-0.01,2.46-0.01,3.15c0,0.15,0.03,0.17,0.17,0.17c0.28,0,0.23,0,0.23-0.49c0-0.22-0.01-0.47,0.01-0.7
			c0.06,0.05,0.49,0.8,0.59,0.97c0.08,0.14,0.08,0.22,0.28,0.22c0.35,0,0.38,0,0.19-0.3L17.13,9.9z"/>
		<path class="st28" d="M12.81,9.26c0.07,0.19,0.2,0.02,0.52,0.01c0.36-0.02,0.47,0.12,0.43,0.51c-0.3,0.03-0.63,0.01-0.87,0.14
			c-0.46,0.27-0.44,1.23,0.22,1.29c0.21,0.02,0.43-0.04,0.58-0.18c0.05-0.05,0.06-0.09,0.12-0.11c0.02,0.12,0.02,0.17,0.06,0.25
			c0.51,0.1,0.32-0.14,0.31-0.45c-0.03-0.9,0.2-1.72-0.62-1.83c-0.2-0.03-0.62,0.01-0.77,0.11C12.78,9.1,12.78,9.18,12.81,9.26
			 M13.77,10.09c0.01,0.31,0.03,0.47-0.14,0.64c-0.13,0.12-0.4,0.23-0.55,0.06c-0.12-0.14-0.1-0.47,0.06-0.6
			C13.27,10.08,13.57,10.09,13.77,10.09z"/>
		<path class="st28" d="M14.49,11.17c0.46,0.12,0.38-0.03,0.38-0.98c0-0.46,0.01-0.86,0.41-0.93c0.25-0.04,0.33,0.05,0.34,0.31
			l0,1.4c0,0.14-0.01,0.2,0.11,0.22c0.43,0.08,0.3-0.27,0.3-1c0-0.56,0.13-1.32-0.59-1.3c-0.29,0.01-0.46,0.17-0.59,0.3
			c-0.03-0.06-0.02-0.41-0.39-0.24c-0.04,0.28-0.01,0.81-0.01,1.13C14.45,10.35,14.4,11.01,14.49,11.17"/>
	</g>
	<path class="st28" d="M7.99,9.11c0,0.44-0.02,1.68,0.02,2.03c0.14,0.05,0.24,0.03,0.38,0.01c0.06-0.38,0.02-1.6,0.02-2.07
		c0-0.18-0.08-0.18-0.22-0.18C8,8.91,7.99,8.92,7.99,9.11"/>
	<path class="st28" d="M8.11,7.85C7.73,7.98,7.94,8.51,8.28,8.4C8.6,8.3,8.47,7.72,8.11,7.85"/>
</g>
</svg>
