<?xml version="1.0" encoding="utf-8"?>
<!-- Generator: Adobe Illustrator 23.0.0, SVG Export Plug-In . SVG Version: 6.00 Build 0)  -->
<svg version="1.1" id="Calque_1" xmlns="http://www.w3.org/2000/svg" xmlns:xlink="http://www.w3.org/1999/xlink" x="0px" y="0px"
	 viewBox="0 0 20 20" style="enable-background:new 0 0 20 20;" xml:space="preserve">
<style type="text/css">
	.st0{fill-rule:evenodd;clip-rule:evenodd;fill:#FFFFFF;stroke:#000000;stroke-width:0.1;stroke-miterlimit:10;}
	.st1{fill-rule:evenodd;clip-rule:evenodd;}
	.st2{fill:#FFFFFF;}
</style>
<path class="st0" d="M20,1v18c0,0.55-0.45,1-1,1H1c-0.55,0-1-0.45-1-1V1c0-0.55,0.45-1,1-1h18C19.55,0,20,0.45,20,1z"/>
<g>
	<path d="M8.13,11.48c-0.05-0.24-0.05-1-0.05-1c0-0.02,0-0.04,0-0.05c-0.01-0.31-0.01-0.54,0-0.73V8.84H11
		c0.17-0.01,0.35-0.01,0.52-0.03c0.93-0.12,1.62-0.94,1.68-1.89c0.05-0.9-0.59-1.84-1.46-2.07c-0.37-0.1-0.76-0.14-1.14-0.14
		C8.51,4.7,6.43,4.69,4.34,4.72c-0.1,0-0.17-0.01-0.25-0.02H3.54V2.11h3.87v0c1.33,0,2.67,0,4,0.02c2.35,0.05,4.23,1.72,4.56,3.93
		c0.34,2.31-0.92,4.38-3.18,5.17c-0.33,0.12-0.69,0.15-1.15,0.25c1.61,2.24,3.16,4.39,4.8,6.67c-1.23,0-3.49-0.01-3.49-0.01
		s-0.6-0.77-0.76-0.99c-1.31-1.79-3.89-5.37-3.89-5.37l-0.11-0.16L8.13,11.48z"/>
	<rect x="3.65" y="6.09" width="3.03" height="12.08"/>
</g>
</svg>
