<?xml version="1.0" encoding="utf-8"?>
<!-- Generator: Adobe Illustrator 23.0.0, SVG Export Plug-In . SVG Version: 6.00 Build 0)  -->
<svg version="1.1" id="Calque_1" xmlns="http://www.w3.org/2000/svg" xmlns:xlink="http://www.w3.org/1999/xlink" x="0px" y="0px"
	 viewBox="0 0 20 20" style="enable-background:new 0 0 20 20;" xml:space="preserve">
<style type="text/css">
	.st0{fill-rule:evenodd;clip-rule:evenodd;fill:#FFFFFF;}
	.st1{fill-rule:evenodd;clip-rule:evenodd;}
	.st2{clip-path:url(#SVGID_2_);}
	.st3{fill-rule:evenodd;clip-rule:evenodd;fill:#2F9B46;}
	.st4{fill-rule:evenodd;clip-rule:evenodd;fill:#60B54D;}
	.st5{fill-rule:evenodd;clip-rule:evenodd;fill:#89CC53;}
	.st6{fill-rule:evenodd;clip-rule:evenodd;fill:#3CB8AD;}
	.st7{fill-rule:evenodd;clip-rule:evenodd;fill:#3394D7;}
	.st8{fill:none;stroke:#3394D7;stroke-width:0.216;stroke-miterlimit:22.9256;}
	.st9{fill-rule:evenodd;clip-rule:evenodd;fill:#2772BC;}
	.st10{fill-rule:evenodd;clip-rule:evenodd;fill:#1B5B83;}
	.st11{fill-rule:evenodd;clip-rule:evenodd;fill:#993233;}
	.st12{fill-rule:evenodd;clip-rule:evenodd;fill:#E13030;}
	.st13{fill-rule:evenodd;clip-rule:evenodd;fill:#F28824;}
	.st14{fill-rule:evenodd;clip-rule:evenodd;fill:#F5C836;}
	.st15{fill-rule:evenodd;clip-rule:evenodd;fill:#238647;}
	.st16{fill-rule:evenodd;clip-rule:evenodd;fill:#E1000E;}
	.st17{fill-rule:evenodd;clip-rule:evenodd;fill:#009B89;}
	.st18{fill-rule:evenodd;clip-rule:evenodd;fill:#F9B800;}
	.st19{fill-rule:evenodd;clip-rule:evenodd;fill:#004D4D;}
	.st20{fill-rule:evenodd;clip-rule:evenodd;fill:#FF422E;}
	.st21{fill-rule:evenodd;clip-rule:evenodd;fill:#FF6500;}
	.st22{clip-path:url(#SVGID_4_);}
	.st23{fill-rule:evenodd;clip-rule:evenodd;fill:#FFFEFE;}
	.st24{fill:#FF6500;}
	.st25{fill:#071A57;}
	.st26{fill-rule:evenodd;clip-rule:evenodd;fill:#003C5D;}
	.st27{fill-rule:evenodd;clip-rule:evenodd;fill:#2D8F37;}
	.st28{fill-rule:evenodd;clip-rule:evenodd;fill:#000FAA;}
	.st29{clip-path:url(#SVGID_6_);}
	.st30{clip-path:url(#SVGID_8_);fill-rule:evenodd;clip-rule:evenodd;fill:#F76401;}
	.st31{clip-path:url(#SVGID_10_);}
	.st32{clip-path:url(#SVGID_12_);fill:url(#SVGID_13_);}
	.st33{clip-path:url(#SVGID_10_);fill-rule:evenodd;clip-rule:evenodd;fill:#F7A8A5;}
	.st34{clip-path:url(#SVGID_10_);fill-rule:evenodd;clip-rule:evenodd;fill:#FFFFFF;}
	.st35{clip-path:url(#SVGID_15_);fill:url(#SVGID_16_);}
	.st36{clip-path:url(#SVGID_18_);fill:url(#SVGID_19_);}
	.st37{clip-path:url(#SVGID_10_);fill-rule:evenodd;clip-rule:evenodd;fill:#283C93;}
	.st38{clip-path:url(#SVGID_10_);fill-rule:evenodd;clip-rule:evenodd;fill:#EE412C;}
	.st39{clip-path:url(#SVGID_21_);fill:url(#SVGID_22_);}
	.st40{clip-path:url(#SVGID_10_);fill-rule:evenodd;clip-rule:evenodd;fill:#CC3829;}
	.st41{clip-path:url(#SVGID_10_);fill-rule:evenodd;clip-rule:evenodd;fill:#F48E97;}
	.st42{clip-path:url(#SVGID_24_);fill:url(#SVGID_25_);}
	.st43{clip-path:url(#SVGID_10_);fill-rule:evenodd;clip-rule:evenodd;fill:#EE4633;}
	.st44{clip-path:url(#SVGID_10_);fill-rule:evenodd;clip-rule:evenodd;fill:#FDDC0D;}
	.st45{clip-path:url(#SVGID_27_);fill:url(#SVGID_28_);}
	.st46{clip-path:url(#SVGID_30_);fill:url(#SVGID_31_);}
	.st47{clip-path:url(#SVGID_33_);fill:url(#SVGID_34_);}
	.st48{clip-path:url(#SVGID_36_);fill:url(#SVGID_37_);}
	.st49{fill-rule:evenodd;clip-rule:evenodd;fill:#562772;}
	.st50{clip-path:url(#SVGID_39_);}
	.st51{clip-path:url(#SVGID_41_);fill:url(#SVGID_42_);}
	.st52{clip-path:url(#SVGID_39_);fill-rule:evenodd;clip-rule:evenodd;fill:#F7A8A5;}
	.st53{clip-path:url(#SVGID_39_);fill-rule:evenodd;clip-rule:evenodd;fill:#FFFFFF;}
	.st54{clip-path:url(#SVGID_44_);fill:url(#SVGID_45_);}
	.st55{clip-path:url(#SVGID_47_);fill:url(#SVGID_48_);}
	.st56{clip-path:url(#SVGID_39_);fill-rule:evenodd;clip-rule:evenodd;fill:#283C93;}
	.st57{clip-path:url(#SVGID_39_);fill-rule:evenodd;clip-rule:evenodd;fill:#EE412C;}
	.st58{clip-path:url(#SVGID_50_);fill:url(#SVGID_51_);}
	.st59{clip-path:url(#SVGID_39_);fill-rule:evenodd;clip-rule:evenodd;fill:#CC3829;}
	.st60{clip-path:url(#SVGID_39_);fill-rule:evenodd;clip-rule:evenodd;fill:#F48E97;}
	.st61{clip-path:url(#SVGID_53_);fill:url(#SVGID_54_);}
	.st62{clip-path:url(#SVGID_39_);fill-rule:evenodd;clip-rule:evenodd;fill:#EE4633;}
	.st63{clip-path:url(#SVGID_39_);fill-rule:evenodd;clip-rule:evenodd;fill:#FDDC0D;}
	.st64{clip-path:url(#SVGID_56_);fill:url(#SVGID_57_);}
	.st65{clip-path:url(#SVGID_59_);fill:url(#SVGID_60_);}
	.st66{clip-path:url(#SVGID_62_);fill:url(#SVGID_63_);}
	.st67{clip-path:url(#SVGID_65_);fill:url(#SVGID_66_);}
	.st68{fill:#00937B;}
	.st69{fill-rule:evenodd;clip-rule:evenodd;fill:#00937B;}
	.st70{fill:#FFFFFF;}
	.st71{fill:#89CC53;}
	.st72{fill:#3CB8AD;}
	.st73{fill:#3394D7;}
	.st74{fill:none;}
	.st75{fill:#2772BC;}
	.st76{fill:#1B5B83;}
	.st77{fill:#993233;}
	.st78{fill:#E13030;}
	.st79{fill:#F28824;}
	.st80{fill:#F5C836;}
	.st81{fill:#2F9B46;}
	.st82{fill:#60B54D;}
</style>
<path class="st0" d="M20,1v18c0,0.55-0.45,1-1,1H1c-0.55,0-1-0.45-1-1V1c0-0.55,0.45-1,1-1h18C19.55,0,20,0.45,20,1z"/>
<path class="st27" d="M12.86,2.02H7.14c-0.55,0-1,0.45-1,1v13.95c0,0.55,0.45,1,1,1h2.49v-3.24c0-0.06,0-0.13-0.02-0.18
	c-0.02-0.05-0.06-0.1-0.1-0.13c-0.23-0.17-0.47-0.35-0.69-0.53c-0.55-0.46-0.9-1.06-1.03-1.78c-0.05-0.29-0.05-0.58,0.06-0.87
	c0.05-0.13,0.13-0.27,0.22-0.37c0.1-0.12,0.12-0.24,0.06-0.39c-0.07-0.16-0.14-0.32-0.19-0.49c-0.08-0.24-0.1-0.51-0.03-0.77
	C7.97,9.05,8.06,8.9,8.22,8.8C8.25,8.78,8.27,8.76,8.3,8.74C8.38,8.67,8.41,8.6,8.37,8.48c-0.11-0.35-0.15-0.7-0.13-1.07
	c0.02-0.21,0.1-0.38,0.29-0.47C8.62,6.9,8.7,6.85,8.79,6.82c0.1-0.03,0.14-0.1,0.14-0.2c0-0.19,0-0.39,0.02-0.58
	c0.03-0.3,0.09-0.59,0.23-0.86c0.33-0.61,1.19-0.57,1.52-0.07c0.15,0.22,0.23,0.47,0.26,0.73C11,6.1,11.01,6.34,11.02,6.6
	c0.01,0.15,0.02,0.17,0.16,0.23c0.08,0.03,0.15,0.06,0.22,0.09c0.24,0.1,0.34,0.3,0.35,0.54c0.01,0.36-0.03,0.69-0.15,1.03
	c-0.03,0.1,0,0.17,0.07,0.23c0.02,0.02,0.05,0.04,0.07,0.05c0.3,0.18,0.39,0.46,0.39,0.79c0,0.3-0.11,0.56-0.22,0.83
	c-0.03,0.07-0.06,0.13-0.08,0.2c-0.03,0.09,0,0.18,0.07,0.24c0.23,0.22,0.32,0.51,0.34,0.83c0.02,0.68-0.24,1.28-0.66,1.8
	c-0.28,0.35-0.64,0.6-1.02,0.85c-0.03,0.02-0.05,0.04-0.08,0.05c-0.15,0.07-0.19,0.2-0.19,0.36v1.85c0,0.07,0,0.81-0.01,1.41h2.58
	c0.55,0,1-0.45,1-1V3.02C13.86,2.47,13.41,2.02,12.86,2.02z"/>
</svg>
