<?xml version="1.0" encoding="utf-8"?>
<!-- Generator: Adobe Illustrator 23.0.0, SVG Export Plug-In . SVG Version: 6.00 Build 0)  -->
<svg version="1.1" id="Calque_1" xmlns="http://www.w3.org/2000/svg" xmlns:xlink="http://www.w3.org/1999/xlink" x="0px" y="0px"
	 viewBox="0 0 72.14 72.14" style="enable-background:new 0 0 72.14 72.14;" xml:space="preserve">
<style type="text/css">
	.st0{fill-rule:evenodd;clip-rule:evenodd;fill:#225B58;}
	.st1{clip-path:url(#SVGID_2_);fill-rule:evenodd;clip-rule:evenodd;fill:#272727;}
	.st2{fill-rule:evenodd;clip-rule:evenodd;fill:#D91E4C;}
	.st3{fill-rule:evenodd;clip-rule:evenodd;fill:#144986;}
	.st4{fill:#FFFFFF;}
	.st5{fill-rule:evenodd;clip-rule:evenodd;fill:none;stroke:#EDEDEE;stroke-miterlimit:10;}
	.st6{fill:#FEBF10;}
	.st7{fill:none;}
	.st8{fill-rule:evenodd;clip-rule:evenodd;fill:#C2D830;}
	.st9{fill-rule:evenodd;clip-rule:evenodd;fill:#259FD9;}
	.st10{fill-rule:evenodd;clip-rule:evenodd;fill:#FFFFFF;}
	.st11{fill-rule:evenodd;clip-rule:evenodd;fill:#191A1A;}
	.st12{clip-path:url(#SVGID_4_);fill-rule:evenodd;clip-rule:evenodd;fill:#222222;}
	.st13{fill-rule:evenodd;clip-rule:evenodd;fill:#E92127;}
	.st14{fill-rule:evenodd;clip-rule:evenodd;fill:#F79E1F;}
	.st15{fill:#1E3A6A;}
	.st16{fill:#1D3A6A;}
	.st17{fill:#5BC4EB;}
	.st18{fill-rule:evenodd;clip-rule:evenodd;fill:#2675BB;}
	.st19{fill-rule:evenodd;clip-rule:evenodd;fill:#1A1A18;}
	.st20{fill-rule:evenodd;clip-rule:evenodd;fill:#0D523D;}
	.st21{fill-rule:evenodd;clip-rule:evenodd;fill:#010101;}
	.st22{fill-rule:evenodd;clip-rule:evenodd;fill:#CAD52B;}
</style>
<path class="st9" d="M5.1,0.03h61.94c2.81,0,5.1,3.07,5.1,6.83v58.41c0,3.76-2.3,6.83-5.1,6.83H5.1C2.3,72.1,0,69.03,0,65.27V6.86
	C0,3.11,2.3,0.03,5.1,0.03"/>
<g>
	<path class="st10" d="M36.07,9.97c-14.41,0-26.1,11.69-26.1,26.1c0,14.41,11.69,26.1,26.1,26.1c0.97,0,1.92-0.05,2.87-0.16v-4.4
		v-1.2v-5.13C45.59,50,50.78,44.37,51.7,37.33c0.26-2.02,0.28-3.21,0.28-5.28c0-1.54-1.26-2.8-2.8-2.8h0c-1.54,0-2.8,1.26-2.8,2.8
		v2.23c-0.2,6.45-4.74,11.61-10.32,11.61c-5.51,0-10.02-5.04-10.31-11.38V32.2c0-1.54-1.26-2.8-2.8-2.8h0c-1.54,0-2.8,1.26-2.8,2.8
		v2.63c0,0.88,0.07,1.41,0.17,2.28c0.85,7.22,6.18,12.98,13,14.21v5.11c-10.04-1.35-17.78-9.95-17.78-20.36
		c0-11.35,9.2-20.54,20.54-20.54c11.35,0,20.54,9.2,20.54,20.54c0,9.37-6.28,17.28-14.85,19.75v5.73
		c11.68-2.6,20.41-13.02,20.41-25.48C62.17,21.65,50.48,9.97,36.07,9.97z"/>
	<path class="st10" d="M36.23,30.39c-3.18,0-5.75,2.58-5.75,5.75c0,3.18,2.58,5.75,5.75,5.75c3.18,0,5.75-2.58,5.75-5.75
		C41.98,32.97,39.4,30.39,36.23,30.39z"/>
	<path class="st10" d="M35.95,19.67c-3.04,0-5.81,1.14-7.91,3.01l2.92,4.24c1.51-0.69,3.18-1.07,4.95-1.07
		c1.93,0,3.76,0.46,5.37,1.28l0.12-0.07l2.69-4.17C41.95,20.88,39.09,19.67,35.95,19.67z"/>
</g>
</svg>
